<svg xmlns="http://www.w3.org/2000/svg" xmlns:xlink="http://www.w3.org/1999/xlink" width="190" height="143.361" viewBox="0 0 190 143.361">
  <defs>
    <clipPath id="clip-path">
      <rect id="Rectángulo_403180" data-name="Rectángulo 403180" width="190" height="143.361" fill="none"/>
    </clipPath>
  </defs>
  <g id="Grupo_1100836" data-name="Grupo 1100836" transform="translate(-285 -4548.639)">
    <g id="Grupo_1100789" data-name="Grupo 1100789" transform="translate(285 4548.639)">
      <g id="Grupo_1100786" data-name="Grupo 1100786">
        <g id="Grupo_1100785" data-name="Grupo 1100785" clip-path="url(#clip-path)">
          <path id="Trazado_899309" data-name="Trazado 899309" d="M76.812,63.937c0,31.327,35.626,56.723,79.574,56.723s79.573-25.4,79.573-56.723S200.333,7.214,156.386,7.214,76.812,32.61,76.812,63.937" transform="translate(-50.552 -4.748)" fill="#f5f5ff"/>
        </g>
      </g>
      <g id="Grupo_1100788" data-name="Grupo 1100788">
        <g id="Grupo_1100787" data-name="Grupo 1100787" clip-path="url(#clip-path)">
          <path id="Trazado_899310" data-name="Trazado 899310" d="M0,388.961c0,3.086,16.263,5.588,36.325,5.588s36.325-2.5,36.325-5.588-16.263-5.588-36.325-5.588S0,385.875,0,388.961" transform="translate(0 -252.306)" fill="#dfdfeb"/>
          <path id="Trazado_899311" data-name="Trazado 899311" d="M87.967,392.23c0,3.086,29.38,5.588,65.623,5.588s65.623-2.5,65.623-5.588-29.38-5.588-65.623-5.588-65.623,2.5-65.623,5.588" transform="translate(-57.893 -254.457)" fill="#dfdfeb"/>
          <path id="Trazado_899312" data-name="Trazado 899312" d="M203.066.005A13.16,13.16,0,0,0,194.2,22.541a1.644,1.644,0,0,1,.472,1.446l-.975,5.768,6-3.494a1.618,1.618,0,0,1,1.132-.194A13.164,13.164,0,1,0,203.066.005" transform="translate(-125.221 0)" fill="#d3ddf7"/>
          <path id="Trazado_899313" data-name="Trazado 899313" d="M220.349,31.614l-.037-3.147a6.5,6.5,0,0,0,1.257-.438,4.768,4.768,0,0,0,1-.624,3.578,3.578,0,0,0,.717-.791,3.519,3.519,0,0,0,.438-.94,3.725,3.725,0,0,0,.149-1.062,3.074,3.074,0,0,0-.391-1.508,3.04,3.04,0,0,0-1.117-1.145,3.29,3.29,0,0,0-1.732-.438,3.619,3.619,0,0,0-2,.6,3.719,3.719,0,0,0-1.406,2.03l-.335-.223a3.936,3.936,0,0,1,1.434-2.085,3.811,3.811,0,0,1,2.29-.726,3.87,3.87,0,0,1,1.928.466,3.408,3.408,0,0,1,1.294,1.257,3.444,3.444,0,0,1,.466,1.778,3.846,3.846,0,0,1-.251,1.4,4.14,4.14,0,0,1-.708,1.192,4.535,4.535,0,0,1-1.108.94,5.184,5.184,0,0,1-1.471.605l-.037,2.868Zm-.223,2.346a.609.609,0,0,1,.13-.4.506.506,0,0,1,.727-.009.669.669,0,0,1,.111.41.651.651,0,0,1-.121.391.419.419,0,0,1-.363.168.441.441,0,0,1-.363-.149.631.631,0,0,1-.121-.41" transform="translate(-142.737 -13.894)"/>
          <path id="Trazado_899314" data-name="Trazado 899314" d="M104.286,376.714l.584,4.4s10.947,4.663,9.932,4.731-16.747-.948-16.747-.948l.926-7.99Z" transform="translate(-64.532 -247.924)"/>
          <path id="Trazado_899315" data-name="Trazado 899315" d="M101.483,166.349s-.872,8.4-1.526,8.833a5.674,5.674,0,0,1-1.527.654l1.418-9.6Z" transform="translate(-64.779 -109.406)" fill="none" stroke="#424242" stroke-miterlimit="10" stroke-width="1"/>
          <path id="Trazado_899316" data-name="Trazado 899316" d="M50.282,149.677s-4.437,10.019-3.149,15.6l24.6-3.752-.513-10.409Z" transform="translate(-30.865 -98.506)"/>
          <path id="Trazado_899317" data-name="Trazado 899317" d="M96.556,183.907s.139,24.039.31,32.415,1.636,34.24,1.636,34.24a11.6,11.6,0,0,1-9.377.486c-.383-.164-4.5-67.365-4.5-67.365Z" transform="translate(-55.691 -120.885)"/>
          <path id="Trazado_899318" data-name="Trazado 899318" d="M28.8,185.068l-10.379,66.1a8.223,8.223,0,0,0,10.258.382l10.554-53.99,5.125-3.441.763-9.849Z" transform="translate(-12.121 -121.271)"/>
          <path id="Trazado_899319" data-name="Trazado 899319" d="M30.169,373.334l.945,3.8s6.906,8.306,5.889,8.306S24.644,380.3,24.644,380.3l1.454-7.911Z" transform="translate(-16.219 -245.075)"/>
          <path id="Trazado_899320" data-name="Trazado 899320" d="M37.916,161.54s-6.541,27.5-11.4,76.053" transform="translate(-17.449 -106.313)" fill="none" stroke="#424242" stroke-miterlimit="10" stroke-width="1"/>
          <path id="Trazado_899321" data-name="Trazado 899321" d="M61.045,170.192s-2.29,5.725-6.2,5.821" transform="translate(-36.093 -112.007)" fill="none" stroke="#424242" stroke-miterlimit="10" stroke-width="1"/>
          <path id="Trazado_899322" data-name="Trazado 899322" d="M94.839,265.755l-3.347-56.9,3.269-3.428" transform="translate(-60.213 -135.197)" fill="none" stroke="#424242" stroke-miterlimit="10" stroke-width="1"/>
          <path id="Trazado_899323" data-name="Trazado 899323" d="M67.406,64.323c1.7-.348,2.944-.6,2.944-.6l10.615,5.8.054.03c3.478,1.919,5.016,5.176,4.924,9.739l.516,6.611-5.752-4.668-4.863,9.377-3.088,11.07c-16.48,5.992-22.881-4.767-22.881-4.767l5.46-11.82L57.54,74.178c1.048-5.6,4.283-8.711,9.866-9.854" transform="translate(-32.823 -41.939)" fill="#9ec68a"/>
          <path id="Trazado_899324" data-name="Trazado 899324" d="M189.864,145.576a9.152,9.152,0,0,0,5.864-2.125l4.566-3.81a8.715,8.715,0,0,1,5.594-2.105h22.659a3.723,3.723,0,0,1,3.723,3.723v82.032a6.425,6.425,0,0,1-6.425,6.425H112.891a5,5,0,0,1-5-5V150.573a5,5,0,0,1,5-5Z" transform="translate(-71.007 -90.515)" fill="#333969"/>
          <path id="Trazado_899325" data-name="Trazado 899325" d="M107.794,261.365s7.687-14.42,8.456-16.075l21.009-42.8a3.222,3.222,0,0,1,2.922-1.865h78.071a16.588,16.588,0,0,0,9.122-3.306l3.15-2.629a8.715,8.715,0,0,1,5.594-2.106h21.563a3.222,3.222,0,0,1,2.977,4.453L234.584,260.1a9.453,9.453,0,0,1-8.735,5.841H109.2a1.482,1.482,0,0,1-1.462-1.412Z" transform="translate(-70.907 -126.744)" fill="#147a8f"/>
          <line id="Línea_666" data-name="Línea 666" x1="30.828" y2="59.927" transform="translate(37.814 77.95)" fill="none" stroke="#000" stroke-linejoin="round" stroke-width="1"/>
          <path id="Trazado_899326" data-name="Trazado 899326" d="M233.851,250.183h26.555a2.126,2.126,0,0,0,1.787-.966,2.085,2.085,0,0,0-1.787-3.205H233.851a2.126,2.126,0,0,0-1.787.966A2.085,2.085,0,0,0,233.851,250.183Z" transform="translate(-152.507 -161.905)" fill="none" stroke="#000" stroke-linejoin="round" stroke-width="1"/>
          <line id="Línea_667" data-name="Línea 667" x1="20.676" y2="12.318" transform="translate(110.344 108.874)" fill="none" stroke="#000" stroke-linecap="round" stroke-linejoin="round" stroke-width="1"/>
          <line id="Línea_668" data-name="Línea 668" x2="12.992" y2="12.986" transform="translate(114.115 108.281)" fill="none" stroke="#000" stroke-linecap="round" stroke-linejoin="round" stroke-width="1"/>
          <path id="Trazado_899327" data-name="Trazado 899327" d="M317.557,303.019c-7.6,3.755-10.749,11.256-7.041,16.754s12.874,6.912,20.471,3.158,10.749-11.256,7.041-16.754S325.154,299.264,317.557,303.019Z" transform="translate(-203.334 -198.041)" fill="none" stroke="#000" stroke-linecap="round" stroke-linejoin="round" stroke-width="1"/>
          <path id="Trazado_899328" data-name="Trazado 899328" d="M115.622,147.222l3.834,4.306s-3.6,4.244-7.25,1.73l-.586-.841Z" transform="translate(-73.46 -96.89)" fill="#9ec68a"/>
          <path id="Trazado_899329" data-name="Trazado 899329" d="M97.267,72.077s5.253,1.376,1.12,16.563" transform="translate(-64.014 -47.435)" fill="none" stroke="#000" stroke-linecap="round" stroke-miterlimit="10" stroke-width="1"/>
          <path id="Trazado_899330" data-name="Trazado 899330" d="M108.192,129.386c-2.836-3.187-6.3-7.191-8.351-9.951" transform="translate(-65.708 -78.603)" fill="none" stroke="#000" stroke-linecap="round" stroke-miterlimit="10" stroke-width="1"/>
          <path id="Trazado_899331" data-name="Trazado 899331" d="M89.423,121.052c-2.722-2.79-6.4-6.763-8.006-8.235-2.5-2.294-5.1-5.986-4.252-10.728l-.1-3.8" transform="translate(-50.677 -64.684)" fill="none" stroke="#000" stroke-linecap="round" stroke-miterlimit="10" stroke-width="1"/>
          <path id="Trazado_899332" data-name="Trazado 899332" d="M142.323,121.156a18.243,18.243,0,0,1-6.189-5.716c-3.084-3.965-4.176-4.456-3.273-9.07l.05-4.829,6.69,7.24c2.555,3.389,8.445,9.465,10.621,11.858,0,0-2.554,3.4-7.9.517" transform="translate(-87.237 -66.826)" fill="#9ec68a"/>
          <path id="Trazado_899333" data-name="Trazado 899333" d="M115.747,155.164a2.559,2.559,0,0,1,.946-.077c1.148.122,4.222.444,4.569.449.427.006.775-.632,1.692,1.68s.752,2.528.747,2.83-.67,4.743-1.385,4.076-.618-1.055-.618-1.055-.385,1.8-.588,1.734-.954-.072-.833-1.345c0,0-.41,1.238-.832.93s-.328-1.646-.328-1.646-.452,1-.968.334-.131-2.224-.131-2.224l-.433-1.154-.936-.4s-3.15.824-3.692-1.362c-.416-1.68,1.76-2.483,2.79-2.765" transform="translate(-74.305 -102.057)" fill="#db9c7f"/>
          <path id="Trazado_899334" data-name="Trazado 899334" d="M139.009,163.631l.591,2.485-.977,2.582" transform="translate(-91.231 -107.689)" fill="none" stroke="#000" stroke-linecap="round" stroke-miterlimit="10" stroke-width="1"/>
          <path id="Trazado_899335" data-name="Trazado 899335" d="M134.754,163.362l.766,2.547-1.055,3" transform="translate(-88.494 -107.512)" fill="none" stroke="#000" stroke-linecap="round" stroke-miterlimit="10" stroke-width="1"/>
          <path id="Trazado_899336" data-name="Trazado 899336" d="M131.289,164.194l.446,2.449-.511,1.835" transform="translate(-86.362 -108.059)" fill="none" stroke="#000" stroke-linecap="round" stroke-miterlimit="10" stroke-width="1"/>
          <path id="Trazado_899337" data-name="Trazado 899337" d="M120.052,26.071a3.517,3.517,0,0,0-1.134,2.318,2.17,2.17,0,0,0-.859-.627" transform="translate(-77.697 -17.158)" fill="none" stroke="#000" stroke-linecap="round" stroke-miterlimit="10" stroke-width="1"/>
          <path id="Trazado_899338" data-name="Trazado 899338" d="M167.363,153.031a4.586,4.586,0,0,1,3.157.415c1.28.656,3.28,1.672,3.541,1.75.387.116.64-.094.691,2.258a8.406,8.406,0,0,1-.065,1.845c-.083.274-1.962,3.081-2.579,2.686l-.044-.03a4.129,4.129,0,0,1-.572.643c-.154.132-1.012.114-.574-1.013,0,0-.595,1.3-1.057,1.129-.6-.226-.5-.806-.285-1.3-.28.378-.627.686-.873.359-.484-.642.612-2.925.612-2.925l.128-1.383-.836-.748s-2.989.073-2.916-2.056c.033-.976.825-1.429,1.673-1.634" transform="translate(-109.044 -100.636)" fill="#db9c7f"/>
          <path id="Trazado_899339" data-name="Trazado 899339" d="M186.158,163.678l-.038,2.522-1.84,2.677" transform="translate(-121.279 -107.72)" fill="none" stroke="#000" stroke-linecap="round" stroke-miterlimit="10" stroke-width="1"/>
          <path id="Trazado_899340" data-name="Trazado 899340" d="M182.684,163.736l-.144,2.6-1.554,2.373" transform="translate(-119.111 -107.758)" fill="none" stroke="#000" stroke-linecap="round" stroke-miterlimit="10" stroke-width="1"/>
          <path id="Trazado_899341" data-name="Trazado 899341" d="M179.161,163.935l-.186,2.189-1.326,2.2" transform="translate(-116.914 -107.889)" fill="none" stroke="#000" stroke-linecap="round" stroke-miterlimit="10" stroke-width="1"/>
          <path id="Trazado_899342" data-name="Trazado 899342" d="M167.553,159.374s.3,2.257-.428,2.752-1.9-4.171-1.1-4.231c1.184-.088,1.523,1.479,1.523,1.479" transform="translate(-109.088 -103.912)" fill="#db9c7f"/>
          <path id="Trazado_899343" data-name="Trazado 899343" d="M172.121,161.274a1.235,1.235,0,0,0-.931.967" transform="translate(-112.664 -106.138)" fill="none" stroke="#000" stroke-linecap="round" stroke-miterlimit="10" stroke-width="1"/>
          <path id="Trazado_899344" data-name="Trazado 899344" d="M132.792,103.63l3.521-4.589a8.878,8.878,0,0,0,1.074-8.761" transform="translate(-87.393 -59.415)" fill="none" stroke="#000" stroke-linecap="round" stroke-miterlimit="10" stroke-width="1"/>
          <path id="Trazado_899345" data-name="Trazado 899345" d="M151.982,124.882s-2.075-2.876-2.546-1.6" transform="translate(-98.347 -80.919)" fill="none" stroke="#000" stroke-linecap="round" stroke-miterlimit="10" stroke-width="1"/>
          <line id="Línea_669" data-name="Línea 669" x1="0.597" y1="0.126" transform="translate(53.839 19.901)" fill="none" stroke="#fff" stroke-miterlimit="10" stroke-width="1"/>
          <path id="Trazado_899346" data-name="Trazado 899346" d="M114.188,56.953l-4.424,2.315a12.433,12.433,0,0,0,4.852,9.241l2.231-2.168,2.248,2.249s.855-.672,1.11-3.72l-.4-3.7Z" transform="translate(-72.238 -37.482)" fill="#fff"/>
          <path id="Trazado_899347" data-name="Trazado 899347" d="M119.806,61.17l-5.616-4.216-4.424,2.315" transform="translate(-72.239 -37.482)" fill="none" stroke="#000" stroke-linecap="round" stroke-linejoin="round" stroke-width="1"/>
          <path id="Trazado_899348" data-name="Trazado 899348" d="M118.948,48.144s1.368,8,3.393,8.565,3.288-3.433,3.288-3.433l-3.921-10.918Z" transform="translate(-78.282 -27.877)" fill="#db9c7f"/>
          <path id="Trazado_899349" data-name="Trazado 899349" d="M129.085,62.731l.024.994c.018.01-.04.307-1.026.42-4.332-.129-4.675-5-5.028-8.882,0,0,6.43,6.693,6.03,7.467" transform="translate(-80.985 -36.37)"/>
          <path id="Trazado_899350" data-name="Trazado 899350" d="M135.288,36.087s1.113,10.137-4.834,11.785-7.371-8.05-7.166-11.4,1.88-5.01,6.048-5.16c6.166-.223,5.952,4.78,5.952,4.78" transform="translate(-81.126 -20.599)" fill="#db9c7f"/>
          <path id="Trazado_899351" data-name="Trazado 899351" d="M123.3,29.226s-.111,2.131-1.525,2.556l-1.017,3.133a6.145,6.145,0,0,0-1.788-1.886s-1.034-4.138.268-5.782,3.111-2.478,7.488-2.114a7.588,7.588,0,0,1,5.917,3.843,1.951,1.951,0,0,1-.463,2.551,3.168,3.168,0,0,0-.668-1.749s-1.6,3.261-8.211-.552" transform="translate(-78.039 -16.486)"/>
          <path id="Trazado_899352" data-name="Trazado 899352" d="M115.463,49.876c.366,1.338,1.419,2.222,2.35,1.975s1.389-1.531,1.023-2.869-1.419-2.222-2.35-1.975-1.389,1.531-1.023,2.869" transform="translate(-75.906 -30.909)" fill="#db9c7f"/>
          <path id="Trazado_899353" data-name="Trazado 899353" d="M140.784,55.622c-.017.345.147.633.366.644s.41-.259.427-.6-.147-.633-.366-.644-.41.259-.427.6" transform="translate(-92.652 -36.209)"/>
          <path id="Trazado_899354" data-name="Trazado 899354" d="M154.192,56.559c-.034.323.1.6.3.623s.384-.224.418-.546-.1-.6-.3-.623-.384.224-.418.547" transform="translate(-101.473 -36.862)"/>
          <path id="Trazado_899355" data-name="Trazado 899355" d="M136.957,46.577s1.575.337,1.68-1.157" transform="translate(-90.134 -29.892)" fill="none" stroke="#000" stroke-linecap="round" stroke-miterlimit="10" stroke-width="1"/>
          <path id="Trazado_899356" data-name="Trazado 899356" d="M152.567,48.445s.4,1.388,1.585.585" transform="translate(-100.408 -31.883)" fill="none" stroke="#000" stroke-linecap="round" stroke-miterlimit="10" stroke-width="1"/>
          <path id="Trazado_899357" data-name="Trazado 899357" d="M135.88,70.57s-.52-2.116-2.131-.9Z" transform="translate(-88.023 -45.602)"/>
          <path id="Trazado_899358" data-name="Trazado 899358" d="M118.441,51.6s1.048-.9,1.62.747c0,0-.612.65-.226,1.16a.846.846,0,0,1-.9-.4" transform="translate(-77.949 -33.796)" fill="none" stroke="#000" stroke-linecap="round" stroke-linejoin="round" stroke-width="1"/>
          <path id="Trazado_899359" data-name="Trazado 899359" d="M119.768,52.406a1.629,1.629,0,0,1,.465-.784" transform="translate(-78.822 -33.974)" fill="none" stroke="#000" stroke-linecap="round" stroke-linejoin="round" stroke-width="1"/>
          <ellipse id="Elipse_11549" data-name="Elipse 11549" cx="1.344" cy="1.773" rx="1.344" ry="1.773" transform="translate(51.809 17.872)" fill="none" stroke="#fff" stroke-miterlimit="10" stroke-width="1"/>
          <path id="Trazado_899360" data-name="Trazado 899360" d="M136.826,53.135a1.719,1.719,0,1,0,1.711-1.879A1.8,1.8,0,0,0,136.826,53.135Z" transform="translate(-90.048 -33.733)" fill="none" stroke="#fff" stroke-miterlimit="10" stroke-width="1"/>
          <path id="Trazado_899361" data-name="Trazado 899361" d="M148.321,57.377s-.416-1.766-1.766-.125" transform="translate(-96.451 -37.219)" fill="none" stroke="#fff" stroke-miterlimit="10" stroke-width="1"/>
          <line id="Línea_670" data-name="Línea 670" x1="3.976" y1="0.896" transform="translate(42.838 17.795)" fill="none" stroke="#fff" stroke-miterlimit="10" stroke-width="1"/>
          <path id="Trazado_899362" data-name="Trazado 899362" d="M148.494,61.247a.907.907,0,0,1,.138.87.759.759,0,0,1-.75.5,1.588,1.588,0,0,1-.442-.089c-.063-.019-.187-.087-.255-.057-.328.145-.71-.141-.6-.365" transform="translate(-96.458 -40.308)" fill="none" stroke="#000" stroke-linecap="round" stroke-miterlimit="10" stroke-width="1"/>
        </g>
      </g>
    </g>
  </g>
</svg>
