<svg xmlns="http://www.w3.org/2000/svg" xmlns:xlink="http://www.w3.org/1999/xlink" width="190" height="469" viewBox="0 0 190 469">
  <defs>
    <clipPath id="clip-path">
      <rect id="Rectángulo_403192" data-name="Rectángulo 403192" width="149.668" height="468.733" fill="none"/>
    </clipPath>
    <clipPath id="clip-path-2">
      <path id="Trazado_899425" data-name="Trazado 899425" d="M51.665,2.3,35,8.8A10.354,10.354,0,0,0,29.129,22.17L59.593,100.3a10.354,10.354,0,0,0,13.37,5.869l16.667-6.5A10.355,10.355,0,0,0,95.5,86.3L65.035,8.17A10.364,10.364,0,0,0,55.388,1.6a10.218,10.218,0,0,0-3.723.7" transform="translate(-28.427 -1.599)" fill="none"/>
    </clipPath>
    <clipPath id="clip-path-4">
      <rect id="Rectángulo_403203" data-name="Rectángulo 403203" width="62.896" height="45.035" transform="translate(0 0)" fill="none"/>
    </clipPath>
    <clipPath id="clip-path-5">
      <rect id="Rectángulo_403208" data-name="Rectángulo 403208" width="53.254" height="53.211" transform="translate(0 -0.001)" fill="none"/>
    </clipPath>
  </defs>
  <g id="Grupo_1100834" data-name="Grupo 1100834" transform="translate(-1125.051 -5476)">
    <g id="Grupo_1100832" data-name="Grupo 1100832">
      <g id="Grupo_1100817" data-name="Grupo 1100817" transform="translate(1140.09 5476.267)">
        <path id="Trazado_899393" data-name="Trazado 899393" d="M74.254,499.355l71.615.894-12.99-267.868-47.81-.6Z" transform="translate(-10.365 -32.356)" fill="#eaaf88"/>
        <g id="Grupo_1100812" data-name="Grupo 1100812">
          <g id="Grupo_1100811" data-name="Grupo 1100811" clip-path="url(#clip-path)">
            <path id="Trazado_899394" data-name="Trazado 899394" d="M92.241,180.933s7.558-13.224-2.419-22.363-8.655,10.144-9.78,15.449-6.956,26.648-1.389,37.005,11.523,15.615,11.523,15.615,7.752,23.289,21.552,19.908,26.451-26.1,25.747-39.748S113,179.912,106.813,178.567s-14.573,2.366-14.573,2.366" transform="translate(-10.648 -21.797)" fill="#f0bf9c"/>
            <path id="Trazado_899395" data-name="Trazado 899395" d="M98.284,196.645c.23.673,1.534,14.07-.178,23.132-1.551,8.213-2.959,10.576-2.959,10.576s12.206-4.913,19.3-5.23c-2.518-16.848-7.666-27.323-7.666-27.323Z" transform="translate(-13.282 -27.45)" fill="#d8876a"/>
            <path id="Trazado_899396" data-name="Trazado 899396" d="M75.72,119.929l45.811,104.4,15.628-6.093L97.693,107.366Z" transform="translate(-10.57 -14.988)" fill="#494963"/>
            <path id="Trazado_899397" data-name="Trazado 899397" d="M89.63,99.672l-16.667,6.5a10.355,10.355,0,0,1-13.37-5.869L29.128,22.17A10.355,10.355,0,0,1,35,8.8L51.664,2.3A10.356,10.356,0,0,1,65.035,8.17L95.5,86.3a10.355,10.355,0,0,1-5.869,13.37" transform="translate(-3.968 -0.223)" fill="#828692"/>
          </g>
        </g>
        <g id="Grupo_1100814" data-name="Grupo 1100814" transform="translate(24.459 1.376)">
          <g id="Grupo_1100813" data-name="Grupo 1100813" clip-path="url(#clip-path-2)">
            <path id="Trazado_899398" data-name="Trazado 899398" d="M54.974,42.89a.417.417,0,0,1-.388-.265L38.187.568a.417.417,0,0,1,.777-.3l16.4,42.057a.416.416,0,0,1-.237.539.407.407,0,0,1-.151.028" transform="translate(-29.785 -1.376)" fill="#a3a3ef"/>
            <path id="Trazado_899399" data-name="Trazado 899399" d="M2.678,25.85a.416.416,0,0,1-.152-.8l42.057-16.4a.417.417,0,0,1,.3.778L2.829,25.823a.4.4,0,0,1-.151.028" transform="translate(-24.774 -2.579)" fill="#a3a3ef"/>
            <path id="Trazado_899400" data-name="Trazado 899400" d="M.417,32.213a.416.416,0,0,1-.151-.8l42.057-16.4a.417.417,0,0,1,.3.777L.569,32.186a.406.406,0,0,1-.151.028" transform="translate(-24.459 -3.467)" fill="#a3a3ef"/>
            <path id="Trazado_899401" data-name="Trazado 899401" d="M7.576,38.416a.417.417,0,0,1-.151-.805l42.057-16.4a.417.417,0,0,1,.3.777L7.728,38.388a.407.407,0,0,1-.151.028" transform="translate(-25.458 -4.333)" fill="#a3a3ef"/>
            <path id="Trazado_899402" data-name="Trazado 899402" d="M4.74,43.3a.417.417,0,0,1-.151-.805L46.646,26.1a.417.417,0,0,1,.3.777L4.892,43.274a.407.407,0,0,1-.151.028" transform="translate(-25.062 -5.015)" fill="#a3a3ef"/>
            <path id="Trazado_899403" data-name="Trazado 899403" d="M3.864,47.425a.417.417,0,0,1-.151-.805l42.057-16.4a.417.417,0,0,1,.3.777L4.016,47.4a.407.407,0,0,1-.151.028" transform="translate(-24.94 -5.591)" fill="#a3a3ef"/>
            <path id="Trazado_899404" data-name="Trazado 899404" d="M12.154,51.754A.417.417,0,0,1,12,50.949L54.06,34.55a.417.417,0,0,1,.3.777l-42.057,16.4a.407.407,0,0,1-.151.028" transform="translate(-26.097 -6.195)" fill="#a3a3ef"/>
            <path id="Trazado_899405" data-name="Trazado 899405" d="M10.145,57.163a.417.417,0,0,1-.151-.805l42.057-16.4a.417.417,0,0,1,.3.777L10.3,57.135a.407.407,0,0,1-.151.028" transform="translate(-25.817 -6.95)" fill="#a3a3ef"/>
            <path id="Trazado_899406" data-name="Trazado 899406" d="M6.844,72.521a.417.417,0,0,1-.151-.805l42.057-16.4a.417.417,0,0,1,.3.777L7,72.493a.407.407,0,0,1-.151.028" transform="translate(-25.356 -9.094)" fill="#a3a3ef"/>
            <path id="Trazado_899407" data-name="Trazado 899407" d="M6.056,78.493a.417.417,0,0,1-.151-.805l42.057-16.4a.417.417,0,0,1,.3.777L6.208,78.465a.407.407,0,0,1-.151.028" transform="translate(-25.246 -9.927)" fill="#a3a3ef"/>
            <path id="Trazado_899408" data-name="Trazado 899408" d="M53.065,49.3a.416.416,0,0,1-.388-.265L36.278,6.977a.417.417,0,1,1,.776-.3l16.4,42.057a.416.416,0,0,1-.237.539.407.407,0,0,1-.151.028" transform="translate(-29.519 -2.27)" fill="#a3a3ef"/>
            <path id="Trazado_899409" data-name="Trazado 899409" d="M46.349,46.254a.417.417,0,0,1-.388-.265L29.562,3.932a.417.417,0,0,1,.777-.3l16.4,42.057a.416.416,0,0,1-.237.539.407.407,0,0,1-.151.028" transform="translate(-28.581 -1.845)" fill="#a3a3ef"/>
            <path id="Trazado_899410" data-name="Trazado 899410" d="M47.533,63.145a.417.417,0,0,1-.388-.265l-16.4-42.057a.417.417,0,0,1,.777-.3l16.4,42.057a.416.416,0,0,1-.237.539.407.407,0,0,1-.151.028" transform="translate(-28.747 -4.203)" fill="#a3a3ef"/>
            <path id="Trazado_899411" data-name="Trazado 899411" d="M101,132.738a.416.416,0,0,1-.388-.265l-16.4-42.058a.417.417,0,1,1,.776-.3l16.4,42.058a.416.416,0,0,1-.237.539.407.407,0,0,1-.151.028" transform="translate(-36.21 -13.918)" fill="#a3a3ef"/>
            <path id="Trazado_899412" data-name="Trazado 899412" d="M90.677,128.282a.417.417,0,0,1-.151-.805l42.057-16.4a.417.417,0,0,1,.3.776l-42.058,16.4a.407.407,0,0,1-.151.028" transform="translate(-37.059 -16.878)" fill="#a3a3ef"/>
            <path id="Trazado_899413" data-name="Trazado 899413" d="M92.937,121.92a.417.417,0,0,1-.151-.805l42.058-16.4a.417.417,0,0,1,.3.777l-42.057,16.4a.407.407,0,0,1-.151.028" transform="translate(-37.374 -15.99)" fill="#a3a3ef"/>
            <path id="Trazado_899414" data-name="Trazado 899414" d="M85.777,115.717a.417.417,0,0,1-.151-.805l42.057-16.4a.417.417,0,1,1,.3.776l-42.057,16.4a.407.407,0,0,1-.151.028" transform="translate(-36.375 -15.124)" fill="#a3a3ef"/>
            <path id="Trazado_899415" data-name="Trazado 899415" d="M88.613,110.831a.417.417,0,0,1-.151-.805l42.058-16.4a.417.417,0,0,1,.3.777L88.765,110.8a.407.407,0,0,1-.151.028" transform="translate(-36.77 -14.442)" fill="#a3a3ef"/>
            <path id="Trazado_899416" data-name="Trazado 899416" d="M89.489,106.709a.417.417,0,0,1-.151-.805l42.057-16.4a.417.417,0,0,1,.3.777l-42.058,16.4a.407.407,0,0,1-.151.028" transform="translate(-36.893 -13.866)" fill="#a3a3ef"/>
            <path id="Trazado_899417" data-name="Trazado 899417" d="M81.2,102.379a.417.417,0,0,1-.151-.805l42.057-16.4a.417.417,0,0,1,.3.777l-42.057,16.4a.407.407,0,0,1-.151.028" transform="translate(-35.736 -13.262)" fill="#a3a3ef"/>
            <path id="Trazado_899418" data-name="Trazado 899418" d="M83.209,96.97a.417.417,0,0,1-.151-.805l42.057-16.4a.417.417,0,0,1,.3.776l-42.057,16.4a.407.407,0,0,1-.151.028" transform="translate(-36.016 -12.507)" fill="#a3a3ef"/>
            <path id="Trazado_899419" data-name="Trazado 899419" d="M86.509,81.612a.417.417,0,0,1-.151-.805l42.057-16.4a.417.417,0,1,1,.3.776l-42.057,16.4a.407.407,0,0,1-.151.028" transform="translate(-36.477 -10.363)" fill="#a3a3ef"/>
            <path id="Trazado_899420" data-name="Trazado 899420" d="M87.3,75.64a.417.417,0,0,1-.151-.805l42.057-16.4a.417.417,0,0,1,.3.777L87.45,75.612a.407.407,0,0,1-.151.028" transform="translate(-36.587 -9.529)" fill="#a3a3ef"/>
            <path id="Trazado_899421" data-name="Trazado 899421" d="M96.248,152.383a.415.415,0,0,1-.388-.264l-16.4-42.058a.417.417,0,0,1,.777-.3l16.4,42.057a.416.416,0,0,1-.237.539.406.406,0,0,1-.151.028" transform="translate(-35.547 -16.66)" fill="#a3a3ef"/>
            <path id="Trazado_899422" data-name="Trazado 899422" d="M93.929,158.14a.417.417,0,0,1-.388-.265l-16.4-42.058a.417.417,0,0,1,.777-.3l16.4,42.057a.416.416,0,0,1-.237.539.407.407,0,0,1-.151.028" transform="translate(-35.223 -17.464)" fill="#a3a3ef"/>
            <path id="Trazado_899423" data-name="Trazado 899423" d="M109.623,129.375a.417.417,0,0,1-.388-.265l-16.4-42.057a.417.417,0,0,1,.777-.3l16.4,42.057a.416.416,0,0,1-.237.539.407.407,0,0,1-.151.028" transform="translate(-37.414 -13.449)" fill="#a3a3ef"/>
            <path id="Trazado_899424" data-name="Trazado 899424" d="M108.441,112.484a.416.416,0,0,1-.388-.265l-16.4-42.057a.417.417,0,1,1,.776-.3l16.4,42.057a.416.416,0,0,1-.237.539.407.407,0,0,1-.151.028" transform="translate(-37.249 -11.091)" fill="#a3a3ef"/>
          </g>
        </g>
        <g id="Grupo_1100816" data-name="Grupo 1100816">
          <g id="Grupo_1100815" data-name="Grupo 1100815" clip-path="url(#clip-path)">
            <path id="Trazado_899426" data-name="Trazado 899426" d="M120.217,142.18,79.888,157.9,64.353,130.211l49.029-19.117Z" transform="translate(-8.983 -15.508)" fill="#83b5fc"/>
            <rect id="Rectángulo_403193" data-name="Rectángulo 403193" width="35.982" height="5.953" transform="translate(73.478 138.827) rotate(-21.301)" fill="#83b5fc"/>
            <rect id="Rectángulo_403194" data-name="Rectángulo 403194" width="8.534" height="21.694" transform="translate(91.597 147.712) rotate(-21.301)" fill="#eac47a"/>
            <path id="Trazado_899427" data-name="Trazado 899427" d="M115.95,175.452a2.6,2.6,0,1,1-3.352-1.495,2.6,2.6,0,0,1,3.352,1.495" transform="translate(-15.485 -24.259)" fill="#f8feff"/>
            <path id="Trazado_899428" data-name="Trazado 899428" d="M119.156,183.812a2.6,2.6,0,1,1-3.352-1.494,2.6,2.6,0,0,1,3.352,1.494" transform="translate(-15.933 -25.426)" fill="#35af9a"/>
            <path id="Trazado_899429" data-name="Trazado 899429" d="M111.361,223.324c-4.947-2.28-9.465-6.389-7.253-17.132a12.9,12.9,0,0,1-6.593-13.228,5.782,5.782,0,0,1-3.436-2.132,12.755,12.755,0,0,1-2.119-10.384c1.093-3.538,9.685-6.862,10.456-7.158-1.124.345-18.9,3.909-24.706,5.4-3.937-.474-4.07-4.231-2.586-7.247S89.4,163.092,94.1,160.91c7.612-3.536,17.6-7.387,22.072-7.961s8.921-.774,11.584,5.424c1.955,4.557-1.565,8.368-1.565,8.368,4,.542,8.022,8.808,4.146,12.89,3.64.816,8.369,7.032,4.207,13.223,4.178,4.747,4.508,9.4,2.642,12.9s-8.024,4.592-18.569,8.842c2.9,1.57,5.107,4.233,4.28,6.37s-6.6,4.639-11.538,2.358" transform="translate(-10.365 -21.314)" fill="#f9ceb2"/>
            <path id="Trazado_899430" data-name="Trazado 899430" d="M100.731,197.612a5.785,5.785,0,0,1-3.437-2.131c6.48-3.822,14.571-7.93,25.773-9.5-18.49,8.706-22.335,11.629-22.335,11.629" transform="translate(-13.582 -25.962)" fill="#d8876a"/>
            <path id="Trazado_899431" data-name="Trazado 899431" d="M106.49,211.93c4.536-4.051,16.369-8.305,20.7-7.319a94.971,94.971,0,0,0-18.579,8.81Z" transform="translate(-14.865 -28.542)" fill="#d8876a"/>
            <path id="Trazado_899432" data-name="Trazado 899432" d="M94.321,185.287a.4.4,0,0,1-.391-.51c1-3.7,4.338-6.747,10.21-9.326a66.808,66.808,0,0,1,21.82-5.439.4.4,0,0,1,.061.807,66.034,66.034,0,0,0-21.556,5.373c-5.632,2.474-8.823,5.351-9.753,8.8a.405.405,0,0,1-.391.3" transform="translate(-13.11 -23.732)"/>
            <path id="Trazado_899433" data-name="Trazado 899433" d="M101.166,197.424a.4.4,0,0,1-.225-.741,92.187,92.187,0,0,1,31.212-13.33.405.405,0,0,1,.176.791,91.38,91.38,0,0,0-30.94,13.212.4.4,0,0,1-.224.068" transform="translate(-14.066 -25.594)"/>
            <path id="Trazado_899434" data-name="Trazado 899434" d="M108.783,213.019a.4.4,0,0,1-.2-.759,183.426,183.426,0,0,1,28.78-12.725.4.4,0,1,1,.262.766,182.549,182.549,0,0,0-28.652,12.669.406.406,0,0,1-.194.05" transform="translate(-15.129 -27.851)"/>
            <path id="Trazado_899435" data-name="Trazado 899435" d="M76.132,274.9l-12.6,230.929,95,1.276L139.556,275.754Z" transform="translate(-8.869 -38.375)" fill="#147a8f"/>
            <rect id="Rectángulo_403195" data-name="Rectángulo 403195" width="71.345" height="26.658" transform="translate(63.544 234.775)" fill="#0c4956"/>
          </g>
        </g>
      </g>
      <g id="Grupo_1100824" data-name="Grupo 1100824" transform="translate(1229.041 5507.136)">
        <g id="Grupo_1100823" data-name="Grupo 1100823" clip-path="url(#clip-path-4)">
          <path id="Trazado_899465" data-name="Trazado 899465" d="M58.349.512,21.466,0a4.61,4.61,0,0,0-4.674,4.546l-.373,26.911L0,37.383l16.339-.153L16.3,39.849a4.611,4.611,0,0,0,4.547,4.674l36.883.512a4.611,4.611,0,0,0,4.674-4.547l.489-35.3A4.61,4.61,0,0,0,58.349.512" fill="#fff"/>
          <path id="Trazado_899466" data-name="Trazado 899466" d="M32.986,5.3l12.383.172L38.8,32.651S32.748,5.3,32.986,5.3" fill="#b95531"/>
          <path id="Trazado_899467" data-name="Trazado 899467" d="M40.711,37.355a2.174,2.174,0,1,1-2.143-2.2,2.174,2.174,0,0,1,2.143,2.2" fill="#b95531"/>
        </g>
      </g>
      <g id="Grupo_1100829" data-name="Grupo 1100829" transform="translate(1147.051 5662)">
        <g id="Grupo_1100828" data-name="Grupo 1100828" clip-path="url(#clip-path-5)">
          <path id="Trazado_899472" data-name="Trazado 899472" d="M53.01,30.125c.032-.278.081-.553.1-.834.029-.162.02-.3.043-.427l0-.016a21.657,21.657,0,0,0,.1-2.455c-.012-.4-.005-.82-.036-1.21-.02-.17-.024-.338-.047-.492a.831.831,0,0,0-.012-.119c-.012-.119-.024-.239-.037-.358,0-.084-.017-.187-.018-.27s-.01-.136-.017-.187c-.02-.171-.043-.325-.05-.477a25.173,25.173,0,0,0-1.043-4.763c.019-.013,0-.016.006-.032-.024-.055-.034-.09-.058-.144-.128-.407-.276-.8-.426-1.178a6.793,6.793,0,0,0-.293-.7,4.892,4.892,0,0,0-.245-.595c-.19-.434-.386-.837-.6-1.258s-.421-.827-.652-1.219a25.959,25.959,0,0,0-5.389-6.636A26.633,26.633,0,0,0,37.1,2.159l-.016,0-.033-.006a.057.057,0,0,0-.029-.022c-.016,0-.013-.019-.032-.005A23.488,23.488,0,0,0,32.86.738C32.49.656,32.1.571,31.732.5A.06.06,0,0,0,31.686.48L31.6.465l-.019.014-.017,0c-.159-.045-.321-.074-.483-.1L30.568.281a1.26,1.26,0,0,0-.246-.026,4.651,4.651,0,0,0-.689-.072l-.1-.018-.019.014A21.079,21.079,0,0,0,26.441,0a10.3,10.3,0,0,0-1.109.037l-.016,0c-.145,0-.285.025-.428.032-.451.018-.9.057-1.351.1a26.765,26.765,0,0,0-4.792,1.021l-.033-.006c-.355.121-.727.239-1.069.378a25.782,25.782,0,0,0-3.758,1.69l-.017,0A27.031,27.031,0,0,0,.856,19.906c-.079.354-.172.688-.232,1.028a27.223,27.223,0,0,0-.462,2.792c-.006.032,0,.116-.013.165-.056.508-.094,1-.1,1.519l-.006.032c-.015.465-.041.9-.041,1.363.006.252.014.487.039.725l0,.016c.005.252.027.506.032.758.022.254.031.49.052.744.061.412.1.869.173,1.284,0,.016-.008.049.008.052l0,.016a3.814,3.814,0,0,0,.082.482c.042.325.1.653.163.965.025.138.051.276.077.414.085.366.171.732.275,1.085a26.491,26.491,0,0,0,9.746,14.476.141.141,0,0,0,.088.066,26.255,26.255,0,0,0,10.116,4.668.023.023,0,0,0,.033.006c.288.068.577.136.852.185l.373.066c.372.066.745.132,1.123.166l.259.046c.146.025.279.032.444.045.148.009.294.035.443.045h.1l.032.006c.246.027.462.032.692.056.216,0,.449.012.681.02l.016,0a4.439,4.439,0,0,0,.5.005l.451,0c.3,0,.6-.01.923-.02l.016,0c.252-.006.522-.025.758-.033.27-.019.509-.044.782-.079.393-.047.75-.084,1.178-.141l.017,0c.585-.1,1.154-.2,1.729-.328.468-.1.921-.2,1.364-.343l.016,0c.561-.151,1.128-.334,1.679-.521.055-.023.125-.044.18-.068A26.548,26.548,0,0,0,51.643,35.664l.006-.033c.131-.361.259-.706.357-1.072.036-.111.073-.221.109-.332.078-.253.157-.507.219-.763.1-.367.2-.734.263-1.106a.691.691,0,0,0,.048-.175c.046-.26.089-.5.148-.743l.083-.469a7.414,7.414,0,0,0,.134-.846m-4,9.014A25.467,25.467,0,0,1,36.22,50.371l-.033-.006a9.471,9.471,0,0,1-.937.386,1.071,1.071,0,0,1-.2.065,16.547,16.547,0,0,1-1.926.594s0-.016-.016,0a23.606,23.606,0,0,1-2.738.55,8.855,8.855,0,0,1-1.532.163l-.016,0a7.549,7.549,0,0,1-1.3.087l-.019.013c-.206.03-.439.023-.658.034h-.284l-.2,0c-.516-.009-1.03-.033-1.505-.084-.5-.021-.973-.072-1.449-.123l-.016,0c-.719-.094-1.383-.212-2.074-.368a.016.016,0,0,0-.019.014c-.016,0-.029-.022-.045-.025a22.433,22.433,0,0,1-3.371-.965l-.033-.006a25.5,25.5,0,0,1-7.361-4.18l0-.016c-.033-.006-.046-.025-.076-.047A25.716,25.716,0,0,1,2.711,35.823L2.7,35.8a20.881,20.881,0,0,1-.946-2.958l0-.016-.013-.019c-.229-.876-.382-1.805-.535-2.735l0-.016c-.043-.508-.127-.975-.138-1.478l-.01-.135c-.034-.374-.046-.777-.045-1.161L1,27.267a3.779,3.779,0,0,1-.033-.474,4.758,4.758,0,0,1,.035-.478c0-.652.024-1.266.055-1.912l0-.016c.054-.492.088-.97.172-1.44l0-.016c.114-.832.274-1.639.466-2.44l.008-.049a27.433,27.433,0,0,1,1.176-3.517l.005-.032a25.95,25.95,0,0,1,8.234-10.72,23.735,23.735,0,0,1,3.428-2.182l.006-.032a.055.055,0,0,1,.035-.011l0-.016.016,0c.775-.414,1.571-.758,2.383-1.1a25.6,25.6,0,0,1,5.3-1.516l.016,0c.55-.086,1.1-.172,1.644-.226l.017,0C24.7,1.046,25.43.991,26.152.969l.016,0,.271-.019c.233.007.452,0,.665.017l.033.006a21.076,21.076,0,0,1,3.91.376l.016,0a14.38,14.38,0,0,1,1.659.344,25.655,25.655,0,0,1,3.6,1.174l.016,0a26.692,26.692,0,0,1,3.936,2.018.016.016,0,0,0,.013.019c.014.019.03.022.043.041a25.687,25.687,0,0,1,6.236,5.533l.027.039.027.038a24.248,24.248,0,0,1,2.427,3.555l.013.019a25.071,25.071,0,0,1,2.8,7.88l0,.017a17.305,17.305,0,0,1,.263,1.717l.014.019,0,.016a21.017,21.017,0,0,1,.124,2.127c.023.155.023.339.033.474-.013.165-.006.317-.019.481l0,.017a20.123,20.123,0,0,1-.28,3.559l0,.016a16.165,16.165,0,0,1-.326,1.746,22.374,22.374,0,0,1-.831,2.894l0,.016c0,.016-.022.03-.025.046a24.05,24.05,0,0,1-1.785,3.943Z" fill="#fff"/>
          <rect id="Rectángulo_403206" data-name="Rectángulo 403206" width="0.965" height="51.924" transform="translate(26.168 0.635) rotate(-0.416)" fill="#fff"/>
          <rect id="Rectángulo_403207" data-name="Rectángulo 403207" width="52.46" height="0.966" transform="translate(0.339 26.319) rotate(-0.448)" fill="#fff"/>
          <path id="Trazado_899473" data-name="Trazado 899473" d="M24.85,52.159a12.928,12.928,0,0,0,1.032,1.035c-.464-.016-.908-.032-1.372-.086h-.135l-.058-.057a11.64,11.64,0,0,1-.916-1.017,29.282,29.282,0,0,1-2.539-3.726c-.313-.538-.607-1.095-.882-1.653-.215-.385-.411-.769-.588-1.173a43.333,43.333,0,0,1-2.583-6.834c-.119-.386-.218-.771-.337-1.156a51.86,51.86,0,0,1-1.587-10.318c-.022-.328-.044-.636-.046-.964a52.126,52.126,0,0,1,.127-6.026c.069-1,.177-1.97.305-2.917.055-.368.11-.716.166-1.064a32.6,32.6,0,0,1,2.5-8.534c.019-.058.057-.116.076-.174.171-.349.342-.718.532-1.047a20.808,20.808,0,0,1,3.745-5.127h.019A9.654,9.654,0,0,1,23.536.173c.6-.062,1.177-.125,1.776-.129A11.387,11.387,0,0,0,23.968,1.1,18.94,18.94,0,0,0,19.9,6.091a7.512,7.512,0,0,0-.628,1.163h-.02c-.133.233-.228.446-.342.679A30.211,30.211,0,0,0,16.5,15.926c-.074.348-.129.7-.184,1.063-.166,1.044-.273,2.145-.361,3.285a55.572,55.572,0,0,0-.127,5.929c.021.328.024.656.046.965a49.791,49.791,0,0,0,1.744,10.683c.08.366.2.751.317,1.117a41.548,41.548,0,0,0,2.738,6.852,9.494,9.494,0,0,0,.607,1.154c.138.288.3.577.451.846a23.148,23.148,0,0,0,3.123,4.339" fill="#fff"/>
          <path id="Trazado_899474" data-name="Trazado 899474" d="M24.316,53.052a1.378,1.378,0,0,0,.155.057h-.1a23.067,23.067,0,0,1-3.5-.552.026.026,0,0,1-.038,0,26.309,26.309,0,0,1-2.969-1.869h-.019a28.9,28.9,0,0,1-7.634-8.243v-.019a.019.019,0,0,1-.019-.019c-.39-.634-.763-1.307-1.116-1.98a32.959,32.959,0,0,1-2.444-6.372q-.208-.693-.358-1.387a36.089,36.089,0,0,1-.815-5.419c-.022-.309-.043-.637-.046-.965a25.768,25.768,0,0,1-.041-2.723c.013-.772.065-1.525.138-2.279.035-.406.07-.811.144-1.217A29.817,29.817,0,0,1,7.076,13.8l.019-.02c.208-.658.454-1.278.719-1.9a24.339,24.339,0,0,1,2.627-4.789c.229-.311.439-.621.688-.913a20.648,20.648,0,0,1,2.738-2.917h.02A26.771,26.771,0,0,1,18.717,1.2a19.055,19.055,0,0,0-4.111,2.735l-.038.039a21.077,21.077,0,0,0-3.331,3.695,19.964,19.964,0,0,0-1.753,2.987.019.019,0,0,0-.019.02,16.044,16.044,0,0,0-.835,1.84l-.019.02a28.937,28.937,0,0,0-1.875,6.985l-.021.019c-.054.386-.108.754-.125,1.159H6.57q-.162,1.419-.209,2.9a25.194,25.194,0,0,0,.06,2.684,5.389,5.389,0,0,0,.046.965A33.114,33.114,0,0,0,7.5,33.431,11.406,11.406,0,0,0,7.9,34.8a29.266,29.266,0,0,0,3.027,6.869.019.019,0,0,0,.019.02,1.475,1.475,0,0,0,.118.23c.352.577.724,1.114,1.094,1.652.019,0,.02.019.039.019a26.8,26.8,0,0,0,9.1,8.1h.02a22.066,22.066,0,0,0,3,1.367" fill="#fff"/>
          <path id="Trazado_899475" data-name="Trazado 899475" d="M40.594,26.009c0,.309,0,.637-.012.965-.013.792-.065,1.6-.155,2.4a37.4,37.4,0,0,1-1.9,8.336q-.169.58-.4,1.162h-.02a41.139,41.139,0,0,1-3.458,7.209c-.228.388-.476.8-.724,1.165a36.6,36.6,0,0,1-3.555,4.719c-.344.389-.689.759-1.053,1.109-.521.062-1.023.085-1.544.109a13.4,13.4,0,0,0,1.054-1.051,33.162,33.162,0,0,0,3.748-4.664,10.174,10.174,0,0,0,.725-1.125h.019a41.669,41.669,0,0,0,3.613-7.172h.019a11.692,11.692,0,0,0,.416-1.143,36.381,36.381,0,0,0,2.074-8.762c.091-.754.124-1.527.157-2.28.016-.328.014-.637.011-.965A38.672,38.672,0,0,0,38.53,16.39c-.08-.366-.16-.713-.26-1.059h-.019a38.413,38.413,0,0,0-3.485-8.739l-.647-1.153c-.273-.442-.547-.884-.821-1.307A16.645,16.645,0,0,0,31.056,1.35,9.088,9.088,0,0,0,29.541.165a17.593,17.593,0,0,1,2.03.293A12.012,12.012,0,0,1,32.719,1.7a15.25,15.25,0,0,1,1.4,1.9c.45.673.861,1.365,1.253,2.076.215.385.43.769.626,1.154a40.027,40.027,0,0,1,3.331,8.72c.1.347.18.713.259,1.06a38.563,38.563,0,0,1,1,9.4" fill="#fff"/>
          <path id="Trazado_899476" data-name="Trazado 899476" d="M48.046,25.951a8.237,8.237,0,0,1-.05.966,33.246,33.246,0,0,1-1.352,7.444c-.131.464-.263.909-.433,1.355-.151.464-.321.948-.511,1.413a34.894,34.894,0,0,1-2.871,5.7.019.019,0,0,1-.019.02v.019c-.4.621-.82,1.223-1.221,1.805-.019,0-.019.02-.038.02a31.793,31.793,0,0,1-5.343,5.679h-.019a26.385,26.385,0,0,1-2.553,1.893h-.02a23.274,23.274,0,0,1-3.1.662A23.275,23.275,0,0,0,33.107,51.4h.02a29.193,29.193,0,0,0,6.4-5.784,18.2,18.2,0,0,0,1.3-1.671,32.382,32.382,0,0,0,3.96-7.175c.057-.135.095-.27.151-.406.171-.446.322-.891.473-1.355a32.831,32.831,0,0,0,1.6-8.084c.017-.328.053-.657.05-.965a28.427,28.427,0,0,0-.477-6.677,8.952,8.952,0,0,0-.26-1.253c-.1-.5-.22-.983-.36-1.465A25.763,25.763,0,0,0,42.47,9.138a20.4,20.4,0,0,0-1.21-1.65l-.02-.02a23.975,23.975,0,0,0-4.9-4.6H36.32a18.567,18.567,0,0,0-2.561-1.544,15.857,15.857,0,0,0-2.15-.871,25.16,25.16,0,0,1,5.38,1.657c.02,0,.039.019.058.019a24.454,24.454,0,0,1,3.246,2.774A26.423,26.423,0,0,1,43.159,8.38c.019,0,.019.019.039.019.371.577.742,1.153,1.095,1.768a.019.019,0,0,1,.019.019,27.31,27.31,0,0,1,2.6,6.12c.218.77.4,1.541.558,2.332a9.473,9.473,0,0,1,.223,1.292.019.019,0,0,0,.019.019,31.053,31.053,0,0,1,.337,6" fill="#fff"/>
          <path id="Trazado_899477" data-name="Trazado 899477" d="M53.026,23.286c.082.617.145,1.254.169,1.891a8.657,8.657,0,0,0-1.073-1.4v-.02a18.452,18.452,0,0,0-4.413-3.807.019.019,0,0,1-.019-.02c-.368-.209-.718-.438-1.1-.647-.447-.267-.912-.495-1.4-.723a30.534,30.534,0,0,0-5.6-1.945c-.348-.075-.7-.149-1.063-.223a43.921,43.921,0,0,0-5.683-.786,54.871,54.871,0,0,0-5.619-.13c-.328,0-.657.024-.966.027a49.685,49.685,0,0,0-9.951,1.487c-.347.08-.694.179-1.04.279A42.09,42.09,0,0,0,6.59,20.695H6.57c-.365.2-.711.392-1.057.588-.077.039-.135.078-.211.117a22.247,22.247,0,0,0-4.225,2.987A10.386,10.386,0,0,0,.043,25.419c.015-.5.049-1.024.1-1.527a14.084,14.084,0,0,1,1.094-.954,28.11,28.11,0,0,1,3.572-2.4c.269-.157.557-.313.846-.47a10.88,10.88,0,0,1,1.058-.53l.019-.019a43.639,43.639,0,0,1,8.7-3.312c.347-.1.713-.2,1.06-.278a50.836,50.836,0,0,1,9.759-1.409c.328,0,.637-.024.965-.027a56.942,56.942,0,0,1,5.716.129,42.836,42.836,0,0,1,5.315.712h.019a9.326,9.326,0,0,1,1.064.223,29.611,29.611,0,0,1,6.292,2.113c.233.114.465.228.7.362a9.259,9.259,0,0,1,1.144.609,19.912,19.912,0,0,1,4.39,3.383,10.2,10.2,0,0,1,1.168,1.265" fill="#fff"/>
          <path id="Trazado_899478" data-name="Trazado 899478" d="M49.724,13.388a26.215,26.215,0,0,1,2.26,5.1,19.347,19.347,0,0,0-2.93-4.36,20.5,20.5,0,0,0-3.6-3.216,8.952,8.952,0,0,0-1.145-.725.019.019,0,0,0-.019-.019A17.046,17.046,0,0,0,42.47,9.139,27.877,27.877,0,0,0,36,6.834a8.739,8.739,0,0,0-1.238-.241,31.035,31.035,0,0,0-5.237-.577,19.591,19.591,0,0,0-2.374.037,8.062,8.062,0,0,0-.965.028,34.192,34.192,0,0,0-6.923,1.173h-.019a11.393,11.393,0,0,0-1.31.415A29.5,29.5,0,0,0,11.2,10.716a26.451,26.451,0,0,0-2.573,1.8l-.019.019c-.518.391-1.036.819-1.516,1.248l-.019.019a26.969,26.969,0,0,0-5.354,6.646A24.3,24.3,0,0,0,.164,23.719a27.745,27.745,0,0,1,.7-3.809A30.493,30.493,0,0,1,2.891,16.9a28.222,28.222,0,0,1,4.923-5.02,20.42,20.42,0,0,1,1.651-1.21.019.019,0,0,1,.019-.019c.384-.273.788-.528,1.192-.782a31.555,31.555,0,0,1,7.87-3.421c.443-.139.886-.258,1.348-.358a34.179,34.179,0,0,1,6.287-.976,8.012,8.012,0,0,1,.965-.046c.811-.045,1.6-.051,2.413-.038a34.967,34.967,0,0,1,4.56.408c.425.074.851.148,1.257.241A27.551,27.551,0,0,1,41.24,7.469l.02.019a10.6,10.6,0,0,1,1.9.893c.019,0,.019.019.039.019a20.015,20.015,0,0,1,2.832,1.7,6.97,6.97,0,0,1,.6.459,19.6,19.6,0,0,1,3.092,2.833" fill="#fff"/>
          <path id="Trazado_899479" data-name="Trazado 899479" d="M51.982,30.458a6.109,6.109,0,0,0,1.165-1.592c-.018.135-.017.27-.035.425-.054.56-.127,1.12-.238,1.681a1.935,1.935,0,0,1-.191.214A10.262,10.262,0,0,1,51.648,32.2a17.972,17.972,0,0,1-2.131,1.6,33.179,33.179,0,0,1-3.306,1.918q-.633.353-1.269.647a41.167,41.167,0,0,1-6.815,2.506h-.02l-1.156.3h-.019a40.026,40.026,0,0,1-9.047,1.113,3.77,3.77,0,0,1-.463-.016,8.127,8.127,0,0,1-.965-.011c-.908-.013-1.816-.083-2.7-.172a35.294,35.294,0,0,1-5.82-1.113c-.387-.094-.755-.207-1.123-.32A43.319,43.319,0,0,1,7.9,34.8c-.426-.228-.853-.476-1.26-.743a39.368,39.368,0,0,1-5.418-3.974c-.37-.344-.74-.689-1.09-1.034-.042-.5-.085-1-.088-1.505a10.38,10.38,0,0,0,1.031,1.035,35.751,35.751,0,0,0,5.206,4.091c.408.248.815.515,1.222.763a42.2,42.2,0,0,0,8.972,4.061c.368.132.755.246,1.142.358A34.525,34.525,0,0,0,23.841,39.1c.869.09,1.739.141,2.608.173.328,0,.637.014.965.011a38.6,38.6,0,0,0,9.953-1.255c.386-.1.771-.2,1.156-.318a37.785,37.785,0,0,0,6.891-2.7c.4-.2.827-.412,1.231-.647.788-.45,1.576-.92,2.325-1.408a15.321,15.321,0,0,0,3.012-2.495" fill="#fff"/>
          <path id="Trazado_899480" data-name="Trazado 899480" d="M53.112,29.29c-.054.56-.127,1.121-.238,1.682a25.486,25.486,0,0,1-1.218,4.662A21.706,21.706,0,0,1,49,39.13a26.154,26.154,0,0,1-7.41,5.542c-.019,0-.018.019-.038.02a19.19,19.19,0,0,1-2.02.923,22.84,22.84,0,0,1-2.715.948,29.009,29.009,0,0,1-2.891.679c-.443.08-.887.161-1.35.222a30.042,30.042,0,0,1-3.975.283c-.367,0-.753.006-1.12-.011-.328-.016-.637-.014-.966-.05a30.517,30.517,0,0,1-5.238-.712c-.444-.093-.87-.187-1.3-.318a33.069,33.069,0,0,1-3.987-1.282,36.042,36.042,0,0,1-3.8-1.785c-.02,0-.02-.02-.039-.019-.66-.362-1.319-.724-1.94-1.124v-.02a.019.019,0,0,1-.019-.019,31.238,31.238,0,0,1-7.5-6.6A27.657,27.657,0,0,1,.9,33.347,22.427,22.427,0,0,1,.275,30.34a21.808,21.808,0,0,0,1.486,2.5,30.272,30.272,0,0,0,7.32,7.588,19.18,19.18,0,0,0,1.844,1.241.019.019,0,0,0,.019.019,32.369,32.369,0,0,0,5.408,2.757c1.007.4,2.014.738,3.04,1.038.426.113.851.245,1.277.338a30.549,30.549,0,0,0,5.838.881c.328.036.656.034.965.051a30.872,30.872,0,0,0,5.828-.413h.019a10.785,10.785,0,0,0,1.331-.261c.636-.121,1.272-.281,1.888-.459a25.8,25.8,0,0,0,4.293-1.675,17.777,17.777,0,0,0,1.98-1.077v-.02a.019.019,0,0,0,.019-.019,23.2,23.2,0,0,0,7.991-7.709,16.664,16.664,0,0,0,.972-1.706,14.6,14.6,0,0,0,.89-2.227,9.017,9.017,0,0,0,.39-1.9Z" fill="#fff"/>
        </g>
      </g>
      <rect id="Rectángulo_403211" data-name="Rectángulo 403211" width="190" height="469" transform="translate(1125.051 5476)" fill="none"/>
    </g>
  </g>
</svg>
