<svg xmlns="http://www.w3.org/2000/svg" xmlns:xlink="http://www.w3.org/1999/xlink" width="124.011" height="125.273" viewBox="0 0 124.011 125.273">
  <defs>
    <filter id="Elipse_11501" x="0" y="0" width="124.011" height="125.273" filterUnits="userSpaceOnUse">
      <feOffset dy="3" input="SourceAlpha"/>
      <feGaussianBlur stdDeviation="3" result="blur"/>
      <feFlood flood-opacity="0.161"/>
      <feComposite operator="in" in2="blur"/>
      <feComposite in="SourceGraphic"/>
    </filter>
    <filter id="Elipse_11501-2" x="0" y="0" width="124.011" height="125.273" filterUnits="userSpaceOnUse">
      <feOffset dy="6" input="SourceAlpha"/>
      <feGaussianBlur stdDeviation="3" result="blur-2"/>
      <feFlood flood-opacity="0.161" result="color"/>
      <feComposite operator="out" in="SourceGraphic" in2="blur-2"/>
      <feComposite operator="in" in="color"/>
      <feComposite operator="in" in2="SourceGraphic"/>
    </filter>
  </defs>
  <g id="Grupo_1100835" data-name="Grupo 1100835" transform="translate(-696.445 -3171.142)">
    <g id="Grupo_1100520" data-name="Grupo 1100520" transform="translate(-215.888 2780.143)">
      <g id="Grupo_1099492" data-name="Grupo 1099492" transform="translate(921.333 397)">
        <g data-type="innerShadowGroup">
          <g transform="matrix(1, 0, 0, 1, -9, -6)" filter="url(#Elipse_11501)">
            <ellipse id="Elipse_11501-3" data-name="Elipse 11501" cx="53.005" cy="53.636" rx="53.005" ry="53.636" transform="translate(9 6)" fill="#2e3649"/>
          </g>
          <g transform="matrix(1, 0, 0, 1, -9, -6)" filter="url(#Elipse_11501-2)">
            <ellipse id="Elipse_11501-4" data-name="Elipse 11501" cx="53.005" cy="53.636" rx="53.005" ry="53.636" transform="translate(9 6)" fill="#fff"/>
          </g>
        </g>
        <path id="dignidad-humana" d="M70.145,46.23h.993l2.676-3.754H70.844A4.007,4.007,0,0,1,68.2,45.123V59.171h2.642a1.174,1.174,0,0,1,0,2.347H63.212a1.174,1.174,0,0,1,0-2.347h2.642V45.123a4.01,4.01,0,0,1-2.647-2.647H60.241l2.676,3.754h.993A1.173,1.173,0,0,1,65.083,47.4c0,3.7-1.73,6.1-3.945,7.176a6.383,6.383,0,0,1-5.561,0c-2.215-1.075-3.945-3.474-3.945-7.176a1.174,1.174,0,0,1,1.174-1.174H53.8l2.676-3.754H55.228a1.174,1.174,0,1,1,0-2.347H63.2a4,4,0,0,1,2.647-2.642v-.964a1.174,1.174,0,1,1,2.347,0v.964a4,4,0,0,1,2.642,2.642h7.979a1.174,1.174,0,1,1,0,2.347H77.569l2.681,3.754h.993A1.174,1.174,0,0,1,82.416,47.4c0,3.7-1.735,6.1-3.95,7.176a6.372,6.372,0,0,1-5.556,0c-2.215-1.075-3.945-3.474-3.945-7.176A1.184,1.184,0,0,1,70.145,46.23Zm3.87,0h3.365L75.7,43.867Zm5.977,2.349H71.4C72.212,54.309,79.175,54.309,79.991,48.579ZM56.676,46.23h3.365L58.36,43.867Zm5.979,2.349H54.063C54.879,54.309,61.842,54.309,62.655,48.579Zm5.536-8.442a1.647,1.647,0,1,0,0,2.327,1.649,1.649,0,0,0,0-2.327ZM67.028,27.7A20.736,20.736,0,1,1,46.292,48.436,20.733,20.733,0,0,1,67.028,27.7Zm13,7.732a18.389,18.389,0,1,0,0,26.006A18.39,18.39,0,0,0,80.03,35.432ZM64.684,76.856A1.17,1.17,0,1,1,62.66,78.03L61.4,75.838a1.17,1.17,0,0,1,2.024-1.174ZM62.66,89.288a1.17,1.17,0,0,1,2.024,1.174L63.42,92.653A1.17,1.17,0,1,1,61.4,91.479Zm7.365,1.17a1.168,1.168,0,0,1,2.025-1.165l1.264,2.191a1.167,1.167,0,1,1-2.024,1.164Zm-3.844-.58a1.174,1.174,0,0,1,2.347,0v2.528a1.174,1.174,0,0,1-2.347,0Zm5.87-11.854a1.168,1.168,0,1,1-2.025-1.164L71.29,74.67a1.168,1.168,0,0,1,2.024,1.165Zm-3.523-.583a1.174,1.174,0,1,1-2.347,0V74.918a1.174,1.174,0,1,1,2.347,0ZM54.685,82.835,39.847,86.813l1.445,5.4,14.843-3.974ZM38.878,84.646l.409-.109-.7-2.614c-3.127-1.05-5.969-4.468-7.88-7.533-.989-1.593-1.816-3.725-1.05-5.246a2.575,2.575,0,0,1,1.583-1.321,3.775,3.775,0,0,1,2.4-4.567,3.552,3.552,0,0,1,3.65-3.637,3.646,3.646,0,0,1,4.572-2.282,1.181,1.181,0,0,1,.495.371l2.51,2.775,3.375.461a5.255,5.255,0,0,1,4.14,3.046L54.1,67.663a5.808,5.808,0,0,1,.518,4.611h.005L53,76.67l1.046,3.912a2.123,2.123,0,0,1,1.891.1,1.968,1.968,0,0,1,.894,1.093l1.593-.428a3.368,3.368,0,0,1,2.386.238c.86-1.283,2.01-1.417,3.44-1.8a1.173,1.173,0,0,1,.6,2.267l-1.487.4a1.066,1.066,0,0,0-.651.5,1.076,1.076,0,0,0,1.212,1.573l1.482-.394a1.171,1.171,0,1,1,.609,2.262c-1.43.386-2.49.847-3.878.161-.86,1.283-2.005,1.417-3.435,1.8-.047.013-.1.023-.137.039a1.985,1.985,0,0,1-1.236,1.953l2.676,10a1.171,1.171,0,0,1-.827,1.435l-13.745,3.683A1.172,1.172,0,0,1,44,104.621l-2.681-9.994a1.983,1.983,0,0,1-2.186-1.44l-1.64-6.126A1.969,1.969,0,0,1,38.878,84.646Zm2.671-.718L51.776,81.19l-1.132-4.22a1.2,1.2,0,0,1,.018-.77l1.759-4.738a3.744,3.744,0,0,0-.443-2.8l-1.724-3.68a2.944,2.944,0,0,0-2.334-1.715l-.822-.109,2.262,2.733a1.173,1.173,0,1,1-1.807,1.5l-4.2-5.085L40.8,59.472a1.428,1.428,0,0,0-1.3.912,1.67,1.67,0,0,0-.072.275l3.963,5.015a1.168,1.168,0,1,1-1.834,1.445l-4.026-5.09a1.126,1.126,0,0,0-.609-.047,1.255,1.255,0,0,0-.917.879,1.1,1.1,0,0,0,.062.708l3.66,4.829a1.172,1.172,0,1,1-1.868,1.417l-3.326-4.391a1.542,1.542,0,0,0-.557,2.652l-.005.005a.6.6,0,0,1,.1.124l2.481,3.018a1.17,1.17,0,0,1-1.806,1.487l-2.233-2.718c-.785-.01-.9.161-.793.847a7.032,7.032,0,0,0,.979,2.314,22.864,22.864,0,0,0,3.754,4.7,7.647,7.647,0,0,0,3.279,1.972,1.173,1.173,0,0,1,.946.855Zm15.882.109.557,2.067,1.588-.422a1.049,1.049,0,0,0,.656-.5l-.005-.005a1.065,1.065,0,0,0-.389-1.464h-.005a1.066,1.066,0,0,0-.813-.109ZM55.06,90.956,43.577,94.031l2.372,8.849,11.481-3.075ZM79.678,80.491l.332.091,1.05-3.912-1.63-4.4a5.824,5.824,0,0,1,.523-4.611l1.725-3.673a5.247,5.247,0,0,1,4.14-3.046l3.375-.461,2.51-2.775a2.41,2.41,0,0,1,2.158-.537,3.862,3.862,0,0,1,2.9,2.448,3.554,3.554,0,0,1,3.655,3.637,3.78,3.78,0,0,1,2.4,4.567,2.79,2.79,0,0,1,1.829,3.378,9.343,9.343,0,0,1-1.3,3.189c-1.906,3.065-4.748,6.482-7.875,7.533l-.7,2.614a2.162,2.162,0,0,1,1.6,1.026,1.993,1.993,0,0,1,.2,1.5l-1.64,6.126a1.986,1.986,0,0,1-2.186,1.44l-2.681,9.994a1.172,1.172,0,0,1-1.435.832l-13.745-3.683a1.174,1.174,0,0,1-.832-1.435l2.681-10a1.985,1.985,0,0,1-1.236-1.953l-1.625-.433a3.41,3.41,0,0,1-1.948-1.4c-1.388.684-2.448.223-3.878-.161a1.17,1.17,0,1,1,.6-2.262l1.487.394a1.077,1.077,0,0,0,1.212-1.573,1.1,1.1,0,0,0-.651-.5l-1.487-.4a1.173,1.173,0,0,1,.6-2.267c1.43.386,2.58.518,3.44,1.8,1.383-.684,2.443-.223,3.873.161.034.01.072.018.1.029a1.981,1.981,0,0,1,2.448-1.279Zm2.6.7,10.227,2.738.87-3.256a1.17,1.17,0,0,1,.946-.855A7.646,7.646,0,0,0,97.6,77.845a23,23,0,0,0,3.774-4.728c.508-.818,1.207-2.381.932-2.927-.086-.171-.552-.2-.77-.2l-2.228,2.718A1.17,1.17,0,0,1,97.5,71.221L99.985,68.2a.653.653,0,0,1,.1-.124l-.005-.005a1.542,1.542,0,0,0-.557-2.652l-3.33,4.391A1.174,1.174,0,0,1,94.321,68.4l3.663-4.829a1.1,1.1,0,0,0,.062-.708,1.252,1.252,0,0,0-.917-.879,1.127,1.127,0,0,0-.609.047l-4.031,5.09a1.166,1.166,0,1,1-1.829-1.445l3.958-5.015a1.477,1.477,0,0,0-1.145-1.179.955.955,0,0,0-.218-.01l-2.58,2.86L86.5,67.382a1.173,1.173,0,1,1-1.807-1.5l2.262-2.733a4.218,4.218,0,0,0-2.215.661,3.006,3.006,0,0,0-.941,1.164l-1.73,3.678a3.766,3.766,0,0,0-.438,2.8L83.388,76.2a1.178,1.178,0,0,1,.018.77Zm8.2,12.841L78.994,90.956l-2.371,8.849L88.1,102.88ZM76.066,86.1l.557-2.067L75.035,83.6a1.089,1.089,0,0,0-.818.109,1.069,1.069,0,0,0-.394,1.464v.005a1.058,1.058,0,0,0,.651.5Zm18.141.708L79.369,82.833l-1.45,5.409,14.838,3.974Z" transform="translate(-15.094 -13.888)" fill="#fff"/>
      </g>
    </g>
  </g>
</svg>
