<svg xmlns="http://www.w3.org/2000/svg" width="85" height="93" viewBox="0 0 85 93">
  <g id="Grupo_1100833" data-name="Grupo 1100833" transform="translate(-180.051 -3563.222)">
    <g id="Grupo_1100349" data-name="Grupo 1100349" transform="translate(-524.68 701.222)">
      <rect id="Rectángulo_402215" data-name="Rectángulo 402215" width="85" height="93" rx="15" transform="translate(704.73 2862)" fill="#106273"/>
      <g id="votar" transform="translate(715.73 2877)">
        <path id="Trazado_898561" data-name="Trazado 898561" d="M62,1H46a1,1,0,0,0-1,1V18a1,1,0,0,0,1,1h9.972v6.3a1,1,0,0,1-.219.624l-2.962,3.7a.994.994,0,0,1-.78.375h-.065a4.948,4.948,0,0,0,1.026-3,5,5,0,0,0-10,0A4.948,4.948,0,0,0,44,30h-.814a4.977,4.977,0,0,0-2.774.84l-4.848,3.232-6.5,1.624-.556-3.152.986-.174a3.005,3.005,0,0,0,2.433-3.476l-.694-3.938a3,3,0,0,0-3.476-2.434l-1.97.348,0,.015c-.032.006-.065,0-.1.006-.615.171-4.062.856-4.641.888A10.625,10.625,0,0,1,14.1,21.238a1,1,0,0,0-1.634.935L15.242,37.93a1,1,0,0,0,.8.81.924.924,0,0,0,.181.017,1,1,0,0,0,.858-.487,9.993,9.993,0,0,1,5.593-4.606c.5-.141,2.614-.574,3.856-.8l.629,3.565a.985.985,0,0,0-.161.81l1,4a1,1,0,0,0,1.112.748l7-1a1.038,1.038,0,0,0,.306-.1l4.553-2.276V43H40a1,1,0,0,0-1,1V63h2V49H55.972V63h2V44a1,1,0,0,0-1-1h-1V37.277l5.288-8.812a5,5,0,0,0,.712-2.573V19H62a1,1,0,0,0,1-1V2a1,1,0,0,0-1-1ZM22.138,31.737a11.048,11.048,0,0,0-5.337,3.52L14.848,24.18a11.72,11.72,0,0,0,6.309,1.6c.588-.032,2.669-.433,4-.715L26.186,30.9C24.79,31.145,22.64,31.6,22.138,31.737Zm4.981-7.07.985-.173a1,1,0,0,1,1.159.812l.694,3.938a1,1,0,0,1-.811,1.159l-.985.174ZM50,17V16a3,3,0,0,1,3-3h2a3,3,0,0,1,3,3v1Zm2-8a2,2,0,1,1,2,2A2,2,0,0,1,52,9ZM47.972,24a3,3,0,1,1-3,3A3,3,0,0,1,47.972,24Zm8,23H41V45H55.972Zm4-21.108a3.007,3.007,0,0,1-.427,1.544l-5.43,9.05a1,1,0,0,0-.143.515v6h-11V37a1,1,0,0,0-1.447-.9L35.67,39.034l-5.946.85-.539-2.155,7.03-1.758a.97.97,0,0,0,.312-.138l4.993-3.328A2.975,2.975,0,0,1,43.184,32h8.828a2.98,2.98,0,0,0,2.342-1.126l2.961-3.7a3.007,3.007,0,0,0,.657-1.874V19h2ZM61,17H60V16a5,5,0,0,0-2.889-4.516,4,4,0,1,0-6.222,0A5,5,0,0,0,48,16v1H47V3H61Z" fill="#a1cad2"/>
        <path id="Trazado_898562" data-name="Trazado 898562" d="M4.911,30.649h5.167v2H4.911Z" transform="matrix(0.966, -0.26, 0.26, 0.966, -7.973, 3.038)" fill="#a1cad2"/>
        <path id="Trazado_898563" data-name="Trazado 898563" d="M7.022,23.52h2v4.84h-2Z" transform="translate(-17.985 33.741) rotate(-89.484)" fill="#a1cad2"/>
        <path id="Trazado_898564" data-name="Trazado 898564" d="M8.4,35.275h4.838v2H8.4Z" transform="translate(-16.929 10.525) rotate(-30.541)" fill="#a1cad2"/>
        <path id="Trazado_898565" data-name="Trazado 898565" d="M7,58.929V63H9V58a1,1,0,0,0-1-1,5.006,5.006,0,0,1-5-5V44H5v8a3,3,0,0,0,3,3H18a2,2,0,0,1,2,2v6h2V57a2,2,0,0,1,2-2h8a2,2,0,0,1,2,2v6h2V57a4,4,0,0,0-4-4h-.026A4.948,4.948,0,0,0,33,50a5,5,0,0,0-10,0,4.948,4.948,0,0,0,1.026,3H24a3.975,3.975,0,0,0-3,1.382A3.975,3.975,0,0,0,18,53h-.026A4.948,4.948,0,0,0,19,50,5,5,0,0,0,9,50a4.948,4.948,0,0,0,1.026,3H8a1,1,0,0,1-1-1V43a1,1,0,0,0-1-1H2a1,1,0,0,0-1,1v9a7.011,7.011,0,0,0,6,6.929ZM28,47a3,3,0,1,1-3,3A3,3,0,0,1,28,47ZM14,47a3,3,0,1,1-3,3A3,3,0,0,1,14,47Z" fill="#a1cad2"/>
      </g>
    </g>
  </g>
</svg>
