<svg xmlns="http://www.w3.org/2000/svg" width="67.729" height="68.536" viewBox="0 0 67.729 68.536">
  <g id="Grupo_1100833" data-name="Grupo 1100833" transform="translate(-495 -5823.747)">
    <g id="Grupo_1100525" data-name="Grupo 1100525" transform="translate(-525.32 37.222)">
      <ellipse id="Elipse_11501" data-name="Elipse 11501" cx="33.865" cy="34.268" rx="33.865" ry="34.268" transform="translate(1020.32 5786.525)" fill="#be6763"/>
      <g id="unido" transform="translate(1030.666 5797.813)">
        <path id="Trazado_898818" data-name="Trazado 898818" d="M194.477,180.012,184.1,169.638a1.661,1.661,0,1,1,2.349-2.349l-2.671-2.671a1.657,1.657,0,0,1-.488-1.175,1.7,1.7,0,0,1,.021-.266,1.659,1.659,0,0,1,2.658-1.045l-1.017-1.017a1.662,1.662,0,0,1-.488-1.177,1.588,1.588,0,0,1,.022-.27,1.662,1.662,0,0,1,2.816-.9l1.164,1.164a1.661,1.661,0,1,1,2.349-2.349l6.742,6.742.019-.027a3.038,3.038,0,0,1,4.3,0l3.144,3.144a3.226,3.226,0,0,1,.945,2.276l0,1.967a3.471,3.471,0,0,0,1.017,2.452l.7.7-8.018,8.018-.9-.9a3.472,3.472,0,0,0-2.228-1.01A3.222,3.222,0,0,1,194.477,180.012Zm0,0" transform="translate(-166.453 -142.659)" fill="#be6763"/>
        <path id="Trazado_898819" data-name="Trazado 898819" d="M353.655,351.009l9.1-9.1a.768.768,0,0,1,1.086,0l3.241,3.241a.768.768,0,0,1,0,1.086l-9.1,9.1a.768.768,0,0,1-1.086,0l-3.241-3.241A.768.768,0,0,1,353.655,351.009Zm0,0" transform="translate(-320.96 -310.292)" fill="#8f4d4b"/>
        <path id="Trazado_898820" data-name="Trazado 898820" d="M76.367,180.023l10.374-10.374a1.661,1.661,0,1,0-2.35-2.349l2.671-2.671a1.66,1.66,0,0,0-2.191-2.486l1.017-1.017a1.661,1.661,0,0,0,.488-1.176,1.583,1.583,0,0,0-.022-.27,1.655,1.655,0,0,0-1.374-1.369,1.661,1.661,0,0,0-1.441.466l-1.164,1.164a1.661,1.661,0,1,0-2.349-2.349l-6.742,6.742-.019-.027a3.038,3.038,0,0,0-4.3,0l-3.143,3.144a3.225,3.225,0,0,0-.945,2.276l0,1.967a3.469,3.469,0,0,1-1.017,2.452l-.7.7,8.018,8.018.9-.9a3.472,3.472,0,0,1,2.228-1.01,3.226,3.226,0,0,0,2.069-.938Zm0,0" transform="translate(-57.354 -142.668)" fill="#be6763"/>
        <path id="Trazado_898821" data-name="Trazado 898821" d="M21.148,351.017l-9.1-9.1a.768.768,0,0,0-1.086,0l-3.241,3.241a.768.768,0,0,0,0,1.086l9.1,9.1a.768.768,0,0,0,1.086,0l3.241-3.241A.768.768,0,0,0,21.148,351.017Zm0,0" transform="translate(-6.806 -310.299)" fill="#8f4d4b"/>
        <path id="Trazado_898822" data-name="Trazado 898822" d="M166.643,79.788V94.459a1.661,1.661,0,1,1-3.322,0v3.778a1.66,1.66,0,0,1-3.307.209v1.438a1.661,1.661,0,0,1-.487,1.177,1.557,1.557,0,0,1-.207.175,1.662,1.662,0,0,1-2.629-1.352V98.237a1.661,1.661,0,1,1-3.322,0V88.7l-.032.006a3.038,3.038,0,0,1-3.038-3.043V81.219a3.227,3.227,0,0,1,.942-2.278l1.389-1.392a3.471,3.471,0,0,0,1.014-2.453v-.991h11.339v1.267a3.475,3.475,0,0,0,.862,2.29,3.223,3.223,0,0,1,.8,2.126Zm0,0" transform="translate(-136.489 -67.297)" fill="#fedfc5"/>
        <path id="Trazado_898825" data-name="Trazado 898825" d="M166.643,79.788V94.459a1.662,1.662,0,0,1-1.661,1.664c-.025,0-.051,0-.078,0a1.643,1.643,0,0,1-.892-.312h0a1.66,1.66,0,0,1-.689-1.349v3.778a1.66,1.66,0,0,1-3.307.209v1.438a1.661,1.661,0,0,1-.487,1.177,1.559,1.559,0,0,1-.207.175,1.662,1.662,0,0,1-2.629-1.352V98.237a1.661,1.661,0,1,1-3.322,0V88.7l-.032.006a3.038,3.038,0,0,1-3.038-3.043V81.219a3.227,3.227,0,0,1,.942-2.278l1.389-1.392a3.478,3.478,0,0,0,1.014-2.453v-.991h11.339v1.267a3.13,3.13,0,0,0,.109.857,3.451,3.451,0,0,0,.752,1.432,3.249,3.249,0,0,1,.8,2.126Zm0,0" transform="translate(-136.489 -67.297)" fill="#be6763"/>
        <path id="Trazado_898827" data-name="Trazado 898827" d="M183.337,13.62H170.466a.768.768,0,0,1-.768-.768V8.268a.768.768,0,0,1,.768-.768h12.871a.768.768,0,0,1,.768.768v4.584A.768.768,0,0,1,183.337,13.62Zm0,0" transform="translate(-154.108 -6.811)" fill="#8f4d4b"/>
        <path id="Trazado_898828" data-name="Trazado 898828" d="M202.18,447.75l-.138.675.133-.676a.689.689,0,1,0-.266,1.352l.013,0a.7.7,0,0,0,.13.013.689.689,0,0,0,.128-1.366Zm0,0" transform="translate(-182.854 -406.601)"/>
        <path id="Trazado_898829" data-name="Trazado 898829" d="M261.568,450.259l.069.685-.071-.685a.689.689,0,0,0,.07,1.374c.024,0,.048,0,.071,0l.019,0a.689.689,0,0,0-.158-1.369Zm0,0" transform="translate(-236.974 -408.889)"/>
        <path id="Trazado_898830" data-name="Trazado 898830" d="M231.827,451.231h-.01a.685.685,0,0,0-.714.658.693.693,0,0,0,.662.719h.032a.689.689,0,0,0,.031-1.377Zm0,0" transform="translate(-209.87 -409.774)"/>
        <path id="Trazado_898831" data-name="Trazado 898831" d="M173.5,439.834l-.009,0a.685.685,0,0,0-.877.417.691.691,0,1,0,.886-.414Zm0,0" transform="translate(-156.721 -399.385)"/>
        <path id="Trazado_898832" data-name="Trazado 898832" d="M290.872,444.825l.17.668-.172-.667a.689.689,0,0,0,.171,1.357.682.682,0,0,0,.173-.022l.018,0a.689.689,0,0,0-.36-1.33Zm0,0" transform="translate(-263.677 -403.937)"/>
        <path id="Trazado_898833" data-name="Trazado 898833" d="M319.006,435.011l.273.632-.275-.632a.689.689,0,1,0,.55,1.264l.017-.008a.689.689,0,0,0-.565-1.257Zm0,0" transform="translate(-289.321 -394.992)"/>
        <path id="Trazado_898834" data-name="Trazado 898834" d="M147.169,80.068a.689.689,0,1,0-.322-1.3l-.008,0a.688.688,0,0,0,.33,1.293Zm0,0" transform="translate(-133.021 -71.459)"/>
        <path id="Trazado_898835" data-name="Trazado 898835" d="M63.606,164.542a.689.689,0,0,0,.931-.29l.012-.024a.689.689,0,1,0-.943.314Zm0,0" transform="translate(-57.427 -148.237)"/>
        <path id="Trazado_898836" data-name="Trazado 898836" d="M52.065,192.333a.688.688,0,0,0,.874-.432l.009-.027a.689.689,0,1,0-.882.459Zm0,0" transform="translate(-46.856 -173.436)"/>
        <path id="Trazado_898837" data-name="Trazado 898837" d="M79.247,138.849a.688.688,0,0,0,.963-.152l.009-.012a.689.689,0,0,0-1.121-.8l.555.408-.557-.406A.689.689,0,0,0,79.247,138.849Zm0,0" transform="translate(-71.709 -124.955)"/>
        <path id="Trazado_898838" data-name="Trazado 898838" d="M121.734,96.206a.692.692,0,1,0-.4-1.252l-.017.013a.69.69,0,0,0,.416,1.24Zm0,0" transform="translate(-109.924 -86.109)"/>
        <path id="Trazado_898839" data-name="Trazado 898839" d="M49.67,310.521a.689.689,0,1,0-.009-.03Zm0,0" transform="translate(-45.076 -281.175)"/>
        <path id="Trazado_898840" data-name="Trazado 898840" d="M99.079,115.991a.691.691,0,1,0-.481-1.181l-.011.011a.689.689,0,0,0,.493,1.17Zm0,0" transform="translate(-89.351 -104.078)"/>
        <path id="Trazado_898841" data-name="Trazado 898841" d="M44.722,280.794a.689.689,0,0,0-1.368.17l0,.028a.689.689,0,0,0,1.364-.2Zm0,0" transform="translate(-39.367 -254.451)"/>
        <path id="Trazado_898842" data-name="Trazado 898842" d="M42.26,251.535h.021a.689.689,0,0,0,.688-.669v-.029a.689.689,0,1,0-.71.7Zm0,0" transform="translate(-37.77 -227.166)"/>
        <path id="Trazado_898843" data-name="Trazado 898843" d="M44.9,221.561a.712.712,0,0,0,.122.011A.69.69,0,0,0,45.7,221c0-.01,0-.02,0-.03a.689.689,0,1,0-.8.587Zm0,0" transform="translate(-40.259 -199.955)"/>
        <path id="Trazado_898844" data-name="Trazado 898844" d="M403.042,142.842a.689.689,0,0,0,1.134-.782l-.573.383.571-.387a.689.689,0,0,0-1.141.773Zm0,0" transform="translate(-365.898 -128.731)"/>
        <path id="Trazado_898845" data-name="Trazado 898845" d="M436.553,229.027a.689.689,0,0,0-.608.762l0,.03a.689.689,0,0,0,.681.591.705.705,0,0,0,.1-.007.694.694,0,0,0-.176-1.376Zm0,0" transform="translate(-395.89 -207.981)"/>
        <path id="Trazado_898846" data-name="Trazado 898846" d="M429.667,199.169l0,.009a.689.689,0,0,0,.661.495.679.679,0,0,0,.195-.028.689.689,0,0,0,.467-.856l0-.009a.689.689,0,1,0-1.322.389Zm0,0" transform="translate(-390.167 -180.068)"/>
        <path id="Trazado_898847" data-name="Trazado 898847" d="M418.608,169.959a.693.693,0,0,0,.622.387.689.689,0,0,0,.617-.991l-.624.291.624-.292a.689.689,0,0,0-1.248.585Zm0,0" transform="translate(-380.081 -153.434)"/>
        <path id="Trazado_898848" data-name="Trazado 898848" d="M383.4,118.529a.695.695,0,1,0-.021-.022Zm0,0" transform="translate(-347.989 -106.569)"/>
        <path id="Trazado_898849" data-name="Trazado 898849" d="M438.026,260.385a.693.693,0,0,0-.059,1.385h.039a.689.689,0,0,0,.687-.651v-.028A.688.688,0,0,0,438.026,260.385Zm0,0" transform="translate(-397.139 -236.462)"/>
        <path id="Trazado_898850" data-name="Trazado 898850" d="M333.911,80.564l.017.009a.686.686,0,0,0,.928-.283.691.691,0,0,0-.28-.933l-.333.6.331-.6a.689.689,0,1,0-.663,1.208Zm0,0" transform="translate(-302.909 -71.987)"/>
        <path id="Trazado_898851" data-name="Trazado 898851" d="M360.151,97.582l.011.008a.689.689,0,0,0,.833-1.1l0,0a.689.689,0,1,0-.839,1.093Zm0,0" transform="translate(-326.819 -87.494)"/>
        <path id="Trazado_898852" data-name="Trazado 898852" d="M46.613,34.354l-3.235-3.24a1.455,1.455,0,0,0-2.06,0l-.075.075-.212-.212a2.781,2.781,0,0,1-.6-.9.671.671,0,0,0-.049-.128,2.786,2.786,0,0,1-.16-.936v-.917a.694.694,0,1,0,0-1.225,3.885,3.885,0,0,0-1.139-2.591l-3.138-3.143a3.723,3.723,0,0,0-4.761-.427l-.333-.335V12.491a3.913,3.913,0,0,0-.971-2.58,2.781,2.781,0,0,1-.69-1.835V7.5h.047a1.458,1.458,0,0,0,1.457-1.457V1.457A1.458,1.458,0,0,0,29.229,0H16.358A1.458,1.458,0,0,0,14.9,1.457V6.041A1.458,1.458,0,0,0,16.358,7.5h.106v.3a2.765,2.765,0,0,1-.813,1.966l-1.389,1.392a3.887,3.887,0,0,0-1.143,2.764v4.445a3.715,3.715,0,0,0,.4,1.68A3.7,3.7,0,0,0,11.1,21.134L7.963,24.278A3.888,3.888,0,0,0,6.82,27.042V29.01a2.764,2.764,0,0,1-.813,1.966l-.21.21,0,0-.075-.075a1.455,1.455,0,0,0-2.06,0L.425,34.354a1.461,1.461,0,0,0,0,2.061l1.108,1.109a.689.689,0,1,0,.975-.974L1.4,35.441a.08.08,0,0,1,0-.113l3.235-3.24a.077.077,0,0,1,.109,0l.562.563h0l7.679,7.692.86.862a.08.08,0,0,1,0,.113l-3.235,3.24a.077.077,0,0,1-.11,0L4.459,38.5a.689.689,0,1,0-.975.974l6.044,6.054a1.455,1.455,0,0,0,2.06,0l3.235-3.24a1.46,1.46,0,0,0,0-2.06l-.035-.035.408-.409a2.769,2.769,0,0,1,1.783-.808,3.9,3.9,0,0,0,2.509-1.138l2.972-2.978a2.359,2.359,0,0,0,1.705-1.8,2.349,2.349,0,0,0,3.357-2.126V29.3a2.348,2.348,0,0,0,3.322-2.142V22.326l2.12,2.13a.689.689,0,1,0,.977-.972l-1.767-1.776a2.347,2.347,0,0,1,2.79.4L38.1,25.251a2.519,2.519,0,0,1,.74,1.791V29.01a4.134,4.134,0,0,0,1.216,2.94l.214.214-1,1-6.045,6.055-.337-.338-.01-.01-.059-.06A4.149,4.149,0,0,0,30.15,37.6a2.527,2.527,0,0,1-1.625-.737l-2.264-2.252a.689.689,0,1,0-.972.977l2.263,2.25a3.9,3.9,0,0,0,2.509,1.138,2.77,2.77,0,0,1,1.782.808l.033.033a.662.662,0,0,0,.057.057l.318.318-.035.036a1.46,1.46,0,0,0,0,2.06l3.235,3.24a1.456,1.456,0,0,0,2.061,0l9.1-9.118a1.46,1.46,0,0,0,0-2.06ZM40.68,27.5l-.013,0-.126-.025ZM18.511,36.868a2.522,2.522,0,0,1-1.622.736,4.149,4.149,0,0,0-2.669,1.209l-.407.407-.366-.367-.014-.014L6.769,32.164l.214-.214A4.134,4.134,0,0,0,8.2,29.01V27.042a2.518,2.518,0,0,1,.74-1.791l3.138-3.143a2.346,2.346,0,0,1,2.793-.4L13.1,23.483a.689.689,0,0,0,.975.974l2.114-2.118v8.6a2.35,2.35,0,0,0,3.37,2.12,2.361,2.361,0,0,0,1.168,1.587Zm10.954-9.705a.972.972,0,1,1-1.944,0V19.477a.689.689,0,1,0-1.378,0V30.941a.971.971,0,0,1-1.93.161V19.469a.7.7,0,0,0-1.392.008V30.94a2.362,2.362,0,0,0,.014.258v1.388a.972.972,0,1,1-1.944,0V19.461a.689.689,0,0,0-1.378,0V30.94a.972.972,0,1,1-1.944,0V18.123a.689.689,0,1,0-1.378,0v2.371a.676.676,0,0,0-.166.079A2.358,2.358,0,0,1,14.5,18.368V13.922a2.519,2.519,0,0,1,.74-1.791l1.389-1.392A4.133,4.133,0,0,0,17.842,7.8V7.5h1.385a.689.689,0,1,0,0-1.378h-2.87a.079.079,0,0,1-.079-.079V1.457a.079.079,0,0,1,.079-.079H29.229a.079.079,0,0,1,.079.079V6.041a.079.079,0,0,1-.079.079H22.462a.689.689,0,0,0,0,1.378H27.8v.577a4.161,4.161,0,0,0,1.032,2.744,2.533,2.533,0,0,1,.629,1.671Zm16.173,8.278-9.1,9.118a.074.074,0,0,1-.055.023.075.075,0,0,1-.055-.023l-3.235-3.24a.08.08,0,0,1,0-.113l.521-.522h0L39,35.39l3.3-3.3a.077.077,0,0,1,.109,0l3.235,3.24a.08.08,0,0,1,0,.113Zm0,0" transform="translate(0)"/>
        <path id="Trazado_898853" data-name="Trazado 898853" d="M194.55,32.8a.735.735,0,1,0,.734.735A.735.735,0,0,0,194.55,32.8Zm0,0" transform="translate(-176.01 -29.791)"/>
        <path id="Trazado_898854" data-name="Trazado 898854" d="M456.148,374.688a.735.735,0,1,0,.734.735A.735.735,0,0,0,456.148,374.688Zm0,0" transform="translate(-413.574 -340.264)"/>
        <path id="Trazado_898855" data-name="Trazado 898855" d="M110.479,443.938a.734.734,0,1,0-.734.735A.735.735,0,0,0,110.479,443.938Zm0,0" transform="translate(-98.996 -402.484)"/>
      </g>
    </g>
  </g>
</svg>
