<svg xmlns="http://www.w3.org/2000/svg" width="55.494" height="55.494" viewBox="0 0 55.494 55.494">
  <g id="Grupo_1100834" data-name="Grupo 1100834" transform="translate(-180 -6131.293)">
    <g id="Grupo_1100375" data-name="Grupo 1100375" transform="translate(0 668.222)">
      <g id="Grupo_1100359" data-name="Grupo 1100359" transform="translate(180 5463.071)">
        <g id="Grupo_1100253" data-name="Grupo 1100253">
          <path id="Trazado_883915" data-name="Trazado 883915" d="M55.494,27.748A27.747,27.747,0,1,1,27.747,0,27.747,27.747,0,0,1,55.494,27.748" transform="translate(0 -0.001)" fill="#2e3649"/>
        </g>
      </g>
      <g id="derecho-laboral_3_" data-name="derecho-laboral (3)" transform="translate(186.822 5466.419)">
        <path id="Trazado_896642" data-name="Trazado 896642" d="M16.942,33.031a93.184,93.184,0,0,0,8.433-9.864,22.483,22.483,0,0,0,2.246,1.567,3.6,3.6,0,0,0-.064,3.461,1.445,1.445,0,0,0,1.071.767.947.947,0,0,0,.216.016,1.476,1.476,0,0,0,1.047-.432l9.584-9.584a1.491,1.491,0,0,0,.416-1.271,1.445,1.445,0,0,0-.767-1.071,3.655,3.655,0,0,0-3.469.064,22.5,22.5,0,0,0-7.45-7.45,3.6,3.6,0,0,0,.064-3.461A1.445,1.445,0,0,0,27.2,5.006a1.468,1.468,0,0,0-1.271.416l-9.568,9.592a1.475,1.475,0,0,0-.416,1.271,1.445,1.445,0,0,0,.767,1.071,3.629,3.629,0,0,0,1.687.416,3.569,3.569,0,0,0,1.775-.488,23.517,23.517,0,0,0,1.575,2.246,93.607,93.607,0,0,0-9.928,8.5l-.016.016c-.192.192-.392.384-.584.568a32.338,32.338,0,0,0-5.5,6.7c-.935,1.751-.959,3.078-.088,3.957a2.17,2.17,0,0,0,1.591.639,5.221,5.221,0,0,0,2.366-.719,32.13,32.13,0,0,0,6.707-5.5c.208-.208.408-.424.616-.631.008-.008.024-.016.032-.024Zm-3.557-4.3c.4-.384.807-.767,1.215-1.151a9.783,9.783,0,0,0,2.734,2.734c-.384.416-.767.823-1.151,1.215a8.219,8.219,0,0,1-2.8-2.8ZM38.221,17.963l-9.328,9.328a2.051,2.051,0,0,1,.448-2.222L36,18.411a2.049,2.049,0,0,1,2.222-.448Zm-3.8-.232L28.652,23.5a20.938,20.938,0,0,1-7.242-7.242l5.771-5.771A20.871,20.871,0,0,1,34.424,17.731Zm-16.81-1.719,9.328-9.328a2.051,2.051,0,0,1-.448,2.222l-6.659,6.659A2.037,2.037,0,0,1,17.613,16.013Zm6.539,6.115a83.014,83.014,0,0,1-5.731,6.986,8.154,8.154,0,0,1-2.638-2.638,87.686,87.686,0,0,1,6.986-5.731c.448.488.9.943,1.383,1.383ZM8.844,37.771c-.592.32-1.655.783-2.078.36s.112-1.6.368-2.07a30.176,30.176,0,0,1,5.084-6.187,9.829,9.829,0,0,0,2.814,2.814A30.117,30.117,0,0,1,8.844,37.771Z" fill="#fff"/>
      </g>
    </g>
  </g>
</svg>
