<svg xmlns="http://www.w3.org/2000/svg" xmlns:xlink="http://www.w3.org/1999/xlink" width="420.27" height="393.235" viewBox="0 0 420.27 393.235">
  <defs>
    <clipPath id="clip-path">
      <rect id="Rectángulo_402315" data-name="Rectángulo 402315" width="364.064" height="364.313" fill="none"/>
    </clipPath>
  </defs>
  <g id="Grupo_1102852" data-name="Grupo 1102852" transform="translate(-180 -1025.863)">
    <g id="Grupo_1100263" data-name="Grupo 1100263" transform="translate(0.27 -1328.137)">
      <rect id="Rectángulo_35205" data-name="Rectángulo 35205" width="420.27" height="393.233" transform="translate(179.73 2354)" fill="#a1cad2"/>
      <path id="Trazado_896765" data-name="Trazado 896765" d="M327.351,151.172A151.171,151.171,0,1,1,176.18,0,151.17,151.17,0,0,1,327.351,151.172" transform="translate(214.43 2399.445)" fill="#e8f2f4"/>
    </g>
    <g id="Grupo_1100426" data-name="Grupo 1100426" transform="translate(198.047 1054.783)">
      <g id="Grupo_1100425" data-name="Grupo 1100425" transform="translate(0 0.002)" clip-path="url(#clip-path)">
        <path id="Trazado_897120" data-name="Trazado 897120" d="M1223.181,1386.969h-53.693s7.449-23.742,37.426-24.779h15.023Z" transform="translate(-934.278 -1088.223)" fill="#d3bba3"/>
        <path id="Trazado_897121" data-name="Trazado 897121" d="M1614.362,1376.432h33.823s-1.536-15.042-16.866-27.431H1620.99s-7.443,18.7-6.628,27.431" transform="translate(-1289.628 -1077.687)" fill="#d3bba3"/>
        <path id="Trazado_897122" data-name="Trazado 897122" d="M1637.365,1246.973l.968,22.364-14.417.44-4.284-24.412Z" transform="translate(-1293.887 -994.895)" fill="#bc8271"/>
        <path id="Trazado_897123" data-name="Trazado 897123" d="M1376.249,1248.067c-.135.7-5.653,20.795-5.653,20.795h-15.023l1.375-23.5Z" transform="translate(-1082.937 -994.895)" fill="#bc8271"/>
        <path id="Trazado_897124" data-name="Trazado 897124" d="M1419.368,787.886s5.919,57.066,6.615,93.981h-23.2l-12.423-74.637h-3.112s-4.285,39.553-13.723,74.732h-22.663l8.472-98.738Z" transform="translate(-1079.176 -625.7)" fill="#12263f"/>
        <path id="Trazado_897125" data-name="Trazado 897125" d="M1133.156,196.288a3.2,3.2,0,0,1,2.652.175,2.59,2.59,0,0,1,1.456-2.631,3.114,3.114,0,0,1,2.538.344,2.237,2.237,0,0,1,.909-2.455,2.722,2.722,0,0,1,2.534-.174c-1.712-5.446-2.215-7.517-1.12-8.053,1.923-.941,9.548,12.9,11.737,22.979,3.66,16.851,7.466,22.841,7.546,23.041q-.568.418-1.137.835c-5.5,4.012-11.137,7.843-16.672,11.812-.147-.468-3.286-1.7-7.54-31.837-.444-3.146-3.035-8.6-3.8-10.64a2.7,2.7,0,0,1,.9-3.4" transform="translate(-904.349 -146.553)" fill="#bc8271"/>
        <path id="Trazado_897126" data-name="Trazado 897126" d="M1186.908,262.566a.444.444,0,0,1-.443-.44,11.447,11.447,0,0,1,1.507-5.429c.672-1.347.971-2.021.426-2.615a5.832,5.832,0,0,1-1.257-3.365,1.384,1.384,0,0,1,2.323-1.152l4.9,4.577a.443.443,0,1,1-.605.648l-4.9-4.577a.491.491,0,0,0-.567-.08.478.478,0,0,0-.269.489,5.071,5.071,0,0,0,1.029,2.861c.981,1.07.394,2.247-.286,3.61a10.541,10.541,0,0,0-1.414,5.027.444.444,0,0,1-.44.447Z" transform="translate(-947.839 -199.072)" fill="#363e44"/>
        <path id="Trazado_897127" data-name="Trazado 897127" d="M1143.969,237.553a.443.443,0,0,1-.154-.859,2.917,2.917,0,0,0,1.777-3.545l-.377-1.284a.444.444,0,0,1,.815-.337l1.256,2.312a1.7,1.7,0,0,0,3.1-1.382l-1.175-3.3a.443.443,0,0,1,.817-.341l.734,1.526a1.27,1.27,0,0,0,2.351-.946l-.764-2.334a.443.443,0,0,1,.843-.276l.765,2.333a2.152,2.152,0,0,1-2.87,2.661l.135.378a2.587,2.587,0,0,1-4.645,2.218,3.808,3.808,0,0,1-2.449,3.147.439.439,0,0,1-.155.028" transform="translate(-913.537 -180.931)" fill="#363e44"/>
        <path id="Trazado_897128" data-name="Trazado 897128" d="M1420.833,410s-26.051-5.223-46.914.137L1363.793,499.5l70.963-.695Z" transform="translate(-1089.503 -325.719)" fill="#fff"/>
        <path id="Trazado_897129" data-name="Trazado 897129" d="M1227.552,365.624l-7.176,61.911h-17.923l4.2-31.243s-42.039,1.365-45.708-31.825l20.141-9.233s1.229,10.436,16.381,12.11,19.087-1.525,30.082-1.722" transform="translate(-927.456 -283.79)" fill="#147a8f"/>
        <path id="Trazado_897130" data-name="Trazado 897130" d="M1578.528,407.758c-.213.618,12.252,61.707,12.252,61.707h18.143l-1.4-9.66s5.285,3.153,12.671-1.069,4.582-26.473-7.611-38.664c-13.677-13.675-34.057-12.314-34.057-12.314" transform="translate(-1261.048 -325.719)" fill="#147a8f"/>
        <rect id="Rectángulo_402304" data-name="Rectángulo 402304" width="6.203" height="101.195" transform="translate(323.3 38.052)" fill="#d3bba3"/>
        <path id="Trazado_897131" data-name="Trazado 897131" d="M1512.04,44.7h-74.054a.443.443,0,0,1-.443-.443V.444a.443.443,0,0,1,.443-.443h74.054a.443.443,0,0,1,.443.443V44.257a.443.443,0,0,1-.443.443m-73.611-.887H1511.6V.888h-73.168Z" transform="translate(-1148.42 -0.001)" fill="#d3bba3"/>
        <rect id="Rectángulo_402305" data-name="Rectángulo 402305" width="65.525" height="36.013" transform="translate(293.83 3.978)" fill="#d3bba3"/>
        <path id="Trazado_897132" data-name="Trazado 897132" d="M1520.833,160.91h-33.361a.443.443,0,1,1,0-.887h33.361a.443.443,0,1,1,0,.887" transform="translate(-1187.954 -127.839)" fill="#fff"/>
        <path id="Trazado_897133" data-name="Trazado 897133" d="M1689.087,160.91h-15.9a.443.443,0,0,1,0-.887h15.9a.443.443,0,1,1,0,.887" transform="translate(-1336.319 -127.839)" fill="#fff"/>
        <path id="Trazado_897134" data-name="Trazado 897134" d="M1617.048,55.847h-27.641a.443.443,0,0,1,0-.887h27.641a.443.443,0,1,1,0,.887" transform="translate(-1269.387 -43.907)" fill="#fff"/>
        <path id="Trazado_897135" data-name="Trazado 897135" d="M1502.5,55.847h-15.032a.443.443,0,1,1,0-.887H1502.5a.443.443,0,1,1,0,.887" transform="translate(-1187.954 -43.907)" fill="#fff"/>
        <path id="Trazado_897136" data-name="Trazado 897136" d="M1688.487,91.031h0l-16.776-.121a.443.443,0,0,1,0-.887h0l16.777.121a.443.443,0,0,1,0,.887" transform="translate(-1335.137 -71.918)" fill="#fff"/>
        <path id="Trazado_897137" data-name="Trazado 897137" d="M1520.323,89.814h0l-32.2-.232a.444.444,0,0,1-.44-.446.428.428,0,0,1,.447-.44l32.2.232a.443.443,0,0,1,0,.887" transform="translate(-1188.477 -70.856)" fill="#fff"/>
        <path id="Trazado_897138" data-name="Trazado 897138" d="M1604.849,127.056h0l-27.936-.2a.443.443,0,0,1,0-.887h0l27.936.2a.443.443,0,0,1,0,.887" transform="translate(-1259.406 -100.633)" fill="#fff"/>
        <path id="Trazado_897139" data-name="Trazado 897139" d="M1502.437,126.314h0l-14.309-.1a.443.443,0,0,1,0-.887h0l14.309.1a.444.444,0,0,1,0,.887" transform="translate(-1188.478 -100.118)" fill="#fff"/>
        <path id="Trazado_897140" data-name="Trazado 897140" d="M1560.935,462.3a23.109,23.109,0,0,0,12.632-1.708,27.489,27.489,0,0,0,4.362-2.488c-.761-1.694-1.331-2.952-1.614-3.553a7.913,7.913,0,0,0-1.2-1.91c-2.5-2.9-6.268-1.014-9.647-3.868a4.915,4.915,0,0,1-1.559-2.2c-.743-2.213.707-3.17-.082-3.722-.554-.388-4.24-.444-3.853,4.767l.139.61c-.575-3.131.6-3.68-1.635-3.409-1.774.592-2.777,3.566-1.912,5.756-.97-2.457.65-3.481-.111-3.372-2.069.3-3.53,3.673-1.458,6.822h0c-.9-1.722-1.383-1.887-1.729-1.279-.631,1.11-.292,3.652,1.6,5.675a15.913,15.913,0,0,0,6.065,3.884" transform="translate(-1240.639 -353.658)" fill="#bc8271"/>
        <path id="Trazado_897141" data-name="Trazado 897141" d="M1637.2,459.293c-.245-4.96-.551-6.582.236-6.6,1.324-.023,4.535,3.907,5.807,11.11-1.8-1.107-4.246-3.407-6.042-4.514" transform="translate(-1307.707 -361.65)" fill="#bc8271"/>
        <path id="Trazado_897142" data-name="Trazado 897142" d="M1587.474,459.753a.44.44,0,0,1-.265-.088l-.147-.111a5.256,5.256,0,0,1-1.568-5.164.443.443,0,1,1,.847.263,4.35,4.35,0,0,0,1.265,4.2l.134.1a.443.443,0,0,1-.266.8" transform="translate(-1266.47 -362.752)" fill="#363e44"/>
        <path id="Trazado_897143" data-name="Trazado 897143" d="M1571.375,471.029a.441.441,0,0,1-.214-.055,4.739,4.739,0,0,1-2.716-5.518.444.444,0,0,1,.87.171,3.831,3.831,0,0,0,2.2,4.533.58.58,0,0,1,.148.087.443.443,0,0,1-.286.783" transform="translate(-1252.898 -371.556)" fill="#363e44"/>
        <path id="Trazado_897144" data-name="Trazado 897144" d="M1562.366,497.684a.44.44,0,0,1-.245-.074c-.195-.13-.394-.271-.6-.427a14.414,14.414,0,0,1-2.331-2.573.444.444,0,1,1,.708-.534,13.644,13.644,0,0,0,2.164,2.406c.184.142.367.271.545.39a.444.444,0,0,1-.246.813" transform="translate(-1245.534 -394.566)" fill="#363e44"/>
        <path id="Trazado_897145" data-name="Trazado 897145" d="M1619.86,500.123l-21.675-19.82-12.173,10.361L1606.737,514a9.55,9.55,0,1,0,13.123-13.875" transform="translate(-1267.029 -383.704)" fill="#bc8271"/>
        <path id="Trazado_897146" data-name="Trazado 897146" d="M1511.927,367.169h0a4.068,4.068,0,0,0,3.934-4.2l-.345-9.79a4.068,4.068,0,0,0-8.131.265l.344,9.79a4.068,4.068,0,0,0,4.2,3.933" transform="translate(-1204.213 -279.005)" fill="#bc8271"/>
        <path id="Trazado_897147" data-name="Trazado 897147" d="M1498.531,280.026c3.629-1.846,5.2-6.069,5.463-10.463.194-3.277-1.5-5.5-3.971-5.483-1.7-2.794-8.089-3.34-10.778-1.324-4.941,3.706-4.644,14.363.882,17.522,3.65,2.086,8.074-.085,8.4-.252" transform="translate(-1186.93 -208.944)" fill="#363e44"/>
        <path id="Trazado_897148" data-name="Trazado 897148" d="M1506.97,302.488c-.189,4.012-2.573,10.262-7.752,10.018s-6.965-6.691-6.776-10.7c.1-2.166.605-5.789,2.181-6.766,1.342-.833,3.752,1.426,5.6,1.513,2.006.095,3.868-2.038,5.113-.924s1.731,4.857,1.636,6.863" transform="translate(-1192.268 -235.552)" fill="#bc8271"/>
        <path id="Trazado_897149" data-name="Trazado 897149" d="M1558.819,338.717a.444.444,0,0,1-.418-.591,14.716,14.716,0,0,0,.75-3.26.443.443,0,1,1,.882.1,15.619,15.619,0,0,1-.8,3.46.443.443,0,0,1-.418.3" transform="translate(-1244.951 -267.201)" fill="#363e44"/>
        <path id="Trazado_897150" data-name="Trazado 897150" d="M1491.224,334.571a.443.443,0,0,1-.427-.323,15.61,15.61,0,0,1-.573-4.228.443.443,0,0,1,.443-.44h0a.443.443,0,0,1,.44.447,14.7,14.7,0,0,0,.54,3.981.443.443,0,0,1-.427.563" transform="translate(-1190.506 -263.294)" fill="#363e44"/>
        <path id="Trazado_897151" data-name="Trazado 897151" d="M1506.423,371.2q-.148,0-.3-.009c-2.123-.129-3.719-1.589-4.873-2.847a.443.443,0,1,1,.654-.6c1.106,1.205,2.478,2.452,4.274,2.561s3.331-1.035,4.467-2.044a.444.444,0,0,1,.589.664,7.492,7.492,0,0,1-4.811,2.274" transform="translate(-1199.221 -293.666)" fill="#363e44"/>
        <path id="Trazado_897152" data-name="Trazado 897152" d="M1526.429,343.974a.443.443,0,0,1-.191-.844c.255-.122.337-.227.346-.27a.72.72,0,0,0-.1-.227,2.747,2.747,0,0,1-.252-.6,2.435,2.435,0,0,1-.008-1.2.444.444,0,0,1,.864.2,1.555,1.555,0,0,0,0,.769,1.955,1.955,0,0,0,.179.418,1.169,1.169,0,0,1,.184.818,1.337,1.337,0,0,1-.833.895.441.441,0,0,1-.191.043" transform="translate(-1219.075 -272.007)" fill="#363e44"/>
        <path id="Trazado_897153" data-name="Trazado 897153" d="M1523.287,362.553a.838.838,0,1,1-.832-.942.892.892,0,0,1,.832.942" transform="translate(-1215.591 -288.883)" fill="#84524d"/>
        <path id="Trazado_897154" data-name="Trazado 897154" d="M1483.472,329.177c.616,1.586.258,3.205-.8,3.616s-2.414-.542-3.03-2.129-.258-3.205.8-3.616,2.414.542,3.03,2.128" transform="translate(-1181.812 -261.196)" fill="#bc8271"/>
        <path id="Trazado_897155" data-name="Trazado 897155" d="M1554.553,332.789c-.762,1.521-.558,3.167.456,3.675s2.455-.313,3.217-1.834.558-3.167-.456-3.675-2.455.313-3.217,1.834" transform="translate(-1241.529 -264.272)" fill="#bc8271"/>
        <path id="Trazado_897156" data-name="Trazado 897156" d="M1564.617,339.2a.443.443,0,0,1-.22-.828,1.845,1.845,0,0,0,.83-1.656.546.546,0,0,0-.24-.442.292.292,0,0,0-.07-.026.443.443,0,1,1,.2-.864,1.173,1.173,0,0,1,.272.1,1.4,1.4,0,0,1,.72,1.125,2.723,2.723,0,0,1-1.27,2.535.44.44,0,0,1-.219.059" transform="translate(-1249.583 -267.922)" fill="#363e44"/>
        <path id="Trazado_897157" data-name="Trazado 897157" d="M1483.876,335.465a.439.439,0,0,1-.254-.081,2.578,2.578,0,0,1-.884-1.178,1.868,1.868,0,0,1,.683-2.519,1.166,1.166,0,0,1,.278-.071.443.443,0,1,1,.115.879.311.311,0,0,0-.072.019c-.291.113-.428.724-.177,1.371a1.713,1.713,0,0,0,.568.773.443.443,0,0,1-.256.806" transform="translate(-1184.371 -264.918)" fill="#363e44"/>
        <path id="Trazado_897158" data-name="Trazado 897158" d="M1538.08,331.871a5.556,5.556,0,0,1-.989,1.066,3.851,3.851,0,0,1-1.746.333,2.859,2.859,0,0,1-3.09.246,5.078,5.078,0,0,1,.554-.663c.447-.459,2.316-.528,2.316-.528s1.223-.915,1.812-.8a5.42,5.42,0,0,1,1.144.348" transform="translate(-1224.084 -264.839)" fill="#fff"/>
        <path id="Trazado_897159" data-name="Trazado 897159" d="M1537.076,331.222a4.741,4.741,0,0,0-2.036,1.277,2.192,2.192,0,0,0,.452.989,4.638,4.638,0,0,0,2.218-.021,4.418,4.418,0,0,0,1.614-.887,2.175,2.175,0,0,0-.16-1.4,4.552,4.552,0,0,0-2.088.046" transform="translate(-1226.309 -264.49)" fill="#363e44"/>
        <path id="Trazado_897160" data-name="Trazado 897160" d="M1495.125,329.227a5.605,5.605,0,0,0,1.014,1.28c.368.347,1.611.241,1.611.241s1.268.962,1.868.9a5.408,5.408,0,0,0,1.153-.237,5.069,5.069,0,0,0-.479-.7c-.4-.5-2.147-.847-2.147-.847s-1.267-.936-1.867-.875a5.4,5.4,0,0,0-1.151.237" transform="translate(-1194.422 -262.822)" fill="#fff"/>
        <path id="Trazado_897161" data-name="Trazado 897161" d="M1504.032,330.619a4.759,4.759,0,0,0-1.924-1.484,4.564,4.564,0,0,0-2.084-.241,2.174,2.174,0,0,0-.175,1.378c.01.049.023.1.036.143a4.312,4.312,0,0,0,1.381.9,4.561,4.561,0,0,0,2.084.241,2.193,2.193,0,0,0,.682-.933" transform="translate(-1198.161 -262.724)" fill="#363e44"/>
        <path id="Trazado_897162" data-name="Trazado 897162" d="M461.953,1686.61h53.693s-7.449-23.742-37.426-24.779H463.2Z" transform="translate(-369.044 -1327.6)" fill="#e6d0be"/>
        <path id="Trazado_897163" data-name="Trazado 897163" d="M149.446,1676.073H115.623s1.536-15.042,16.866-27.431h10.329s7.443,18.7,6.628,27.431" transform="translate(-92.369 -1317.063)" fill="#e6d0be"/>
        <path id="Trazado_897164" data-name="Trazado 897164" d="M186.758,1546.615l-.968,22.364,14.417.44,4.284-24.412Z" transform="translate(-148.423 -1234.271)" fill="#e2a18d"/>
        <path id="Trazado_897165" data-name="Trazado 897165" d="M440.03,1547.708c.135.7,5.653,20.794,5.653,20.794h15.023l-1.375-23.5Z" transform="translate(-351.53 -1234.271)" fill="#e2a18d"/>
        <path id="Trazado_897166" data-name="Trazado 897166" d="M181.61,974.8s-6.866,77.8-7.561,114.711h23.2l12.423-74.637h3.112s4.285,39.553,13.723,74.732h22.662l-9.909-121.9Z" transform="translate(-139.044 -773.075)" fill="#2e3649"/>
        <path id="Trazado_897167" data-name="Trazado 897167" d="M510.164,689.85l-39.655-2.239,1.61-28.382,40.863,6.542Z" transform="translate(-375.879 -526.643)" fill="#e2a18d"/>
        <path id="Trazado_897168" data-name="Trazado 897168" d="M135,656.233c5.856-5.2,20.805-18.443,43.036-20.668,17.4-1.742,36.118,2.486,44.371,5.1-.2,10.467-.6,21.538-.805,32.006-4.026.6-6.139.906-10.353,1.54v39.856l-63.6.047-.055-30.284-7.079,2.629Z" transform="translate(-107.844 -507.412)" fill="#775e33"/>
        <path id="Trazado_897169" data-name="Trazado 897169" d="M512.581,788.209h0a.444.444,0,0,1-.441-.446c.015-3.107.041-4.673.074-6.655.016-.942.033-1.967.05-3.287a.436.436,0,0,1,.449-.437.443.443,0,0,1,.437.449c-.018,1.32-.035,2.347-.05,3.289-.033,1.979-.059,3.542-.074,6.644a.443.443,0,0,1-.444.441" transform="translate(-409.135 -621.035)" fill="#363e44"/>
        <path id="Trazado_897170" data-name="Trazado 897170" d="M192.956,863.2a.444.444,0,0,1-.152-.86c2.92-1.064,4.4-1.583,6.267-2.239.889-.312,1.857-.652,3.1-1.093a.443.443,0,0,1,.3.836c-1.245.442-2.214.782-3.1,1.094-1.867.656-3.342,1.174-6.257,2.236a.453.453,0,0,1-.152.027" transform="translate(-153.794 -686.219)" fill="#363e44"/>
        <path id="Trazado_897171" data-name="Trazado 897171" d="M623.958,514.456c-2.084-25.526-2.593-43.745-4.089-54.993-.672-5.049-2.308-9.976-.13-14.363.966-1.945,2.41-3.857,3.765-3,2.116,1.332-.763,6.992.991,8.03s4.177-3.08,5.255-5.94c.726-1.927,1.886-4.1,3.788-3.762,2.7.486,1.828,4.466,1.8,4.735a3.206,3.206,0,0,1,3.722-.047c1.114,1,1.118,3.459-.752,4.944.263-.14,2.226-1.163,3.111-.447.868.7.65,3.038-1.152,5.555,1.6-.746,2.9-.7,3.323-.207,1.2,1.388.261,4.676-4.776,10.733.62,3.6,3.634,17.917,6,29.021a16.8,16.8,0,0,1-20.123,19.923q-.361-.084-.729-.177" transform="translate(-494.221 -351.817)" fill="#e2a18d"/>
        <path id="Trazado_897172" data-name="Trazado 897172" d="M636.114,697.217a.444.444,0,0,1-.442-.411c-.194-2.667-.368-6.084-.537-9.389-.12-2.351-.233-4.571-.342-6.268a.443.443,0,1,1,.885-.056c.109,1.7.222,3.926.343,6.279.169,3.3.343,6.712.536,9.37a.444.444,0,0,1-.411.474h-.032" transform="translate(-507.121 -543.778)" fill="#363e44"/>
        <path id="Trazado_897173" data-name="Trazado 897173" d="M677.209,543.113a.444.444,0,0,1-.439-.385,7.659,7.659,0,0,1,4.7-8.139.443.443,0,1,1,.337.82,6.964,6.964,0,0,0-3.44,3.111,6.886,6.886,0,0,0-.721,4.089.442.442,0,0,1-.44.5" transform="translate(-540.603 -427.046)" fill="#363e44"/>
        <path id="Trazado_897174" data-name="Trazado 897174" d="M624.777,446.064h0c-2.408,1.944-6.11,1.351-8.269-1.323L599.3,422.893l8.466-6.833L625.23,437.7c2.158,2.674,1.956,6.418-.452,8.362" transform="translate(-478.765 -332.381)" fill="#8f4d4b"/>
        <path id="Trazado_897175" data-name="Trazado 897175" d="M797.488,217.332a.443.443,0,0,1-.333-.737,7.79,7.79,0,0,0-9.567-12.081.443.443,0,0,1-.42-.781,8.677,8.677,0,0,1,10.653,13.448.442.442,0,0,1-.333.15" transform="translate(-628.664 -161.888)" fill="#363e44"/>
        <path id="Trazado_897176" data-name="Trazado 897176" d="M597.64,202.981l11.187,13.6,45.038-20.14-27.783-33.77Z" transform="translate(-477.441 -129.953)" fill="#be6763"/>
        <rect id="Rectángulo_402306" data-name="Rectángulo 402306" width="11.74" height="17.562" transform="translate(111.148 80.505) rotate(-39.444)" fill="#e7d8bb"/>
        <rect id="Rectángulo_402307" data-name="Rectángulo 402307" width="8.351" height="3.094" transform="translate(119.924 88.841) rotate(-39.445)" fill="#be6763"/>
        <rect id="Rectángulo_402308" data-name="Rectángulo 402308" width="8.351" height="3.094" transform="translate(116.888 85.15) rotate(-39.445)" fill="#be6763"/>
        <rect id="Rectángulo_402309" data-name="Rectángulo 402309" width="8.35" height="3.094" transform="translate(113.851 81.46) rotate(-39.444)" fill="#be6763"/>
        <path id="Trazado_897177" data-name="Trazado 897177" d="M681.5,470.374c-2.587,2-3.438,4.475-2.774,5.366.609.817,2.834.756,5.192-.568a.028.028,0,0,1,.032.047c-2.484,2.075-3.5,4.32-2.918,5.15.531.757,2.594.633,4.953-.432a.029.029,0,0,1,.027.051c-2.125,1.346-3.14,3-2.78,3.735.382.78,3.023,1.539,6.947-1.206Z" transform="translate(-542.042 -375.772)" fill="#e2a18d"/>
        <path id="Trazado_897178" data-name="Trazado 897178" d="M619.746,466.913c-1.026-5.708-2.154-10.194-.129-14.363.618-1.273,1.66-2.875,2.926-2.836,2.517.078,1.413,3.93,1.755,6.664.319,2.547,2.111,3.751,3.35,6.049.975,1.808,1.92,4.73,1.246,9.339l-9.147-4.853" transform="translate(-494.099 -359.266)" fill="#e2a18d"/>
        <rect id="Rectángulo_402310" data-name="Rectángulo 402310" width="7.095" height="115.738" transform="translate(39.026 67.846)" fill="#e7d8bb"/>
        <path id="Trazado_897179" data-name="Trazado 897179" d="M85.14,172.262H.443A.443.443,0,0,1,0,171.818V121.709a.443.443,0,0,1,.443-.443h84.7a.443.443,0,0,1,.443.443v50.109a.443.443,0,0,1-.443.443M.887,171.375H84.7V122.153H.887Z" transform="translate(0 -96.877)" fill="#c59d55"/>
        <rect id="Rectángulo_402311" data-name="Rectángulo 402311" width="74.941" height="41.189" transform="translate(5.321 28.875)" fill="#e7d8bb"/>
        <path id="Trazado_897180" data-name="Trazado 897180" d="M114.544,305.173h-57.5a.443.443,0,1,1,0-.887h57.5a.443.443,0,0,1,0,.887" transform="translate(-45.215 -243.088)" fill="#fff"/>
        <path id="Trazado_897181" data-name="Trazado 897181" d="M289.619,185.01H271.659a.443.443,0,0,1,0-.887h17.959a.443.443,0,0,1,0,.887" transform="translate(-216.668 -147.092)" fill="#fff"/>
        <path id="Trazado_897182" data-name="Trazado 897182" d="M119.129,185.01H84.984a.443.443,0,0,1,0-.887h34.145a.443.443,0,0,1,0,.887" transform="translate(-67.538 -147.092)" fill="#fff"/>
        <path id="Trazado_897183" data-name="Trazado 897183" d="M241.325,224.92h0l-30.672-.221a.444.444,0,0,1-.44-.446.437.437,0,0,1,.447-.44l30.672.221a.443.443,0,0,1,0,.887" transform="translate(-167.931 -178.799)" fill="#fff"/>
        <path id="Trazado_897184" data-name="Trazado 897184" d="M83.807,223.783h0l-26.016-.188a.443.443,0,0,1,0-.887h0l26.016.188a.443.443,0,0,1,0,.887" transform="translate(-45.814 -177.917)" fill="#fff"/>
        <path id="Trazado_897185" data-name="Trazado 897185" d="M286.318,267.142h0L267.247,267a.443.443,0,1,1,.006-.887l19.068.138a.444.444,0,0,1,0,.887" transform="translate(-213.146 -212.595)" fill="#fff"/>
        <path id="Trazado_897186" data-name="Trazado 897186" d="M96.519,265.767h0l-38.728-.281a.443.443,0,0,1,0-.887h0l38.728.281a.443.443,0,0,1,0,.887" transform="translate(-45.814 -211.383)" fill="#fff"/>
        <path id="Trazado_897187" data-name="Trazado 897187" d="M162.858,575.3a30.516,30.516,0,0,1-16.778,4.079,38.248,38.248,0,0,1-6.917-.972c-1.063-.538-.972-2.128-.916-3.051a60.74,60.74,0,0,1,3.049-7.7c2.535-4.68,4.935-3.252,9.17-7.713,4.806-5.062,4.647-10.633,6.426-10.527,1.237.074,1.889,2.158,1.562,6.548h0c.632-3.307.489-7.472,2.315-7.117,2.087.522,2.66,5.61,2.124,8.841.649-3.91.971-5.45,2.015-5.219,1.589.351,2.31,3.64,1.788,8.87h0c.558-3.456,2.48.017,2.48,2.161a17.275,17.275,0,0,1-1.848,5.765c-2.219,3.656-2.772,4.447-4.471,6.042" transform="translate(-110.418 -438.443)" fill="#e2a18d"/>
        <path id="Trazado_897188" data-name="Trazado 897188" d="M157.8,589.35c.386-6.219.554-9.423,0-9.479-1.832-.183-6.012,5.534-9.331,15.151,2.709-1.128,6.622-4.544,9.331-5.672" transform="translate(-118.612 -463.243)" fill="#e2a18d"/>
        <path id="Trazado_897189" data-name="Trazado 897189" d="M221.755,588.8a.444.444,0,0,1-.333-.736,13.185,13.185,0,0,0,2.8-5.22.443.443,0,1,1,.855.235,14.078,14.078,0,0,1-2.992,5.57.443.443,0,0,1-.334.151" transform="translate(-176.801 -465.364)" fill="#363e44"/>
        <path id="Trazado_897190" data-name="Trazado 897190" d="M244.154,594.838a.444.444,0,0,1-.333-.736,13.191,13.191,0,0,0,2.8-5.22.443.443,0,1,1,.855.235,14.079,14.079,0,0,1-2.993,5.57.442.442,0,0,1-.334.151" transform="translate(-194.695 -470.185)" fill="#363e44"/>
        <path id="Trazado_897191" data-name="Trazado 897191" d="M263.344,615.533a.443.443,0,0,1-.333-.736,13.2,13.2,0,0,0,2.8-5.22.443.443,0,1,1,.855.235,14.078,14.078,0,0,1-2.993,5.57.441.441,0,0,1-.334.151" transform="translate(-210.025 -486.718)" fill="#363e44"/>
        <path id="Trazado_897192" data-name="Trazado 897192" d="M66.462,666.577l17.814-36.761,21.059,7.126L90.558,677.756c-7.133,14.077-19.845,9.347-19.845,9.347-6.65-3.172-7.463-13.9-4.25-20.526" transform="translate(-51.64 -503.146)" fill="#e2a18d"/>
        <path id="Trazado_897193" data-name="Trazado 897193" d="M333.482,554.3h.005a7.922,7.922,0,0,0,8.428-7.341l1.246-17.485a7.922,7.922,0,0,0-15.8-1.128l-1.251,17.485a7.922,7.922,0,0,0,7.375,8.469" transform="translate(-260.503 -416.206)" fill="#e2a18d"/>
        <path id="Trazado_897194" data-name="Trazado 897194" d="M307.921,453.256c.551-.331,5.877-3.417,11.015-1.215,3.824,1.639,5.842,5.116,8.344,11.46,2.947,7.471,3.666,12.348,2.261,14.767-2.219,3.821-14.481,3.461-21.193-1.1a16.134,16.134,0,0,1-6.646-15.165c.683-5.841,5.867-8.54,6.218-8.751" transform="translate(-240.934 -360.497)" fill="#e2a18d"/>
        <path id="Trazado_897195" data-name="Trazado 897195" d="M363.022,590.7a27.855,27.855,0,0,1-9.4-1.682.443.443,0,1,1,.308-.831,26.623,26.623,0,0,0,10.239,1.6.444.444,0,0,1,.045.886c-.391.02-.788.03-1.189.03" transform="translate(-282.267 -469.864)" fill="#363e44"/>
        <path id="Trazado_897196" data-name="Trazado 897196" d="M359.1,517.205a9.857,9.857,0,0,0,3.81,2.055,6.934,6.934,0,0,0,1.48.224,2.077,2.077,0,1,0,.16-4.141,7.243,7.243,0,0,0-2.093.24c-.129.033-.256.07-.38.108s-.265.085-.392.131a9.96,9.96,0,0,0-2.585,1.383" transform="translate(-286.878 -411.692)" fill="#fff"/>
        <path id="Trazado_897197" data-name="Trazado 897197" d="M382.1,517.622a9.27,9.27,0,0,0-5.29-2.278,7.24,7.24,0,0,0-2.1.241,3.872,3.872,0,0,0,.264,3.367c.063.107.13.209.2.307a6.95,6.95,0,0,0,1.473.225,9.271,9.271,0,0,0,5.451-1.862" transform="translate(-299.138 -411.693)" fill="#363e44"/>
        <path id="Trazado_897198" data-name="Trazado 897198" d="M421.861,525.305a.459.459,0,0,1-.107-.013.443.443,0,0,1-.324-.537c.106-.428.1-.744-.013-.869-.049-.053-.127-.073-.336-.113a3.19,3.19,0,0,1-.69-.2,2.928,2.928,0,0,1-1.246-1.052.443.443,0,0,1,.728-.507,2.054,2.054,0,0,0,.867.744,2.355,2.355,0,0,0,.51.142,1.35,1.35,0,0,1,.821.385,1.749,1.749,0,0,1,.22,1.681.443.443,0,0,1-.43.337" transform="translate(-334.782 -416.876)" fill="#363e44"/>
        <path id="Trazado_897199" data-name="Trazado 897199" d="M410.593,556.891a.446.446,0,0,1-.124-.018,3.192,3.192,0,0,1-1.712-1.172,3.155,3.155,0,0,1-.606-2.123.907.907,0,0,1,.364-.625c.391-.268.8-.041,1.123.143a2.331,2.331,0,0,0,1.223.379,3.136,3.136,0,0,0,1.352-.366.444.444,0,0,1,.416.784,4.035,4.035,0,0,1-1.736.468,3.063,3.063,0,0,1-1.689-.492c-.063-.035-.139-.078-.2-.11a2.546,2.546,0,0,0,.474,1.422,2.315,2.315,0,0,0,1.241.841.443.443,0,0,1-.124.869" transform="translate(-326.045 -441.643)" fill="#363e44"/>
        <path id="Trazado_897200" data-name="Trazado 897200" d="M310.26,532.359c2.325,1.382,3.236,4.142,2.034,6.164s-4.061,2.541-6.387,1.159-3.236-4.142-2.034-6.164,4.061-2.541,6.387-1.158" transform="translate(-242.334 -424.672)" fill="#e2a18d"/>
        <path id="Trazado_897201" data-name="Trazado 897201" d="M329.405,566.688a.443.443,0,0,1-.025-.886,3.633,3.633,0,0,0,3-1.709.443.443,0,1,1,.762.453,4.5,4.5,0,0,1-3.711,2.141h-.026" transform="translate(-262.801 -450.468)" fill="#363e44"/>
        <path id="Trazado_897202" data-name="Trazado 897202" d="M305.277,531.848a.443.443,0,0,1-.356-.708,5.1,5.1,0,0,1,6.757-.955.443.443,0,0,1-.454.762,4.274,4.274,0,0,0-5.591.722.442.442,0,0,1-.356.179" transform="translate(-243.525 -422.879)" fill="#363e44"/>
        <path id="Trazado_897203" data-name="Trazado 897203" d="M313.908,545.3a.439.439,0,0,1-.226-.062,2.822,2.822,0,0,1-1.253-1.528,2.234,2.234,0,0,1,.178-1.869,2.308,2.308,0,0,1,2.025-1.091h.01a.443.443,0,0,1,0,.887h-.009a1.433,1.433,0,0,0-1.263.657,1.362,1.362,0,0,0-.1,1.138,1.933,1.933,0,0,0,.864,1.044.443.443,0,0,1-.227.825" transform="translate(-249.492 -431.991)" fill="#363e44"/>
        <path id="Trazado_897204" data-name="Trazado 897204" d="M287.132,435.915c5.972-6.24,13.22-6.469,15.318-6.778a7.076,7.076,0,0,0,.379-5.306c-1.4-3.763-7.27-6.517-14.081-4.984.533.064,3.07,1.1,3.43,1.838a9.237,9.237,0,0,0-5.571-.834c-4.781.565-8.892,4.944-10.234,11.333a6.569,6.569,0,0,1,2.483-2.52,13.556,13.556,0,0,0-1.857,2.9c-2.365,5.007-.923,10.057-.322,11.825.776-1.293,3.96-6.458,10.456-7.473" transform="translate(-220.241 -334.262)" fill="#84524d"/>
        <path id="Trazado_897205" data-name="Trazado 897205" d="M339.973,457.577a.44.44,0,0,1-.124-.018,22.86,22.86,0,0,0-8.281-.845.444.444,0,0,1-.072-.884,23.724,23.724,0,0,1,7.573.6,6.381,6.381,0,0,0-5.137-2.817.444.444,0,0,1,.023-.887,7.276,7.276,0,0,1,6.42,4.218.444.444,0,0,1-.4.631" transform="translate(-264.499 -361.675)" fill="#363e44"/>
        <path id="Trazado_897206" data-name="Trazado 897206" d="M810.965,792.94c-1.157-6.862-6.807-11.839-10.667-15.238a55.712,55.712,0,0,1-5.149-4.748c-3.224-3.485-3.642-5.2-6.7-5.919-6.09-1.426-12.18,3.561-13.207,4.4-6.022,4.931-5.086,10.014-9.143,11.344-4.582,1.5-7.835-4.308-15.577-7.619-8.306-3.552-21.227-3.993-29.122,2.878-5.471,4.761-7.887,12.476-7.668,20.062,2.135-2.783,6.012-6.587,11.592-7.249,0,0-8.763,4.421-10.706,13.914a23.989,23.989,0,0,0,6.782,12.215c1.362,1.229,4.877,4.011,21.841,4.91,9.229.489,11.35-.327,49.27-6.942,3.44-.6,8.183-1.423,12.263-5.182,4.169-3.842,7.274-10.408,6.192-16.828" transform="translate(-570.173 -612.564)" fill="#363e44"/>
        <path id="Trazado_897207" data-name="Trazado 897207" d="M807.868,853.364a10.151,10.151,0,0,1-3.163-.505c-2.882-.958-5.2-2.91-7.52-5q-1.2-1.077-2.383-2.169a99.986,99.986,0,0,0-9.128-7.709c-4.665-3.338-9.258-5.306-13.65-5.848-5.282-.652-10.43.864-13.77,4.054a.443.443,0,0,1-.612-.642c3.53-3.371,8.947-4.976,14.491-4.292,4.541.56,9.271,2.581,14.058,6.006a100.779,100.779,0,0,1,9.211,7.777c.791.724,1.581,1.447,2.377,2.163,2.246,2.021,4.487,3.909,7.207,4.813,2.456.817,5.829.686,7.826-1.447a.443.443,0,0,1,.647.606,7.534,7.534,0,0,1-5.591,2.188" transform="translate(-605.152 -663.949)" fill="#40484c"/>
        <path id="Trazado_897208" data-name="Trazado 897208" d="M885.892,919.7a14.265,14.265,0,0,1-4.024-.573c-3.3-.971-6.1-3.069-8.809-5.1-.492-.369-.984-.737-1.477-1.1-3.005-2.2-6.611-4.43-10.569-4.293a.429.429,0,0,1-.458-.428.443.443,0,0,1,.428-.458c4.252-.149,8.178,2.309,11.123,4.463.5.362.99.733,1.485,1.1,2.644,1.982,5.379,4.031,8.527,4.958a13.738,13.738,0,0,0,11.155-1.6.443.443,0,0,1,.479.746,14.623,14.623,0,0,1-7.86,2.276" transform="translate(-687.478 -725.18)" fill="#40484c"/>
        <path id="Trazado_897209" data-name="Trazado 897209" d="M1037.913,780.208a13.48,13.48,0,1,1-13.48-13.48,13.48,13.48,0,0,1,13.48,13.48" transform="translate(-807.627 -612.521)" fill="#363e44"/>
        <rect id="Rectángulo_402312" data-name="Rectángulo 402312" width="13.414" height="23.095" transform="translate(210.243 178.772)" fill="#84524d"/>
        <path id="Trazado_897210" data-name="Trazado 897210" d="M1045.07,806.476c0,7.181-4.973,14.755-11.108,14.755s-11.109-7.575-11.109-14.755,4.974-13,11.109-13,11.108,5.821,11.108,13" transform="translate(-817.134 -633.889)" fill="#84524d"/>
        <path id="Trazado_897211" data-name="Trazado 897211" d="M1051.654,917.328a9.413,9.413,0,0,1-6.519-2.9.443.443,0,0,1,.615-.638,8.55,8.55,0,0,0,5.9,2.651,8.76,8.76,0,0,0,6.339-3.093.443.443,0,0,1,.646.607,9.617,9.617,0,0,1-6.985,3.373" transform="translate(-834.827 -729.542)" fill="#363e44"/>
        <path id="Trazado_897212" data-name="Trazado 897212" d="M1009.31,845.162c1,2.2.617,4.529-.863,5.2s-3.493-.56-4.5-2.759-.617-4.529.863-5.2,3.493.56,4.5,2.759" transform="translate(-801.588 -672.83)" fill="#84524d"/>
        <path id="Trazado_897213" data-name="Trazado 897213" d="M1009.614,854.119a.441.441,0,0,1-.288-.106,3.666,3.666,0,0,1-.934-1.264c-.655-1.436-.353-2.934.687-3.409a1.7,1.7,0,0,1,1.32-.014.444.444,0,0,1-.312.831.838.838,0,0,0-.64-.009c-.568.259-.682,1.282-.249,2.233a2.773,2.773,0,0,0,.7.957.443.443,0,0,1-.288.781" transform="translate(-805.306 -678.408)" fill="#363e44"/>
        <path id="Trazado_897214" data-name="Trazado 897214" d="M1021.84,851.99a.444.444,0,0,1-.421-.3,15.351,15.351,0,0,1-.771-4.84,15.789,15.789,0,0,1,.193-2.465.444.444,0,0,1,.876.14,14.836,14.836,0,0,0-.183,2.325,14.468,14.468,0,0,0,.726,4.561.444.444,0,0,1-.282.56.455.455,0,0,1-.139.022" transform="translate(-815.373 -674.259)" fill="#363e44"/>
        <path id="Trazado_897215" data-name="Trazado 897215" d="M1120.548,845.162c-1,2.2-.617,4.529.863,5.2s3.493-.56,4.5-2.759.617-4.529-.863-5.2-3.493.56-4.5,2.759" transform="translate(-894.734 -672.83)" fill="#84524d"/>
        <path id="Trazado_897216" data-name="Trazado 897216" d="M1135.475,854.119a.443.443,0,0,1-.288-.781,2.773,2.773,0,0,0,.7-.957,2.622,2.622,0,0,0,.237-1.464,1,1,0,0,0-.485-.769.844.844,0,0,0-.64.009.444.444,0,0,1-.312-.831,1.7,1.7,0,0,1,1.32.014,1.815,1.815,0,0,1,.992,1.432,3.475,3.475,0,0,1-.3,1.977,3.664,3.664,0,0,1-.934,1.264.443.443,0,0,1-.288.106" transform="translate(-906.247 -678.408)" fill="#363e44"/>
        <path id="Trazado_897217" data-name="Trazado 897217" d="M1127.243,851.99a.449.449,0,0,1-.139-.023.443.443,0,0,1-.282-.56,14.469,14.469,0,0,0,.726-4.561,14.826,14.826,0,0,0-.183-2.325.444.444,0,0,1,.876-.14,15.775,15.775,0,0,1,.193,2.465,15.345,15.345,0,0,1-.771,4.84.443.443,0,0,1-.421.3" transform="translate(-900.175 -674.259)" fill="#363e44"/>
        <path id="Trazado_897218" data-name="Trazado 897218" d="M1077.426,869.667a.443.443,0,0,1-.238-.818,1.1,1.1,0,0,0,.536-.626c.05-.21-.022-.388-.177-.74a4.777,4.777,0,0,1-.359-1.064,4.143,4.143,0,0,1,.061-1.79.443.443,0,0,1,.861.211,3.276,3.276,0,0,0-.052,1.409,3.937,3.937,0,0,0,.3.876,1.721,1.721,0,0,1-.694,2.472.443.443,0,0,1-.238.069" transform="translate(-860.376 -690.463)" fill="#363e44"/>
        <path id="Trazado_897219" data-name="Trazado 897219" d="M1024.416,986.374s-8,8.337-17.871,8.337-17.871-8.337-17.871-8.337a57.106,57.106,0,0,1,35.741,0" transform="translate(-789.829 -785.701)" fill="#84524d"/>
        <path id="Trazado_897220" data-name="Trazado 897220" d="M1094.551,848.817h0l-.029,0c-.015.06-.055.136-.119.134a1.848,1.848,0,0,0-.161.331c-.092.172-.353.019-.262-.153.062-.116-.349.106-.53.175-.575.221-1.157.416-1.747.593-.275.083-.55.167-.828.24a7.206,7.206,0,0,1-1.016.256,7.527,7.527,0,0,0-1.164,1.335,7.732,7.732,0,0,0,2.465.551c0-.019.008-.037.011-.056a11.793,11.793,0,0,1,3.324-.8,7.716,7.716,0,0,0,2.137-2.083,7.668,7.668,0,0,0-2.082-.521" transform="translate(-869.734 -678.099)" fill="#fff"/>
        <path id="Trazado_897221" data-name="Trazado 897221" d="M1096.832,848.853a6.174,6.174,0,0,0-2.343,1.388,2.5,2.5,0,0,0,.853,1.6,2.532,2.532,0,0,0,.4.283,5.783,5.783,0,0,0,2.007-.214,5.5,5.5,0,0,0,1.35-.628,2.514,2.514,0,0,0,.048-2.62,5.946,5.946,0,0,0-2.319.187" transform="translate(-874.363 -677.95)" fill="#363e44"/>
        <path id="Trazado_897222" data-name="Trazado 897222" d="M1031.431,849.9h0l.029,0c.015.06.055.136.119.134a1.818,1.818,0,0,1,.162.331c.092.172.353.019.261-.153-.062-.116.349.106.53.175.575.221,1.157.416,1.747.593.275.083.55.167.828.24a7.209,7.209,0,0,0,1.017.256,7.512,7.512,0,0,1,1.163,1.335,7.73,7.73,0,0,1-2.465.551c0-.019-.008-.037-.012-.056a11.791,11.791,0,0,0-3.324-.8,7.718,7.718,0,0,1-2.137-2.083,7.669,7.669,0,0,1,2.082-.521" transform="translate(-822.324 -678.961)" fill="#fff"/>
        <path id="Trazado_897223" data-name="Trazado 897223" d="M1040.793,849.932a6.169,6.169,0,0,1,2.343,1.388,2.505,2.505,0,0,1-1.257,1.886,5.784,5.784,0,0,1-2.007-.214,5.5,5.5,0,0,1-1.349-.627,2.515,2.515,0,0,1-.048-2.62,5.946,5.946,0,0,1,2.319.188" transform="translate(-829.338 -678.812)" fill="#363e44"/>
        <path id="Trazado_897224" data-name="Trazado 897224" d="M1022.853,753.481s1.382-4.571,6.759-1.354,20.226,5.079,22.114-6.265-7.455-10.944-10.934-6.956-4.976,9.25-11.18,8.942-6.759,5.633-6.759,5.633" transform="translate(-817.134 -588.263)" fill="#363e44"/>
        <path id="Trazado_897225" data-name="Trazado 897225" d="M1073.492,902.177c0,.506-.615.916-1.373.916s-1.373-.41-1.373-.916.615-.916,1.373-.916,1.373.41,1.373.916" transform="translate(-855.394 -719.998)" fill="#363e44"/>
        <path id="Trazado_897226" data-name="Trazado 897226" d="M830.107,1308.546s17.18,40.432,11.783,95.225h-96.8l31.662-102.623Z" transform="translate(-595.232 -1039.458)" fill="#9e7e44"/>
        <path id="Trazado_897227" data-name="Trazado 897227" d="M1323.075,701.647s-3.108-29.942-3.637-45.93c-.555-16.79-.853-28.806,3.65-29.991a3.479,3.479,0,0,1,4.019,1.47,4.426,4.426,0,0,1,3.939-1.254,3.645,3.645,0,0,1,2.846,3.174c.134-.182,1.766-2.179,3.635-2.042a4.217,4.217,0,0,1,3.779,3.112c.345-.442,2.12-2.075,3.908-1.853,2.325.289,3.355,2.67,3.391,4.605.065,3.55,0,13.255.622,18.392,1.222,10.109,10.376,45.426,8.285,60.5-11.7-6.033-34.435-10.188-34.435-10.188" transform="translate(-1053.823 -499.758)" fill="#84524d"/>
        <path id="Trazado_897228" data-name="Trazado 897228" d="M1368.964,680.526a3.931,3.931,0,0,1-.421-.023,4.3,4.3,0,0,1-3.126-2.958c-.934,1.767-2.693,2.853-3.988,2.67-1.763-.247-2.837-1.639-3.191-4.138a.444.444,0,1,1,.878-.125c.3,2.089,1.093,3.2,2.436,3.385,1.2.162,3.049-1.346,3.507-3.352a.481.481,0,0,1,.95.086c.077,1.657,1.379,3.417,2.628,3.55,1.675.183,3.054-1.006,3.435-2.951a.5.5,0,0,1,.986.045c.136,1.288.939,2.684,2.05,2.788,1.173.114,2.711-.712,3.194-3.388a.443.443,0,1,1,.872.157c-.551,3.057-2.483,4.266-4.149,4.114a3.246,3.246,0,0,1-2.512-2.234,3.936,3.936,0,0,1-3.549,2.373m3.212-3.719h0m-7.053-.7v0" transform="translate(-1085.061 -539.698)" fill="#363e44"/>
        <path id="Trazado_897229" data-name="Trazado 897229" d="M1333.823,668.237c1.013-1.3,6.494-8.256,8.542-7.216,2.405,1.223-1.353,12.754-1.653,13.66Z" transform="translate(-1065.561 -527.991)" fill="#84524d"/>
        <path id="Trazado_897230" data-name="Trazado 897230" d="M1338.951,673.39a.448.448,0,0,1-.139-.023.443.443,0,0,1-.282-.56c1.933-5.842,3.246-12.428,1.873-13.126-1.06-.537-4.271,2.313-7.991,7.093a.443.443,0,0,1-.7-.545c3.042-3.909,7.088-8.354,9.093-7.339,2.592,1.317-.441,11.2-1.433,14.195a.444.444,0,0,1-.421.3" transform="translate(-1063.799 -526.257)" fill="#373e44"/>
        <path id="Trazado_897231" data-name="Trazado 897231" d="M1426.4,650.827h-.03a.444.444,0,0,1-.412-.472l.246-3.637a.443.443,0,1,1,.885.06l-.246,3.637a.443.443,0,0,1-.442.414" transform="translate(-1139.162 -516.318)" fill="#363e44"/>
        <path id="Trazado_897232" data-name="Trazado 897232" d="M1389.872,646.335h-.018a.444.444,0,0,1-.425-.461l.179-4.47a.443.443,0,0,1,.886.035l-.179,4.47a.443.443,0,0,1-.443.426" transform="translate(-1109.983 -512.063)" fill="#363e44"/>
        <path id="Trazado_897233" data-name="Trazado 897233" d="M1356.98,641.764a.444.444,0,0,1-.443-.436l-.083-4.731a.444.444,0,0,1,.436-.451.436.436,0,0,1,.451.436l.083,4.731a.444.444,0,0,1-.436.451Z" transform="translate(-1083.64 -508.202)" fill="#363e44"/>
        <path id="Trazado_897234" data-name="Trazado 897234" d="M720.673,890.133l.948,14.219c-9.947,6.022-18.715,7.934-30.342,7.8-23.213-1.12-36.7-2.192-61.849-.689-12.077.722-33.771,10.342-43.13,18.01-13.286,10.886-25.942,21.084-8.057,20.284l41.734,3.913-3.555,24.613s69.482,13.111,103.4-1.464l-7.474-23.206,42.926-25.087c7.583-4.739,6.161-14.455,1.185-43.366Z" transform="translate(-454.884 -707.132)" fill="#ddc499"/>
        <path id="Trazado_897235" data-name="Trazado 897235" d="M820.385,1164.959a.461.461,0,0,1-.076-.006.444.444,0,0,1-.361-.513l2.34-13.527a.443.443,0,0,1,.874.151l-2.34,13.527a.443.443,0,0,1-.436.368" transform="translate(-655.032 -919.144)" fill="#363e44"/>
        <path id="Trazado_897236" data-name="Trazado 897236" d="M1259.13,1178.274a.443.443,0,0,1-.41-.275l-3.694-9.025a.443.443,0,1,1,.821-.336l3.694,9.025a.443.443,0,0,1-.41.611" transform="translate(-1002.585 -933.379)" fill="#363e44"/>
        <path id="Trazado_897237" data-name="Trazado 897237" d="M1012.585,987.417s2.175-4.872-1.065-8.222l-39.583-.875a8.078,8.078,0,0,0-1.91,8.966Z" transform="translate(-774.46 -781.558)" fill="#ddc499"/>
        <path id="Trazado_897238" data-name="Trazado 897238" d="M1323.772,970.139a.443.443,0,0,1-.442-.422l-.474-9.716a.444.444,0,0,1,.886-.043l.474,9.716a.444.444,0,0,1-.421.465h-.022" transform="translate(-1056.799 -766.552)" fill="#363e44"/>
        <path id="Trazado_897239" data-name="Trazado 897239" d="M975.335,1060.34a.414.414,0,0,1-.093-.01.443.443,0,0,1-.334-.313l-11.583-41.252a.444.444,0,0,1,.854-.24l11.355,40.44,33.424-40.1a.443.443,0,1,1,.681.568l-33.964,40.75a.443.443,0,0,1-.34.159" transform="translate(-769.565 -813.418)" fill="#fff"/>
        <path id="Trazado_897240" data-name="Trazado 897240" d="M1005.726,1239.016a3.288,3.288,0,1,1,3.288-3.288,3.292,3.292,0,0,1-3.288,3.288m0-5.69a2.4,2.4,0,1,0,2.4,2.4,2.4,2.4,0,0,0-2.4-2.4" transform="translate(-800.825 -984.568)" fill="#fff"/>
        <path id="Trazado_897241" data-name="Trazado 897241" d="M992.588,1029.994q-.923,0-1.888-.049c-17.157-.893-17.169-11.2-17.167-11.307a.461.461,0,0,1,.452-.436.444.444,0,0,1,.435.451c-.005.389.067,9.559,16.327,10.405,16.439.863,23.033-9.924,23.1-10.033a.443.443,0,0,1,.763.452c-.065.109-6.4,10.516-22.02,10.516" transform="translate(-777.733 -813.419)" fill="#fff"/>
        <rect id="Rectángulo_402313" data-name="Rectángulo 402313" width="4.473" height="139.167" transform="translate(171.142 119.879)" fill="#ed807c"/>
        <path id="Trazado_897242" data-name="Trazado 897242" d="M756.212,531.792a35.939,35.939,0,1,1-35.939-35.939,35.939,35.939,0,0,1,35.939,35.939" transform="translate(-546.7 -396.126)" fill="#ed807c"/>
        <path id="Trazado_897243" data-name="Trazado 897243" d="M776.629,554.719a29.47,29.47,0,1,1-29.47-29.47,29.47,29.47,0,0,1,29.47,29.47" transform="translate(-573.346 -419.61)" fill="#f7f1eb"/>
        <rect id="Rectángulo_402314" data-name="Rectángulo 402314" width="66.797" height="5.75" transform="matrix(0.558, -0.83, 0.83, 0.558, 153.634, 160.925)" fill="#ed807c"/>
        <path id="Trazado_897244" data-name="Trazado 897244" d="M524.28,1086.155c4.857-7.69,11.295-12.25,19.819-15.423,14.487-5.393,33.188-12.776,35.523-13.6,5.662-1.986,17.61-6.554,19.744-3.033a4.237,4.237,0,0,1-.2,4.215,4.284,4.284,0,0,1,3.111,3.576,4.482,4.482,0,0,1-1.548,3.735,3.594,3.594,0,0,1,2.907,2.2,3.764,3.764,0,0,1-2.132,4.522,4.208,4.208,0,0,1,1.591,2.6,4.416,4.416,0,0,1-2.188,4.335c-5.029,1.768-12.417,5.807-21.549,10.1-21.447,10.078-27.357,13.006-38.722,15.491-3.468.759-28.078.153-16.351-18.721h0" transform="translate(-416.324 -841.067)" fill="#84524d"/>
        <path id="Trazado_897245" data-name="Trazado 897245" d="M622.831,1099a.444.444,0,0,1-.155-.859l6.071-2.263c10.679-3.981,22.782-8.494,24.378-9.059a.443.443,0,1,1,.3.836c-1.589.563-13.689,5.073-24.364,9.054l-6.071,2.263a.447.447,0,0,1-.155.028" transform="translate(-497.211 -868.211)" fill="#363e44"/>
        <path id="Trazado_897246" data-name="Trazado 897246" d="M868.917,1070.638a.443.443,0,0,1-.427-.325l-.709-2.543a.444.444,0,0,1,.855-.238l.709,2.543a.443.443,0,0,1-.308.546.438.438,0,0,1-.119.017" transform="translate(-693.238 -852.568)" fill="#363e44"/>
        <path id="Trazado_897247" data-name="Trazado 897247" d="M877.905,1102.712a.443.443,0,0,1-.427-.324l-.709-2.544a.444.444,0,0,1,.854-.238l.709,2.544a.444.444,0,0,1-.427.563" transform="translate(-700.418 -878.192)" fill="#363e44"/>
        <path id="Trazado_897248" data-name="Trazado 897248" d="M887.417,1135.275a.443.443,0,0,1-.427-.324l-.709-2.544a.443.443,0,0,1,.854-.238l.709,2.544a.443.443,0,0,1-.308.546.434.434,0,0,1-.119.016" transform="translate(-708.017 -904.205)" fill="#363e44"/>
        <path id="Trazado_897249" data-name="Trazado 897249" d="M895.435,1164.984a.443.443,0,0,1-.427-.324l-.709-2.543a.443.443,0,0,1,.854-.238l.709,2.543a.443.443,0,0,1-.308.546.438.438,0,0,1-.119.016" transform="translate(-714.422 -927.939)" fill="#363e44"/>
      </g>
    </g>
  </g>
</svg>
