<svg xmlns="http://www.w3.org/2000/svg" xmlns:xlink="http://www.w3.org/1999/xlink" width="400.949" height="285.918" viewBox="0 0 400.949 285.918">
  <defs>
    <clipPath id="clip-path">
      <rect id="Rectángulo_403171" data-name="Rectángulo 403171" width="400.949" height="279.002" fill="none"/>
    </clipPath>
    <clipPath id="clip-path-2">
      <path id="Trazado_899182" data-name="Trazado 899182" d="M210.331,198.144a73.025,73.025,0,1,0,73.025-73.025,73.025,73.025,0,0,0-73.025,73.025" transform="translate(-210.331 -125.119)" fill="none"/>
    </clipPath>
    <clipPath id="clip-path-4">
      <rect id="Rectángulo_403141" data-name="Rectángulo 403141" width="22.038" height="22.038" fill="none"/>
    </clipPath>
    <clipPath id="clip-path-5">
      <rect id="Rectángulo_403142" data-name="Rectángulo 403142" width="9.786" height="14.127" fill="none"/>
    </clipPath>
    <clipPath id="clip-path-6">
      <rect id="Rectángulo_403143" data-name="Rectángulo 403143" width="22.039" height="22.039" fill="none"/>
    </clipPath>
    <clipPath id="clip-path-7">
      <rect id="Rectángulo_403144" data-name="Rectángulo 403144" width="6.84" height="14.972" fill="none"/>
    </clipPath>
    <clipPath id="clip-path-8">
      <rect id="Rectángulo_403145" data-name="Rectángulo 403145" width="22.033" height="22.033" fill="none"/>
    </clipPath>
    <clipPath id="clip-path-9">
      <rect id="Rectángulo_403146" data-name="Rectángulo 403146" width="10.666" height="13.217" fill="none"/>
    </clipPath>
    <clipPath id="clip-path-10">
      <rect id="Rectángulo_403147" data-name="Rectángulo 403147" width="22.041" height="22.042" fill="none"/>
    </clipPath>
    <clipPath id="clip-path-11">
      <rect id="Rectángulo_403148" data-name="Rectángulo 403148" width="8.047" height="14.702" fill="none"/>
    </clipPath>
    <clipPath id="clip-path-12">
      <rect id="Rectángulo_403169" data-name="Rectángulo 403169" width="5.771" height="2.922" fill="none"/>
    </clipPath>
  </defs>
  <g id="Grupo_1100836" data-name="Grupo 1100836" transform="translate(-1019.051 -8614.175)">
    <g id="Grupo_1100766" data-name="Grupo 1100766" transform="translate(0 58.222)">
      <g id="Grupo_1100763" data-name="Grupo 1100763" transform="translate(1019.051 8562.869)">
        <g id="Grupo_1100762" data-name="Grupo 1100762" clip-path="url(#clip-path)">
          <g id="Grupo_1100732" data-name="Grupo 1100732" transform="translate(131.187 78.039)">
            <g id="Grupo_1100731" data-name="Grupo 1100731" clip-path="url(#clip-path-2)">
              <path id="Trazado_899161" data-name="Trazado 899161" d="M356.381,198.144a73.025,73.025,0,1,1-73.025-73.025,73.025,73.025,0,0,1,73.025,73.025" transform="translate(-210.331 -125.119)" fill="#147a8f"/>
              <path id="Trazado_899162" data-name="Trazado 899162" d="M304.57,197.331l.638,6.78h4.078l1.589-8.21Z" transform="translate(-245.791 -151.753)" fill="#1c1318"/>
              <path id="Trazado_899163" data-name="Trazado 899163" d="M332.811,196.8s-3-1.645-2.52-10.326H311.643c.48,8.682-2.52,10.326-2.52,10.326l.021,7.311c-.385,8.864,4.518,13.616,11.823,13.616s12.207-4.752,11.823-13.616Z" transform="translate(-247.505 -148.205)" fill="#f0956d"/>
              <path id="Trazado_899164" data-name="Trazado 899164" d="M311.52,187.011s-8.687,7.31-14.778,4.556-5.456-11.548-.53-11.707,8.581,1.43,16.791-.477,21.4-.43,15.928,17.745l-2.792.53-2.066-5.509s-9.64-.318-12.554-5.138" transform="translate(-241.191 -145.3)" fill="#1c1318"/>
              <rect id="Rectángulo_403140" data-name="Rectángulo 403140" width="16.632" height="13.136" transform="translate(64.555 62.687)" fill="#f0956d"/>
              <path id="Trazado_899165" data-name="Trazado 899165" d="M315.98,232.81a13.113,13.113,0,0,0,14.6.389" transform="translate(-250.085 -165.641)" fill="none" stroke="#432120" stroke-miterlimit="10" stroke-width="0.6"/>
              <path id="Trazado_899166" data-name="Trazado 899166" d="M319.527,207.221a1.9,1.9,0,0,0-1.716,2.048,2.337,2.337,0,0,0,.238,1.024l1.113.2-.786.288a1.565,1.565,0,0,0,1.151.539,2.08,2.08,0,0,0,0-4.1" transform="translate(-250.774 -156.012)" fill="#182537"/>
              <path id="Trazado_899167" data-name="Trazado 899167" d="M334.629,207.221a1.9,1.9,0,0,1,1.716,2.048,2.335,2.335,0,0,1-.238,1.024l-1.113.2.787.288a1.565,1.565,0,0,1-1.151.539,2.08,2.08,0,0,1,0-4.1" transform="translate(-256.456 -156.012)" fill="#182537"/>
              <path id="Trazado_899168" data-name="Trazado 899168" d="M326.443,208.475v5.482l3.39-.768" transform="translate(-254.022 -156.484)" fill="none" stroke="#432120" stroke-miterlimit="10" stroke-width="0.6"/>
              <path id="Trazado_899169" data-name="Trazado 899169" d="M321.191,219.043h8.634s-.583,6.807-4.317,6.807-4.317-6.807-4.317-6.807" transform="translate(-252.046 -160.461)" fill="#432120"/>
              <path id="Trazado_899170" data-name="Trazado 899170" d="M326.04,223.974a8.949,8.949,0,0,0-3.437.635c.629,1.593,1.683,3.1,3.437,3.1s2.807-1.5,3.437-3.1a8.949,8.949,0,0,0-3.437-.635" transform="translate(-252.577 -162.316)" fill="#ea513b"/>
              <path id="Trazado_899171" data-name="Trazado 899171" d="M315.746,203.339s1.057-3.139,5.721,0" transform="translate(-249.997 -154.027)" fill="none" stroke="#432120" stroke-miterlimit="10" stroke-width="0.6"/>
              <path id="Trazado_899172" data-name="Trazado 899172" d="M337.029,203.339s-1.058-3.139-5.721,0" transform="translate(-255.852 -154.027)" fill="none" stroke="#432120" stroke-miterlimit="10" stroke-width="0.6"/>
              <path id="Trazado_899173" data-name="Trazado 899173" d="M306.325,207.866c1.151,2.562.462,5.367-1.539,6.266s-4.557-.448-5.708-3.009-.462-5.367,1.539-6.267,4.557.448,5.708,3.009" transform="translate(-243.515 -155.018)" fill="#f0956d"/>
              <path id="Trazado_899174" data-name="Trazado 899174" d="M302.1,208.827c1.629-.636,3.972,1.589,4.966,3.734" transform="translate(-244.863 -156.575)" fill="none" stroke="#432120" stroke-miterlimit="10" stroke-width="0.6"/>
              <line id="Línea_654" data-name="Línea 654" y1="2.538" x2="1.887" transform="translate(57.835 52.892)" fill="none" stroke="#432120" stroke-miterlimit="10" stroke-width="0.6"/>
              <path id="Trazado_899175" data-name="Trazado 899175" d="M344.857,207.866c-1.151,2.562-.462,5.367,1.539,6.266s4.557-.448,5.708-3.009.463-5.367-1.539-6.267-4.557.448-5.708,3.009" transform="translate(-260.741 -155.018)" fill="#f0956d"/>
              <path id="Trazado_899176" data-name="Trazado 899176" d="M351.128,208.827c-1.629-.636-3.973,1.589-4.967,3.734" transform="translate(-261.441 -156.575)" fill="none" stroke="#432120" stroke-miterlimit="10" stroke-width="0.6"/>
              <line id="Línea_655" data-name="Línea 655" x1="1.887" y1="2.538" transform="translate(87.203 52.892)" fill="none" stroke="#432120" stroke-miterlimit="10" stroke-width="0.6"/>
              <path id="Trazado_899177" data-name="Trazado 899177" d="M328.6,244.443l-.109-1.141a2.829,2.829,0,0,0-2.816-2.56H311.5a2.829,2.829,0,0,0-2.816,2.56l-.109,1.141a3.528,3.528,0,0,1-2.6,3.074l-2.008.535L311.914,315h13.348l7.951-66.953-2.008-.535a3.527,3.527,0,0,1-2.6-3.074" transform="translate(-245.563 -168.625)" fill="#fff"/>
              <path id="Trazado_899178" data-name="Trazado 899178" d="M277.593,252.461l7.951,66.953H233.794L244.5,280.429s3.33-22.723,33.093-27.968" transform="translate(-219.16 -173.035)" fill="#f1a23a"/>
              <path id="Trazado_899179" data-name="Trazado 899179" d="M298.128,257.427l-1.711,2.761a14.559,14.559,0,0,0-.094,15.184l1.805,3L296,284.191a14.562,14.562,0,0,0-.033,9.888l7.738,21.662" transform="translate(-241.902 -174.904)" fill="none" stroke="#182537" stroke-miterlimit="10" stroke-width="0.6"/>
              <line id="Línea_656" data-name="Línea 656" x2="4.654" y2="42.649" transform="translate(38.194 101.864)" fill="none" stroke="#182537" stroke-miterlimit="10" stroke-width="0.6"/>
              <path id="Trazado_899180" data-name="Trazado 899180" d="M346.009,252.461l-7.951,66.953h51.751L379.1,280.429s-3.33-22.723-33.093-27.968" transform="translate(-258.392 -173.035)" fill="#f1a23a"/>
              <path id="Trazado_899181" data-name="Trazado 899181" d="M350.979,257.427l1.711,2.761a14.559,14.559,0,0,1,.094,15.184l-1.805,3,2.125,5.824a14.562,14.562,0,0,1,.033,9.888L345.4,315.742" transform="translate(-261.155 -174.904)" fill="none" stroke="#182537" stroke-miterlimit="10" stroke-width="0.6"/>
              <line id="Línea_657" data-name="Línea 657" x1="4.654" y2="42.649" transform="translate(103.203 101.864)" fill="none" stroke="#182537" stroke-miterlimit="10" stroke-width="0.6"/>
            </g>
          </g>
          <g id="Grupo_1100761" data-name="Grupo 1100761">
            <g id="Grupo_1100760" data-name="Grupo 1100760" clip-path="url(#clip-path)">
              <path id="Trazado_899183" data-name="Trazado 899183" d="M126.663,355.52a11.974,11.974,0,1,1-6.285-15.725,11.975,11.975,0,0,1,6.285,15.725" transform="translate(-39.013 -127.493)" fill="#f1a23a"/>
              <g id="Grupo_1100735" data-name="Grupo 1100735" transform="translate(65.626 212.288)" opacity="0.4" style="mix-blend-mode: multiply;isolation: isolate">
                <g id="Grupo_1100734" data-name="Grupo 1100734">
                  <g id="Grupo_1100733" data-name="Grupo 1100733" clip-path="url(#clip-path-4)">
                    <path id="Trazado_899184" data-name="Trazado 899184" d="M111.892,361.506a11.019,11.019,0,1,1,14.471-5.783,11.031,11.031,0,0,1-14.471,5.783m8.409-19.6a10.312,10.312,0,1,0,5.412,13.542A10.324,10.324,0,0,0,120.3,341.9" transform="translate(-105.217 -340.359)" fill="#f1a23a"/>
                  </g>
                </g>
              </g>
              <g id="Grupo_1100738" data-name="Grupo 1100738" transform="translate(71.615 216.251)" opacity="0.6" style="mix-blend-mode: multiply;isolation: isolate">
                <g id="Grupo_1100737" data-name="Grupo 1100737">
                  <g id="Grupo_1100736" data-name="Grupo 1100736" clip-path="url(#clip-path-5)">
                    <path id="Trazado_899185" data-name="Trazado 899185" d="M116.337,360.388l.724-1.688a5.309,5.309,0,0,1-2.242-1.834l.881-.947a4.861,4.861,0,0,0,2.1,1.751,1.912,1.912,0,0,0,2.693-.786c.394-.919-.014-1.768-1.037-2.8-1.418-1.4-2.141-2.622-1.517-4.076a2.983,2.983,0,0,1,3.679-1.608l.725-1.69,1.036.445-.7,1.622a4.867,4.867,0,0,1,1.924,1.517l-.893.924a4.393,4.393,0,0,0-1.862-1.473,1.658,1.658,0,0,0-2.389.679c-.372.869.059,1.57,1.256,2.795,1.421,1.44,1.917,2.683,1.279,4.171a3.165,3.165,0,0,1-3.861,1.709l-.746,1.738Z" transform="translate(-114.82 -346.712)" fill="#f1a23a"/>
                  </g>
                </g>
              </g>
              <path id="Trazado_899186" data-name="Trazado 899186" d="M23.939,236a11.974,11.974,0,1,1-12.428-11.5A11.974,11.974,0,0,1,23.939,236" transform="translate(0 -84.471)" fill="#f1a23a"/>
              <g id="Grupo_1100741" data-name="Grupo 1100741" transform="translate(0.955 140.973)" opacity="0.4" style="mix-blend-mode: multiply;isolation: isolate">
                <g id="Grupo_1100740" data-name="Grupo 1100740">
                  <g id="Grupo_1100739" data-name="Grupo 1100739" clip-path="url(#clip-path-6)">
                    <path id="Trazado_899187" data-name="Trazado 899187" d="M12.976,248.051a11.019,11.019,0,1,1,10.585-11.438,11.032,11.032,0,0,1-10.585,11.438m-.825-21.316a10.312,10.312,0,1,0,10.7,9.905,10.324,10.324,0,0,0-10.7-9.905" transform="translate(-1.531 -226.02)" fill="#f1a23a"/>
                  </g>
                </g>
              </g>
              <g id="Grupo_1100744" data-name="Grupo 1100744" transform="translate(8.632 144.506)" opacity="0.6" style="mix-blend-mode: multiply;isolation: isolate">
                <g id="Grupo_1100743" data-name="Grupo 1100743">
                  <g id="Grupo_1100742" data-name="Grupo 1100742" clip-path="url(#clip-path-7)">
                    <path id="Trazado_899188" data-name="Trazado 899188" d="M16.853,246.656l-.071-1.836a5.3,5.3,0,0,1-2.812-.693l.389-1.233a4.861,4.861,0,0,0,2.648.68c1.29-.05,2.134-.83,2.094-1.866-.039-1-.772-1.59-2.138-2.083-1.882-.656-3.059-1.448-3.12-3.029a2.982,2.982,0,0,1,2.631-3.033l-.071-1.837,1.126-.044.068,1.764a4.86,4.86,0,0,1,2.389.543l-.409,1.218a4.39,4.39,0,0,0-2.313-.53c-1.4.054-1.895.911-1.867,1.639.037.944.728,1.391,2.335,1.985,1.9.69,2.883,1.6,2.946,3.217a3.165,3.165,0,0,1-2.752,3.2l.074,1.89Z" transform="translate(-13.84 -231.684)" fill="#f1a23a"/>
                  </g>
                </g>
              </g>
              <path id="Trazado_899189" data-name="Trazado 899189" d="M626.576,212.174a11.974,11.974,0,1,1-3.835-16.494,11.974,11.974,0,0,1,3.835,16.494" transform="translate(-227.438 -72.949)" fill="#f1a23a"/>
              <g id="Grupo_1100747" data-name="Grupo 1100747" transform="translate(377.956 121.878)" opacity="0.4" style="mix-blend-mode: multiply;isolation: isolate">
                <g id="Grupo_1100746" data-name="Grupo 1100746">
                  <g id="Grupo_1100745" data-name="Grupo 1100745" clip-path="url(#clip-path-8)">
                    <path id="Trazado_899190" data-name="Trazado 899190" d="M611.165,215.778a11.02,11.02,0,1,1,15.179-3.53,11.032,11.032,0,0,1-15.179,3.53M622.44,197.67a10.312,10.312,0,1,0,3.3,14.2,10.324,10.324,0,0,0-3.3-14.2" transform="translate(-605.973 -195.406)" fill="#f1a23a"/>
                  </g>
                </g>
              </g>
              <g id="Grupo_1100750" data-name="Grupo 1100750" transform="translate(383.533 126.297)" opacity="0.6" style="mix-blend-mode: multiply;isolation: isolate">
                <g id="Grupo_1100749" data-name="Grupo 1100749">
                  <g id="Grupo_1100748" data-name="Grupo 1100748" clip-path="url(#clip-path-9)">
                    <path id="Trazado_899191" data-name="Trazado 899191" d="M615.882,215.1l.971-1.559a5.3,5.3,0,0,1-1.939-2.151l1.014-.8a4.86,4.86,0,0,0,1.811,2.048,1.911,1.911,0,0,0,2.78-.37c.529-.848.254-1.749-.6-2.923-1.189-1.6-1.72-2.915-.884-4.258a2.984,2.984,0,0,1,3.88-1.034l.971-1.561.957.6-.933,1.5a4.86,4.86,0,0,1,1.672,1.789l-1.022.779a4.391,4.391,0,0,0-1.618-1.737,1.657,1.657,0,0,0-2.464.31c-.5.8-.179,1.561.819,2.953,1.187,1.638,1.489,2.941.634,4.315a3.165,3.165,0,0,1-4.075,1.107l-1,1.605Z" transform="translate(-614.914 -202.49)" fill="#f1a23a"/>
                  </g>
                </g>
              </g>
              <path id="Trazado_899192" data-name="Trazado 899192" d="M574.939,347.5a11.974,11.974,0,1,1-14.811-8.209,11.974,11.974,0,0,1,14.811,8.209" transform="translate(-207.501 -127.493)" fill="#f1a23a"/>
              <g id="Grupo_1100753" data-name="Grupo 1100753" transform="translate(344.908 212.286)" opacity="0.4" style="mix-blend-mode: multiply;isolation: isolate">
                <g id="Grupo_1100752" data-name="Grupo 1100752">
                  <g id="Grupo_1100751" data-name="Grupo 1100751" clip-path="url(#clip-path-10)">
                    <path id="Trazado_899193" data-name="Trazado 899193" d="M567.045,361.97a11.019,11.019,0,1,1,7.554-13.631,11.031,11.031,0,0,1-7.554,13.631m-5.881-20.5a10.312,10.312,0,1,0,12.755,7.069,10.324,10.324,0,0,0-12.755-7.069" transform="translate(-552.986 -340.356)" fill="#f1a23a"/>
                  </g>
                </g>
              </g>
              <g id="Grupo_1100756" data-name="Grupo 1100756" transform="translate(351.954 215.954)" opacity="0.6" style="mix-blend-mode: multiply;isolation: isolate">
                <g id="Grupo_1100755" data-name="Grupo 1100755">
                  <g id="Grupo_1100754" data-name="Grupo 1100754" clip-path="url(#clip-path-11)">
                    <path id="Trazado_899194" data-name="Trazado 899194" d="M569.722,360.938l-.507-1.766a5.307,5.307,0,0,1-2.9,0l.084-1.291a4.856,4.856,0,0,0,2.733.03,1.912,1.912,0,0,0,1.589-2.311c-.276-.961-1.128-1.36-2.573-1.513-1.984-.189-3.316-.677-3.752-2.2a2.983,2.983,0,0,1,1.833-3.572l-.507-1.767,1.084-.311.487,1.7a4.872,4.872,0,0,1,2.449-.041l-.107,1.28a4.4,4.4,0,0,0-2.374.036c-1.347.387-1.623,1.337-1.422,2.037.261.908,1.038,1.178,2.741,1.371,2.011.217,3.182.866,3.628,2.423a3.165,3.165,0,0,1-1.91,3.765l.521,1.818Z" transform="translate(-564.284 -346.236)" fill="#f1a23a"/>
                  </g>
                </g>
              </g>
              <path id="Trazado_899195" data-name="Trazado 899195" d="M438.351,298.223V274.068l53.458-32.273a31.185,31.185,0,0,0,14.584-21.234l5.31-29.85a3.358,3.358,0,0,0-2.948-3.941c-3.138-.314-7.788.556-11.335,6.914l.488-15.754a3.369,3.369,0,0,0-3.785-3.447l-1.136.142A12.777,12.777,0,0,0,481.8,187.3V213.78l-5.62-25.8a2.732,2.732,0,0,0-4.251-1.647l-1.945,1.378a14.292,14.292,0,0,0-5.734,14.523l4.96,24.233-14.053-22.539a2.233,2.233,0,0,0-3.561-.3,10.7,10.7,0,0,0-1.69,11.69l7.328,15.518-10.758,9.946S394.3,245.04,394.3,275.489v22.735Z" transform="translate(-148.369 -65.645)" fill="#f0956d"/>
              <path id="Trazado_899196" data-name="Trazado 899196" d="M394.3,354.014l44.048,3.248v8.526H394.3Z" transform="translate(-148.369 -133.209)" fill="#1c1318"/>
              <path id="Trazado_899197" data-name="Trazado 899197" d="M503.689,259.857l.776,1.049a7.73,7.73,0,0,1-.9,10.218L483.476,290.1" transform="translate(-181.923 -97.779)" fill="none" stroke="#121f32" stroke-linecap="round" stroke-linejoin="round" stroke-width="0.751"/>
              <path id="Trazado_899198" data-name="Trazado 899198" d="M523.265,243.688l.692,3.28a21.278,21.278,0,0,1-5.789,19.458l-15.262,15.227" transform="translate(-189.234 -91.695)" fill="none" stroke="#121f32" stroke-linecap="round" stroke-linejoin="round" stroke-width="0.751"/>
              <path id="Trazado_899199" data-name="Trazado 899199" d="M545.751,209.19l-.664,24.916a23.541,23.541,0,0,1-8.418,17.42l-13.923,11.659" transform="translate(-196.7 -78.714)" fill="none" stroke="#121f32" stroke-linecap="round" stroke-linejoin="round" stroke-width="0.751"/>
              <rect id="Rectángulo_403149" data-name="Rectángulo 403149" width="64.956" height="24.967" transform="translate(238.424 226.286)" fill="#a4c4ea"/>
              <rect id="Rectángulo_403150" data-name="Rectángulo 403150" width="70.695" height="33.002" transform="translate(235.554 246)" fill="#1c1318"/>
              <line id="Línea_658" data-name="Línea 658" y1="23.496" transform="translate(276.815 246)" fill="none" stroke="#b9dbdf" stroke-miterlimit="10" stroke-width="1"/>
              <path id="Trazado_899200" data-name="Trazado 899200" d="M457.908,403.57a3.451,3.451,0,1,1-3.451-3.451A3.451,3.451,0,0,1,457.908,403.57Z" transform="translate(-169.706 -150.557)" fill="none" stroke="#fff" stroke-miterlimit="10" stroke-width="1"/>
              <path id="Trazado_899201" data-name="Trazado 899201" d="M457.908,423.352a3.451,3.451,0,1,1-3.451-3.451A3.451,3.451,0,0,1,457.908,423.352Z" transform="translate(-169.706 -158.001)" fill="none" stroke="#fff" stroke-miterlimit="10" stroke-width="1"/>
              <path id="Trazado_899202" data-name="Trazado 899202" d="M150.095,298.223V274.068L96.637,241.795a31.185,31.185,0,0,1-14.584-21.234l-5.31-29.85a3.358,3.358,0,0,1,2.948-3.941c3.138-.314,7.788.556,11.335,6.914l-.487-15.754a3.369,3.369,0,0,1,3.785-3.447l1.136.142A12.777,12.777,0,0,1,106.651,187.3V213.78l5.62-25.8a2.732,2.732,0,0,1,4.251-1.647l1.944,1.378a14.291,14.291,0,0,1,5.734,14.523l-4.96,24.233,14.053-22.539a2.233,2.233,0,0,1,3.561-.3,10.7,10.7,0,0,1,1.69,11.69l-7.328,15.518,10.759,9.946s52.168,4.263,52.168,34.711v22.735Z" transform="translate(-28.857 -65.645)" fill="#f0956d"/>
              <path id="Trazado_899203" data-name="Trazado 899203" d="M238.427,354.014l-44.048,3.248v8.526h44.048Z" transform="translate(-73.141 -133.209)" fill="#1c1318"/>
              <path id="Trazado_899204" data-name="Trazado 899204" d="M142.037,259.857l-.776,1.049a7.729,7.729,0,0,0,.9,10.218L162.25,290.1" transform="translate(-52.583 -97.779)" fill="none" stroke="#121f32" stroke-linecap="round" stroke-linejoin="round" stroke-width="0.751"/>
              <path id="Trazado_899205" data-name="Trazado 899205" d="M123.062,243.688l-.693,3.28a21.277,21.277,0,0,0,5.79,19.458l15.261,15.227" transform="translate(-45.872 -91.695)" fill="none" stroke="#121f32" stroke-linecap="round" stroke-linejoin="round" stroke-width="0.751"/>
              <path id="Trazado_899206" data-name="Trazado 899206" d="M99.673,209.19l.664,24.916a23.541,23.541,0,0,0,8.418,17.42l13.923,11.659" transform="translate(-37.505 -78.714)" fill="none" stroke="#121f32" stroke-linecap="round" stroke-linejoin="round" stroke-width="0.751"/>
              <rect id="Rectángulo_403151" data-name="Rectángulo 403151" width="64.956" height="24.967" transform="translate(107.84 226.286)" fill="#a4c4ea"/>
              <rect id="Rectángulo_403152" data-name="Rectángulo 403152" width="70.695" height="33.002" transform="translate(104.971 246)" fill="#1c1318"/>
              <line id="Línea_659" data-name="Línea 659" y1="23.496" transform="translate(134.405 246)" fill="none" stroke="#b9dbdf" stroke-miterlimit="10" stroke-width="1"/>
              <path id="Trazado_899207" data-name="Trazado 899207" d="M197.232,403.57a3.45,3.45,0,1,0,3.45-3.451A3.45,3.45,0,0,0,197.232,403.57Z" transform="translate(-74.215 -150.557)" fill="none" stroke="#fff" stroke-miterlimit="10" stroke-width="1"/>
              <path id="Trazado_899208" data-name="Trazado 899208" d="M197.232,423.352a3.45,3.45,0,1,0,3.45-3.451A3.45,3.45,0,0,0,197.232,423.352Z" transform="translate(-74.215 -158.001)" fill="none" stroke="#fff" stroke-miterlimit="10" stroke-width="1"/>
              <path id="Trazado_899209" data-name="Trazado 899209" d="M138.821,95.2a30.785,30.785,0,1,1-30.785-30.785A30.785,30.785,0,0,1,138.821,95.2" transform="translate(-29.069 -24.237)" fill="#147a8f"/>
              <path id="Trazado_899210" data-name="Trazado 899210" d="M135.648,100.017a22.788,22.788,0,1,1-22.788-22.8,22.791,22.791,0,0,1,22.788,22.8" transform="translate(-33.893 -29.057)" fill="#f1a23a"/>
              <path id="Trazado_899211" data-name="Trazado 899211" d="M134.056,102.439a18.774,18.774,0,1,1-18.774-18.78,18.777,18.777,0,0,1,18.774,18.78" transform="translate(-36.315 -31.479)" fill="#fff"/>
              <rect id="Rectángulo_403153" data-name="Rectángulo 403153" width="0.488" height="2.516" transform="translate(78.723 53.596)" fill="#1c1318"/>
              <rect id="Rectángulo_403154" data-name="Rectángulo 403154" width="0.488" height="2.517" transform="translate(78.723 85.807)" fill="#1c1318"/>
              <rect id="Rectángulo_403155" data-name="Rectángulo 403155" width="2.516" height="0.488" transform="translate(93.809 70.715)" fill="#1c1318"/>
              <rect id="Rectángulo_403156" data-name="Rectángulo 403156" width="2.515" height="0.488" transform="translate(61.611 70.715)" fill="#1c1318"/>
              <rect id="Rectángulo_403157" data-name="Rectángulo 403157" width="0.487" height="2.516" transform="translate(63.877 62.376) rotate(-59.57)" fill="#1c1318"/>
              <rect id="Rectángulo_403158" data-name="Rectángulo 403158" width="0.487" height="2.516" transform="translate(91.643 78.689) rotate(-59.57)" fill="#1c1318"/>
              <path id="Trazado_899212" data-name="Trazado 899212" d="M138.742,91.983l-.42-.248,1.275-2.17.42.248Z" transform="translate(-52.048 -33.702)" fill="#1c1318"/>
              <rect id="Rectángulo_403159" data-name="Rectángulo 403159" width="2.516" height="0.487" transform="translate(69.968 85.81) rotate(-59.628)" fill="#1c1318"/>
              <rect id="Rectángulo_403160" data-name="Rectángulo 403160" width="2.516" height="0.488" transform="matrix(0.851, -0.525, 0.525, 0.851, 91.47, 62.955)" fill="#1c1318"/>
              <rect id="Rectángulo_403161" data-name="Rectángulo 403161" width="2.516" height="0.488" transform="translate(64.068 79.871) rotate(-31.68)" fill="#1c1318"/>
              <rect id="Rectángulo_403162" data-name="Rectángulo 403162" width="0.488" height="2.516" transform="translate(69.644 56.312) rotate(-31.673)" fill="#1c1318"/>
              <rect id="Rectángulo_403163" data-name="Rectángulo 403163" width="0.488" height="2.516" transform="matrix(0.851, -0.525, 0.525, 0.851, 86.555, 83.723)" fill="#1c1318"/>
              <path id="Trazado_899213" data-name="Trazado 899213" d="M124.571,111.994l-9.914-10.213.349-.34,9.914,10.212Z" transform="translate(-43.143 -38.17)" fill="#1c1318"/>
              <rect id="Rectángulo_403164" data-name="Rectángulo 403164" width="19.585" height="0.487" transform="matrix(0.646, -0.763, 0.763, 0.646, 76.454, 73.492)" fill="#1c1318"/>
              <path id="Trazado_899214" data-name="Trazado 899214" d="M127.271,112.76a1.672,1.672,0,1,1-1.672-1.673,1.672,1.672,0,0,1,1.672,1.673" transform="translate(-46.631 -41.8)" fill="#1c1318"/>
              <line id="Línea_660" data-name="Línea 660" x2="40.534" y2="31.289" transform="translate(101.689 91.728)" fill="none" stroke="#147a8f" stroke-miterlimit="10" stroke-width="3"/>
              <path id="Trazado_899215" data-name="Trazado 899215" d="M270.159,30.785A30.785,30.785,0,1,1,239.374,0a30.785,30.785,0,0,1,30.785,30.785" transform="translate(-78.488 0)" fill="#147a8f"/>
              <path id="Trazado_899216" data-name="Trazado 899216" d="M260.612,29.49a6.547,6.547,0,0,1,2.023,5.033,8.582,8.582,0,0,1-1.517,4.494,23.821,23.821,0,0,1-3.427,4.3q-1.912,1.881-4.13,4.411a25.715,25.715,0,0,0-3.288,4.493q-.789,1.462-1.8,1.46-1.126,0-1.8-1.46a15.468,15.468,0,0,0-3.006-3.848q-2.22-2.224-4.329-4.017a20.4,20.4,0,0,1-3.764-4.3,8.739,8.739,0,0,1-1.658-4.8,6.746,6.746,0,0,1,2.164-5.2,7.69,7.69,0,0,1,12.165,2.5q2.025-4.948,6.969-4.946a7.605,7.605,0,0,1,5.4,1.881" transform="translate(-88.019 -10.389)" fill="#fff"/>
              <path id="Trazado_899217" data-name="Trazado 899217" d="M247.395,54.838c-.849,0-4.418-4.18-6.071-5.832-1.416-1.418-2.838-2.737-4.224-3.921A22.3,22.3,0,0,1,233,40.409a10.51,10.51,0,0,1-1.956-5.792A8.5,8.5,0,0,1,233.79,28.1a8.97,8.97,0,0,1,6.243-2.469,9.121,9.121,0,0,1,7.049,2.857,8.566,8.566,0,0,1,7.055-3.305,9.363,9.363,0,0,1,6.615,2.36h0a8.3,8.3,0,0,1,2.592,6.343,10.336,10.336,0,0,1-1.791,5.445,25.706,25.706,0,0,1-3.685,4.624c-1.253,1.232-2.612,2.683-4.04,4.316-1.384,1.574-5.485,6.564-6.433,6.564" transform="translate(-86.94 -9.477)" fill="#fff"/>
              <path id="Trazado_899218" data-name="Trazado 899218" d="M260.612,29.49a6.547,6.547,0,0,1,2.023,5.033,8.582,8.582,0,0,1-1.517,4.494,23.821,23.821,0,0,1-3.427,4.3q-1.912,1.881-4.13,4.411c-1.481,1.684-4.413,5.953-5.086,5.953-.75,0-3.326-3.83-4.8-5.308s-2.924-2.819-4.329-4.017a20.4,20.4,0,0,1-3.764-4.3,8.739,8.739,0,0,1-1.658-4.8,6.746,6.746,0,0,1,2.164-5.2,7.69,7.69,0,0,1,12.165,2.5q2.025-4.948,6.969-4.946a7.605,7.605,0,0,1,5.4,1.881" transform="translate(-88.019 -10.389)" fill="#ed807c"/>
              <rect id="Rectángulo_403165" data-name="Rectángulo 403165" width="4.906" height="16.075" transform="translate(166.366 27.229)" fill="#fff"/>
              <path id="Trazado_899219" data-name="Trazado 899219" d="M271.958,60.05H265.44V42.362h6.518Zm-4.906-1.612h3.293V43.975h-3.293Z" transform="translate(-99.88 -15.94)" fill="#fff"/>
              <rect id="Rectángulo_403166" data-name="Rectángulo 403166" width="16.075" height="4.906" transform="translate(160.781 32.814)" fill="#fff"/>
              <path id="Trazado_899220" data-name="Trazado 899220" d="M274.173,57.835H256.485V51.317h17.688ZM258.1,56.223h14.463V52.929H258.1Z" transform="translate(-96.511 -19.31)" fill="#fff"/>
              <rect id="Rectángulo_403167" data-name="Rectángulo 403167" width="4.906" height="16.075" transform="translate(166.366 27.229)" fill="#d9e6f8"/>
              <rect id="Rectángulo_403168" data-name="Rectángulo 403168" width="16.075" height="4.906" transform="translate(160.781 32.814)" fill="#d9e6f8"/>
              <line id="Línea_661" data-name="Línea 661" x2="16.17" y2="35.389" transform="translate(170.246 52.934)" fill="none" stroke="#147a8f" stroke-miterlimit="10" stroke-width="3"/>
              <line id="Línea_662" data-name="Línea 662" y1="39.211" x2="12.981" transform="translate(232.638 48.494)" fill="none" stroke="#147a8f" stroke-miterlimit="10" stroke-width="3"/>
              <path id="Trazado_899221" data-name="Trazado 899221" d="M352,30.785A30.785,30.785,0,1,0,382.785,0,30.785,30.785,0,0,0,352,30.785" transform="translate(-132.451 0)" fill="#147a8f"/>
              <path id="Trazado_899222" data-name="Trazado 899222" d="M415.341,72.451l-34.39,3.029L371.39,24.561l34.39-3.029Z" transform="translate(-139.747 -8.102)" fill="#ed807c"/>
              <path id="Trazado_899223" data-name="Trazado 899223" d="M414.647,72.022l-29.114,2.565-8.845-47.1L405.8,24.921Z" transform="translate(-141.741 -9.377)" fill="#fff"/>
              <path id="Trazado_899224" data-name="Trazado 899224" d="M399.952,22.086l-5.223.46L393.875,18A2.336,2.336,0,0,1,396,15.178a2.957,2.957,0,0,1,3.1,2.358Z" transform="translate(-148.191 -5.707)" fill="#f1a23a"/>
              <path id="Trazado_899225" data-name="Trazado 899225" d="M398.43,18.99a.7.7,0,0,1-.64.849.891.891,0,0,1-.932-.71.7.7,0,0,1,.64-.849.891.891,0,0,1,.932.71" transform="translate(-149.325 -6.877)" fill="#f1a23a"/>
              <g id="Grupo_1100759" data-name="Grupo 1100759" transform="translate(245.869 13.27)" opacity="0.2">
                <g id="Grupo_1100758" data-name="Grupo 1100758">
                  <g id="Grupo_1100757" data-name="Grupo 1100757" clip-path="url(#clip-path-12)">
                    <path id="Trazado_899226" data-name="Trazado 899226" d="M394.2,21.275l5.406.521.365,1.941-5.222.46Z" transform="translate(-394.198 -21.275)" fill="#1c1318"/>
                  </g>
                </g>
              </g>
              <path id="Trazado_899227" data-name="Trazado 899227" d="M399.927,26.775l-8.848.78a2.732,2.732,0,0,1-2.862-2.179l-.4-2.139,13.673-1.2.4,2.139a2.157,2.157,0,0,1-1.963,2.6" transform="translate(-145.928 -8.29)" fill="#f1a23a"/>
              <line id="Línea_663" data-name="Línea 663" y1="0.983" x2="11.157" transform="translate(243.45 15.47)" fill="#f1a23a"/>
              <line id="Línea_664" data-name="Línea 664" y1="0.983" x2="11.157" transform="translate(243.63 16.431)" fill="#f1a23a"/>
              <path id="Trazado_899228" data-name="Trazado 899228" d="M386.171,41.918l-2.994.264a1.028,1.028,0,0,1-1.077-.821l-.558-2.968a.813.813,0,0,1,.74-.98l2.993-.264a1.03,1.03,0,0,1,1.078.821l.557,2.968a.812.812,0,0,1-.739.98" transform="translate(-143.562 -13.977)" fill="#306ff3"/>
              <path id="Trazado_899229" data-name="Trazado 899229" d="M397.738,37.229l-6.084.536a.525.525,0,0,1-.551-.42.416.416,0,0,1,.378-.5l6.084-.536a.527.527,0,0,1,.551.42A.416.416,0,0,1,397.738,37.229Z" transform="translate(-147.162 -13.661)" fill="none" stroke="#3e74c6" stroke-miterlimit="10" stroke-width="0.695"/>
              <path id="Trazado_899230" data-name="Trazado 899230" d="M402.594,39.321l-10.432.919a.527.527,0,0,1-.551-.42.416.416,0,0,1,.379-.5l10.431-.919a.527.527,0,0,1,.552.42A.416.416,0,0,1,402.594,39.321Z" transform="translate(-147.353 -14.448)" fill="none" stroke="#3e74c6" stroke-miterlimit="10" stroke-width="0.695"/>
              <path id="Trazado_899231" data-name="Trazado 899231" d="M405.83,41.642,392.67,42.8a.527.527,0,0,1-.551-.42.415.415,0,0,1,.378-.5l13.159-1.159a.528.528,0,0,1,.553.42A.417.417,0,0,1,405.83,41.642Z" transform="translate(-147.544 -15.321)" fill="none" stroke="#3e74c6" stroke-miterlimit="10" stroke-width="0.695"/>
              <path id="Trazado_899232" data-name="Trazado 899232" d="M389.132,57.687l-2.994.264a1.028,1.028,0,0,1-1.077-.821l-.558-2.968a.813.813,0,0,1,.74-.98l2.993-.264a1.03,1.03,0,0,1,1.078.821l.557,2.968a.812.812,0,0,1-.739.98" transform="translate(-144.676 -19.911)" fill="#306ff3"/>
              <path id="Trazado_899233" data-name="Trazado 899233" d="M407.775,52l-13.159,1.159a.526.526,0,0,1-.551-.42.415.415,0,0,1,.378-.5L407.6,51.077a.527.527,0,0,1,.552.42A.416.416,0,0,1,407.775,52Z" transform="translate(-148.276 -19.219)" fill="none" stroke="#3e74c6" stroke-miterlimit="10" stroke-width="0.695"/>
              <path id="Trazado_899234" data-name="Trazado 899234" d="M405.555,55.09l-10.432.919a.526.526,0,0,1-.551-.42.416.416,0,0,1,.379-.5l10.431-.919a.527.527,0,0,1,.552.42A.416.416,0,0,1,405.555,55.09Z" transform="translate(-148.467 -20.382)" fill="none" stroke="#3e74c6" stroke-miterlimit="10" stroke-width="0.695"/>
              <path id="Trazado_899235" data-name="Trazado 899235" d="M408.792,57.411,395.632,58.57a.526.526,0,0,1-.551-.42.415.415,0,0,1,.378-.5l13.16-1.159a.527.527,0,0,1,.551.42A.416.416,0,0,1,408.792,57.411Z" transform="translate(-148.659 -21.255)" fill="none" stroke="#3e74c6" stroke-miterlimit="10" stroke-width="0.695"/>
              <path id="Trazado_899236" data-name="Trazado 899236" d="M392.094,73.456l-2.994.264a1.029,1.029,0,0,1-1.077-.821l-.558-2.968a.813.813,0,0,1,.74-.98l2.994-.264a1.03,1.03,0,0,1,1.078.821l.557,2.968a.813.813,0,0,1-.739.98" transform="translate(-145.79 -25.844)" fill="#306ff3"/>
              <path id="Trazado_899237" data-name="Trazado 899237" d="M403.661,68.767l-6.084.536a.525.525,0,0,1-.551-.42.416.416,0,0,1,.378-.5l6.084-.536a.527.527,0,0,1,.551.42A.416.416,0,0,1,403.661,68.767Z" transform="translate(-149.391 -25.528)" fill="none" stroke="#3e74c6" stroke-miterlimit="10" stroke-width="0.695"/>
              <path id="Trazado_899238" data-name="Trazado 899238" d="M411.244,70.474l-13.16,1.159a.527.527,0,0,1-.551-.42.415.415,0,0,1,.379-.5l13.159-1.159a.527.527,0,0,1,.552.42A.417.417,0,0,1,411.244,70.474Z" transform="translate(-149.581 -26.17)" fill="none" stroke="#3e74c6" stroke-miterlimit="10" stroke-width="0.695"/>
              <path id="Trazado_899239" data-name="Trazado 899239" d="M411.753,73.18l-13.159,1.159a.526.526,0,0,1-.551-.42.415.415,0,0,1,.379-.5l13.159-1.159a.527.527,0,0,1,.551.42A.416.416,0,0,1,411.753,73.18Z" transform="translate(-149.773 -27.189)" fill="none" stroke="#3e74c6" stroke-miterlimit="10" stroke-width="0.695"/>
              <path id="Trazado_899240" data-name="Trazado 899240" d="M395.055,89.225l-2.994.264a1.028,1.028,0,0,1-1.077-.821l-.558-2.968a.813.813,0,0,1,.74-.98l2.993-.264a1.03,1.03,0,0,1,1.078.821l.557,2.968a.812.812,0,0,1-.739.98" transform="translate(-146.904 -31.778)" fill="#306ff3"/>
              <path id="Trazado_899241" data-name="Trazado 899241" d="M413.7,83.537,400.537,84.7a.527.527,0,0,1-.551-.42.415.415,0,0,1,.379-.5l13.158-1.159a.528.528,0,0,1,.553.42A.417.417,0,0,1,413.7,83.537Z" transform="translate(-150.504 -31.086)" fill="none" stroke="#3e74c6" stroke-miterlimit="10" stroke-width="0.695"/>
              <path id="Trazado_899242" data-name="Trazado 899242" d="M411.477,86.628l-10.432.919a.526.526,0,0,1-.551-.42.416.416,0,0,1,.379-.5l10.431-.919a.527.527,0,0,1,.552.42A.416.416,0,0,1,411.477,86.628Z" transform="translate(-150.696 -32.249)" fill="none" stroke="#3e74c6" stroke-miterlimit="10" stroke-width="0.695"/>
              <path id="Trazado_899243" data-name="Trazado 899243" d="M414.714,88.949l-13.159,1.159a.526.526,0,0,1-.551-.42.415.415,0,0,1,.379-.5l13.159-1.159a.527.527,0,0,1,.551.42A.416.416,0,0,1,414.714,88.949Z" transform="translate(-150.887 -33.122)" fill="none" stroke="#3e74c6" stroke-miterlimit="10" stroke-width="0.695"/>
              <path id="Trazado_899244" data-name="Trazado 899244" d="M418.435,38.689a.279.279,0,0,1-.147-.064l-1.9-1.6a.28.28,0,0,1,.36-.428l1.665,1.4,1.616-2.32a.28.28,0,0,1,.458.32l-1.791,2.57a.281.281,0,0,1-.193.117.285.285,0,0,1-.069,0" transform="translate(-156.642 -13.381)" fill="#306ff3"/>
              <path id="Trazado_899245" data-name="Trazado 899245" d="M424.357,70.227a.279.279,0,0,1-.147-.064l-1.9-1.6a.28.28,0,0,1,.36-.428l1.664,1.4,1.617-2.32a.28.28,0,0,1,.458.32l-1.791,2.57a.279.279,0,0,1-.193.117.285.285,0,0,1-.069,0" transform="translate(-158.87 -25.248)" fill="#306ff3"/>
              <path id="Trazado_899246" data-name="Trazado 899246" d="M421.086,53.639a.279.279,0,0,1-.147-.064l-1.9-1.6a.28.28,0,0,1,.36-.428l1.664,1.4,1.617-2.32a.28.28,0,0,1,.458.32l-1.791,2.57a.279.279,0,0,1-.193.117.286.286,0,0,1-.069,0" transform="translate(-157.64 -19.006)" fill="#306ff3"/>
              <path id="Trazado_899247" data-name="Trazado 899247" d="M427.318,86a.279.279,0,0,1-.147-.064l-1.9-1.6a.28.28,0,0,1,.36-.428l1.665,1.4,1.616-2.32a.28.28,0,0,1,.458.32l-1.791,2.57a.281.281,0,0,1-.193.117.287.287,0,0,1-.069,0" transform="translate(-159.985 -31.182)" fill="#306ff3"/>
              <path id="Trazado_899248" data-name="Trazado 899248" d="M483.339,95.2a30.785,30.785,0,1,0,30.785-30.785A30.785,30.785,0,0,0,483.339,95.2" transform="translate(-181.872 -24.237)" fill="#147a8f"/>
              <line id="Línea_665" data-name="Línea 665" y1="32.917" x2="51.093" transform="translate(265.188 87.046)" fill="none" stroke="#147a8f" stroke-miterlimit="10" stroke-width="3"/>
              <path id="Trazado_899249" data-name="Trazado 899249" d="M496.248,108.48l30.392,8.244,10.352-25.843L506.6,82.637Z" transform="translate(-186.729 -31.095)" fill="#1c1318"/>
              <path id="Trazado_899250" data-name="Trazado 899250" d="M536.706,118.435l-30.393-8.244,4.125-27.532L540.831,90.9Z" transform="translate(-190.516 -31.103)" fill="#fff"/>
              <path id="Trazado_899251" data-name="Trazado 899251" d="M542.091,96.022,511.7,87.778l.767-5.119L542.858,90.9Z" transform="translate(-192.543 -31.103)" fill="#a4c4ea"/>
              <path id="Trazado_899252" data-name="Trazado 899252" d="M554.314,94.814c.6.113,1.232-.727,1.4-1.876.177-1.178-.189-2.312-.8-2.477s-1.272.69-1.448,1.869l-.441-.12c.218-1.454,1.075-2.407,1.952-2.169s1.393,1.563,1.176,3.017c-.215,1.43-1.047,2.372-1.908,2.177Z" transform="translate(-208.095 -33.867)" fill="#1c1318"/>
              <path id="Trazado_899253" data-name="Trazado 899253" d="M548.995,93.372c.6.113,1.232-.727,1.4-1.876.177-1.178-.188-2.312-.8-2.477s-1.272.69-1.449,1.869l-.441-.12c.218-1.454,1.075-2.407,1.952-2.169s1.393,1.563,1.176,3.017c-.215,1.43-1.047,2.372-1.908,2.177Z" transform="translate(-206.094 -33.324)" fill="#1c1318"/>
              <path id="Trazado_899254" data-name="Trazado 899254" d="M543.677,91.929c.6.113,1.232-.727,1.4-1.876.177-1.178-.189-2.312-.8-2.477s-1.272.69-1.448,1.869l-.441-.12c.218-1.454,1.075-2.407,1.952-2.169s1.393,1.564,1.176,3.018c-.214,1.43-1.047,2.372-1.908,2.177Z" transform="translate(-204.093 -32.781)" fill="#1c1318"/>
              <path id="Trazado_899255" data-name="Trazado 899255" d="M538.358,90.487c.6.113,1.232-.727,1.4-1.876.176-1.178-.189-2.312-.8-2.477s-1.272.69-1.448,1.869l-.441-.12c.218-1.454,1.075-2.407,1.952-2.169s1.393,1.564,1.176,3.018c-.215,1.43-1.047,2.372-1.908,2.177Z" transform="translate(-202.091 -32.239)" fill="#1c1318"/>
              <path id="Trazado_899256" data-name="Trazado 899256" d="M533.04,89.044c.6.113,1.232-.727,1.4-1.876.177-1.178-.189-2.312-.8-2.477s-1.272.69-1.449,1.869l-.441-.12c.218-1.454,1.075-2.407,1.952-2.169s1.393,1.564,1.176,3.018c-.215,1.43-1.047,2.372-1.908,2.177Z" transform="translate(-200.09 -31.696)" fill="#1c1318"/>
              <path id="Trazado_899257" data-name="Trazado 899257" d="M527.721,87.6c.6.113,1.232-.727,1.4-1.876.177-1.178-.189-2.312-.8-2.477s-1.272.69-1.449,1.869l-.441-.12c.218-1.454,1.075-2.407,1.952-2.169s1.393,1.564,1.176,3.018c-.215,1.43-1.047,2.372-1.908,2.177Z" transform="translate(-198.089 -31.153)" fill="#1c1318"/>
              <path id="Trazado_899258" data-name="Trazado 899258" d="M522.4,86.159c.6.113,1.232-.727,1.4-1.876.177-1.178-.189-2.312-.8-2.477s-1.272.69-1.448,1.869l-.441-.12c.218-1.454,1.075-2.407,1.952-2.169s1.393,1.564,1.176,3.018c-.215,1.43-1.047,2.372-1.908,2.177Z" transform="translate(-196.088 -30.61)" fill="#1c1318"/>
              <path id="Trazado_899259" data-name="Trazado 899259" d="M517.084,84.716c.6.113,1.232-.727,1.4-1.876.176-1.178-.188-2.313-.8-2.478s-1.272.69-1.449,1.869l-.441-.12c.218-1.454,1.075-2.407,1.953-2.169s1.393,1.563,1.175,3.017c-.215,1.43-1.047,2.372-1.908,2.177Z" transform="translate(-194.086 -30.067)" fill="#1c1318"/>
              <path id="Trazado_899260" data-name="Trazado 899260" d="M535.476,104.09l-2.977-.808.347-2.315,2.977.807Z" transform="translate(-200.37 -37.992)" fill="#f1a23a"/>
              <path id="Trazado_899261" data-name="Trazado 899261" d="M541.836,105.814l-2.977-.808.347-2.315,2.977.808Z" transform="translate(-202.763 -38.641)" fill="#306ff3"/>
              <path id="Trazado_899262" data-name="Trazado 899262" d="M548.2,107.54l-2.977-.808.347-2.315,2.977.807Z" transform="translate(-205.156 -39.29)" fill="#f1a23a"/>
              <path id="Trazado_899263" data-name="Trazado 899263" d="M554.556,109.264l-2.977-.808.347-2.315,2.977.808Z" transform="translate(-207.549 -39.939)" fill="#a4c4ea"/>
              <path id="Trazado_899264" data-name="Trazado 899264" d="M515.57,104.427l-2.977-.808.347-2.315,2.977.808Z" transform="translate(-192.88 -38.119)" fill="#f1a23a"/>
              <path id="Trazado_899265" data-name="Trazado 899265" d="M521.93,106.152l-2.977-.808.347-2.315,2.977.808Z" transform="translate(-195.273 -38.768)" fill="#306ff3"/>
              <path id="Trazado_899266" data-name="Trazado 899266" d="M528.29,107.877l-2.977-.808.347-2.315,2.977.808Z" transform="translate(-197.666 -39.417)" fill="#306ff3"/>
              <path id="Trazado_899267" data-name="Trazado 899267" d="M534.65,109.6l-2.977-.808.347-2.315,2.977.808Z" transform="translate(-200.059 -40.066)" fill="#f1a23a"/>
              <path id="Trazado_899268" data-name="Trazado 899268" d="M541.01,111.327l-2.977-.808.347-2.315,2.977.808Z" transform="translate(-202.452 -40.715)" fill="#f1a23a"/>
              <path id="Trazado_899269" data-name="Trazado 899269" d="M547.37,113.052l-2.977-.808.347-2.315,2.977.807Z" transform="translate(-204.845 -41.365)" fill="#f1a23a"/>
              <path id="Trazado_899270" data-name="Trazado 899270" d="M553.729,114.777l-2.977-.808.347-2.315,2.977.808Z" transform="translate(-207.238 -42.013)" fill="#a4c4ea"/>
              <path id="Trazado_899271" data-name="Trazado 899271" d="M514.745,109.939l-2.977-.808.347-2.315,2.977.808Z" transform="translate(-192.569 -40.193)" fill="#f1a23a"/>
              <path id="Trazado_899272" data-name="Trazado 899272" d="M521.1,111.664l-2.977-.808.347-2.315,2.977.807Z" transform="translate(-194.962 -40.842)" fill="#f1a23a"/>
              <path id="Trazado_899273" data-name="Trazado 899273" d="M527.464,113.389l-2.977-.808.347-2.315,2.977.808Z" transform="translate(-197.355 -41.491)" fill="#f1a23a"/>
              <path id="Trazado_899274" data-name="Trazado 899274" d="M533.824,115.114l-2.977-.808.347-2.315,2.977.807Z" transform="translate(-199.748 -42.141)" fill="#f1a23a"/>
              <path id="Trazado_899275" data-name="Trazado 899275" d="M540.184,116.839l-2.977-.808.347-2.315,2.977.808Z" transform="translate(-202.141 -42.789)" fill="#306ff3"/>
              <path id="Trazado_899276" data-name="Trazado 899276" d="M546.544,118.565l-2.977-.808.347-2.315,2.977.807Z" transform="translate(-204.534 -43.439)" fill="#f1a23a"/>
              <path id="Trazado_899277" data-name="Trazado 899277" d="M552.9,120.29l-2.977-.808.347-2.315,2.977.807Z" transform="translate(-206.927 -44.088)" fill="#a4c4ea"/>
              <path id="Trazado_899278" data-name="Trazado 899278" d="M513.918,115.452l-2.977-.808.347-2.315,2.977.807Z" transform="translate(-192.258 -42.268)" fill="#f1a23a"/>
              <path id="Trazado_899279" data-name="Trazado 899279" d="M520.278,117.176l-2.977-.808.347-2.315,2.977.808Z" transform="translate(-194.651 -42.916)" fill="#f1a23a"/>
              <path id="Trazado_899280" data-name="Trazado 899280" d="M526.638,118.9l-2.977-.808.347-2.315,2.977.807Z" transform="translate(-197.044 -43.566)" fill="#306ff3"/>
              <path id="Trazado_899281" data-name="Trazado 899281" d="M533,120.627l-2.977-.808.347-2.315,2.977.808Z" transform="translate(-199.437 -44.214)" fill="#f1a23a"/>
              <path id="Trazado_899282" data-name="Trazado 899282" d="M539.358,122.352l-2.977-.808.347-2.315,2.977.807Z" transform="translate(-201.83 -44.864)" fill="#f1a23a"/>
              <path id="Trazado_899283" data-name="Trazado 899283" d="M545.718,124.077l-2.977-.808.347-2.315,2.977.808Z" transform="translate(-204.223 -45.513)" fill="#f1a23a"/>
              <path id="Trazado_899284" data-name="Trazado 899284" d="M552.077,125.8l-2.977-.808.347-2.315,2.977.807Z" transform="translate(-206.616 -46.162)" fill="#a4c4ea"/>
              <path id="Trazado_899285" data-name="Trazado 899285" d="M513.092,120.964l-2.977-.808.347-2.315,2.977.808Z" transform="translate(-191.947 -44.341)" fill="#f1a23a"/>
              <path id="Trazado_899286" data-name="Trazado 899286" d="M519.452,122.689l-2.977-.808.347-2.315,2.977.808Z" transform="translate(-194.34 -44.99)" fill="#f1a23a"/>
              <path id="Trazado_899287" data-name="Trazado 899287" d="M525.812,124.414l-2.977-.808.347-2.315,2.977.807Z" transform="translate(-196.733 -45.64)" fill="#306ff3"/>
              <path id="Trazado_899288" data-name="Trazado 899288" d="M532.172,126.139l-2.977-.808.347-2.315,2.977.808Z" transform="translate(-199.126 -46.289)" fill="#f1a23a"/>
              <path id="Trazado_899289" data-name="Trazado 899289" d="M538.532,127.864l-2.977-.808.347-2.315,2.977.808Z" transform="translate(-201.519 -46.938)" fill="#f1a23a"/>
            </g>
          </g>
        </g>
      </g>
      <g id="Grupo_1100764" data-name="Grupo 1100764" transform="translate(1365.931 8581.5) rotate(-90)">
        <rect id="Rectángulo_401993" data-name="Rectángulo 401993" width="6.248" height="6.248" transform="translate(0 47.822)" fill="#be6763"/>
        <rect id="Rectángulo_401994" data-name="Rectángulo 401994" width="6.248" height="6.248" transform="translate(0 23.911)" fill="#be6763"/>
        <rect id="Rectángulo_401995" data-name="Rectángulo 401995" width="6.248" height="6.248" fill="#be6763"/>
        <rect id="Rectángulo_401996" data-name="Rectángulo 401996" width="6.247" height="6.248" transform="translate(19.299 47.822)" fill="#be6763"/>
        <rect id="Rectángulo_401997" data-name="Rectángulo 401997" width="6.248" height="6.248" transform="translate(19.299 23.911)" fill="#be6763"/>
        <rect id="Rectángulo_401998" data-name="Rectángulo 401998" width="6.248" height="6.248" transform="translate(19.299)" fill="#be6763"/>
      </g>
      <g id="Grupo_1100765" data-name="Grupo 1100765" transform="translate(1020 8834.5) rotate(-90)">
        <rect id="Rectángulo_401993-2" data-name="Rectángulo 401993" width="6.248" height="6.248" transform="translate(0 47.822)" fill="#be6763"/>
        <rect id="Rectángulo_401994-2" data-name="Rectángulo 401994" width="6.248" height="6.248" transform="translate(0 23.911)" fill="#be6763"/>
        <rect id="Rectángulo_401995-2" data-name="Rectángulo 401995" width="6.248" height="6.248" fill="#be6763"/>
        <rect id="Rectángulo_401996-2" data-name="Rectángulo 401996" width="6.247" height="6.248" transform="translate(19.299 47.822)" fill="#be6763"/>
        <rect id="Rectángulo_401997-2" data-name="Rectángulo 401997" width="6.248" height="6.248" transform="translate(19.299 23.911)" fill="#be6763"/>
        <rect id="Rectángulo_401998-2" data-name="Rectángulo 401998" width="6.248" height="6.248" transform="translate(19.299)" fill="#be6763"/>
      </g>
    </g>
  </g>
</svg>
