<svg xmlns="http://www.w3.org/2000/svg" xmlns:xlink="http://www.w3.org/1999/xlink" width="387.456" height="402.616" viewBox="0 0 387.456 402.616">
  <defs>
    <clipPath id="clip-path">
      <rect id="Rectángulo_402316" data-name="Rectángulo 402316" width="365.95" height="367.738" fill="none"/>
    </clipPath>
    <clipPath id="clip-path-2">
      <path id="Trazado_897280" data-name="Trazado 897280" d="M393.659,38.4a9.647,9.647,0,0,0-1.1,5.895,9.65,9.65,0,0,0,4.769-3.634,9.646,9.646,0,0,0,1.095-5.895,9.651,9.651,0,0,0-4.769,3.634" transform="translate(-392.482 -34.768)" fill="none"/>
    </clipPath>
    <clipPath id="clip-path-4">
      <path id="Trazado_897283" data-name="Trazado 897283" d="M328.079,86.14a9.65,9.65,0,0,0-5.04,3.249A8.336,8.336,0,0,0,334,87.114a10.237,10.237,0,0,0-4.452-1.12,7.2,7.2,0,0,0-1.465.146" transform="translate(-323.039 -85.994)" fill="none"/>
    </clipPath>
    <clipPath id="clip-path-6">
      <path id="Trazado_897321" data-name="Trazado 897321" d="M1209.169,1184.688a7.923,7.923,0,0,0,10.6.909,9.172,9.172,0,0,0-5.124-2.5c-.187-.016-.372-.023-.556-.023a9.424,9.424,0,0,0-4.919,1.612" transform="translate(-1209.169 -1183.076)" fill="none"/>
    </clipPath>
    <clipPath id="clip-path-8">
      <path id="Trazado_897324" data-name="Trazado 897324" d="M1166.862,1147.166a3.054,3.054,0,1,0-1.569-5.48,9.173,9.173,0,0,0,1.569,5.48" transform="translate(-1165.287 -1141.686)" fill="none"/>
    </clipPath>
  </defs>
  <g id="Grupo_1100840" data-name="Grupo 1100840" transform="translate(-1032.814 -2640.454)">
    <g id="Grupo_1100328" data-name="Grupo 1100328" transform="translate(-2043.32 3747.801) rotate(-90)">
      <circle id="Elipse_11542" data-name="Elipse 11542" cx="163.776" cy="163.776" r="163.776" transform="translate(704.73 3111)" fill="#0c4956"/>
      <path id="Sustracción_7" data-name="Sustracción 7" d="M342.616,163.776H0V0H342.616a59.951,59.951,0,0,1,60,60v43.776a59.951,59.951,0,0,1-60,60Z" transform="translate(704.731 3188.794)" fill="#8f4d4b"/>
      <g id="Grupo_1100270" data-name="Grupo 1100270" transform="translate(848.402 3111) rotate(-90)">
        <rect id="Rectángulo_401993" data-name="Rectángulo 401993" width="8.527" height="8.527" transform="translate(0 65.267)" fill="#c59d55"/>
        <rect id="Rectángulo_401994" data-name="Rectángulo 401994" width="8.527" height="8.527" transform="translate(0.001 32.633)" fill="#c59d55"/>
        <rect id="Rectángulo_401995" data-name="Rectángulo 401995" width="8.527" height="8.527" fill="#c59d55"/>
        <rect id="Rectángulo_401996" data-name="Rectángulo 401996" width="8.526" height="8.527" transform="translate(26.34 65.267)" fill="#c59d55"/>
        <rect id="Rectángulo_401997" data-name="Rectángulo 401997" width="8.527" height="8.527" transform="translate(26.339 32.634)" fill="#c59d55"/>
        <rect id="Rectángulo_401998" data-name="Rectángulo 401998" width="8.527" height="8.527" transform="translate(26.339)" fill="#c59d55"/>
      </g>
      <g id="Grupo_1100272" data-name="Grupo 1100272" transform="translate(1013.45 3288.112) rotate(-90)">
        <rect id="Rectángulo_401993-2" data-name="Rectángulo 401993" width="8.527" height="8.527" transform="translate(0 65.267)" fill="#c59d55"/>
        <rect id="Rectángulo_401994-2" data-name="Rectángulo 401994" width="8.527" height="8.527" transform="translate(0.001 32.633)" fill="#c59d55"/>
        <rect id="Rectángulo_401995-2" data-name="Rectángulo 401995" width="8.527" height="8.527" fill="#c59d55"/>
        <rect id="Rectángulo_401996-2" data-name="Rectángulo 401996" width="8.526" height="8.527" transform="translate(26.34 65.267)" fill="#c59d55"/>
        <rect id="Rectángulo_401997-2" data-name="Rectángulo 401997" width="8.527" height="8.527" transform="translate(26.339 32.634)" fill="#c59d55"/>
        <rect id="Rectángulo_401998-2" data-name="Rectángulo 401998" width="8.527" height="8.527" transform="translate(26.339)" fill="#c59d55"/>
      </g>
      <g id="Grupo_1100271" data-name="Grupo 1100271" transform="translate(867.866 3389.797)">
        <rect id="Rectángulo_401993-3" data-name="Rectángulo 401993" width="8.527" height="8.527" transform="translate(0 65.267)" fill="#c59d55"/>
        <rect id="Rectángulo_401994-3" data-name="Rectángulo 401994" width="8.527" height="8.527" transform="translate(0.001 32.633)" fill="#c59d55"/>
        <rect id="Rectángulo_401995-3" data-name="Rectángulo 401995" width="8.527" height="8.527" fill="#c59d55"/>
        <rect id="Rectángulo_401996-3" data-name="Rectángulo 401996" width="8.526" height="8.527" transform="translate(26.34 65.267)" fill="#c59d55"/>
        <rect id="Rectángulo_401997-3" data-name="Rectángulo 401997" width="8.527" height="8.527" transform="translate(26.339 32.634)" fill="#c59d55"/>
        <rect id="Rectángulo_401998-3" data-name="Rectángulo 401998" width="8.527" height="8.527" transform="translate(26.339)" fill="#c59d55"/>
      </g>
    </g>
    <g id="Grupo_1100521" data-name="Grupo 1100521" transform="translate(1036.101 2675.136)">
      <g id="Grupo_1100428" data-name="Grupo 1100428" transform="translate(0 0.002)">
        <g id="Grupo_1100427" data-name="Grupo 1100427" transform="translate(0 0)" clip-path="url(#clip-path)">
          <path id="Trazado_897250" data-name="Trazado 897250" d="M1435.154,689.638c13.764,16.658-37.641,77.808-37.641,77.808l-3.4-66.852s34.28-19.144,41.044-10.956" transform="translate(-1113.794 -549.345)" fill="#363e44"/>
          <path id="Trazado_897251" data-name="Trazado 897251" d="M1581.1,310.061l29.365-.717a18.661,18.661,0,0,0,18.085-16.2,17.783,17.783,0,0,0-12.432-19.225c-8.677-2.708-19.146-5.787-24.8-6.761-10.775-1.857-10.22,42.9-10.22,42.9" transform="translate(-1263.182 -213.4)" fill="#fff"/>
          <path id="Trazado_897252" data-name="Trazado 897252" d="M982.472,338.548s-.181-15.726,37.461-32.221l8.658,14.958Z" transform="translate(-784.924 -244.734)" fill="#fff"/>
          <path id="Trazado_897253" data-name="Trazado 897253" d="M1168.777,264.187s53.807-17.547,94.53-7.5l-7.854,43.323,6.425,43.406c-2.772,2.37-29.61,12.644-34.28,15.728,0,0-.788.583-9.8,4.634-10.783,4.847-8.949-9.165-37.913-7.358q-1.168-27.529-2.336-55.057Z" transform="translate(-933.769 -202.594)" fill="#fff"/>
          <path id="Trazado_897254" data-name="Trazado 897254" d="M1653.486,307.679a.443.443,0,0,1-.109-.873,18.243,18.243,0,0,0,13.6-15.251,17.39,17.39,0,0,0-12.125-18.747c-8.107-2.53-18.98-5.754-24.741-6.747a.443.443,0,0,1,.151-.874c5.808,1,16.722,4.236,24.854,6.774a18.276,18.276,0,0,1,12.74,19.7,19.137,19.137,0,0,1-14.26,16,.455.455,0,0,1-.11.013" transform="translate(-1302.047 -211.861)" fill="#363e44"/>
          <path id="Trazado_897255" data-name="Trazado 897255" d="M1294.994,43.49c-.7-.1-7.458-.968-11.755,3.48-3.2,3.309-3.766,7.72-3.6,15.263.194,8.882,1.551,14.165,4.02,16.03,3.9,2.947,16.252-2.673,21.146-10.2a17.849,17.849,0,0,0,.282-18.315c-3.2-5.664-9.642-6.2-10.091-6.262" transform="translate(-1022.318 -34.639)" fill="#bc8271"/>
          <path id="Trazado_897256" data-name="Trazado 897256" d="M1331.52,122.327h0a10.023,10.023,0,0,0,9.168-10.811l-2.5-30.419a10.023,10.023,0,0,0-10.811-9.168h0a10.023,10.023,0,0,0-9.168,10.811l2.5,30.419a10.023,10.023,0,0,0,10.811,9.168" transform="translate(-1053.126 -57.439)" fill="#bc8271"/>
          <path id="Trazado_897257" data-name="Trazado 897257" d="M1324.23,177.023a.443.443,0,0,1-.088-.878c4.957-1.013,12.15-5.233,15.6-10.544a.443.443,0,0,1,.743.483c-3.716,5.712-11.105,9.894-16.171,10.929a.449.449,0,0,1-.089.009" transform="translate(-1057.611 -132.143)" fill="#363e44"/>
          <path id="Trazado_897258" data-name="Trazado 897258" d="M1328.31,120.783a12.384,12.384,0,0,1-3.085,4.48c-.453.4-2.862-4.023-2.251-4.2a12.4,12.4,0,0,1,5.336-.277" transform="translate(-1056.883 -96.363)" fill="#fff"/>
          <path id="Trazado_897259" data-name="Trazado 897259" d="M1291.37,129.145a11.644,11.644,0,0,0,7.16-1.039,8.743,8.743,0,0,0,1.533-1.1,4.869,4.869,0,0,0-2.235-4.2,8.773,8.773,0,0,0-1.848.768,11.645,11.645,0,0,0-4.61,5.576" transform="translate(-1031.712 -98.11)" fill="#363e44"/>
          <path id="Trazado_897260" data-name="Trazado 897260" d="M1301.8,172.026a2.359,2.359,0,0,1-1.216-.339.443.443,0,0,1,.456-.76,1.385,1.385,0,0,0,1.65-.124,1.474,1.474,0,0,0,.372-1.3.444.444,0,0,1,.34-.526.439.439,0,0,1,.526.339,2.349,2.349,0,0,1-.636,2.139,2.189,2.189,0,0,1-1.493.573" transform="translate(-1038.904 -134.991)" fill="#363e44"/>
          <path id="Trazado_897261" data-name="Trazado 897261" d="M1278.112,151.328a3.632,3.632,0,0,1-.376,1.709c-.4.776-.9.994-.91,1.495-.007.336.206.827,1.281,1.444Z" transform="translate(-1020.092 -120.901)" fill="#84524d"/>
          <path id="Trazado_897262" data-name="Trazado 897262" d="M1276.344,154.653a.444.444,0,0,1-.22-.059c-1.026-.589-1.517-1.19-1.5-1.838a1.57,1.57,0,0,1,.479-1,3.552,3.552,0,0,0,.479-.689,3.167,3.167,0,0,0,.328-1.5.444.444,0,0,1,.438-.45.436.436,0,0,1,.449.437,4.044,4.044,0,0,1-.425,1.917,4.336,4.336,0,0,1-.589.855c-.2.234-.27.333-.272.448,0,.131.094.5,1.058,1.05a.443.443,0,0,1-.221.828" transform="translate(-1018.33 -119.135)" fill="#363e44"/>
          <path id="Trazado_897263" data-name="Trazado 897263" d="M1365.991,121.781a4.817,4.817,0,0,1-.62-.04.443.443,0,0,1,.114-.879,5.122,5.122,0,0,0,4.964-2.928,5.663,5.663,0,0,0,.593-3.84,3.926,3.926,0,0,0-1.957-2.718,4.419,4.419,0,0,0-5.158,1.113.443.443,0,0,1-.63-.624,5.294,5.294,0,0,1,6.205-1.272,4.8,4.8,0,0,1,2.407,3.314,6.555,6.555,0,0,1-.677,4.444,6.144,6.144,0,0,1-5.242,3.431" transform="translate(-1089.074 -87.935)" fill="#363e44"/>
          <path id="Trazado_897264" data-name="Trazado 897264" d="M1382.22,128.554a.443.443,0,0,1-.35-.715,2.942,2.942,0,0,0,.271-.419,2.661,2.661,0,0,0,.281-1.8,1.781,1.781,0,0,0-.883-1.235,1.627,1.627,0,0,0-.733-.19.443.443,0,0,1,.011-.887h.011a2.512,2.512,0,0,1,1.128.294,2.652,2.652,0,0,1,1.334,1.83,3.55,3.55,0,0,1-.365,2.407,3.828,3.828,0,0,1-.353.546.443.443,0,0,1-.351.172" transform="translate(-1102.818 -98.512)" fill="#363e44"/>
          <path id="Trazado_897265" data-name="Trazado 897265" d="M1268.851,29.555a19.572,19.572,0,0,1,8.15-4.788,32.853,32.853,0,0,0-5.5,1.112c-.623.182-1.219.377-1.79.58a15.935,15.935,0,0,1,1.694-1.636,15.271,15.271,0,0,1,6.265-3.408c4.182-.926,8.622,1.4,10.069,1.992a19.268,19.268,0,0,0-5.277-2.968,11.891,11.891,0,0,1,6.446.492,7.893,7.893,0,0,1,2.289,1.619,15.152,15.152,0,0,1,2.111,2.735,15.128,15.128,0,0,0-.515-1.435c-.1-.241-.291-.695-.545-1.213a12.276,12.276,0,0,1,2.233,1.853c4.971,5.254,4.026,11.031,1.43,14.556-7.3-.417-14.355-2.2-21.058-2.637a10.438,10.438,0,0,0,3.121-1.852,54.364,54.364,0,0,1-7.062,1.775c-1.91.33-3.5.566-5.711.747a15.62,15.62,0,0,1,3.65-7.525" transform="translate(-1010.805 -16.163)" fill="#363e44"/>
          <path id="Trazado_897266" data-name="Trazado 897266" d="M91.214,50.534c-3.82-9.916-15.3-19.029-15.3-19.029S53.945,26.795,52.038,41.91s-14.98,23.4-34.6,26.043S.08,91.565.08,91.565l1.94,2.106,2.093-9.35L4.155,95.99l2.727,2.961,2.96-10.078s.99,9.422,1.3,14.7l8.479,9.206,71.05-38.65s5.144-11.656.543-23.6" transform="translate(0 -24.616)" fill="#363e44"/>
          <path id="Trazado_897267" data-name="Trazado 897267" d="M34.231,182.583a.423.423,0,0,1-.053,0,.443.443,0,0,1-.388-.492c.708-5.991,5.731-10.364,10.2-12.46,4.393-2.061,9.27-2.834,13.987-3.581q.99-.157,1.978-.317c4.964-.813,10.637-1.953,15.148-5.2,3.856-2.777,7.367-8.233,5.965-13.651a.443.443,0,0,1,.859-.223c1.507,5.822-2.212,11.646-6.305,14.593-4.667,3.361-10.459,4.528-15.522,5.358q-.989.162-1.983.317c-4.656.738-9.47,1.5-13.749,3.508-4.249,1.994-9.027,6.13-9.692,11.761a.443.443,0,0,1-.44.391" transform="translate(-26.993 -116.901)" fill="#bc8271"/>
          <path id="Trazado_897268" data-name="Trazado 897268" d="M81.4,227.309a.454.454,0,0,1-.089-.009.443.443,0,0,1-.345-.523C82,221.7,86.727,217.536,93.6,215.65a67.293,67.293,0,0,1,7.617-1.472,53.5,53.5,0,0,0,9.233-1.98c5.142-1.763,10.367-6.055,10.449-11.668a.443.443,0,0,1,.443-.437h.007a.443.443,0,0,1,.437.45c-.089,6.044-5.613,10.63-11.048,12.494a54.188,54.188,0,0,1-9.386,2.017,66.826,66.826,0,0,0-7.517,1.45c-5.05,1.387-10.854,4.86-12,10.45a.443.443,0,0,1-.434.354" transform="translate(-64.678 -159.86)" fill="#bc8271"/>
          <path id="Trazado_897269" data-name="Trazado 897269" d="M94.906,350.655,69.294,362.078a17.555,17.555,0,0,1-22.106-6.839h0a17.542,17.542,0,0,1,2.993-22.033c6.395-5.947,14.185-12.955,18.668-16.133,8.546-6.058,26.057,33.583,26.057,33.583" transform="translate(-35.622 -252.815)" fill="#ddc499"/>
          <path id="Trazado_897270" data-name="Trazado 897270" d="M632.878,192.057s-13.451-29.323-52.543-28.4l2.549,36.368Z" transform="translate(-463.646 -130.735)" fill="#ddc499"/>
          <path id="Trazado_897271" data-name="Trazado 897271" d="M244.442,163.744s-53.456,6.633-84.537,32.2l24.188,34.929-2.04,35.1h100.1L251.82,200.083Z" transform="translate(-127.753 -130.82)" fill="#ddc499"/>
          <path id="Trazado_897272" data-name="Trazado 897272" d="M277.856,7.882c4.209,7.288,2.585,17.207-4.614,21.363s-18.671.7-22.879-6.592a15.144,15.144,0,0,1,5.416-20.722c7.2-4.156,17.869-1.338,22.078,5.95" transform="translate(-198.37 -0.002)" fill="#363e44"/>
          <path id="Trazado_897273" data-name="Trazado 897273" d="M312.672,139.824l5.376,19.551,16.421-3.024-4.441-15.462Z" transform="translate(-249.803 -111.71)" fill="#84524d"/>
          <path id="Trazado_897274" data-name="Trazado 897274" d="M322.211,30.129c-2.466-6.114-4.786-9.461-8.5-11.017a9.3,9.3,0,0,0-2.224-.619c-.225-.026-.442-.044-.661-.064-1.55-.062-5.567.289-9.223,4.953-3.536,4.511-4.509,9.473.258,14.093L299.319,38.9a14.486,14.486,0,0,0,4.344,4.586c6.523,4.356,15.953,4.836,18.577,1.465,1.828-2.348,2.876-7.619-.029-14.819" transform="translate(-238.574 -14.72)" fill="#84524d"/>
          <path id="Trazado_897275" data-name="Trazado 897275" d="M357.266,18.257c.138.011.281.027.421.039s.267.015.366.025c-.264-.032-.527-.054-.787-.065" transform="translate(-285.43 -14.586)" fill="#bc8271"/>
          <path id="Trazado_897276" data-name="Trazado 897276" d="M362.048,18.678l.039.006-.039-.006" transform="translate(-289.25 -14.923)" fill="#bc8271"/>
          <path id="Trazado_897277" data-name="Trazado 897277" d="M325.217,209.4s3.567-14.648,24.739-9.123l-3.054,17.5Z" transform="translate(-259.825 -159.013)" fill="#84524d"/>
          <path id="Trazado_897278" data-name="Trazado 897278" d="M406.087,36.61c.016.049.063.073.08.122a.01.01,0,0,1,0,0,12.178,12.178,0,0,0,1.42,1.7,6.774,6.774,0,0,0,.734.467c.18.133.351.261.533.385a10.257,10.257,0,0,0,.443-4.516,10.793,10.793,0,0,0-3.21,1.842" transform="translate(-324.434 -27.778)" fill="#fff"/>
        </g>
      </g>
      <g id="Grupo_1100430" data-name="Grupo 1100430" transform="translate(78.917 6.993)">
        <g id="Grupo_1100429" data-name="Grupo 1100429" clip-path="url(#clip-path-2)">
          <path id="Trazado_897279" data-name="Trazado 897279" d="M388.223,45.456a4.041,4.041,0,1,1-5.4-1.874,4.04,4.04,0,0,1,5.4,1.874" transform="translate(-382.945 -41.486)" fill="#363e44"/>
        </g>
      </g>
      <g id="Grupo_1100432" data-name="Grupo 1100432" transform="translate(0 0.002)">
        <g id="Grupo_1100431" data-name="Grupo 1100431" transform="translate(0 0)" clip-path="url(#clip-path)">
          <path id="Trazado_897281" data-name="Trazado 897281" d="M353.231,87.845a3.43,3.43,0,0,0,1.492,1.7,10.42,10.42,0,0,0,2.877-2.421,10.391,10.391,0,0,0-5.016-1.1,5.821,5.821,0,0,0,.646,1.815" transform="translate(-281.69 -68.718)" fill="#fff"/>
        </g>
      </g>
      <g id="Grupo_1100434" data-name="Grupo 1100434" transform="translate(64.954 17.293)">
        <g id="Grupo_1100433" data-name="Grupo 1100433" clip-path="url(#clip-path-4)">
          <path id="Trazado_897282" data-name="Trazado 897282" d="M323.11,86.24a4.041,4.041,0,1,1,2.341,5.213,4.041,4.041,0,0,1-2.341-5.213" transform="translate(-322.884 -84.108)" fill="#363e44"/>
        </g>
      </g>
      <g id="Grupo_1100436" data-name="Grupo 1100436" transform="translate(0 0.002)">
        <g id="Grupo_1100435" data-name="Grupo 1100435" transform="translate(0 0)" clip-path="url(#clip-path)">
          <path id="Trazado_897284" data-name="Trazado 897284" d="M390.416,86.664a.512.512,0,0,1-.061,0,.444.444,0,0,1-.379-.5.983.983,0,0,0-.115-.723c-.111-.151-.275-.2-.607-.3a4.428,4.428,0,0,1-.968-.383,3.849,3.849,0,0,1-1.232-1.116.443.443,0,1,1,.717-.521,2.968,2.968,0,0,0,.947.863,3.569,3.569,0,0,0,.786.307,1.618,1.618,0,0,1,1.349,1.995.443.443,0,0,1-.439.384" transform="translate(-309.161 -66.258)" fill="#363e44"/>
          <path id="Trazado_897285" data-name="Trazado 897285" d="M386.043,119.606a1.968,1.968,0,0,1-3.821-.947c.262-1.055.855.212,1.911.474s2.172-.581,1.91.474" transform="translate(-305.322 -94.47)" fill="#363e44"/>
          <path id="Trazado_897286" data-name="Trazado 897286" d="M356.011,155.773a61.072,61.072,0,0,1-9.112-.82.443.443,0,1,1,.154-.873,55.05,55.05,0,0,0,10.79.752.443.443,0,1,1,.056.885c-.614.039-1.249.056-1.888.056" transform="translate(-276.855 -123.093)" fill="#363e44"/>
          <path id="Trazado_897287" data-name="Trazado 897287" d="M293.1,113.993a4.645,4.645,0,1,1-4.645-4.644,4.645,4.645,0,0,1,4.645,4.644" transform="translate(-226.746 -87.362)" fill="#84524d"/>
          <path id="Trazado_897288" data-name="Trazado 897288" d="M297.712,128.336a.442.442,0,0,1-.354-.177,3.088,3.088,0,0,0-1.831-1.085,2.928,2.928,0,0,0-2.181.707.443.443,0,0,1-.538-.7,3.78,3.78,0,0,1,2.849-.879,3.953,3.953,0,0,1,2.409,1.429.443.443,0,0,1-.354.709" transform="translate(-233.793 -100.799)" fill="#363e44"/>
          <path id="Trazado_897289" data-name="Trazado 897289" d="M299.82,19.463a.441.441,0,0,1-.283-.1c-.048-.039-3.061-2.425-10.572-2.471A.443.443,0,0,1,288.97,16c7.9.048,11.006,2.569,11.134,2.676a.443.443,0,0,1-.284.784" transform="translate(-230.51 -12.786)" fill="#bc8271"/>
          <path id="Trazado_897290" data-name="Trazado 897290" d="M277.476,57.052a.448.448,0,0,1-.22-.058l-6.564-3.76a.444.444,0,0,1,.2-.828l7.74-.344a.428.428,0,0,1,.368.168.443.443,0,0,1,.078.4l-1.175,4.1a.443.443,0,0,1-.426.321m-5.018-3.829,4.747,2.72.85-2.968Z" transform="translate(-216.085 -41.593)" fill="#efbc73"/>
          <path id="Trazado_897291" data-name="Trazado 897291" d="M263.726,83.87a.443.443,0,0,1-.27-.794l6.137-4.727a.452.452,0,0,1,.381-.078.445.445,0,0,1,.3.253l1.737,4a.444.444,0,0,1-.366.618l-7.875.724-.041,0m5.957-4.472-4.476,3.447,5.743-.528Z" transform="translate(-210.344 -62.523)" fill="#efbc73"/>
          <path id="Trazado_897292" data-name="Trazado 897292" d="M465.6,380.938s10.841,51.853.177,72.538A135.706,135.706,0,0,1,216.917,346.859c5.83-16.739,38.787-28.881,38.787-28.881s9.048-36.894,22.053-44.339a135.928,135.928,0,0,1,128.011-3.557c7.166,3.59,16.1,19.093,16.1,19.093s13.908,1.176,18.311,5.5A135.906,135.906,0,0,1,463.812,325.7c9.666,17.418,1.784,55.238,1.784,55.238" transform="translate(-167.311 -204.354)" fill="#e6d0be"/>
          <path id="Trazado_897293" data-name="Trazado 897293" d="M347.428,372.988c-3.739,2.565-1.267,8.511-5,10.917-6.4,4.126-24.808-6.19-24.278-14.764.574-9.28,23.421-18.032,32.283-11.411,5.7,4.263,3.327,13.186,8.719,15.121,4.573,1.641,12.132-2.675,13.455-8.618,1.746-7.848-8.389-14.026-9.243-14.532-10.239-6.059-23.581-1.619-28.491.015-10.606,3.53-12.8,7.913-18.041,6.656-5.531-1.328-7-7.158-9.242-11.756a136.132,136.132,0,0,0-60.834,73.216c5.242,6.567,17.074,6.68,21.752,18.483,2.461,6.207,1.318,11.553,5.9,14.73,4.668,3.235,9.264.056,13.068,3.693,2.257,2.158,1.532,4.129,3.511,12.079,1.91,7.671,2.865,11.507,5.28,13.65,6.964,6.178,22.831.2,22.759-2.467-.048-1.767-7.048-.826-9.828-5.561-2.9-4.938,2.379-9.937-.3-14.5-2.943-5.01-11.052-1.992-13.791-6.443-2.827-4.594,1.432-14.929,8.9-19.518,10.949-6.73,19.708,4.49,30.685-.7,13.66-6.463,8.322-27.729,24.639-36.649,8.228-4.5,14.906-2,15.88-5.41,1.842-6.451-20.36-21.314-27.78-16.224" transform="translate(-197.14 -275.324)" fill="#f7f1eb"/>
          <path id="Trazado_897294" data-name="Trazado 897294" d="M630.2,948.962c8.826-4.068,17.3-2.532,20.584-1.936a35.524,35.524,0,0,1,14.913,6.129c9.575,6.972,7.261,13.358,15.247,17.995,8.632,5.012,17.553,1.161,19.222,5.356.9,2.271-1.676,3.49-3.6,9.072-3.408,9.907,1.08,16.645-2.967,19.666-2.21,1.651-6.959,2.185-6.959,2.185s.758,5.65-.583,10.075c-.94,3.1-2.145,3.076-4.879,7.377-3.83,6.024-2.568,7.808-5.377,11.784-4.2,5.946-8.657,4.269-11.153,8.293-5.264,8.488,10.443,22.585,6.388,27.97-3.072,4.079-16.766,2.21-23.182-5.712-4.524-5.587-1.661-9.531-4.954-23.724a122.46,122.46,0,0,0-9.387-25.43c-5.111-10.435-8.722-14.205-7.88-21.108.725-5.94,3.871-7,3.2-11.295-1.282-8.169-13.292-8.154-15.107-15.641s7.9-17.108,16.472-21.058" transform="translate(-490.147 -755.98)" fill="#f7f1eb"/>
          <path id="Trazado_897295" data-name="Trazado 897295" d="M1193.958,590.415c-19.125-3.414-24.1-4.478-32.166-1.747-6.972,2.362-12.45,6.331-23.405,14.27-10.446,7.57-12.182,10.634-12.922,12.133-4.2,8.516-1.4,17.5,1.615,27.182,2.634,8.451,5.512,17.686,11.739,19,2.985.632,4.443-1.041,13.325-5.337,11.345-5.487,17.018-8.23,19.323-6.451,4.591,3.545-8.386,19.108-2.027,29.671,4.255,7.068,13.145,5.219,16.712,13.405,2.432,5.578-.769,8.566.852,14.346,1.246,4.443,4.748,8.408,8.911,11.292a135.784,135.784,0,0,0-1.958-127.769" transform="translate(-897.461 -469.066)" fill="#f7f1eb"/>
          <path id="Trazado_897296" data-name="Trazado 897296" d="M383.606,523.354a136.34,136.34,0,1,1,7.45-.2c-2.489.133-4.977.2-7.45.2m.24-271.29c-2.429,0-4.862.065-7.317.2A135.2,135.2,0,0,0,248.732,394.5c3.992,74.442,67.821,131.765,142.277,127.771a135.2,135.2,0,0,0,127.8-142.237c-3.861-71.988-63.685-127.967-134.961-127.967" transform="translate(-197.851 -200.671)" fill="#d3bba3"/>
          <path id="Trazado_897297" data-name="Trazado 897297" d="M1106.589,351.5a136.256,136.256,0,0,0-34.411-24.59c-.631,3.9-.345,7.685,1.327,10.62,2.335,4.1,6.764,5.495,6.625,9.457-.137,3.908-4.617,7.435-8.57,8.844-6.742,2.4-11.351-1.576-13.595.807-3.368,3.577,5.3,14.37,1.832,18.077-2.27,2.427-6.855-1.27-11.284,1.427-4.194,2.554-6.592,9.833-3.679,14.615,2.264,3.718,7.165,4.985,10.887,4.658,3.123-.274,7.244-1.832,18.029-15.466,9.965-12.6,11.217-17.3,15.628-17.6,7.412-.5,13.7,12.111,15.068,11.23,1.274-.819-6.742-10.028-4.763-16.387.837-2.689,3.347-4.486,6.906-5.693" transform="translate(-833.722 -261.181)" fill="#f7f1eb"/>
          <path id="Trazado_897298" data-name="Trazado 897298" d="M437.057,322.254h0a22.169,22.169,0,0,1,31.351,0l.174.173.131-.131a22.227,22.227,0,1,1,31.434,31.433l-31.491,31.489-31.6-31.613a22.166,22.166,0,0,1,0-31.35" transform="translate(-343.989 -252.271)" fill="#be6763"/>
          <path id="Trazado_897299" data-name="Trazado 897299" d="M552.924,384.386c3.26-3.63,17.139-24.03,20.967-20.424,1.805,1.7-8,14.4-9.335,16.546,2.182-1.961,13.049-15.266,15.219-12.9,2.232,2.439-10.532,16.4-10.571,16.523,1.171-1.028,11.449-12.407,14.006-9.993,2.462,2.324-8.317,11.218-9.2,12.646,1.663-1.114,8.476-7.784,10.079-6.266,2.148,2.033-5.317,8.625-5.954,9.993-2.661,3.415-2.961,3.727-6.893,10.906-7.033,12.84-31.161-2.736-18.32-17.035" transform="translate(-438.789 -290.44)" fill="#fff"/>
          <path id="Trazado_897300" data-name="Trazado 897300" d="M565.306,393.681c-.457-7.718-1.319-11.051-2.151-11.2-2.74-.493-5.984,15.337-4.631,19.733.619,2.012,1.636,1.965,1.636,1.965.784.951,1.31,1.589,1.79,1.593.985.009,2.036-.874,3.357-12.09" transform="translate(-445.967 -305.566)" fill="#fff"/>
          <path id="Trazado_897301" data-name="Trazado 897301" d="M576.968,479.772c1.177-1.755,5.889-11.348,7.75-10.034.878.619-2.555,6.662-3,7.663.817-.974,4.668-7.341,5.742-6.456,1.106.91-3.52,7.672-3.528,7.729.44-.512,4.155-6.017,5.4-5.138,1.2.847-2.885,5.317-3.176,5.983.646-.579,3.162-3.854,3.942-3.3,1.045.741-1.756,4.022-1.946,4.648a24.447,24.447,0,0,0-2.293,5.1c-2.235,5.935-13.53.722-8.893-6.191" transform="translate(-460.071 -375.189)" fill="#d3bba3"/>
          <path id="Trazado_897302" data-name="Trazado 897302" d="M579.447,487.552c-.665-3.282-1.238-4.659-1.6-4.673-1.205-.044-1.634,6.941-.786,8.744.388.825.821.743.821.743.395.36.659.6.865.574.423-.056.82-.5.7-5.389" transform="translate(-460.674 -385.786)" fill="#d3bba3"/>
          <path id="Trazado_897303" data-name="Trazado 897303" d="M424.285,339.384c-2.97-1.062-14.609-7.458-19.727-3.98-5.154,3.5-7.077,10.117-6.814,16.343l.056.055a12.255,12.255,0,0,0,4.683,5.129c2.824,1.62,4.321.709,7.567,1.954,5.479,2.1,6.559,6.916,8.421,5.993,1.278-.634.77-3.466-.366-5.929-1.166-2.529-2.985-3.673-2.714-4.04.3-.4,1.994,1,4.265,2.548,1.055.72,2.734,4.48,4.608,3.871,1.494-.485.727-4.831-1.838-7.7-1.815-2.03-4.435-2.383-4.272-2.852.122-.352,1.679-.1,2.956.509,2.108,1.012,3.867,4.84,5.581,4.246,1.679-.582.943-4.365-1.25-7.154-1.848-2.352-4.789-2.6-4.59-3.19.14-.412,1.48-.572,4.26-.059,2.32.428,6.556,2.756,7.367.4.682-1.985-3.709-4.535-8.191-6.138" transform="translate(-317.751 -267.145)" fill="#84524d"/>
          <path id="Trazado_897304" data-name="Trazado 897304" d="M112.486,344.962a15.792,15.792,0,0,0-10.135,15.916c.381,4.547,2.834,9.138,10.06,11.623,17.593,6.052,54.97-20.626,54.97-20.626l4.074-17.245c-19.931-.018-41.1,3.412-58.968,10.331" transform="translate(-81.728 -267.346)" fill="#84524d"/>
          <path id="Trazado_897305" data-name="Trazado 897305" d="M1124.832,1688.817h-81.337c4.456-18.163,7.741-31.654,7.741-31.654l58.5-3.6c5.466,5.222,10.671,19,15.1,35.253" transform="translate(-833.677 -1321.079)" fill="#363e44"/>
          <path id="Trazado_897306" data-name="Trazado 897306" d="M873.073,1132.785l-25.423-24.244-18.771-6.994-3.687,11.651c-3.333,11.828-3.96,20.23,10.753,31.883l32.442,29.088Z" transform="translate(-657.7 -880.057)" fill="#84524d"/>
          <path id="Trazado_897307" data-name="Trazado 897307" d="M825.583,906.606c2.443-10.574,2.326-12.269,11.06-32.577,3.719-8.647,7.256-15.66,8.749-20.4.865-1.5,2.3-12.808,5.509-12.189,2.394.462.928,9.137.934,11.418.768-1.769,1.821-15.594,5.492-14.88,3.812.742,1.024,13.625.8,15.394.092-.12,3.712-17.025,7.346-16.6,3.532.413-.03,14.5-.482,17.831.89-2.8,4.812-15.374,7.5-14.848,4.153.813.071,15.132-3.1,24.914,4.694-1.613,7.488-1.637,7.831-.33.174.663-3.191,4.908-10.578,8.611-1.187,3.648-8.085,24.026-11.8,36.258-7.646,5.121-15.076,10.166-22.722,15.287a17.533,17.533,0,0,1-6.548-17.887" transform="translate(-659.247 -668.513)" fill="#84524d"/>
          <path id="Trazado_897308" data-name="Trazado 897308" d="M957.526,976.9a.434.434,0,0,1-.159-.03.443.443,0,0,1-.254-.573,8.747,8.747,0,0,1,9.748-5.815.443.443,0,0,1-.179.868,7.753,7.753,0,0,0-8.741,5.265.442.442,0,0,1-.413.284" transform="translate(-764.641 -775.257)" fill="#363e44"/>
          <path id="Trazado_897309" data-name="Trazado 897309" d="M1410.775,1413.9c0,11.234-.545,20.788-1.493,37.016-1.09,18.641-1.588,27.71,5.323,30.469,38.222,15.262,28.046-50.671-3.829-67.486" transform="translate(-1125.403 -1129.606)" fill="#84524d"/>
          <path id="Trazado_897310" data-name="Trazado 897310" d="M1381.333,1398.554l22.155-31.3a59.588,59.588,0,0,0-25.352-13.424Z" transform="translate(-1101.032 -1081.61)" fill="#147a8f"/>
          <path id="Trazado_897311" data-name="Trazado 897311" d="M910.853,1180.083l-25.272,32.95,17.813,16.358s6.35,30.055,12.336,68.99l81.39-9.705-12.5-73.657s-36.549-5.441-73.767-34.935" transform="translate(-707.516 -942.802)" fill="#147a8f"/>
          <path id="Trazado_897312" data-name="Trazado 897312" d="M1180.982,1526.056s-22.951-9.344-35.466-13.439c-13.144-4.3-33.176-8.736-33.76-5.926-.333,1.6,2.274,2.77,9.45,5.434a3.374,3.374,0,0,0-1.873,2.7,3.24,3.24,0,0,0,1.827,3.109c-.175.064-2.041.8-2.363,2.312a3.567,3.567,0,0,0,1.5,3.8,3.7,3.7,0,0,0-2.215,2.425,3.322,3.322,0,0,0,2.051,3.743c2.791.868,11.136,3.288,15.053,4.96,7.709,3.292,33.516,18.655,45.915,20.467-2.072-10.646-.12-29.583-.12-29.583" transform="translate(-888.19 -1203.034)" fill="#84524d"/>
          <path id="Trazado_897313" data-name="Trazado 897313" d="M1169.279,1613.4a.43.43,0,0,1-.077-.007.442.442,0,0,1-.359-.513l.43-2.433a.443.443,0,1,1,.873.154l-.43,2.433a.443.443,0,0,1-.436.366" transform="translate(-933.816 -1286.335)" fill="#363e44"/>
          <path id="Trazado_897314" data-name="Trazado 897314" d="M1174.977,1582.987a.4.4,0,0,1-.063,0,.443.443,0,0,1-.375-.5l.4-2.765a.443.443,0,0,1,.877.126l-.4,2.764a.443.443,0,0,1-.438.38" transform="translate(-938.368 -1261.776)" fill="#363e44"/>
          <path id="Trazado_897315" data-name="Trazado 897315" d="M1178.864,1552.884a.442.442,0,0,1-.437-.521c.08-.453.15-.862.219-1.271s.14-.822.221-1.277a.443.443,0,0,1,.873.155c-.08.453-.15.862-.22,1.271s-.14.822-.221,1.277a.443.443,0,0,1-.436.366" transform="translate(-941.473 -1237.899)" fill="#363e44"/>
          <path id="Trazado_897316" data-name="Trazado 897316" d="M1184.51,1528.425a.426.426,0,0,1-.109-.014.442.442,0,0,1-.32-.538l.6-2.378a.443.443,0,0,1,.859.219l-.6,2.377a.443.443,0,0,1-.429.334" transform="translate(-945.984 -1218.494)" fill="#363e44"/>
          <path id="Trazado_897317" data-name="Trazado 897317" d="M1187.017,1228.818h0a8.2,8.2,0,0,0,9.539-6.6l2.626-14.434a8.2,8.2,0,0,0-6.6-9.54h0a8.2,8.2,0,0,0-9.54,6.6l-2.626,14.434a8.2,8.2,0,0,0,6.6,9.539" transform="translate(-942.959 -957.202)" fill="#84524d"/>
          <path id="Trazado_897318" data-name="Trazado 897318" d="M1186.709,1114.01c-.531-.26-4.352-4.855-8.887-2.438-3.374,1.8-6.246,7.322-8.045,13.327-2.118,7.071-2.4,11.593-.922,13.7,2.329,3.327,13.53,2.043,19.322-2.651a14.828,14.828,0,0,0,4.907-14.4c-1.08-5.3-6.036-7.365-6.375-7.531" transform="translate(-933.093 -887.507)" fill="#84524d"/>
          <path id="Trazado_897319" data-name="Trazado 897319" d="M1242.949,1185.971c-.035.035-.035.085-.069.12l0,0a11.64,11.64,0,0,0-.832,1.929,6.41,6.41,0,0,0-.084.822c-.036.209-.072.41-.1.618a9.757,9.757,0,0,0,4.025-1.553,10.261,10.261,0,0,0-2.936-1.939" transform="translate(-992.157 -947.506)" fill="#fff"/>
        </g>
      </g>
      <g id="Grupo_1100438" data-name="Grupo 1100438" transform="translate(243.13 237.885)">
        <g id="Grupo_1100437" data-name="Grupo 1100437" clip-path="url(#clip-path-6)">
          <path id="Trazado_897320" data-name="Trazado 897320" d="M1216.307,1176.688a3.841,3.841,0,1,1-.714-5.385,3.842,3.842,0,0,1,.714,5.385" transform="translate(-1209.367 -1173.038)" fill="#363e44"/>
        </g>
      </g>
      <g id="Grupo_1100440" data-name="Grupo 1100440" transform="translate(0 0.002)">
        <g id="Grupo_1100439" data-name="Grupo 1100439" transform="translate(0 0)" clip-path="url(#clip-path)">
          <path id="Trazado_897322" data-name="Trazado 897322" d="M1181.9,1161.54a3.259,3.259,0,0,0-.858,1.975,9.909,9.909,0,0,0,3.25,1.488,9.874,9.874,0,0,0-1.095-4.757,5.534,5.534,0,0,0-1.3,1.294" transform="translate(-943.564 -926.954)" fill="#fff"/>
        </g>
      </g>
      <g id="Grupo_1100442" data-name="Grupo 1100442" transform="translate(234.306 229.563)">
        <g id="Grupo_1100441" data-name="Grupo 1100441" clip-path="url(#clip-path-8)">
          <path id="Trazado_897323" data-name="Trazado 897323" d="M1157.116,1140.048a3.841,3.841,0,1,1-3.527,4.132,3.842,3.842,0,0,1,3.527-4.132" transform="translate(-1155.931 -1140.367)" fill="#363e44"/>
        </g>
      </g>
      <g id="Grupo_1100444" data-name="Grupo 1100444" transform="translate(0 0.002)">
        <g id="Grupo_1100443" data-name="Grupo 1100443" transform="translate(0 0)" clip-path="url(#clip-path)">
          <path id="Trazado_897325" data-name="Trazado 897325" d="M1237.239,1121.764a36.221,36.221,0,0,1-12.52,8.439c.654-2.309,2.09-8.823,2.09-8.823l2.374-3.865a3.669,3.669,0,0,0-.7-4.668l-11.365-9.912s.265-.192,4.2-2.281c2.222-1.178,7.081-.408,10.165.652,15.608,5.363,5.748,20.459,5.748,20.459" transform="translate(-972.393 -878.87)" fill="#363e44"/>
          <path id="Trazado_897326" data-name="Trazado 897326" d="M1325.7,1131.825c5.357,3.47,10.471,5.09,11.423,3.621s-2.619-5.474-7.975-8.943-10.47-5.09-11.422-3.621,2.619,5.474,7.975,8.943" transform="translate(-1052.641 -896.669)" fill="#363e44"/>
          <path id="Trazado_897327" data-name="Trazado 897327" d="M1326.421,1149.613c4.481,5.641,9.368,9.217,10.916,7.988s-.83-6.8-5.311-12.44-9.368-9.217-10.916-7.988.83,6.8,5.311,12.44" transform="translate(-1055.094 -908.326)" fill="#363e44"/>
          <path id="Trazado_897328" data-name="Trazado 897328" d="M1315.562,1155.034c2.546,6.739,6.109,11.636,7.958,10.938s1.284-6.728-1.262-13.468-6.109-11.636-7.958-10.937-1.285,6.728,1.261,13.467" transform="translate(-1049.162 -911.977)" fill="#363e44"/>
          <path id="Trazado_897329" data-name="Trazado 897329" d="M1321.072,1120.207c3.733-.028,6.753-.911,6.745-1.973s-3.04-1.9-6.774-1.873-6.753.911-6.745,1.973,3.04,1.9,6.773,1.873" transform="translate(-1050.03 -891.892)" fill="#363e44"/>
          <path id="Trazado_897330" data-name="Trazado 897330" d="M1321.424,1150.847a.443.443,0,0,1-.417-.6,14.028,14.028,0,0,0,.212-8.929.443.443,0,1,1,.846-.264,14.922,14.922,0,0,1-.226,9.5.443.443,0,0,1-.416.291" transform="translate(-1055.368 -911.375)" fill="#fff"/>
          <path id="Trazado_897331" data-name="Trazado 897331" d="M1257.341,1201.427c-1.7,1.649-1.948,4.151-.554,5.587s3.9,1.265,5.6-.384,1.948-4.15.554-5.588-3.9-1.265-5.6.385" transform="translate(-1003.361 -958.768)" fill="#84524d"/>
          <path id="Trazado_897332" data-name="Trazado 897332" d="M1278.6,1212.444a.443.443,0,0,1-.25-.81,2.125,2.125,0,0,0,.283-.23,1.6,1.6,0,0,0,.271-2.213,1.151,1.151,0,0,0-.45-.286.443.443,0,1,1,.293-.836,2.026,2.026,0,0,1,.794.5,2.475,2.475,0,0,1-.29,3.467,3.083,3.083,0,0,1-.4.327.441.441,0,0,1-.249.077" transform="translate(-1021.154 -965.14)" fill="#363e44"/>
          <path id="Trazado_897333" data-name="Trazado 897333" d="M1186.721,1188.116a.443.443,0,0,1-.431-.343,1.56,1.56,0,0,1,1.116-2.032,3.389,3.389,0,0,0,.713-.356,2.8,2.8,0,0,0,.815-.894.443.443,0,1,1,.762.453,3.68,3.68,0,0,1-1.075,1.171,4.228,4.228,0,0,1-.886.45c-.3.12-.45.184-.537.33a.914.914,0,0,0-.043.678.443.443,0,0,1-.331.532.439.439,0,0,1-.1.012" transform="translate(-947.708 -946.15)" fill="#363e44"/>
          <path id="Trazado_897334" data-name="Trazado 897334" d="M1187.888,1218.212l-.1,0a2.785,2.785,0,0,1-1.849-.816.443.443,0,0,1,.631-.623,1.889,1.889,0,0,0,1.25.553,1.954,1.954,0,0,0,1.366-.531.443.443,0,1,1,.618.636,2.833,2.833,0,0,1-1.917.783" transform="translate(-947.378 -972.008)" fill="#363e44"/>
          <path id="Trazado_897335" data-name="Trazado 897335" d="M1190.791,1248.856c-.858,0-1.787-.039-2.8-.126a.443.443,0,1,1,.077-.883c7.791.679,10.705-1.676,10.734-1.7a.443.443,0,1,1,.569.681c-.112.093-2.507,2.029-8.583,2.029" transform="translate(-948.799 -995.5)" fill="#363e44"/>
          <path id="Trazado_897336" data-name="Trazado 897336" d="M424.626,1624.5H338.989c15.978-22.113,35.874-46.372,36.783-46.217,2.048.341,45.082-5.223,45.082-5.223Z" transform="translate(-270.828 -1256.765)" fill="#ed807c"/>
          <path id="Trazado_897337" data-name="Trazado 897337" d="M358.09,1400.45c-6.285,11.527-29.215,39.231-16.354,46.924,10.638,6.363,31.129-21.657,38.074-32.733-7.442-4.849-14.277-9.342-21.72-14.191" transform="translate(-269.944 -1118.859)" fill="#e2a18d"/>
          <path id="Trazado_897338" data-name="Trazado 897338" d="M700.433,1117.878l38.414-27.153,3.2,10.127c2.9,10.281,3.442,17.584-9.347,27.713l-29.666,22.344Z" transform="translate(-559.596 -871.411)" fill="#e2a18d"/>
          <path id="Trazado_897339" data-name="Trazado 897339" d="M734.031,921.279c-2.124-9.191-2.021-10.664-9.614-28.316-3.233-7.516-6.307-13.612-7.6-17.735-.752-1.308-2-11.133-4.789-10.595-2.081.4-.806,7.942-.812,9.925-.668-1.538-1.583-13.555-4.774-12.934-3.313.645-.89,11.844-.7,13.381-.08-.1-3.226-14.8-6.386-14.429-3.07.359.027,12.607.419,15.5-.774-2.434-4.183-13.363-6.519-12.906-3.61.707-.062,13.153,2.694,21.655-4.08-1.4-6.509-1.423-6.807-.287-.151.577,2.773,4.266,9.195,7.485,1.031,3.171,7.028,20.884,10.254,31.516,6.646,4.451,13.1,8.837,19.75,13.288a15.24,15.24,0,0,0,5.691-15.548" transform="translate(-550.57 -687.533)" fill="#e2a18d"/>
          <path id="Trazado_897340" data-name="Trazado 897340" d="M763.96,982.206a.443.443,0,0,1-.414-.284,6.685,6.685,0,0,0-7.532-4.541.443.443,0,0,1-.179-.868,7.661,7.661,0,0,1,8.539,5.09.443.443,0,0,1-.254.573.438.438,0,0,1-.16.03" transform="translate(-603.575 -780.088)" fill="#363e44"/>
          <path id="Trazado_897341" data-name="Trazado 897341" d="M423.37,1268.527l54.233-5.58,1.775-82.864s-47.549,23.664-68.452,49.832l22.321,21.041Z" transform="translate(-328.3 -942.802)" fill="#fff"/>
          <path id="Trazado_897342" data-name="Trazado 897342" d="M365.272,1516.494c10.37-.4,34.743-2.558,37.131-2.674,4.463-.216,28.446-.755,28.9,2.7.216,1.65-4.4,1.963-5.963,2.023,1.287.574,6.467,2.242,6.222,4.091-.288,2.172-6.765,1.129-6.876,1.176,1.366.45,6.879,2.023,6.749,3.417-.169,1.813-5.737,1.888-7.4,1.833.167.234,5.658,2.029,5.508,3.134-.166,1.225-5.356,1.419-7.4,1.686-3.966.2-19.335,1.782-26.764,2.908-17.449,2.644-23,2.166-31.664,1.961-3.39-.081-2.614-18.547,1.568-22.251" transform="translate(-288.877 -1209.301)" fill="#e2a18d"/>
          <path id="Trazado_897343" data-name="Trazado 897343" d="M377.9,1520.347a.443.443,0,0,1-.022-.886c3.408-.17,13.736-.9,18.721-1.265a.438.438,0,0,1,.474.41.443.443,0,0,1-.41.474c-4.989.363-15.325,1.1-18.741,1.267H377.9" transform="translate(-301.558 -1212.928)" fill="#363e44"/>
          <path id="Trazado_897344" data-name="Trazado 897344" d="M646.289,1532.158a.442.442,0,0,1-.132-.02,19.939,19.939,0,0,0-7.6-.825.443.443,0,1,1-.074-.883,20.846,20.846,0,0,1,7.935.862.443.443,0,0,1-.131.866" transform="translate(-509.779 -1222.645)" fill="#363e44"/>
          <path id="Trazado_897345" data-name="Trazado 897345" d="M651.735,1560.747a.448.448,0,0,1-.085-.008q-.283-.055-.577-.1a20.068,20.068,0,0,0-4.924-.193.436.436,0,0,1-.479-.4.443.443,0,0,1,.4-.478,20.985,20.985,0,0,1,5.141.2c.2.033.405.07.6.108a.443.443,0,0,1-.084.879" transform="translate(-515.843 -1245.917)" fill="#363e44"/>
          <path id="Trazado_897346" data-name="Trazado 897346" d="M653.422,1588.489a.443.443,0,0,1-.036-.885,21.014,21.014,0,0,1,3.374-.01.443.443,0,1,1-.069.884,20.308,20.308,0,0,0-3.232.01l-.037,0" transform="translate(-521.683 -1268.323)" fill="#363e44"/>
          <path id="Trazado_897347" data-name="Trazado 897347" d="M343.23,1049.463c-3.768-4.811-10.229-4.872-16.435-3.743-9.558,1.739-8.379-11.869-14.017-13.406s-8.947,9.271-20.246-3.159l-13.259,26.869c4.539,5.893,14.474,3.478,14.474,3.478-8.748,5.768-13.877,3.635-16.625.88l-1.817,3.683s3.293,8.255,12.582,3.787c8.4-4.04,11.715-1.65,9.885,6.873s18.392,22.372,37.81-3.873l8.031-12.3a7.817,7.817,0,0,0-.384-9.095" transform="translate(-219.949 -822.222)" fill="#363e44"/>
          <path id="Trazado_897348" data-name="Trazado 897348" d="M353.053,1163.6c-2.69,0-6.188-1.191-9.226-6.083-5.678-9.145-9.273-8.386-17.571-5.62-3.568,1.19-6.392,1.271-8.394.241a4.278,4.278,0,0,1-2.159-2.3.443.443,0,0,1,.847-.264,3.421,3.421,0,0,0,1.746,1.792c1.756.887,4.413.781,7.68-.308,8.329-2.776,12.6-3.681,18.605,5.993,5.425,8.736,12.116,4.881,12.4,4.713a.443.443,0,0,1,.457.76,9.378,9.378,0,0,1-4.382,1.078" transform="translate(-252.208 -918.11)" fill="#40484c"/>
          <path id="Trazado_897349" data-name="Trazado 897349" d="M297.768,1240.289a10.906,10.906,0,0,1-10.081-6.657c-.193-.453-.361-.93-.523-1.391a6.749,6.749,0,0,0-1.991-3.431c-1.761-1.289-4.259-.383-5.252.066-.6.272-1.2.6-1.784.913a14.774,14.774,0,0,1-3.722,1.591,7.9,7.9,0,0,1-8.718-4.512.443.443,0,1,1,.819-.34,6.987,6.987,0,0,0,7.7,3.987,13.892,13.892,0,0,0,3.495-1.506c.6-.323,1.211-.655,1.841-.941,1.134-.513,4-1.538,6.141.026a7.492,7.492,0,0,1,2.3,3.852c.158.448.322.912.5,1.34a10.052,10.052,0,0,0,12.5,5.585.443.443,0,0,1,.287.839,10.924,10.924,0,0,1-3.524.579" transform="translate(-212.246 -979.689)" fill="#363e44"/>
          <path id="Trazado_897350" data-name="Trazado 897350" d="M498.653,1085.417a.444.444,0,0,1-.268-.8,7.2,7.2,0,0,0,2.1-8.037,10.259,10.259,0,0,0-6.412-5.958,17.615,17.615,0,0,0-9.1-.379c-.483.092-.967.2-1.452.3a15.629,15.629,0,0,1-5.661.52,8.242,8.242,0,0,1-6.828-7.708.443.443,0,1,1,.886-.026,7.429,7.429,0,0,0,6.075,6.858,15,15,0,0,0,5.341-.511c.492-.106.984-.213,1.474-.306a18.49,18.49,0,0,1,9.56.413,11.149,11.149,0,0,1,6.956,6.5,8.1,8.1,0,0,1-2.4,9.041.441.441,0,0,1-.268.09" transform="translate(-376.318 -849.183)" fill="#363e44"/>
          <path id="Trazado_897351" data-name="Trazado 897351" d="M551.16,1229.255l-.072.013a4.553,4.553,0,0,1-5.3-3.65l-2.428-13.135a4.553,4.553,0,0,1,3.65-5.3l.071-.013a4.553,4.553,0,0,1,5.3,3.649l2.428,13.135a4.553,4.553,0,0,1-3.649,5.3" transform="translate(-434.041 -964.378)" fill="#e2a18d"/>
          <path id="Trazado_897352" data-name="Trazado 897352" d="M522.093,1137.594c.419-.229,4.46-2.359,8.2-.572,2.786,1.33,4.179,3.968,5.845,8.747,1.963,5.628,2.349,9.266,1.236,11.018-1.759,2.767-10.841,2.134-15.682-1.445a11.973,11.973,0,0,1-4.476-11.444,8.986,8.986,0,0,1,4.872-6.3" transform="translate(-413.102 -907.833)" fill="#e2a18d"/>
          <path id="Trazado_897353" data-name="Trazado 897353" d="M548.791,1232.791a19.128,19.128,0,0,1-10.738-3.251.443.443,0,1,1,.527-.713,18.362,18.362,0,0,0,12.172,2.937.444.444,0,0,1,.137.876,13.667,13.667,0,0,1-2.1.151" transform="translate(-429.722 -981.676)" fill="#363e44"/>
          <path id="Trazado_897354" data-name="Trazado 897354" d="M517.92,1134.134c-3.579-5.017-12.718-3.866-16.471.667-4.011,4.846-2.548,12.046.212,15.574,1.641,2.1,5.064,4.747,6.718,3.375,2-1.66-1.1-5.261.838-10.8,1.5-4.278,7.364-5.356,8.7-8.816" transform="translate(-398.648 -903.471)" fill="#363e44"/>
          <path id="Trazado_897355" data-name="Trazado 897355" d="M537.176,1192.194a3.216,3.216,0,1,1-4.911-.112,3.5,3.5,0,0,1,4.911.112" transform="translate(-424.683 -951.628)" fill="#e2a18d"/>
          <path id="Trazado_897356" data-name="Trazado 897356" d="M539.409,1201.858a.445.445,0,0,1-.232-.065,2.692,2.692,0,0,1-.37-.276,2.527,2.527,0,0,1-.843-1.516,1.923,1.923,0,0,1,.444-1.581,1.834,1.834,0,0,1,.694-.488.443.443,0,0,1,.331.823.959.959,0,0,0-.362.253,1.052,1.052,0,0,0-.231.866,1.639,1.639,0,0,0,.552.979,1.764,1.764,0,0,0,.248.184.444.444,0,0,1-.232.821" transform="translate(-429.776 -957.037)" fill="#363e44"/>
          <path id="Trazado_897357" data-name="Trazado 897357" d="M561.435,1186.787a7.735,7.735,0,0,1,3.064-1.444c.375-.077.28,3.068-.111,2.971a7.754,7.754,0,0,1-2.953-1.526" transform="translate(-448.546 -947.003)" fill="#fff"/>
          <path id="Trazado_897358" data-name="Trazado 897358" d="M576.087,1184.781a5.457,5.457,0,0,0-1.176.115,3.041,3.041,0,0,0-.115,2.968,5.5,5.5,0,0,0,1.239.168,2.422,2.422,0,1,0,.052-3.251" transform="translate(-458.956 -946.555)" fill="#373e44"/>
          <path id="Trazado_897359" data-name="Trazado 897359" d="M595.6,1214.164a1.512,1.512,0,0,1-.576-.113,1.662,1.662,0,0,1-.957-1.264.443.443,0,1,1,.878-.125.784.784,0,0,0,.416.569.727.727,0,0,0,.829-.246.443.443,0,0,1,.694.552,1.652,1.652,0,0,1-1.284.627" transform="translate(-474.61 -968.527)" fill="#363e44"/>
          <path id="Trazado_897360" data-name="Trazado 897360" d="M609.023,1190.9a.444.444,0,0,1-.341-.726c.362-.436.392-.656.373-.7a.977.977,0,0,0-.193-.126,2.936,2.936,0,0,1-.573-.4,2.751,2.751,0,0,1-.725-1.116.443.443,0,1,1,.835-.3,1.875,1.875,0,0,0,.489.762,2.087,2.087,0,0,0,.412.284,1.143,1.143,0,0,1,.579.569c.177.445.008.967-.514,1.6a.443.443,0,0,1-.342.16" transform="translate(-485.379 -948.512)" fill="#363e44"/>
          <path id="Trazado_897361" data-name="Trazado 897361" d="M666.89,681.883h0a28.174,28.174,0,0,1,39.843,0l.221.219.167-.167a28.248,28.248,0,0,1,39.949,39.948L707.048,761.9,666.89,721.725a28.171,28.171,0,0,1,0-39.842" transform="translate(-526.204 -538.184)" fill="#be6763"/>
          <path id="Trazado_897362" data-name="Trazado 897362" d="M814.144,760.847c4.143-4.613,21.781-30.539,26.647-25.956,2.294,2.161-10.168,18.3-11.863,21.028,2.773-2.492,16.584-19.4,19.341-16.389,2.837,3.1-13.385,20.839-13.434,21,1.488-1.307,14.551-15.768,17.8-12.7,3.128,2.954-10.571,14.257-11.69,16.072,2.114-1.416,10.772-9.893,12.81-7.964,2.73,2.584-6.757,10.961-7.567,12.7-3.382,4.34-3.763,4.737-8.76,13.86-8.938,16.319-39.6-3.477-23.283-21.649" transform="translate(-646.684 -586.693)" fill="#fff"/>
          <path id="Trazado_897363" data-name="Trazado 897363" d="M829.881,772.659c-.581-9.808-1.677-14.044-2.734-14.234-3.483-.626-7.6,19.492-5.885,25.078.787,2.557,2.079,2.5,2.079,2.5,1,1.209,1.665,2.019,2.275,2.024,1.252.012,2.587-1.111,4.266-15.366" transform="translate(-655.807 -605.916)" fill="#fff"/>
          <path id="Trazado_897364" data-name="Trazado 897364" d="M844.7,882.07c1.5-2.23,7.484-14.422,9.85-12.752,1.115.787-3.248,8.467-3.809,9.74,1.038-1.237,5.932-9.329,7.3-8.2,1.405,1.157-4.473,9.751-4.484,9.822.559-.651,5.281-7.647,6.861-6.529,1.521,1.076-3.666,6.757-4.036,7.6.82-.736,4.018-4.9,5.009-4.194,1.328.942-2.231,5.112-2.473,5.906A31.085,31.085,0,0,0,856,889.939c-2.841,7.542-17.2.917-11.3-7.868" transform="translate(-673.732 -694.398)" fill="#d3bba3"/>
          <path id="Trazado_897365" data-name="Trazado 897365" d="M847.853,891.959c-.846-4.171-1.573-5.921-2.038-5.938-1.532-.057-2.076,8.822-1,11.113.493,1.048,1.044.945,1.044.945.5.458.836.764,1.1.73.538-.071,1.042-.634.9-6.849" transform="translate(-674.498 -707.867)" fill="#d3bba3"/>
          <path id="Trazado_897366" data-name="Trazado 897366" d="M1267,274.37h0a17.792,17.792,0,0,1,25.162,0l.139.139.106-.106a17.839,17.839,0,1,1,25.229,25.227L1292.36,324.9,1267,299.531a17.79,17.79,0,0,1,0-25.161" transform="translate(-1008.078 -215.039)" fill="#be6763"/>
          <path id="Trazado_897367" data-name="Trazado 897367" d="M1290.6,323.586h0a.443.443,0,0,1-.313-.13l-25.361-25.372a18.235,18.235,0,0,1,25.615-25.96,18.282,18.282,0,0,1,25.647,26.059l-25.274,25.273a.443.443,0,0,1-.314.13m-12.78-55.736a17.342,17.342,0,0,0-12.268,29.607l25.047,25.059,24.961-24.959a17.4,17.4,0,0,0-24.6-24.6l-.106.106a.444.444,0,0,1-.627,0l-.139-.139a17.3,17.3,0,0,0-12.268-5.074m-12.581,4.76h0Z" transform="translate(-1006.318 -213.278)" fill="#fff"/>
          <path id="Trazado_897368" data-name="Trazado 897368" d="M1359.994,324.238c2.616-2.913,13.755-19.286,16.828-16.392,1.449,1.365-6.421,11.557-7.492,13.28,1.751-1.574,10.473-12.253,12.214-10.35,1.792,1.958-8.453,13.16-8.484,13.261.94-.825,9.189-9.958,11.241-8.021,1.976,1.865-6.676,9-7.382,10.15,1.335-.894,6.8-6.247,8.09-5.029,1.724,1.632-4.267,6.922-4.779,8.02-2.136,2.741-2.376,2.991-5.532,8.753-5.645,10.306-25.01-2.2-14.7-13.672" transform="translate(-1084.164 -245.674)" fill="#fff"/>
          <path id="Trazado_897369" data-name="Trazado 897369" d="M1369.932,331.7c-.367-6.194-1.059-8.869-1.727-8.989-2.2-.4-4.8,12.309-3.716,15.837.5,1.615,1.313,1.577,1.313,1.577.63.763,1.051,1.275,1.436,1.279.791.007,1.634-.7,2.694-9.7" transform="translate(-1089.925 -257.814)" fill="#fff"/>
          <path id="Trazado_897370" data-name="Trazado 897370" d="M1379.291,400.793c.945-1.409,4.726-9.108,6.22-8.053.7.5-2.051,5.347-2.406,6.151.655-.781,3.747-5.891,4.609-5.181.887.731-2.825,6.158-2.832,6.2.353-.411,3.335-4.829,4.333-4.123.961.68-2.315,4.267-2.549,4.8.518-.465,2.538-3.093,3.164-2.649.838.6-1.409,3.228-1.562,3.73a19.623,19.623,0,0,0-1.84,4.09c-1.794,4.763-10.859.579-7.137-4.969" transform="translate(-1101.244 -313.693)" fill="#d3bba3"/>
          <path id="Trazado_897371" data-name="Trazado 897371" d="M1381.282,407.037c-.534-2.634-.994-3.739-1.287-3.75-.967-.036-1.311,5.571-.631,7.018.311.662.659.6.659.6.317.289.528.483.694.461.34-.045.658-.4.565-4.325" transform="translate(-1101.729 -322.198)" fill="#d3bba3"/>
          <path id="Trazado_897372" data-name="Trazado 897372" d="M1378.834,362.846c-20.926,11.993-21.484,14.884-20.047,17.578,1.652,3.095,3.58,1.9,3.58,1.9a3.794,3.794,0,0,0,1.134,3.445,3.667,3.667,0,0,0,3.936.717,3.883,3.883,0,0,0,4.8,5.042,4.057,4.057,0,0,0,.669,3.529,3.81,3.81,0,0,0,4.639.984c2.6-1.661,10.232-6.75,14.285-8.757,7.975-3.952,38.489-14.1,48.259-22.923,6.433-7.338,6.907-25.941-12.3-24.818-7.212.422-36.879,16.377-48.955,23.3" transform="translate(-1085.193 -271.235)" fill="#bc8271"/>
          <path id="Trazado_897373" data-name="Trazado 897373" d="M1453.941,594.886a.444.444,0,0,1-.331-.148l-1.853-2.079a.443.443,0,1,1,.662-.589l1.853,2.078a.443.443,0,0,1-.331.739" transform="translate(-1159.759 -472.903)" fill="#363e44"/>
          <path id="Trazado_897374" data-name="Trazado 897374" d="M1430.914,568.75a.442.442,0,0,1-.322-.139l-2.165-2.289a.443.443,0,0,1,.644-.609l2.165,2.289a.443.443,0,0,1-.322.748" transform="translate(-1141.114 -451.854)" fill="#363e44"/>
          <path id="Trazado_897375" data-name="Trazado 897375" d="M1407.151,544.071a.443.443,0,0,1-.331-.148c-.348-.392-.664-.742-.981-1.092s-.624-.691-.967-1.076a.444.444,0,0,1,.663-.59c.341.384.652.728.963,1.072s.635.7.985,1.1a.443.443,0,0,1-.331.738" transform="translate(-1122.302 -432.233)" fill="#363e44"/>
          <path id="Trazado_897376" data-name="Trazado 897376" d="M1389.827,521.567a.441.441,0,0,1-.351-.172l-1.69-2.181a.443.443,0,1,1,.7-.543l1.689,2.181a.444.444,0,0,1-.35.715" transform="translate(-1108.668 -414.244)" fill="#363e44"/>
          <path id="Trazado_897377" data-name="Trazado 897377" d="M38.861,794.915h0a17.793,17.793,0,0,1,25.162,0l.139.138.106-.106A17.839,17.839,0,0,1,89.5,820.175L64.222,845.448,38.861,820.076a17.79,17.79,0,0,1,0-25.161" transform="translate(-26.884 -630.917)" fill="#be6763"/>
          <path id="Trazado_897378" data-name="Trazado 897378" d="M62.462,844.13h0a.442.442,0,0,1-.313-.13L36.787,818.628A18.235,18.235,0,0,1,62.4,792.668a18.282,18.282,0,0,1,25.647,26.059L62.775,844a.443.443,0,0,1-.313.13m-12.78-55.736A17.342,17.342,0,0,0,37.414,818L62.462,843.06,87.422,818.1a17.4,17.4,0,0,0-24.6-24.6l-.106.106a.444.444,0,0,1-.626,0l-.139-.138a17.3,17.3,0,0,0-12.269-5.074m-12.58,4.76h0Z" transform="translate(-25.123 -629.156)" fill="#fff"/>
          <path id="Trazado_897379" data-name="Trazado 897379" d="M131.855,844.782c2.616-2.913,13.755-19.286,16.828-16.392,1.449,1.365-6.421,11.557-7.492,13.28,1.751-1.574,10.473-12.253,12.214-10.35,1.792,1.958-8.453,13.16-8.484,13.261.94-.825,9.189-9.958,11.241-8.021,1.976,1.865-6.676,9-7.383,10.15,1.335-.894,6.8-6.247,8.09-5.029,1.724,1.632-4.267,6.922-4.779,8.02-2.136,2.741-2.376,2.991-5.532,8.753-5.645,10.306-25.01-2.2-14.7-13.672" transform="translate(-102.969 -661.552)" fill="#fff"/>
          <path id="Trazado_897380" data-name="Trazado 897380" d="M141.794,852.241c-.367-6.194-1.059-8.869-1.727-8.989-2.2-.4-4.8,12.309-3.717,15.837.5,1.615,1.313,1.577,1.313,1.577.63.763,1.051,1.275,1.436,1.279.791.007,1.634-.7,2.694-9.7" transform="translate(-108.731 -673.691)" fill="#fff"/>
          <path id="Trazado_897381" data-name="Trazado 897381" d="M151.153,921.336c.945-1.408,4.726-9.107,6.22-8.053.7.5-2.051,5.347-2.405,6.151.655-.782,3.746-5.892,4.609-5.182.888.731-2.825,6.158-2.832,6.2.353-.411,3.335-4.829,4.333-4.123.961.68-2.315,4.267-2.549,4.8.518-.465,2.538-3.093,3.163-2.649.838.6-1.409,3.228-1.562,3.73a19.609,19.609,0,0,0-1.84,4.09c-1.794,4.763-10.859.579-7.137-4.969" transform="translate(-120.051 -729.569)" fill="#d3bba3"/>
          <path id="Trazado_897382" data-name="Trazado 897382" d="M153.143,927.581c-.534-2.634-.993-3.739-1.287-3.75-.967-.036-1.311,5.571-.631,7.018.311.662.659.6.659.6.316.289.528.483.694.461.34-.045.658-.4.565-4.325" transform="translate(-120.534 -738.075)" fill="#d3bba3"/>
          <path id="Trazado_897383" data-name="Trazado 897383" d="M1500.019,1131.648h0a17.714,17.714,0,0,1,25.052,0l.138.138.1-.1a17.761,17.761,0,1,1,25.118,25.117l-25.163,25.162-25.25-25.261a17.713,17.713,0,0,1,0-25.051" transform="translate(-1194.262 -899.961)" fill="#be6763"/>
          <path id="Trazado_897384" data-name="Trazado 897384" d="M1592.6,1181.3c2.6-2.9,13.695-19.2,16.754-16.32,1.443,1.359-6.393,11.506-7.459,13.221,1.744-1.567,10.427-12.2,12.161-10.3,1.784,1.949-8.416,13.1-8.447,13.2.935-.822,9.149-9.914,11.191-7.985,1.967,1.857-6.646,8.964-7.35,10.1,1.329-.89,6.773-6.22,8.054-5.007,1.716,1.625-4.249,6.892-4.758,7.985-2.126,2.729-2.366,2.978-5.508,8.714-5.62,10.261-24.9-2.186-14.639-13.612" transform="translate(-1270.013 -930.461)" fill="#fff"/>
          <path id="Trazado_897385" data-name="Trazado 897385" d="M1602.5,1188.723c-.365-6.167-1.054-8.83-1.719-8.95-2.19-.394-4.781,12.256-3.7,15.768.494,1.608,1.307,1.57,1.307,1.57.626.76,1.047,1.27,1.43,1.273.787.007,1.627-.7,2.682-9.661" transform="translate(-1275.749 -942.547)" fill="#fff"/>
          <path id="Trazado_897386" data-name="Trazado 897386" d="M1611.817,1257.516c.941-1.4,4.706-9.067,6.193-8.017.7.495-2.042,5.323-2.395,6.123.652-.778,3.73-5.865,4.589-5.159.884.727-2.812,6.131-2.82,6.176.352-.409,3.321-4.808,4.314-4.105.956.677-2.305,4.249-2.538,4.781.516-.463,2.526-3.079,3.15-2.637.835.592-1.4,3.214-1.555,3.714a19.549,19.549,0,0,0-1.832,4.072c-1.786,4.742-10.811.577-7.106-4.947" transform="translate(-1287.02 -998.181)" fill="#d3bba3"/>
          <path id="Trazado_897387" data-name="Trazado 897387" d="M1613.8,1263.733c-.532-2.622-.989-3.723-1.282-3.734-.963-.036-1.305,5.547-.628,6.987.31.659.656.594.656.594.315.288.526.481.691.459.338-.045.655-.4.563-4.306" transform="translate(-1287.501 -1006.649)" fill="#d3bba3"/>
        </g>
      </g>
    </g>
  </g>
</svg>
