<svg xmlns="http://www.w3.org/2000/svg" xmlns:xlink="http://www.w3.org/1999/xlink" width="124.011" height="125.273" viewBox="0 0 124.011 125.273">
  <defs>
    <filter id="Elipse_11501" x="0" y="0" width="124.011" height="125.273" filterUnits="userSpaceOnUse">
      <feOffset dy="3" input="SourceAlpha"/>
      <feGaussianBlur stdDeviation="3" result="blur"/>
      <feFlood flood-opacity="0.161"/>
      <feComposite operator="in" in2="blur"/>
      <feComposite in="SourceGraphic"/>
    </filter>
    <filter id="Elipse_11501-2" x="0" y="0" width="124.011" height="125.273" filterUnits="userSpaceOnUse">
      <feOffset dy="6" input="SourceAlpha"/>
      <feGaussianBlur stdDeviation="3" result="blur-2"/>
      <feFlood flood-opacity="0.161" result="color"/>
      <feComposite operator="out" in="SourceGraphic" in2="blur-2"/>
      <feComposite operator="in" in="color"/>
      <feComposite operator="in" in2="SourceGraphic"/>
    </filter>
  </defs>
  <g id="Grupo_1100834" data-name="Grupo 1100834" transform="translate(-696.445 -2703.142)">
    <g id="Grupo_1099817" data-name="Grupo 1099817" transform="translate(-215.888 2312.143)">
      <g id="Grupo_1099492" data-name="Grupo 1099492" transform="translate(921.333 397)">
        <g data-type="innerShadowGroup">
          <g transform="matrix(1, 0, 0, 1, -9, -6)" filter="url(#Elipse_11501)">
            <ellipse id="Elipse_11501-3" data-name="Elipse 11501" cx="53.005" cy="53.636" rx="53.005" ry="53.636" transform="translate(9 6)" fill="#2e3649"/>
          </g>
          <g transform="matrix(1, 0, 0, 1, -9, -6)" filter="url(#Elipse_11501-2)">
            <ellipse id="Elipse_11501-4" data-name="Elipse 11501" cx="53.005" cy="53.636" rx="53.005" ry="53.636" transform="translate(9 6)" fill="#fff"/>
          </g>
        </g>
        <g id="dignidad" transform="translate(18.905 9.492)">
          <path id="Trazado_898558" data-name="Trazado 898558" d="M201.034,195.315V188.51a6.328,6.328,0,0,0-4.593-6.077,7.218,7.218,0,1,0-10.777,0,6.329,6.329,0,0,0-4.593,6.077v6.806a2.6,2.6,0,0,0,2.6,2.6h14.759A2.6,2.6,0,0,0,201.034,195.315Zm-9.981-22.231a4.554,4.554,0,1,1-4.554,4.554A4.559,4.559,0,0,1,191.053,173.084Zm7.317,22.169H183.736V188.51a3.659,3.659,0,0,1,3.655-3.655h7.325a3.659,3.659,0,0,1,3.655,3.655v6.743Z" transform="translate(-156.953 -137.675)" fill="#fff"/>
          <path id="Trazado_898559" data-name="Trazado 898559" d="M68.066,43.745a2.7,2.7,0,0,0-2.195-1.851l-1.939-.282A30.249,30.249,0,0,0,42.238,17.366,2.7,2.7,0,0,0,40.11,15.7l-2.468-.359-1.1-2.236a2.719,2.719,0,0,0-4.876,0l-1.1,2.236-2.468.359a2.7,2.7,0,0,0-2.129,1.668A30.249,30.249,0,0,0,4.269,41.612l-1.939.282A2.719,2.719,0,0,0,.823,46.532l1.786,1.74L2.187,50.73A2.722,2.722,0,0,0,4.8,53.909a30.233,30.233,0,0,0,58.606,0,2.721,2.721,0,0,0,2.611-3.179l-.421-2.458,1.786-1.74a2.7,2.7,0,0,0,.688-2.787ZM41.617,20.335a2.767,2.767,0,0,0,.267-.3A27.632,27.632,0,0,1,60.273,37.815a2.775,2.775,0,0,0-.411-.031A2.7,2.7,0,0,0,57.7,38.853,24.9,24.9,0,0,0,39.88,22.363l-.049-.287ZM28.43,18.371c.011-.033.023-.034.044-.037l3.161-.459a1.332,1.332,0,0,0,1-.729l1.413-2.864c.01-.02.015-.031.049-.031s.04.011.049.031l1.413,2.864a1.332,1.332,0,0,0,1,.729l3.161.459c.022,0,.034,0,.044.037a.043.043,0,0,1-.014.056L37.47,20.657a1.332,1.332,0,0,0-.383,1.179l.54,3.148a.055.055,0,0,1-.08.058L34.72,23.555a1.332,1.332,0,0,0-1.24,0l-2.827,1.486a.055.055,0,0,1-.08-.058l.54-3.148a1.332,1.332,0,0,0-.383-1.179l-2.287-2.229a.043.043,0,0,1-.014-.056ZM13.543,28.124a27.449,27.449,0,0,1,12.775-8.089,2.765,2.765,0,0,0,.267.3l1.786,1.74-.049.287A24.9,24.9,0,0,0,10.5,38.853a2.7,2.7,0,0,0-2.161-1.069,2.758,2.758,0,0,0-.411.031,27.44,27.44,0,0,1,5.615-9.692Zm-10.86,16.5a.043.043,0,0,1-.014-.056c.011-.033.023-.034.044-.037l3.161-.459a1.332,1.332,0,0,0,1-.729L8.29,40.479c.01-.02.015-.031.049-.031s.04.011.049.031L9.8,43.343a1.332,1.332,0,0,0,1,.729l3.161.459c.022,0,.034,0,.044.037a.043.043,0,0,1-.014.056l-2.287,2.229a1.332,1.332,0,0,0-.383,1.179l.524,3.056A1.325,1.325,0,0,0,11.331,51L8.959,49.752a1.332,1.332,0,0,0-1.24,0L4.892,51.238a.055.055,0,0,1-.08-.058l.54-3.148a1.332,1.332,0,0,0-.383-1.179ZM51.608,67.763a27.567,27.567,0,0,1-44.3-14.787l1.027-.54L10.3,53.468A24.826,24.826,0,0,0,27.82,70.476,1.332,1.332,0,0,0,28.5,67.9,22.16,22.16,0,0,1,13.128,53.566a2.787,2.787,0,0,0,.281-.177,2.7,2.7,0,0,0,1.082-2.659l-.422-2.458,1.786-1.74a2.719,2.719,0,0,0-1.507-4.638L12.5,41.626a22.21,22.21,0,0,1,15.418-16.4A2.719,2.719,0,0,0,31.893,27.4l2.207-1.16,2.207,1.16a2.719,2.719,0,0,0,3.974-2.172A22.211,22.211,0,0,1,55.7,41.626l-1.847.268a2.719,2.719,0,0,0-1.507,4.638l1.786,1.74L53.71,50.73a2.7,2.7,0,0,0,1.082,2.659,2.759,2.759,0,0,0,.281.178A22.159,22.159,0,0,1,39.707,67.9a1.332,1.332,0,1,0,.675,2.577A24.824,24.824,0,0,0,57.9,53.468l1.963-1.032,1.027.54a27.661,27.661,0,0,1-9.28,14.788Zm13.91-23.139-2.287,2.229a1.332,1.332,0,0,0-.383,1.179l.54,3.148a.055.055,0,0,1-.08.058l-2.827-1.486a1.332,1.332,0,0,0-1.24,0L56.89,50.989a1.325,1.325,0,0,0-.537.09l.522-3.046a1.332,1.332,0,0,0-.383-1.179l-2.287-2.229a.043.043,0,0,1-.014-.056c.011-.033.023-.034.044-.037l3.161-.459a1.332,1.332,0,0,0,1-.729l1.413-2.864c.01-.02.015-.031.049-.031s.04.011.049.031l1.413,2.864a1.332,1.332,0,0,0,1,.729l3.161.459c.022,0,.034,0,.044.037a.043.043,0,0,1-.014.056Z" transform="translate(0)" fill="#fff"/>
          <circle id="Elipse_11548" data-name="Elipse 11548" cx="1.332" cy="1.332" r="1.332" transform="translate(32.768 68.603)" fill="#fff"/>
        </g>
      </g>
    </g>
  </g>
</svg>
