<svg xmlns="http://www.w3.org/2000/svg" width="72" height="72" viewBox="0 0 72 72">
  <g id="Grupo_1103322" data-name="Grupo 1103322" transform="translate(-300 -3775.709)">
    <g id="Grupo_1101384" data-name="Grupo 1101384" transform="translate(85 1083.59)">
      <path id="Trazado_874626" data-name="Trazado 874626" d="M36,0A36,36,0,1,1,0,36,36,36,0,0,1,36,0Z" transform="translate(215 2692.119)" fill="#e7c96e"/>
      <g id="Grupo_1103092" data-name="Grupo 1103092" transform="translate(218.846 2695.9)">
        <ellipse id="Elipse_4949" data-name="Elipse 4949" cx="21.335" cy="20.933" rx="21.335" ry="20.933" transform="translate(11.271 12.077)" fill="#12263f"/>
        <path id="boton-de-play" d="M47.864,39.9a1.638,1.638,0,1,1-3.275,0V24.51a1.638,1.638,0,1,1,3.275,0ZM46.226,20.86a3.655,3.655,0,0,0-3.651,3.651V39.9a3.651,3.651,0,1,0,7.3,0V24.51A3.655,3.655,0,0,0,46.226,20.86ZM39.067,32.281,19.782,43.415a.089.089,0,0,1-.133-.077V21.07a.07.07,0,0,1,.044-.077.085.085,0,0,1,.043-.016.088.088,0,0,1,.046.016L39.067,32.127a.089.089,0,0,1,0,.153Zm1.006-1.9L20.789,19.25a2.1,2.1,0,0,0-3.153,1.82V43.338a2.1,2.1,0,0,0,3.153,1.82L40.074,34.024a2.1,2.1,0,0,0,0-3.64ZM32.215,0a32.2,32.2,0,1,0,32.2,32.2A32.24,32.24,0,0,0,32.215,0Z" transform="translate(-0.011)" fill="#e7c96e" fill-rule="evenodd"/>
      </g>
    </g>
  </g>
</svg>
