<svg xmlns="http://www.w3.org/2000/svg" xmlns:xlink="http://www.w3.org/1999/xlink" width="295.051" height="291.716" viewBox="0 0 295.051 291.716">
  <defs>
    <clipPath id="clip-path">
      <rect id="Rectángulo_403019" data-name="Rectángulo 403019" width="295" height="291.716" fill="none"/>
    </clipPath>
  </defs>
  <g id="Grupo_1100834" data-name="Grupo 1100834" transform="translate(-705 -2217.441)">
    <g id="Grupo_1100273" data-name="Grupo 1100273" transform="translate(0.32 -870.441)">
      <circle id="Elipse_11542" data-name="Elipse 11542" cx="120" cy="120" r="120" transform="translate(704.73 3111)" fill="#e7d8bb"/>
      <path id="Sustracción_7" data-name="Sustracción 7" d="M18234.73,11809h-130v-120h130a60,60,0,1,1,0,120Z" transform="translate(-17295 -8521)" fill="#a1cad2"/>
      <g id="Grupo_1100270" data-name="Grupo 1100270" transform="translate(810 3180.771) rotate(-90)">
        <rect id="Rectángulo_401993" data-name="Rectángulo 401993" width="6.248" height="6.248" transform="translate(0 47.822)" fill="#c59d55"/>
        <rect id="Rectángulo_401994" data-name="Rectángulo 401994" width="6.248" height="6.248" transform="translate(0 23.911)" fill="#c59d55"/>
        <rect id="Rectángulo_401995" data-name="Rectángulo 401995" width="6.248" height="6.248" fill="#c59d55"/>
        <rect id="Rectángulo_401996" data-name="Rectángulo 401996" width="6.247" height="6.248" transform="translate(19.299 47.822)" fill="#c59d55"/>
        <rect id="Rectángulo_401997" data-name="Rectángulo 401997" width="6.248" height="6.248" transform="translate(19.299 23.911)" fill="#c59d55"/>
        <rect id="Rectángulo_401998" data-name="Rectángulo 401998" width="6.248" height="6.248" transform="translate(19.299)" fill="#c59d55"/>
      </g>
      <g id="Grupo_1100272" data-name="Grupo 1100272" transform="translate(930.932 3240.771) rotate(-90)">
        <rect id="Rectángulo_401993-2" data-name="Rectángulo 401993" width="6.248" height="6.248" transform="translate(0 47.822)" fill="#c59d55"/>
        <rect id="Rectángulo_401994-2" data-name="Rectángulo 401994" width="6.248" height="6.248" transform="translate(0 23.911)" fill="#c59d55"/>
        <rect id="Rectángulo_401995-2" data-name="Rectángulo 401995" width="6.248" height="6.248" fill="#c59d55"/>
        <rect id="Rectángulo_401996-2" data-name="Rectángulo 401996" width="6.247" height="6.248" transform="translate(19.299 47.822)" fill="#c59d55"/>
        <rect id="Rectángulo_401997-2" data-name="Rectángulo 401997" width="6.248" height="6.248" transform="translate(19.299 23.911)" fill="#c59d55"/>
        <rect id="Rectángulo_401998-2" data-name="Rectángulo 401998" width="6.248" height="6.248" transform="translate(19.299)" fill="#c59d55"/>
      </g>
      <g id="Grupo_1100271" data-name="Grupo 1100271" transform="translate(810 3297.481) rotate(-90)">
        <rect id="Rectángulo_401993-3" data-name="Rectángulo 401993" width="6.248" height="6.248" transform="translate(0 47.822)" fill="#c59d55"/>
        <rect id="Rectángulo_401994-3" data-name="Rectángulo 401994" width="6.248" height="6.248" transform="translate(0 23.911)" fill="#c59d55"/>
        <rect id="Rectángulo_401995-3" data-name="Rectángulo 401995" width="6.248" height="6.248" fill="#c59d55"/>
        <rect id="Rectángulo_401996-3" data-name="Rectángulo 401996" width="6.247" height="6.248" transform="translate(19.299 47.822)" fill="#c59d55"/>
        <rect id="Rectángulo_401997-3" data-name="Rectángulo 401997" width="6.248" height="6.248" transform="translate(19.299 23.911)" fill="#c59d55"/>
        <rect id="Rectángulo_401998-3" data-name="Rectángulo 401998" width="6.248" height="6.248" transform="translate(19.299)" fill="#c59d55"/>
      </g>
    </g>
    <g id="Grupo_1100508" data-name="Grupo 1100508" transform="translate(705 2217.441)">
      <g id="Grupo_1100507" data-name="Grupo 1100507" clip-path="url(#clip-path)">
        <path id="Trazado_898281" data-name="Trazado 898281" d="M80.125,259.6c-5.367,20.268,69.729,24.519,107.689,24.873l5.937-25.232Z" transform="translate(-14.046 -45.601)" fill="#4e1d16"/>
        <path id="Trazado_898282" data-name="Trazado 898282" d="M137.268,104.179a41.654,41.654,0,0,1,28.123,1.791v9.251H137.268Z" transform="translate(-24.145 -18.039)" fill="#4e1d16"/>
        <path id="Trazado_898283" data-name="Trazado 898283" d="M215.5,222.218c3.33,9.392,45.856-19.905,45.856-19.905l-7.5-16.472S209,203.866,215.5,222.218" transform="translate(-37.793 -32.689)" fill="#4e1d16"/>
        <path id="Trazado_898284" data-name="Trazado 898284" d="M207.321,207.791s50.37,49.168,64.577,12.466L260.7,174.7Z" transform="translate(-36.467 -30.729)" fill="#e4976d"/>
        <path id="Trazado_898285" data-name="Trazado 898285" d="M211.34,128.095c9.5,2.321,49.59,40.354,49.59,40.354s-44.338,16.408-51.581,43.562l-29.48-33.055s12.239-55.559,31.47-50.861" transform="translate(-31.639 -22.482)" fill="#fefefe"/>
        <path id="Trazado_898286" data-name="Trazado 898286" d="M207.523,154.171s17.135,38-2.763,57.33l-24.891-27.909Z" transform="translate(-31.638 -27.118)" fill="#4e1d16"/>
        <path id="Trazado_898287" data-name="Trazado 898287" d="M24.408,186.249C17.8,194.084,73.82,232.355,73.82,232.355l10.06-18.088S35.169,173.5,24.408,186.249" transform="translate(-4.198 -32.326)" fill="#4e1d16"/>
        <path id="Trazado_898288" data-name="Trazado 898288" d="M52.15,230.305s-12.76,58.606-14.246,66.03a74.594,74.594,0,0,1,5.256,5.677c1.191,1.674-1.907,8.327-2.579,9.285s-6.725,1.5-6.725,1.5a10.4,10.4,0,0,1-4.137,3.554c-1.844.708-4.746-1.361-4.746-1.361a49.9,49.9,0,0,1-6.035,2.686c-2.848.546-4.155-2.659-4.155-2.659s-4.128,1.343-5.033,1.137C6.9,315.506.86,308.154.287,304.528c-1.4-8.767,2.606-52.231,5.748-74.653A107.8,107.8,0,0,1,8.22,217.626c.824-2.767,3.77-7.9,7.7-14.013,11.416-17.783,31.152-43.85,31.152-43.85L85.729,191Z" transform="translate(0 -28.102)" fill="#e4976d"/>
        <path id="Trazado_898289" data-name="Trazado 898289" d="M41.083,343.534a39.042,39.042,0,0,0,2.556-9.036" transform="translate(-7.226 -58.837)" fill="none" stroke="#4e1d16" stroke-linecap="round" stroke-linejoin="round" stroke-width="1"/>
        <path id="Trazado_898290" data-name="Trazado 898290" d="M22.993,230.308c-2.9,7.28-9.429,11.524-14.578,9.474a6.936,6.936,0,0,1-1.093-.546,107.8,107.8,0,0,1,2.185-12.249c.824-2.767,3.77-7.9,7.7-14.014a6.765,6.765,0,0,1,1.71.439c5.149,2.05,6.975,9.616,4.074,16.9" transform="translate(-1.288 -37.461)" fill="#d47c56"/>
        <line id="Línea_625" data-name="Línea 625" x1="9.447" y1="8.788" transform="translate(42.699 193.416)" fill="none" stroke="#2c150b" stroke-linecap="round" stroke-linejoin="round" stroke-width="1"/>
        <path id="Trazado_898291" data-name="Trazado 898291" d="M184.018,124.629l-42.231-13.873-21-2.649s-39.473,10.022-48.6,13.532c-2.856,1.11-8.587,6.537-15.115,13.477-5.222,5.551-10.952,12.079-16.127,18.123-9.063,10.567-16.423,19.7-16.423,19.7s18.151,3.707,32.969,16.207C67.71,197.76,84,200.956,84,200.956l.037,20.264h93.429l-3.295-41.307Z" transform="translate(-4.314 -19.016)" fill="#fefefe"/>
        <path id="Trazado_898292" data-name="Trazado 898292" d="M87.023,127.631s19.324,12.194,15.566,36.574" transform="translate(-15.307 -22.45)" fill="none" stroke="#4e1d16" stroke-linecap="round" stroke-linejoin="round" stroke-width="1"/>
        <path id="Trazado_898293" data-name="Trazado 898293" d="M109.972,235.6H96.728l-.036-20.264,8.086-25.466s.77,31.581,5.193,45.729" transform="translate(-17.008 -33.398)" fill="#4e1d16"/>
        <path id="Trazado_898294" data-name="Trazado 898294" d="M287.1,104.484c-1.71,4.253-5.606,10.575-8.605,10.02a2.648,2.648,0,0,1-1.675-1.236s10.347,86.133-2.2,94.586c-12.536,8.436-34.228-28.78-34.228-28.78s3.085-31.669,8.519-73.666c1.417-9.148,7.411-23.686,10.286-26.6a3.478,3.478,0,0,1,1.37-.968c2.668-.77,15.061,1.89,16.772,3.6,1.728,1.719,4.4,6.662,4.4,6.662s4.02,6.286,1.539,9.537c0,0,4.773,4.477,3.824,6.85" transform="translate(-42.285 -13.667)" fill="#e4976d"/>
        <line id="Línea_626" data-name="Línea 626" x1="2.901" y2="14.854" transform="translate(195.73 162.74)" fill="none" stroke="#2c150b" stroke-linecap="round" stroke-linejoin="round" stroke-width="1"/>
        <path id="Trazado_898295" data-name="Trazado 898295" d="M272.889,237.147c-5.673,3.276-12.042,2.866-14.225-.915s.647-9.5,6.32-12.776,12.043-2.866,14.226.914-.647,9.5-6.321,12.777" transform="translate(-45.369 -38.916)" fill="#d47c56"/>
        <path id="Trazado_898296" data-name="Trazado 898296" d="M255.908,80.27s.522,24,19.21,34.654c1.43.816,4.021.692,6.531-.269,4.345-1.665,6.527-4.992,4.3-6.59-10.573-7.592-10.079-35.444-10.079-35.444Z" transform="translate(-45.013 -12.774)" fill="#147a8f"/>
        <path id="Trazado_898297" data-name="Trazado 898297" d="M291.115,104.484c-1.71,4.253-5.606,10.575-8.605,10.02l-1.675-1.236c-3.2-2.8-.4-7.862-.4-7.862l-.08-.206c-2.1,1.6-4.111,2.4-5.337,1.308-2.722-2.427.026-6.483.026-6.483a2.127,2.127,0,0,1-2.472-.232c-2.408-2.337-.17-7.567,1.612-10.817a9.579,9.579,0,0,1-3.456-1.388s-1.37-3.9-2.919-4.934a6.058,6.058,0,0,0-3.071-.43s-.635-1.415-1.522-3.42a3.478,3.478,0,0,1,1.37-.968c2.668-.77,15.061,1.89,16.772,3.6,1.728,1.719,4.4,6.662,4.4,6.662s4.02,6.286,1.539,9.537c0,0,4.773,4.477,3.824,6.85" transform="translate(-46.298 -13.667)" fill="#e4976d"/>
        <path id="Trazado_898298" data-name="Trazado 898298" d="M226.61,55.152h0c1.975,10.686,12.469,17.906,24.045,16.582,44.926-5.137,57.091,5.731,57.091,5.731l-6.669-36.078L294.406,5.308s-7.475,14.5-51.268,25.761c-11.285,2.9-18.5,13.4-16.528,24.083" transform="translate(-39.803 -0.934)" fill="#e8f2f4"/>
        <path id="Trazado_898299" data-name="Trazado 898299" d="M238.775,58.4c-2.462-13.322,4.362-21.833,4.362-21.833-11.284,2.9-18.5,13.4-16.527,24.082s12.468,17.906,24.045,16.582c0,0-9.417-5.508-11.879-18.831" transform="translate(-39.803 -6.432)" fill="#147a8f"/>
        <path id="Trazado_898300" data-name="Trazado 898300" d="M346.193,34.41c3.941,21.321-3.652,40.6-16.961,43.06S301.94,64.641,298,43.32,301.65,2.72,314.959.26s27.293,12.83,31.234,34.151" transform="translate(-52.234 0)" fill="#4e1d16"/>
        <path id="Trazado_898301" data-name="Trazado 898301" d="M320.436,36.26,296.962,38.3A62.222,62.222,0,0,0,301.1,60.711l22.652-6.485Z" transform="translate(-52.235 -6.378)" fill="#a1cad2"/>
        <path id="Trazado_898302" data-name="Trazado 898302" d="M327.773,78c10.659-5.328,16.289-22.671,12.782-41.643S325.589,3.2,313.73,2.035" transform="translate(-55.184 -0.358)" fill="none" stroke="#fefefe" stroke-linecap="round" stroke-linejoin="round" stroke-width="1"/>
        <path id="Trazado_898303" data-name="Trazado 898303" d="M331.82,44.193c.917,4.961-.85,9.448-3.947,10.02s-6.351-2.985-7.268-7.947.85-9.448,3.947-10.02,6.351,2.987,7.268,7.947" transform="translate(-56.351 -6.365)" fill="#4e1d16"/>
        <path id="Trazado_898304" data-name="Trazado 898304" d="M325.212,37.01c2.49,0,5.037,3.221,5.8,7.333a11.517,11.517,0,0,1-.424,6.2,4.138,4.138,0,0,1-2.861,2.856,2.793,2.793,0,0,1-.511.047c-2.49,0-5.037-3.221-5.8-7.333-.818-4.43.686-8.579,3.287-9.059a2.786,2.786,0,0,1,.511-.047m0-.824a3.658,3.658,0,0,0-.661.06c-3.1.573-4.864,5.059-3.947,10.02.852,4.609,3.721,8.007,6.608,8.007a3.643,3.643,0,0,0,.66-.06c3.1-.573,4.864-5.059,3.947-10.02-.852-4.609-3.722-8.007-6.608-8.007" transform="translate(-56.351 -6.365)" fill="#fefefe"/>
        <path id="Trazado_898305" data-name="Trazado 898305" d="M250.072,106.405s-3.687-14.1-3.011-19.215c.443-3.351,16.665-4.383,17.89-3.541s5.152,8,2.343,12.905-5.367-.621-6.065-5.2c0,0,.768,16-11.158,15.046" transform="translate(-43.443 -14.665)" fill="#e4976d"/>
        <path id="Trazado_898306" data-name="Trazado 898306" d="M277.629,88.007s-6.916,10.085-3.284,13.6c3.571,3.458,13.184-11.694,13.184-11.694" transform="translate(-48.071 -15.48)" fill="none" stroke="#4e1d16" stroke-linecap="round" stroke-linejoin="round" stroke-width="1"/>
        <path id="Trazado_898307" data-name="Trazado 898307" d="M277.3,104.281s-2.748,4.056-.028,6.483,9.286-4.445,12.282-8.881" transform="translate(-48.56 -17.921)" fill="none" stroke="#4e1d16" stroke-linecap="round" stroke-linejoin="round" stroke-width="1"/>
        <path id="Trazado_898308" data-name="Trazado 898308" d="M283.87,111.322s-2.8,5.053.4,7.861" transform="translate(-49.733 -19.581)" fill="none" stroke="#4e1d16" stroke-linecap="round" stroke-linejoin="round" stroke-width="1"/>
        <path id="Trazado_898309" data-name="Trazado 898309" d="M275.781,91.087a9.413,9.413,0,0,1-3.452-1.389" transform="translate(-47.902 -15.778)" fill="none" stroke="#4e1d16" stroke-linecap="round" stroke-linejoin="round" stroke-width="1"/>
        <path id="Trazado_898310" data-name="Trazado 898310" d="M259.345,83.836s5.659-1.306,7.781-.219,5.948,10.614,2,14.383-6.23-4.25-5.718-6.673" transform="translate(-45.618 -14.632)" fill="none" stroke="#4e1d16" stroke-linecap="round" stroke-linejoin="round" stroke-width="1"/>
        <path id="Trazado_898311" data-name="Trazado 898311" d="M260.3,105.025a19.241,19.241,0,0,0,3.269-11.96" transform="translate(-45.787 -16.37)" fill="none" stroke="#4e1d16" stroke-linecap="round" stroke-linejoin="round" stroke-width="1"/>
        <path id="Trazado_898312" data-name="Trazado 898312" d="M138.407,92.642,127.246,64.433s-6-2.328-4.989-11.363C123.4,42.847,135.015,44.4,135.015,44.4s1.465-3.546,11.844-6.35c5.3-1.43,12.629,2.216,15.17,1.584s7.776-4.318,12.7-1.815,7.462,12.882.589,15.824c0,0,9,7.185.71,11.837,0,0-4.571-6.054-8.257-1.082Z" transform="translate(-21.485 -6.502)" fill="#4e1d16"/>
        <path id="Trazado_898313" data-name="Trazado 898313" d="M163.046,43.007a8.249,8.249,0,0,1,10.45-1.464" transform="translate(-28.679 -7.085)" fill="none" stroke="#fefefe" stroke-linecap="round" stroke-linejoin="round" stroke-width="1"/>
        <path id="Trazado_898314" data-name="Trazado 898314" d="M144,86.966l-2.668,17.422s0,11.633,12.172,11.633c3.783,0,8.638-2.952,8.731-6.319l.691-18.647Z" transform="translate(-24.86 -15.297)" fill="#e4976d"/>
        <path id="Trazado_898315" data-name="Trazado 898315" d="M150.628,95.54s-1.721,13.99,13.33,11.769l.592-15.983L151.5,88.507Z" transform="translate(-26.485 -15.568)" fill="#4e1d16"/>
        <path id="Trazado_898316" data-name="Trazado 898316" d="M173.3,65.218a43.678,43.678,0,0,0,1.066,11.294s6.129,13.721-7.114,17.8c-16.847,5.193-26.072-12.844-26.072-12.844s11.168-6.319,3.574-16.6a121.3,121.3,0,0,1,15.827-3.34s1.453,1.826-.84,3.792c0,0,9.362,2.471,11.1-4.173,0,0,3.109-.116,2.459,4.071" transform="translate(-24.834 -10.756)" fill="#e4976d"/>
        <path id="Trazado_898317" data-name="Trazado 898317" d="M143.991,85.876c-.64,2.729-3.878,4.3-7.235,3.518s-5.559-3.636-4.92-6.365,3.878-4.3,7.235-3.519,5.559,3.636,4.92,6.365" transform="translate(-23.17 -13.95)" fill="#e4976d"/>
        <path id="Trazado_898318" data-name="Trazado 898318" d="M135.872,83.069s4.9-.63,5.541,4.091" transform="translate(-23.899 -14.607)" fill="none" stroke="#4e1d16" stroke-linecap="round" stroke-linejoin="round" stroke-width="1"/>
        <path id="Trazado_898319" data-name="Trazado 898319" d="M159.148,83.665c.054,1.441-1.638,2.673-3.779,2.753s-3.919-1.024-3.972-2.464,1.638-2.673,3.779-2.753,3.919,1.024,3.972,2.464" transform="translate(-26.63 -14.282)" fill="#d47c56"/>
        <path id="Trazado_898320" data-name="Trazado 898320" d="M181.426,82.854a5.519,5.519,0,0,1-1.6.555c-2.1.4-4.022-.434-4.285-1.85s1.223-2.89,3.333-3.281a5.6,5.6,0,0,1,1.253-.087c.084.431.175.876.28,1.32a17.979,17.979,0,0,1,1.02,3.343" transform="translate(-30.871 -13.753)" fill="#d47c56"/>
        <path id="Trazado_898321" data-name="Trazado 898321" d="M168.383,74.748s1.991,5.96,5.858,6.118c0,0,1.227,2.956-3.476,3.132" transform="translate(-29.618 -13.148)" fill="none" stroke="#4e1d16" stroke-linecap="round" stroke-linejoin="round" stroke-width="1"/>
        <path id="Trazado_898322" data-name="Trazado 898322" d="M153.815,76.194l.007.006s0,0,.006.007a5.479,5.479,0,0,0,7.107.948,10.214,10.214,0,0,0,2.293-2.038,9.566,9.566,0,0,0-2.331-.88,7.018,7.018,0,0,0-7.072,1.95s0,.007-.01.008" transform="translate(-27.056 -13.014)" fill="#fefefe"/>
        <path id="Trazado_898323" data-name="Trazado 898323" d="M153.822,76.2s0,0,.006.006a5.48,5.48,0,0,0,7.108.949,5.916,5.916,0,0,0-.038-2.918,7.016,7.016,0,0,0-7.072,1.95.027.027,0,0,0,0,.014" transform="translate(-27.057 -13.014)" fill="#4e1d16"/>
        <path id="Trazado_898324" data-name="Trazado 898324" d="M170.838,73.989l0,.007s0,0,0,.007c.144.219,2.42,3.587,5.475,1.31A8.206,8.206,0,0,0,178.1,73.4a7.029,7.029,0,0,0-1.792-1,4.434,4.434,0,0,0-5.466,1.582s0,.007-.007.007" transform="translate(-30.05 -12.671)" fill="#fefefe"/>
        <path id="Trazado_898325" data-name="Trazado 898325" d="M170.844,74s0,0,0,.007c.143.219,2.42,3.587,5.475,1.31a7.253,7.253,0,0,0,.11-2.045,7.689,7.689,0,0,0-.121-.868,4.433,4.433,0,0,0-5.465,1.582.027.027,0,0,0,0,.014" transform="translate(-30.051 -12.671)" fill="#4e1d16"/>
        <path id="Trazado_898326" data-name="Trazado 898326" d="M147.47,94.205s7.458,8.548,18.785,6.461" transform="translate(-25.94 -16.57)" fill="none" stroke="#4e1d16" stroke-linecap="round" stroke-linejoin="round" stroke-width="1"/>
        <path id="Trazado_898327" data-name="Trazado 898327" d="M155.592,70.423a3.908,3.908,0,0,1,4.916-.754" transform="translate(-27.368 -12.156)" fill="none" stroke="#4e1d16" stroke-linecap="round" stroke-linejoin="round" stroke-width="1"/>
        <path id="Trazado_898328" data-name="Trazado 898328" d="M172.057,68.705a3.908,3.908,0,0,1,4.916-.754" transform="translate(-30.264 -11.854)" fill="none" stroke="#4e1d16" stroke-linecap="round" stroke-linejoin="round" stroke-width="1"/>
        <path id="Trazado_898329" data-name="Trazado 898329" d="M162.043,90.705s2.519,2.378,5.264,1.226" transform="translate(-28.503 -15.955)" fill="none" stroke="#4e1d16" stroke-linecap="round" stroke-linejoin="round" stroke-width="1"/>
        <path id="Trazado_898330" data-name="Trazado 898330" d="M193.81,233.259l-113.622.359,3.465-14.793,4.4-18.751a31.461,31.461,0,0,0,23.4-17.846c5.83-12.213,7.2-32.683-5.919-66.952l14.336-3.779L148.15,158.56l13.137-44.035,15.571,4.423s2.731,22.476,7.1,61.561l.134,1.719L185.831,204s1.988,6.08,4.369,14.829c1.173,4.307,2.436,9.25,3.609,14.434" transform="translate(-14.105 -19.612)" fill="#be6763"/>
        <path id="Trazado_898331" data-name="Trazado 898331" d="M190.94,233.922H84.393l4.4-18.751a31.461,31.461,0,0,0,23.4-17.846h72.647l1.737,21.769s1.988,6.079,4.369,14.828" transform="translate(-14.844 -34.709)" fill="#ddc499"/>
        <line id="Línea_627" data-name="Línea 627" x2="2.127" y2="75.057" transform="translate(134.045 138.948)" fill="none" stroke="#4e1d16" stroke-linecap="round" stroke-linejoin="round" stroke-width="1"/>
        <line id="Línea_628" data-name="Línea 628" x1="7.862" y2="33.543" transform="translate(66.083 180.462)" fill="none" stroke="#4e1d16" stroke-linecap="round" stroke-linejoin="round" stroke-width="1"/>
        <path id="Trazado_898332" data-name="Trazado 898332" d="M115.356,114.414l10.925,27.627,8.753-2.6-11.351-27.395Z" transform="translate(-20.291 -19.709)" fill="#ddc499"/>
        <path id="Trazado_898333" data-name="Trazado 898333" d="M182.026,116.333l-3.105,24.809,10.6,1.653,2.341-23.667Z" transform="translate(-31.472 -20.463)" fill="#ddc499"/>
        <path id="Trazado_898334" data-name="Trazado 898334" d="M151.265,119.109l-1.375-3.779-14.145-10.8-7.133,4.386L141.255,123.4l5.451-4.964a9.41,9.41,0,0,0,4.559.669" transform="translate(-22.622 -18.386)" fill="#fefefe"/>
        <path id="Trazado_898335" data-name="Trazado 898335" d="M150.568,120.746l3.184-3.109,1.375,3.779a8.829,8.829,0,0,1-4.559-.669" transform="translate(-26.484 -20.692)" fill="#4e1d16"/>
        <path id="Trazado_898336" data-name="Trazado 898336" d="M129.707,111.1l11.742,13.458,8.131-6.729" transform="translate(-22.815 -19.543)" fill="none" stroke="#4e1d16" stroke-linecap="round" stroke-linejoin="round" stroke-width="1"/>
        <path id="Trazado_898337" data-name="Trazado 898337" d="M156.068,119.488l1.19-3.188,11.439-9.6,6.985,4.185-10.947,12.226-4.72-4.187a8.338,8.338,0,0,1-3.947.565" transform="translate(-27.452 -18.768)" fill="#fefefe"/>
        <path id="Trazado_898338" data-name="Trazado 898338" d="M160.015,120.973l-2.757-2.624-1.19,3.188a7.833,7.833,0,0,0,3.947-.565" transform="translate(-27.452 -20.817)" fill="#4e1d16"/>
        <path id="Trazado_898339" data-name="Trazado 898339" d="M175.248,112.836l-10.167,11.354-7.041-5.677" transform="translate(-27.799 -19.848)" fill="none" stroke="#4e1d16" stroke-linecap="round" stroke-linejoin="round" stroke-width="1"/>
        <path id="Trazado_898340" data-name="Trazado 898340" d="M83.277,259.606s-23.367,44.046-31.464,77.3h134.2s4.88-53.542,2.78-77.659Z" transform="translate(-9.114 -45.601)" fill="#106273"/>
        <path id="Trazado_898341" data-name="Trazado 898341" d="M138.278,346.334l9.531-33.479s10.929,18.246.953,33.479Z" transform="translate(-24.323 -55.03)" fill="#0c4956"/>
        <line id="Línea_629" data-name="Línea 629" y1="8.893" x2="25.902" transform="translate(123.486 248.931)" fill="none" stroke="#4e1d16" stroke-linecap="round" stroke-linejoin="round" stroke-width="1"/>
        <path id="Trazado_898342" data-name="Trazado 898342" d="M94.311,271.379s-20.782,44.162-26.45,67.66" transform="translate(-11.937 -47.735)" fill="none" stroke="#fefefe" stroke-linecap="round" stroke-linejoin="round" stroke-width="1"/>
        <path id="Trazado_898343" data-name="Trazado 898343" d="M165,259.356s-32.756,12.863-85.146,17.054c0,0,5.91-12.637,8.357-16.784Z" transform="translate(-14.046 -45.62)" fill="#0c4956"/>
        <path id="Trazado_898344" data-name="Trazado 898344" d="M79.257,269.256c-7.044,14.171-21.441,44.756-27.444,69.409" transform="translate(-9.114 -47.361)" fill="none" stroke="#4e1d16" stroke-linecap="round" stroke-linejoin="round" stroke-width="1"/>
        <line id="Línea_630" data-name="Línea 630" x2="17.403" y2="5.791" transform="translate(52.146 278.906)" fill="none" stroke="#4e1d16" stroke-linecap="round" stroke-linejoin="round" stroke-width="1"/>
      </g>
    </g>
  </g>
</svg>
