<svg xmlns="http://www.w3.org/2000/svg" width="85" height="93" viewBox="0 0 85 93">
  <g id="Grupo_1100836" data-name="Grupo 1100836" transform="translate(-212.051 -3956.271)">
    <g id="Grupo_1100385" data-name="Grupo 1100385" transform="translate(-492.68 1094.271)">
      <rect id="Rectángulo_402215" data-name="Rectángulo 402215" width="85" height="93" rx="15" transform="translate(704.73 2862)" fill="#fbe6e5"/>
      <g id="asistencia-social" transform="translate(714.729 2875.834)">
        <g id="Grupo_1100768" data-name="Grupo 1100768" transform="translate(9.728 59.768)">
          <g id="Grupo_1100767" data-name="Grupo 1100767">
            <path id="Trazado_899300" data-name="Trazado 899300" d="M80.84,474.018l-1.911-2.692a1.269,1.269,0,1,0-2.07,1.47l1.911,2.692a1.27,1.27,0,0,0,2.07-1.47Z" transform="translate(-76.624 -470.791)" fill="#f5b3b1"/>
          </g>
        </g>
        <g id="Grupo_1100770" data-name="Grupo 1100770" transform="translate(0.001 19.862)">
          <g id="Grupo_1100769" data-name="Grupo 1100769" transform="translate(0)">
            <path id="Trazado_899301" data-name="Trazado 899301" d="M28.591,200.059l-2.08-9.913A18.7,18.7,0,0,0,18.6,178.408l-4.441-2.986A4.467,4.467,0,0,0,8.5,176V160.7a4.25,4.25,0,0,0-6.91-3.315A4.23,4.23,0,0,0,0,160.7v19.684a12.3,12.3,0,0,0,2.282,7.156l2.264,3.189a1.27,1.27,0,1,0,2.07-1.47l-2.264-3.189a9.772,9.772,0,0,1-1.813-5.687V160.7a1.711,1.711,0,1,1,3.422,0V176.32a8.87,8.87,0,0,0,2.288,5.956c.063.076.128.151.2.224.843.893,1.834,1.946,2.768,2.938l1.307,1.391.013.013,1.96,2.086a1.269,1.269,0,1,0,1.851-1.738c-.023-.025-1.509-1.607-3.206-3.411l-2.911-3.1-.021-.024a2.142,2.142,0,0,1,.041-2.808,1.919,1.919,0,0,1,2.5-.319l4.441,2.986a16.17,16.17,0,0,1,6.839,10.152l2.08,9.914a1.269,1.269,0,1,0,2.485-.521Z" transform="translate(-0.001 -156.451)" fill="#f5b3b1"/>
          </g>
        </g>
        <g id="Grupo_1100772" data-name="Grupo 1100772" transform="translate(7.096 56.059)">
          <g id="Grupo_1100771" data-name="Grupo 1100771">
            <path id="Trazado_899302" data-name="Trazado 899302" d="M58.2,442.119l-.008-.011a1.27,1.27,0,1,0-2.067,1.475l.008.011a1.27,1.27,0,1,0,2.067-1.475Z" transform="translate(-55.884 -441.575)" fill="#f5b3b1"/>
          </g>
        </g>
        <g id="Grupo_1100774" data-name="Grupo 1100774" transform="translate(36.383 19.862)">
          <g id="Grupo_1100773" data-name="Grupo 1100773">
            <path id="Trazado_899303" data-name="Trazado 899303" d="M313.608,157.39a4.25,4.25,0,0,0-6.91,3.315V176a4.467,4.467,0,0,0-5.663-.578l-4.441,2.986a18.7,18.7,0,0,0-7.907,11.737l-2.08,9.914a1.269,1.269,0,1,0,2.485.521l2.08-9.914a16.17,16.17,0,0,1,6.839-10.152l4.441-2.986a1.919,1.919,0,0,1,2.5.319,2.142,2.142,0,0,1,.044,2.8l-.024.027-6.117,6.509a1.269,1.269,0,1,0,1.851,1.738c.017-.018,5.2-5.534,6.048-6.427.069-.073.134-.148.2-.224a8.871,8.871,0,0,0,2.288-5.956V160.7a1.711,1.711,0,1,1,3.422,0v19.684a9.772,9.772,0,0,1-1.813,5.687l-9.591,13.511a1.27,1.27,0,1,0,2.07,1.47l9.591-13.511a12.3,12.3,0,0,0,2.282-7.156V160.7A4.231,4.231,0,0,0,313.608,157.39Z" transform="translate(-286.58 -156.454)" fill="#f5b3b1"/>
          </g>
        </g>
        <g id="Grupo_1100776" data-name="Grupo 1100776" transform="translate(11.857 6.855)">
          <g id="Grupo_1100775" data-name="Grupo 1100775">
            <path id="Trazado_899304" data-name="Trazado 899304" d="M130.113,71.476l-2.259-.54v-.4a5.678,5.678,0,0,0,2.431-4.655V62.94a5.677,5.677,0,0,0-9.368-4.318,7.413,7.413,0,0,0-13.738.01A5.677,5.677,0,0,0,97.8,62.94v2.936a5.678,5.678,0,0,0,2.431,4.655v.4l-2.259.54a5.947,5.947,0,0,0-4.58,5.8V79.65a1.27,1.27,0,0,0,1.27,1.27h5.834c-.009.154-.015.309-.015.465V85.95a1.27,1.27,0,0,0,1.27,1.27h7.631a1.27,1.27,0,0,0,0-2.539h-1.312V82.057a1.27,1.27,0,1,0-2.539,0V84.68h-2.511v-3.3a5.256,5.256,0,0,1,4.044-5.128l3.484-.835,2.331,5.3a1.27,1.27,0,0,0,1.162.759h0a1.269,1.269,0,0,0,1.162-.759l2.329-5.3,3.473.83a5.256,5.256,0,0,1,4.048,5.129V84.68H122.54V82.057a1.27,1.27,0,0,0-2.539,0V84.68h-1.439a1.27,1.27,0,1,0,0,2.539h7.758a1.27,1.27,0,0,0,1.27-1.27V81.389c0-.157-.006-.313-.015-.468h5.85a1.27,1.27,0,0,0,1.27-1.27V77.28A5.947,5.947,0,0,0,130.113,71.476ZM124.6,59.8a3.147,3.147,0,0,1,3.136,2.936h-1.765a9.253,9.253,0,0,1-4.257-1.037A3.147,3.147,0,0,1,124.6,59.8Zm-3.143,5.894c0-.062,0-.123,0-.186V64.374a11.793,11.793,0,0,0,4.509.9h1.772v.6a3.143,3.143,0,1,1-6.286,0Zm-12.287-4.275h0a4.877,4.877,0,0,1,9.691-.775l-2.137-1.256a1.269,1.269,0,0,0-1.616.279,5.47,5.47,0,0,1-4.2,1.961h-1.735ZM103.48,59.8a3.147,3.147,0,0,1,2.886,1.9,9.254,9.254,0,0,1-4.257,1.037h-1.765A3.147,3.147,0,0,1,103.48,59.8Zm-3.143,5.474h1.772a11.793,11.793,0,0,0,4.514-.9v1.5a3.143,3.143,0,0,1-6.286,0Zm6.132,8.517a7.786,7.786,0,0,0-5.395,4.593H95.929v-1.1a3.416,3.416,0,0,1,2.631-3.334l3.233-.772a1.27,1.27,0,0,0,.975-1.235v-.427a5.51,5.51,0,0,0,1.419,0v.362c0,.019,0,.038,0,.057a1.271,1.271,0,0,0,1.032,1.249l1.894.454Zm3.541-1.971a5.957,5.957,0,0,0-1.017-.343l-2.268-.543v-.4a5.729,5.729,0,0,0,1.1-1.005,7.474,7.474,0,0,0,2.184,2.189Zm5.514,1.865-1.486,3.379-1.489-3.387v-.906a7.441,7.441,0,0,0,2.975,0Zm-1.475-3.3a4.882,4.882,0,0,1-4.876-4.876V64.164h1.735A8,8,0,0,0,116.3,62.08l2.618,1.538v2.072A4.881,4.881,0,0,1,114.05,70.381Zm4.014,1.44v-.086a7.472,7.472,0,0,0,2.2-2.195,5.727,5.727,0,0,0,1.091.995v.4l-2.268.543A5.976,5.976,0,0,0,118.064,71.821Zm14.091,6.56h-5.163a7.784,7.784,0,0,0-5.4-4.59l-.637-.152,1.9-.456a1.271,1.271,0,0,0,1.037-1.25c0-.01,0-.02,0-.03v-.389a5.51,5.51,0,0,0,1.419,0v.427a1.269,1.269,0,0,0,.975,1.235l3.233.772a3.417,3.417,0,0,1,2.631,3.334v1.1Z" transform="translate(-93.39 -54)" fill="#f5b3b1"/>
          </g>
        </g>
        <g id="Grupo_1100778" data-name="Grupo 1100778" transform="translate(31.231 37.536)">
          <g id="Grupo_1100777" data-name="Grupo 1100777">
            <path id="Trazado_899305" data-name="Trazado 899305" d="M248.167,296.041a1.27,1.27,0,1,0,.372.9A1.28,1.28,0,0,0,248.167,296.041Z" transform="translate(-246 -295.67)" fill="#f5b3b1"/>
          </g>
        </g>
        <g id="Grupo_1100780" data-name="Grupo 1100780" transform="translate(31.23)">
          <g id="Grupo_1100779" data-name="Grupo 1100779">
            <path id="Trazado_899306" data-name="Trazado 899306" d="M247.263,0a1.27,1.27,0,0,0-1.27,1.27v1.9a1.27,1.27,0,0,0,2.539,0V1.27A1.269,1.269,0,0,0,247.263,0Z" transform="translate(-245.993)" fill="#f5b3b1"/>
          </g>
        </g>
        <g id="Grupo_1100782" data-name="Grupo 1100782" transform="translate(24.325 2.439)">
          <g id="Grupo_1100781" data-name="Grupo 1100781">
            <path id="Trazado_899307" data-name="Trazado 899307" d="M195.1,20.915l-1.332-1.33a1.269,1.269,0,1,0-1.794,1.8l1.332,1.33a1.269,1.269,0,1,0,1.794-1.8Z" transform="translate(-191.599 -19.213)" fill="#f5b3b1"/>
          </g>
        </g>
        <g id="Grupo_1100784" data-name="Grupo 1100784" transform="translate(36.785 2.472)">
          <g id="Grupo_1100783" data-name="Grupo 1100783">
            <path id="Trazado_899308" data-name="Trazado 899308" d="M293.234,19.841a1.269,1.269,0,0,0-1.8,0l-1.321,1.323a1.27,1.27,0,1,0,1.8,1.794l1.321-1.323A1.27,1.27,0,0,0,293.234,19.841Z" transform="translate(-289.746 -19.469)" fill="#f5b3b1"/>
          </g>
        </g>
      </g>
    </g>
  </g>
</svg>
