<svg xmlns="http://www.w3.org/2000/svg" width="75.935" height="76.661" viewBox="0 0 75.935 76.661">
  <g id="Grupo_1100839" data-name="Grupo 1100839" transform="translate(11616.268 11769)">
    <g id="Grupo_1100022" data-name="Grupo 1100022" transform="translate(-12854.333 -12230.348)">
      <g id="Grupo_1100019" data-name="Grupo 1100019" transform="translate(330.667 170.348)">
        <g id="Elipse_11533" data-name="Elipse 11533" transform="translate(913.333 291)" fill="#ed807c" stroke="#fff" stroke-width="3">
          <circle cx="35" cy="35" r="35" stroke="none"/>
          <circle cx="35" cy="35" r="33.5" fill="none"/>
        </g>
        <path id="Trazado_883369" data-name="Trazado 883369" d="M-11783-11268s11,29,43,26.5" transform="translate(12691.333 11608)" fill="none" stroke="#fff" stroke-width="2" stroke-dasharray="4"/>
      </g>
      <g id="derecho-laboral_1_" data-name="derecho-laboral (1)" transform="translate(1253.798 473.195)">
        <g id="Icon" transform="translate(10.286 2.514)">
          <path id="Trazado_883339" data-name="Trazado 883339" d="M38.058,7.934a11.651,11.651,0,0,0-15.462,0c1.938,3.243,2.425,7.036,1.817,11.246H36.241C35.633,14.971,36.12,11.177,38.058,7.934Z" transform="translate(-13.905 -3.444)" fill="#8f4d4b"/>
          <g id="Grupo_1100015" data-name="Grupo 1100015" transform="translate(4.724)">
            <path id="Trazado_883340" data-name="Trazado 883340" d="M32.174,13.578a2.411,2.411,0,0,1-2.4-2.141L28.942,4c0-1.6,6.464-1.6,6.464,0l-.836,7.435a2.411,2.411,0,0,1-2.4,2.141Z" transform="translate(-20.475 -2.805)" fill="#be6763"/>
            <path id="Trazado_883341" data-name="Trazado 883341" d="M20.968,9.139A11.658,11.658,0,0,0,17,17.9v2.482h5.785C23.393,16.175,22.906,12.381,20.968,9.139Z" transform="translate(-17 -4.648)" fill="#be6763"/>
            <path id="Trazado_883342" data-name="Trazado 883342" d="M47.525,17.9a11.66,11.66,0,0,0-3.969-8.766c-1.937,3.244-2.424,7.038-1.816,11.247h5.785Z" transform="translate(-24.127 -4.648)" fill="#be6763"/>
          </g>
          <rect id="Rectángulo_402024" data-name="Rectángulo 402024" width="15.598" height="2.127" rx="1.064" transform="translate(8.978 39.134)" fill="#8f4d4b"/>
          <path id="Trazado_883343" data-name="Trazado 883343" d="M26.418,54h9.926a1.418,1.418,0,0,1,1.418,1.418v1.418H25V55.418A1.418,1.418,0,0,1,26.418,54Z" transform="translate(-14.604 -17.702)" fill="#8f4d4b"/>
          <path id="Trazado_883344" data-name="Trazado 883344" d="M0,0H2.836V11.344a1.418,1.418,0,1,1-2.836,0Z" transform="translate(9.023 27.509) rotate(45)" fill="#be6763"/>
          <path id="Trazado_883345" data-name="Trazado 883345" d="M0,0H11.344V7.09H0Z" transform="translate(11.027 19.488) rotate(45)" fill="#be6763"/>
          <rect id="Rectángulo_402025" data-name="Rectángulo 402025" width="2.127" height="8.508" rx="1.064" transform="translate(19.55 27.006) rotate(45)" fill="#be6763"/>
          <rect id="Rectángulo_402026" data-name="Rectángulo 402026" width="27.651" height="4.254" rx="2.127" transform="translate(2.597 15.736)" fill="#be6763"/>
          <rect id="Rectángulo_402027" data-name="Rectángulo 402027" width="2.127" height="8.508" rx="1.064" transform="translate(10.024 17.483) rotate(45)" fill="#be6763"/>
        </g>
        <g id="Line" transform="translate(10.161 1.805)">
          <path id="Trazado_883346" data-name="Trazado 883346" d="M34.153,40.975V40.23A2.127,2.127,0,0,0,32.026,38.1H22.1a2.127,2.127,0,0,0-2.127,2.127v.745a1.773,1.773,0,0,0,.355,3.509H33.8a1.773,1.773,0,0,0,.355-3.509ZM21.391,40.23a.709.709,0,0,1,.709-.709h9.926a.709.709,0,0,1,.709.709v.709H21.391ZM33.8,43.066H20.328a.355.355,0,1,1,0-.709H33.8a.355.355,0,1,1,0,.709Zm5.318-25.424V15.769a12.415,12.415,0,0,0-8.5-11.759l.025-.219a.76.76,0,0,0,0-.079c0-1.406-2.036-1.906-3.941-1.906s-3.941.5-3.941,1.906a.759.759,0,0,0,0,.079l.025.219a12.415,12.415,0,0,0-8.5,11.759v1.873a2.83,2.83,0,0,0,.709,5.571h1.084l-1.55,1.55a1.767,1.767,0,0,0,1.5,3L18.3,30.028l-7.52,7.52a2.127,2.127,0,1,0,3.008,3.008l7.52-7.52L23.577,35.3a1.751,1.751,0,0,0,.493,1.5,1.774,1.774,0,0,0,2.506,0l4.512-4.512a1.775,1.775,0,0,0,0-2.507h0a1.788,1.788,0,0,0-1.484-.481l-6.083-6.083H38.407a2.83,2.83,0,0,0,.709-5.571ZM12.789,39.553a.709.709,0,1,1-1-1l7.52-7.52,1,1ZM37.7,15.769v1.773H33.261a16.072,16.072,0,0,1,1.365-9.368,10.928,10.928,0,0,1,3.072,7.6ZM26.709,3.223a4.857,4.857,0,0,1,2.519.484l-.828,7.36a1.7,1.7,0,0,1-3.382,0l-.824-7.324a4.431,4.431,0,0,1,2.515-.519Zm-3.1,8a3.12,3.12,0,0,0,6.2,0l.649-5.773a11,11,0,0,1,3.075,1.722,17.1,17.1,0,0,0-1.7,10.367H21.586a17.1,17.1,0,0,0-1.7-10.367,10.994,10.994,0,0,1,3.075-1.722Zm-7.889,4.543a10.928,10.928,0,0,1,3.072-7.6,16.072,16.072,0,0,1,1.366,9.368H15.719Zm-.172,10,4.512-4.512a.34.34,0,0,1,.5,0,.355.355,0,0,1,0,.5L18.3,24.012l-2.256,2.256a.355.355,0,1,1-.5-.5Zm3.76-.752,2.005-2.005,7.019,7.019L24.32,34.039,17.3,27.02Zm10.779,6.267-4.512,4.512a.356.356,0,0,1-.5,0,.342.342,0,0,1,0-.5l4.512-4.512a.34.34,0,0,1,.5,0,.354.354,0,0,1,0,.5ZM38.407,21.8H22.1l-.046-.046a1.765,1.765,0,0,0-.495-1.5,1.816,1.816,0,0,0-2.506,0L17.512,21.8h-2.5a1.418,1.418,0,1,1,0-2.836h23.4a1.418,1.418,0,0,1,0,2.836Z" transform="translate(-10.161 -1.805)"/>
        </g>
      </g>
    </g>
  </g>
</svg>
