<svg xmlns="http://www.w3.org/2000/svg" width="85" height="93" viewBox="0 0 85 93">
  <g id="Grupo_1100833" data-name="Grupo 1100833" transform="translate(-180 -394)">
    <g id="Grupo_1100523" data-name="Grupo 1100523" transform="translate(-524.73 -2468)">
      <path id="Trazado_898566" data-name="Trazado 898566" d="M15,0H70A15,15,0,0,1,85,15V78A15,15,0,0,1,70,93H15A15,15,0,0,1,0,78V15A15,15,0,0,1,15,0Z" transform="translate(704.73 2862)" fill="#106273"/>
      <path id="derecho-laboral_1_" data-name="derecho-laboral (1)" d="M3,55H37.326l.924.924a3.1,3.1,0,0,0,4.371,0h0a3.089,3.089,0,0,0,.58-3.538l1.669-1.67,8.071,8.073a4.136,4.136,0,1,0,5.848-5.849l-8.071-8.073L52.386,43.2a3.057,3.057,0,0,0,3.538-.581h0a3.1,3.1,0,0,0,0-4.372L45.579,27.9a3.179,3.179,0,0,0-4.372,0,3.087,3.087,0,0,0-.579,3.538L34.205,37.86A14.869,14.869,0,0,0,27,36H26v-.892c5.549-2.217,6.7-7.994,6.939-10.219A4.008,4.008,0,0,0,36,21a3.965,3.965,0,0,0-.579-2.043,2.983,2.983,0,0,0,.545-5.783c-.34-6.268-4.536-10.8-11.172-12.041A2,2,0,0,0,23,0H19a2,2,0,0,0-1.794,1.133C10.57,2.377,6.374,6.906,6.034,13.174a2.983,2.983,0,0,0,.545,5.783A3.965,3.965,0,0,0,6,21a4.008,4.008,0,0,0,3.061,3.889c.235,2.225,1.39,8,6.939,10.219V36H15A15.017,15.017,0,0,0,0,51v1a3,3,0,0,0,3,3Zm54.375-.646a2.136,2.136,0,1,1-3.02,3.021L46.284,49.3l3.02-3.02ZM42.622,29.313a1.106,1.106,0,0,1,1.542,0L54.51,39.66a1.092,1.092,0,0,1,0,1.544h0a1.118,1.118,0,0,1-1.542,0L42.621,30.857a1.092,1.092,0,0,1,0-1.544Zm-.708,3.666,4.466,4.466,4.466,4.466-8.932,8.934-4.466-4.467-4.466-4.467ZM30,38.358a12.827,12.827,0,0,1,2.723.984l-1.29,1.29a3.172,3.172,0,0,0-1.433-.3Zm-.682,4.26A1.1,1.1,0,0,1,30.1,42.3a1.081,1.081,0,0,1,.765.323L41.207,52.966a1.091,1.091,0,0,1-1.543,1.544L29.318,44.162a1.094,1.094,0,0,1,0-1.544ZM25,3.2c5.315,1.188,8.58,4.759,8.959,9.8H25ZM19,2h4V13H19ZM17,3.2V13H8.041C8.42,7.962,11.685,4.391,17,3.2ZM7,17a1,1,0,0,1,0-2H35a1,1,0,0,1,0,2Zm4,7a1,1,0,0,0-1-1,2,2,0,0,1,0-4H32a2,2,0,0,1,0,4,1,1,0,0,0-1,1c0,.408-.152,10-10,10S11,24.406,11,24ZM24,35.7V37a3,3,0,0,1-6,0V35.7a15,15,0,0,0,6,0ZM14,38.051c.331-.026.662-.051,1-.051h1.1a5,5,0,0,0,9.8,0H27c.335,0,.668.016,1,.041v3.086c-.03.028-.066.048-.1.077a3.09,3.09,0,0,0-.841,2.8H14ZM9,39.479a12.918,12.918,0,0,1,3-1.116V44H9ZM9,46H28.328l7,7H9ZM2,51A12.97,12.97,0,0,1,7,40.775V53H3a1,1,0,0,1-1-1Z" transform="translate(718.73 2881)" fill="#a1cad2"/>
    </g>
  </g>
</svg>
