<svg xmlns="http://www.w3.org/2000/svg" xmlns:xlink="http://www.w3.org/1999/xlink" width="420.27" height="295.448" viewBox="0 0 420.27 295.448">
  <defs>
    <clipPath id="clip-path">
      <rect id="Rectángulo_403039" data-name="Rectángulo 403039" width="262" height="262" transform="translate(-0.051 -0.051)" fill="none"/>
    </clipPath>
  </defs>
  <g id="Grupo_1100838" data-name="Grupo 1100838" transform="translate(-999.73 -400)">
    <g id="Grupo_1100390" data-name="Grupo 1100390" transform="translate(999.73 400)">
      <rect id="Rectángulo_35205" data-name="Rectángulo 35205" width="420.27" height="295.448" fill="#a1cad2"/>
      <path id="Trazado_896765" data-name="Trazado 896765" d="M25.009,120.86c0,66.749,56.358,120.859,125.879,120.859S276.767,187.61,276.767,120.86,220.409,0,150.888,0,25.009,54.111,25.009,120.86" transform="translate(58.502 21.123)" fill="#e8f2f4"/>
    </g>
    <g id="Grupo_1100517" data-name="Grupo 1100517" transform="translate(1073.051 417)">
      <g id="Grupo_1100516" data-name="Grupo 1100516" transform="translate(0.051 0.051)" clip-path="url(#clip-path)">
        <path id="Trazado_898444" data-name="Trazado 898444" d="M1230.527,233a.316.316,0,0,1-.1-.616c6.5-2.126,11-5.933,13.37-11.316,7.035-15.991-9.489-38.623-22.871-48.884-14.07-10.788-26.227-15.81-40.151-20.033a.316.316,0,1,1,.183-.6c13.99,4.242,26.207,9.29,40.352,20.136,13.541,10.382,30.236,33.339,23.065,49.639-2.443,5.554-7.07,9.478-13.752,11.662a.314.314,0,0,1-.1.016" transform="translate(-1011.577 -129.91)" fill="#d3bba3"/>
        <path id="Trazado_898445" data-name="Trazado 898445" d="M1249.912,28.918c2.95,5.715.9,10.992-2.131,11.99s-7.892-2.013-8.842-8.374c-.946-6.331,1.553-13.745,1.553-13.745s6.266,4.018,9.42,10.128" transform="translate(-1061.419 -16.175)" fill="#e6d0be"/>
        <path id="Trazado_898446" data-name="Trazado 898446" d="M1267.531,74.174a.316.316,0,0,1-.3-.217l-6.892-20.913a.316.316,0,0,1,.6-.2l6.892,20.913a.316.316,0,0,1-.2.4.311.311,0,0,1-.1.016" transform="translate(-1079.925 -45.169)" fill="#d3bba3"/>
        <path id="Trazado_898447" data-name="Trazado 898447" d="M1139.275,234.555c7.13-3.343,13.491-.588,14.572,3.167s-2.832,9.563-10.658,10.429c-7.791.862-16.745-2.541-16.745-2.541s5.208-7.48,12.832-11.054" transform="translate(-965.216 -199.755)" fill="#e6d0be"/>
        <path id="Trazado_898448" data-name="Trazado 898448" d="M1169.19,252.432a.316.316,0,0,1-.087-.619l31.581-9.09a.316.316,0,0,1,.175.607l-31.582,9.09a.317.317,0,0,1-.087.012" transform="translate(-1001.571 -208.03)" fill="#d3bba3"/>
        <path id="Trazado_898449" data-name="Trazado 898449" d="M1025.627,121.925c5.664-1.353,9.859,1.6,10.079,4.476s-3.483,6.5-9.281,5.957c-5.772-.542-11.747-4.348-11.747-4.348s4.892-4.637,10.949-6.084" transform="translate(-869.455 -104.251)" fill="#e6d0be"/>
        <path id="Trazado_898450" data-name="Trazado 898450" d="M1046.967,153.66a.316.316,0,0,1-.024-.631l19.174-1.5a.316.316,0,1,1,.049.63l-19.174,1.5h-.025" transform="translate(-896.85 -129.909)" fill="#d3bba3"/>
        <path id="Trazado_898451" data-name="Trazado 898451" d="M1452.876,91.441c.114,7.874-5.015,12.538-8.881,11.979s-7.551-6.515-5.12-14.005c2.419-7.456,9.2-14.217,9.2-14.217s4.675,7.824,4.8,16.243" transform="translate(-1232.24 -64.505)" fill="#e6d0be"/>
        <path id="Trazado_898452" data-name="Trazado 898452" d="M1472.561,145.372a.28.28,0,0,1-.046,0,.315.315,0,0,1-.267-.358l3.761-25.985a.311.311,0,0,1,.357-.267.316.316,0,0,1,.267.358l-3.761,25.985a.315.315,0,0,1-.312.27" transform="translate(-1261.5 -101.824)" fill="#d3bba3"/>
        <path id="Trazado_898453" data-name="Trazado 898453" d="M1359.19,345.079c5.319-3.615,10.8-2.214,12.16.675s-1.051,8.077-7.25,9.785c-6.172,1.7-13.832.11-13.832.11s3.235-6.7,8.922-10.569" transform="translate(-1156.99 -293.888)" fill="#e6d0be"/>
        <path id="Trazado_898454" data-name="Trazado 898454" d="M1382.783,358.559a.316.316,0,0,1-.134-.6l19.933-9.355a.316.316,0,0,1,.268.572l-19.933,9.355a.314.314,0,0,1-.134.03" transform="translate(-1184.578 -298.733)" fill="#d3bba3"/>
        <path id="Trazado_898455" data-name="Trazado 898455" d="M1483.2,526.551c5.757,2.866,7.222,8.335,5.368,10.931s-7.556,3.041-12.082-1.528c-4.506-4.548-6.872-12-6.872-12s7.429-.463,13.585,2.6" transform="translate(-1259.25 -448.976)" fill="#e6d0be"/>
        <path id="Trazado_898456" data-name="Trazado 898456" d="M1516.2,557.617a.314.314,0,0,1-.183-.059l-17.92-12.795a.316.316,0,0,1,.367-.514l17.92,12.794a.316.316,0,0,1-.184.573" transform="translate(-1283.54 -466.341)" fill="#d3bba3"/>
        <path id="Trazado_898457" data-name="Trazado 898457" d="M1590.315,327.346c1.241,6.31-2.2,10.807-5.387,10.922s-7.019-4.132-6.159-10.506c.855-6.344,5.321-12.768,5.321-12.768s4.9,5.6,6.226,12.352" transform="translate(-1352.664 -269.964)" fill="#e6d0be"/>
        <path id="Trazado_898458" data-name="Trazado 898458" d="M1616.533,373.23a.316.316,0,0,1-.315-.3l-.793-22a.316.316,0,0,1,.3-.327.308.308,0,0,1,.327.3l.793,22a.316.316,0,0,1-.3.327h-.012" transform="translate(-1384.177 -300.465)" fill="#d3bba3"/>
        <path id="Trazado_898459" data-name="Trazado 898459" d="M214.741,280.159h-.013c-7.023-.293-12.54-2.817-16.4-7.5-11.318-13.75-1.463-40.369,8.76-54.031,10.68-14.272,21.073-22.439,33.391-30.312a.316.316,0,0,1,.34.532c-12.26,7.835-22.6,15.962-33.226,30.158-10.1,13.5-19.881,39.763-8.778,53.251,3.738,4.54,9.1,6.987,15.935,7.273a.316.316,0,0,1-.013.631" transform="translate(-165.686 -161.382)" fill="#d3bba3"/>
        <path id="Trazado_898460" data-name="Trazado 898460" d="M375.9,91.364c-1.292,6.3,2.111,10.824,5.3,10.965s7.052-4.076,6.244-10.456c-.8-6.351-5.217-12.81-5.217-12.81s-4.944,5.564-6.326,12.3" transform="translate(-321.907 -67.817)" fill="#e6d0be"/>
        <path id="Trazado_898461" data-name="Trazado 898461" d="M411.811,137.29H411.8a.316.316,0,0,1-.3-.329l.971-22a.323.323,0,0,1,.329-.3.316.316,0,0,1,.3.329l-.971,22a.316.316,0,0,1-.315.3" transform="translate(-352.646 -98.318)" fill="#d3bba3"/>
        <path id="Trazado_898462" data-name="Trazado 898462" d="M437.527,284.569c-7.769-1.287-13.146,3.088-13.17,6.995s5.315,8.438,13.084,7.153c7.734-1.28,15.431-6.981,15.431-6.981s-7.039-5.79-15.346-7.166" transform="translate(-363.667 -243.699)" fill="#e6d0be"/>
        <path id="Trazado_898463" data-name="Trazado 898463" d="M378.659,333.43h0l-32.863-.2a.316.316,0,0,1-.314-.318.32.32,0,0,1,.318-.314l32.863.2a.316.316,0,0,1,0,.632" transform="translate(-296.084 -285.049)" fill="#d3bba3"/>
        <path id="Trazado_898464" data-name="Trazado 898464" d="M553,136.9c-5.819.231-9.059,4.205-8.491,7.038s5.114,5.315,10.548,3.221c5.409-2.085,10.131-7.367,10.131-7.367S559.219,136.656,553,136.9" transform="translate(-466.555 -117.363)" fill="#e6d0be"/>
        <path id="Trazado_898465" data-name="Trazado 898465" d="M522.166,166.442a.316.316,0,0,1-.061-.625l18.863-3.753a.316.316,0,1,1,.123.619l-18.863,3.753a.307.307,0,0,1-.062.006" transform="translate(-447.199 -138.927)" fill="#d3bba3"/>
        <path id="Trazado_898466" data-name="Trazado 898466" d="M182.913,219.832c2.023,7.61,8.223,10.712,11.793,9.126s5.5-8.316,1.136-14.868c-4.348-6.522-12.711-11.193-12.711-11.193s-2.381,8.8-.218,16.935" transform="translate(-156.018 -173.918)" fill="#e6d0be"/>
        <path id="Trazado_898467" data-name="Trazado 898467" d="M217.874,267.447a.316.316,0,0,1-.289-.187l-10.657-24a.316.316,0,0,1,.577-.257l10.657,24a.316.316,0,0,1-.288.444" transform="translate(-177.349 -208.124)" fill="#d3bba3"/>
        <path id="Trazado_898468" data-name="Trazado 898468" d="M288.909,445.225c-6.1-2.04-11,.795-11.522,3.942s3.2,7.49,9.629,7.456c6.4-.035,13.345-3.64,13.345-3.64s-4.93-5.577-11.452-7.758" transform="translate(-237.7 -380.955)" fill="#e6d0be"/>
        <path id="Trazado_898469" data-name="Trazado 898469" d="M268.883,474.557a.31.31,0,0,1-.052,0l-21.721-3.608a.316.316,0,1,1,.1-.623l21.721,3.608a.316.316,0,0,1-.051.627" transform="translate(-211.574 -403.045)" fill="#d3bba3"/>
        <path id="Trazado_898470" data-name="Trazado 898470" d="M238.567,630.859c-4.766,4.318-4.7,9.979-2.207,11.977s8.1.881,11.217-4.743c3.105-5.6,3.364-13.417,3.364-13.417s-7.277,1.566-12.373,6.183" transform="translate(-201.153 -535.3)" fill="#e6d0be"/>
        <path id="Trazado_898471" data-name="Trazado 898471" d="M226.679,670.012a.316.316,0,0,1-.246-.513l13.785-17.17a.316.316,0,0,1,.492.4l-13.786,17.17a.315.315,0,0,1-.246.118" transform="translate(-194.025 -558.892)" fill="#d3bba3"/>
        <path id="Trazado_898472" data-name="Trazado 898472" d="M131.166,476.781c.514,6.41,5.043,9.808,8.144,9.055s5.637-5.879,3.084-11.781c-2.541-5.876-8.579-10.85-8.579-10.85s-3.2,6.721-2.648,13.576" transform="translate(-112.404 -396.951)" fill="#e6d0be"/>
        <path id="Trazado_898473" data-name="Trazado 898473" d="M162.651,519.687a.316.316,0,0,1-.306-.241l-5.2-21.4a.316.316,0,0,1,.614-.149l5.2,21.4a.316.316,0,0,1-.232.381.311.311,0,0,1-.075.009" transform="translate(-134.714 -426.47)" fill="#d3bba3"/>
        <path id="Trazado_898474" data-name="Trazado 898474" d="M457.679,397.425s5.1,34.52-2.716,47.7A89.372,89.372,0,0,1,295.53,365.313c4.486-10.779,26.626-17.478,26.626-17.478s7.389-23.907,16.229-28.3a89.5,89.5,0,0,1,84.293,2.656c4.571,2.64,9.839,13.183,9.839,13.183s9.1,1.316,11.823,4.33a89.522,89.522,0,0,1,14.323,21.324c5.674,11.831-.984,36.392-.984,36.392" transform="translate(-247.439 -265.918)" fill="#e6d0be"/>
        <path id="Trazado_898475" data-name="Trazado 898475" d="M404.338,395.236c-2.558,1.541-1.165,5.547-3.714,6.983-4.372,2.463-16.067-5.039-15.384-10.656.74-6.08,16.1-10.943,21.668-6.243,3.584,3.025,1.672,8.8,5.142,10.283,2.942,1.257,8.08-1.286,9.182-5.142,1.454-5.092-4.967-9.55-5.509-9.916-6.495-4.384-15.439-1.985-18.73-1.1-7.11,1.907-8.726,4.7-12.12,3.673-3.584-1.089-4.324-4.98-5.616-8.091A89.672,89.672,0,0,0,336.4,420.8c3.19,4.523,10.963,5.059,13.578,13,1.375,4.177.416,7.648,3.306,9.916,2.943,2.309,6.088.4,8.447,2.938,1.4,1.507.846,2.775,1.836,8.08.956,5.119,1.434,7.678,2.938,9.182,4.337,4.334,15,1.024,15.058-.735.037-1.164-4.6-.818-6.244-4.04-1.713-3.36,1.952-6.442.367-9.549-1.739-3.409-7.188-1.741-8.814-4.774-1.679-3.131,1.524-9.761,6.611-12.487,7.461-4,12.781,3.721,20.2.735,9.232-3.717,6.554-17.908,17.629-23.138,5.585-2.637,9.877-.733,10.651-2.938,1.463-4.17-12.552-14.81-17.629-11.752" transform="translate(-288.309 -321.399)" fill="#d3bba3"/>
        <path id="Trazado_898476" data-name="Trazado 898476" d="M667.623,943.137a22.238,22.238,0,0,1,13.608-.47,23.386,23.386,0,0,1,9.564,4.612c6.022,4.958,4.252,9.067,9.321,12.427,5.479,3.632,11.494,1.448,12.427,4.272.506,1.529-1.238,2.229-2.718,5.825-2.627,6.381.06,10.987-2.719,12.816-1.518,1-4.66,1.165-4.66,1.165a18.509,18.509,0,0,1-.777,6.6c-.739,2-1.53,1.939-3.5,4.66-2.753,3.812-1.993,5.034-4,7.539-2.995,3.746-5.858,2.469-7.655,5.018-3.792,5.376,5.983,15.258,3.107,18.641-2.179,2.563-11.108.8-15.017-4.66-2.756-3.85-.72-6.332-2.33-15.793a80.666,80.666,0,0,0-5.178-17.088c-2.952-7.061-5.179-9.681-4.356-14.187.709-3.878,2.819-4.455,2.543-7.3-.524-5.422-8.42-5.88-9.321-10.874s5.862-10.941,11.651-13.2" transform="translate(-562.045 -807.021)" fill="#d3bba3"/>
        <path id="Trazado_898477" data-name="Trazado 898477" d="M1189.6,646.183c-12.439-2.991-15.671-3.885-21.077-2.4-4.676,1.281-8.432,3.677-15.944,8.47-7.162,4.57-8.424,6.517-8.969,7.474-3.1,5.436-1.605,11.454,0,17.937,1.4,5.66,2.933,11.844,6.975,12.954,1.938.532,2.961-.511,8.969-2.99,7.673-3.165,11.509-4.748,12.954-3.488,2.88,2.51-6.259,12.237-2.491,19.432,2.521,4.813,8.438,3.945,10.463,9.467,1.381,3.763-.84,5.6,0,9.467a14.342,14.342,0,0,0,5.417,7.773,89.463,89.463,0,0,0,3.7-84.092" transform="translate(-978.374 -551.067)" fill="#d3bba3"/>
        <path id="Trazado_898478" data-name="Trazado 898478" d="M1119.482,411.071a89.733,89.733,0,0,0-21.662-17.512,10.736,10.736,0,0,0,.458,7.035c1.375,2.786,4.232,3.877,3.986,6.477-.243,2.565-3.326,4.709-5.979,5.481-4.526,1.316-7.4-1.479-8.968,0-2.354,2.22,2.922,9.656.5,11.958-1.587,1.507-4.457-1.1-7.474.5-2.857,1.516-4.718,6.208-2.989,9.467,1.343,2.533,4.515,3.558,6.975,3.488,2.064-.059,4.834-.922,12.457-9.467,7.043-7.895,8.05-10.938,10.961-10.961,4.892-.04,8.531,8.5,9.467,7.972.869-.489-4.041-6.857-2.491-10.961.655-1.735,2.376-2.819,4.762-3.474" transform="translate(-922.584 -337.278)" fill="#d3bba3"/>
        <rect id="Rectángulo_403028" data-name="Rectángulo 403028" width="1.902" height="148.73" transform="translate(132.981 67.343)" fill="#f7f1eb"/>
        <path id="Trazado_898479" data-name="Trazado 898479" d="M694,511.9h-.011l-9.113-.317a.3.3,0,0,1-.123-.029L648.17,494.434h0l-37.085,17.354a.313.313,0,0,1-.134.03h-10.7a.316.316,0,0,1-.054-.627l9.545-1.657,37.838-18.207a.319.319,0,0,1,.273,0l37.687,18.052,8.523,1.894a.316.316,0,0,1-.069.624m-90.077-.711h6.962l36.632-17.142a.316.316,0,0,1,.42-.42l37.027,17.326,5.626.2-5.216-1.159a.325.325,0,0,1-.068-.023l-37.583-18-37.741,18.16a.318.318,0,0,1-.083.026Z" transform="translate(-514.103 -421.021)" fill="#f7f1eb"/>
        <path id="Trazado_898480" data-name="Trazado 898480" d="M1024.8,936.2c1.763,7.607,13.725,13.278,28.219,13.278s26.456-5.671,28.219-13.278Z" transform="translate(-878.125 -802.218)" fill="#f7f1eb"/>
        <path id="Trazado_898481" data-name="Trazado 898481" d="M1032.439,673.312a.316.316,0,0,1-.273-.473l25.357-44.145a.316.316,0,0,1,.265-.158.311.311,0,0,1,.273.144l28.527,44a.316.316,0,0,1-.53.344l-28.246-43.571-25.1,43.7a.315.315,0,0,1-.274.159" transform="translate(-884.403 -538.607)" fill="#f7f1eb"/>
        <path id="Trazado_898482" data-name="Trazado 898482" d="M1211.423,678.128a.316.316,0,0,1-.315-.3l-1.9-43.094a.316.316,0,0,1,.3-.329.31.31,0,0,1,.329.3l1.9,43.094a.316.316,0,0,1-.3.329h-.014" transform="translate(-1036.127 -543.634)" fill="#f7f1eb"/>
        <path id="Trazado_898483" data-name="Trazado 898483" d="M450.391,937.865c1.763,7.607,13.725,13.278,28.219,13.278s26.456-5.671,28.219-13.278Z" transform="translate(-385.972 -803.642)" fill="#f7f1eb"/>
        <path id="Trazado_898484" data-name="Trazado 898484" d="M453.606,675.13a.316.316,0,0,1-.272-.475l25.991-44.495a.316.316,0,0,1,.538-.011l28.369,44.215a.316.316,0,0,1-.531.341l-28.09-43.781-25.731,44.05a.315.315,0,0,1-.273.157" transform="translate(-388.457 -539.865)" fill="#f7f1eb"/>
        <path id="Trazado_898485" data-name="Trazado 898485" d="M637.017,674.57a.316.316,0,0,1-.315-.3l-1.9-43.934a.315.315,0,0,1,.3-.329.309.309,0,0,1,.329.3l1.9,43.935a.316.316,0,0,1-.3.329h-.014" transform="translate(-543.974 -539.865)" fill="#f7f1eb"/>
        <rect id="Rectángulo_403029" data-name="Rectángulo 403029" width="46.594" height="2.853" transform="translate(110.001 225.58)" fill="#f7f1eb"/>
        <path id="Trazado_898486" data-name="Trazado 898486" d="M784.2,1512.483l20.92-10.618,1.585-.158,19.335,10.935Z" transform="translate(-671.984 -1286.743)" fill="#f7f1eb"/>
        <path id="Trazado_898487" data-name="Trazado 898487" d="M927.932,465.76a1.585,1.585,0,1,1-1.585-1.585,1.585,1.585,0,0,1,1.585,1.585" transform="translate(-792.415 -397.782)" fill="#f7f1eb"/>
        <path id="Trazado_898488" data-name="Trazado 898488" d="M317.945,1654.63l-12.171.177,1.84-15.737,12.234,1.677Z" transform="translate(-262.064 -1404.436)" fill="#84524d"/>
        <path id="Trazado_898489" data-name="Trazado 898489" d="M326.682,1723.549l-30.937-.809,2.062-11.616,12.994.34,8.808,2.869a9.571,9.571,0,0,1,7.071,9.3Z" transform="translate(-253.471 -1466.172)" fill="#776e42"/>
        <path id="Trazado_898490" data-name="Trazado 898490" d="M140.11,1663.183l-12.086,1.444.19-15.844,12.342.393Z" transform="translate(-109.767 -1412.76)" fill="#84524d"/>
        <path id="Trazado_898491" data-name="Trazado 898491" d="M145.5,1735.572l-30.134-.177,1.894-11.656,12.181.072,8.832,2.69a9.541,9.541,0,0,1,7.226,9.157Z" transform="translate(-98.918 -1476.981)" fill="#8b865c"/>
        <path id="Trazado_898492" data-name="Trazado 898492" d="M101.812,1008.664s-3.363,11.7-4.105,15.63c-4.229,22.362-3.451,79.884-3.451,79.884l22.028-1.293s2.85-42.192,4.268-60.729c1.632,3.335,3.527,8.049,5.005,11.651a10.138,10.138,0,0,1,.683,5.208l-4.429,43.545,21.515-1.262s8.632-47.609,5.021-56.75c-3.194-8.086-17.514-30.479-17.514-30.479l-1.235-7.035Z" transform="translate(-80.786 -862.906)" fill="#be6763"/>
        <path id="Trazado_898493" data-name="Trazado 898493" d="M308.532,1617.974l1.461-7.913-22.283,1.433-.692,7.742Z" transform="translate(-245.993 -1379.581)" fill="#b77250"/>
        <path id="Trazado_898494" data-name="Trazado 898494" d="M115.269,1629.314l.441-7.853-22.891,1.469-.084,7.707Z" transform="translate(-79.531 -1389.349)" fill="#b77250"/>
        <path id="Trazado_898495" data-name="Trazado 898495" d="M276.365,1183.843l-.031,0a.316.316,0,0,1-.284-.345l1.09-11.252a.316.316,0,1,1,.628.061l-1.09,11.251a.316.316,0,0,1-.314.285" transform="translate(-236.596 -1004.215)" fill="#363e44"/>
        <path id="Trazado_898496" data-name="Trazado 898496" d="M396.043,690.81l15.12-17.42,5.449-5.488,3.733,4.648c3.6,4.791,5.526,4.7,1.828,13l-21.365,24.323Z" transform="translate(-339.407 -572.336)" fill="#84524d"/>
        <path id="Trazado_898497" data-name="Trazado 898497" d="M490.048,503.529c.393-5.28.693-6.052-.436-16.778-.481-4.567-1.113-8.346-1.122-10.772-.185-.826.782-6.3-.8-6.476-1.182-.131-1.755,4.122-2.088,5.184-.1-.936,1.409-7.528-.4-7.727-1.883-.206-2.45,6.2-2.6,7.055-.026-.069.736-8.469-1.019-8.8-1.705-.319-2.086,6.761-2.357,8.376-.009-1.433-.016-7.859-1.344-8-2.052-.222-2.224,7.039-2.163,12.055-1.953-1.431-3.251-1.847-3.6-1.287-.177.284.776,2.748,3.681,5.543.025,1.871.288,12.363.246,18.6,2.82,3.492,4.939,9.7,7.76,13.188,4.281-1.592,6.1-8.114,6.252-10.162" transform="translate(-404.563 -398.668)" fill="#84524d"/>
        <path id="Trazado_898498" data-name="Trazado 898498" d="M525.584,560.917a.316.316,0,0,1-.315-.295A3.689,3.689,0,0,0,522.049,557a.316.316,0,0,1,.062-.628,4.367,4.367,0,0,1,3.789,4.213.316.316,0,0,1-.294.336h-.022" transform="translate(-447.126 -476.772)" fill="#363e44"/>
        <path id="Trazado_898499" data-name="Trazado 898499" d="M118.233,761.316l10.025,16.434-11.82,11.731s-3.054,3.692-7.244,18.508L62.98,814.956l20-44.386s13.645-.9,35.254-9.254" transform="translate(-54.037 -652.374)" fill="#c59d55"/>
        <path id="Trazado_898500" data-name="Trazado 898500" d="M110.5,849.328l-3.9-21.17a29.071,29.071,0,0,1,13.754-2.583Z" transform="translate(-91.408 -707.379)" fill="#c59d55"/>
        <path id="Trazado_898501" data-name="Trazado 898501" d="M28.179,922.978,20.3,941.309l-6.68,6.8-5.448-4.4c-3.82-4.426-3.616-6.82,2.054-21.858l2.465-6.163Z" transform="translate(-4.868 -784.636)" fill="#84524d"/>
        <path id="Trazado_898502" data-name="Trazado 898502" d="M5.685,1036.109c.945,5.076.855,5.879,4.592,15.71,1.591,4.186,3.129,7.591,3.742,9.877.38.733.832,6.135,2.369,5.906,1.147-.171.627-4.324.677-5.408.329.857.547,7.449,2.306,7.185,1.827-.275.765-6.455.7-7.3.041.059,1.417,8.168,3.153,8.04,1.687-.124.281-6.894.135-8.485.366,1.349,1.973,7.406,3.262,7.21,1.99-.3.343-7.191-.965-11.905,2.2.862,3.525.931,3.715.317.1-.312-1.416-2.4-4.852-4.309-.489-1.758-3.352-11.585-4.867-17.475-3.529-2.59-6.958-5.14-10.487-7.73a8.341,8.341,0,0,0-3.477,8.369" transform="translate(-4.836 -880.647)" fill="#84524d"/>
        <path id="Trazado_898503" data-name="Trazado 898503" d="M58.265,860.9l-9.483-16.922c-3.337,1.922-6.536,6.573-9.663,12.65l15.859,9.45Z" transform="translate(-33.593 -723.202)" fill="#c59d55"/>
        <path id="Trazado_898504" data-name="Trazado 898504" d="M320.827,740.367a2.181,2.181,0,1,0,3.247-.7,2.365,2.365,0,0,0-3.247.7" transform="translate(-274.456 -633.492)" fill="#84524d"/>
        <path id="Trazado_898505" data-name="Trazado 898505" d="M228.058,733.9a2.181,2.181,0,1,1-3.126-1.124,2.364,2.364,0,0,1,3.126,1.124" transform="translate(-191.947 -627.711)" fill="#84524d"/>
        <rect id="Rectángulo_403030" data-name="Rectángulo 403030" width="10.65" height="12.922" transform="translate(34.657 107.628) rotate(-86.132)" fill="#363e44"/>
        <path id="Trazado_898506" data-name="Trazado 898506" d="M257.335,771.845l.356-.011a4.343,4.343,0,0,0,4.21-4.472l-.31-10.279-9.039.273.31,10.279a4.343,4.343,0,0,0,4.472,4.21" transform="translate(-216.463 -648.747)" fill="#84524d"/>
        <path id="Trazado_898507" data-name="Trazado 898507" d="M244.274,715.779c-.268,4.024,2.29,7.47,5.714,7.7s6.416-2.849,6.684-6.872a5.805,5.805,0,0,0-5.731-6.592c-3.424-.228-6.4,1.743-6.667,5.766" transform="translate(-209.354 -608.402)" fill="#84524d"/>
        <path id="Trazado_898508" data-name="Trazado 898508" d="M240.275,656.916c-.212-.585-1.548-.683-3.167-.3.493-.7.674-1.307.413-1.626-.291-.356-1.062-.269-2,.154.688-.492,1.056-1,.918-1.378-.241-.664-1.927-.7-3.833-.113.322-1.37.227-2.463-.307-2.669-.569-.22-1.461.635-2.187,2.009-.128-1.011-.458-1.706-.918-1.763a.8.8,0,0,0-.657.332c-.342-.673-.743-1.069-1.121-1.023-.553.067-.9,1.058-.924,2.418-.765-.553-1.378-.785-1.664-.562-.31.242-.168.971.3,1.933-1.4-1.169-2.607-1.77-3-1.411-.3.27-.075,1.028.513,2.007-.835-.338-1.479-.4-1.719-.1-.305.381.122,1.249,1.007,2.229-.866.137-1.456.453-1.508.886-.046.388.35.79,1.013,1.118-1.466.115-2.524.543-2.548,1.111-.032.735,1.679,1.422,3.821,1.535s3.9-.392,3.936-1.127a.528.528,0,0,0-.072-.279c.639.216,1.128.238,1.358.023.736.435,1.306.591,1.555.365.185-.167.167-.524-.01-1,.835.662,1.527.989,1.884.841a8.4,8.4,0,0,0,1.207.679c1.736.8,3.4.91,3.71.245.167-.353-.084-.855-.613-1.367,1.435.337,2.58.253,2.783-.277a.881.881,0,0,0-.272-.83c1.413-.661,2.306-1.5,2.1-2.058" transform="translate(-187.617 -557.459)" fill="#363e44"/>
        <path id="Trazado_898509" data-name="Trazado 898509" d="M257.387,788.069q-.19,0-.382-.013a6.057,6.057,0,0,1-4.474-2.553.316.316,0,0,1,.507-.376,5.267,5.267,0,0,0,8.287.552.316.316,0,1,1,.453.44,6.107,6.107,0,0,1-4.391,1.949" transform="translate(-216.392 -672.667)" fill="#363e44"/>
        <path id="Trazado_898510" data-name="Trazado 898510" d="M241.621,740.425a.316.316,0,0,1-.311-.264,8.929,8.929,0,0,1,.207-3.82.316.316,0,0,1,.608.17,8.3,8.3,0,0,0-.192,3.548.316.316,0,0,1-.312.367" transform="translate(-206.73 -630.777)" fill="#363e44"/>
        <path id="Trazado_898511" data-name="Trazado 898511" d="M327.548,745.817a.316.316,0,0,1-.3-.407,8.285,8.285,0,0,0,.266-3.543.316.316,0,1,1,.625-.09,8.92,8.92,0,0,1-.286,3.815.315.315,0,0,1-.3.224" transform="translate(-280.449 -635.401)" fill="#363e44"/>
        <path id="Trazado_898512" data-name="Trazado 898512" d="M294.6,748.175a4,4,0,0,0,1.241.4c.324.047.822-.638.822-.638s.745.467.967.353a.811.811,0,1,0,.148-1.367c-.365-.07-1.231.729-1.231.729s-.944-.373-1.275-.119a3.9,3.9,0,0,0-.671.645" transform="translate(-252.486 -640.036)" fill="#fff"/>
        <path id="Trazado_898513" data-name="Trazado 898513" d="M299.274,747.167a3.235,3.235,0,0,1,1.288-.618,3.114,3.114,0,0,1,1.22.008,1.319,1.319,0,0,1-.145,1.367,2.881,2.881,0,0,1-.734.266,3.035,3.035,0,0,1-1.058.02,1.314,1.314,0,0,1-.57-1.043" transform="translate(-256.495 -639.673)" fill="#363e44"/>
        <path id="Trazado_898514" data-name="Trazado 898514" d="M255.775,744.611a4.072,4.072,0,0,1-1.461.175c-.281-.02-.738-.678-.738-.678s-.788.14-1.038-.085a4.231,4.231,0,0,1-.811-1,4.03,4.03,0,0,1,.958-.176c.409-.027,1.118.677,1.118.677s1.011-.065,1.279.2a4.037,4.037,0,0,1,.692.891" transform="translate(-215.756 -636.549)" fill="#fff"/>
        <path id="Trazado_898515" data-name="Trazado 898515" d="M258.413,742.989a3.129,3.129,0,0,1,1.027.684,1.319,1.319,0,0,1-.768,1.066,2.945,2.945,0,0,1-.871-.189,3.041,3.041,0,0,1-.918-.582,1.321,1.321,0,0,1,.154-1.168,3.211,3.211,0,0,1,1.376.189" transform="translate(-220.112 -636.501)" fill="#363e44"/>
        <path id="Trazado_898516" data-name="Trazado 898516" d="M280.754,757.548a.314.314,0,0,1-.2-.069.933.933,0,0,1-.416-.714.833.833,0,0,1,.211-.522.7.7,0,0,0,.146-.271.614.614,0,0,0-.026-.329.316.316,0,0,1,.6-.2,1.235,1.235,0,0,1,.043.665,1.29,1.29,0,0,1-.255.51.421.421,0,0,0-.086.143c0,.037.047.118.178.222a.316.316,0,0,1-.2.563" transform="translate(-240.102 -647.158)" fill="#363e44"/>
        <path id="Trazado_898517" data-name="Trazado 898517" d="M288.355,772.827c-.073,0-.138,0-.191-.009a.316.316,0,0,1-.284-.344.311.311,0,0,1,.344-.284,1.4,1.4,0,0,0,.863-.2,1.36,1.36,0,0,0,.439-.446.316.316,0,0,1,.54.328,1.977,1.977,0,0,1-1.711.954" transform="translate(-246.73 -661.008)" fill="#363e44"/>
        <path id="Trazado_898518" data-name="Trazado 898518" d="M1480.021,654.357c4.015,2.632,4.49,7.686,4.016,12.619-.73,7.6,9.845,5.775,11.421,10.087s-6.666,7.617,3.811,15.64l-20.157,12.156c-4.914-3.163-3.679-11.1-3.679-11.1-3.937,7.229-1.928,11.1.41,13.072l-2.763,1.666s-6.68-2.032-3.8-9.6c2.607-6.843.517-9.28-6.034-7.284s-18.936-14.74.326-31.677l9.3-5.279a6.142,6.142,0,0,1,7.145-.3" transform="translate(-1245.227 -559.872)" fill="#d87355"/>
        <path id="Trazado_898519" data-name="Trazado 898519" d="M1637.312,770.092a.3.3,0,0,1-.067-.007,3.327,3.327,0,0,1-1.925-1.523c-.934-1.492-1.055-3.7-.362-6.562,1.621-6.7,1.978-9.569-5.578-13.42-7.794-3.973-4.835-10.215-4.8-10.278a.316.316,0,0,1,.567.279c-.114.233-2.7,5.753,4.524,9.437,7.948,4.052,7.523,7.445,5.9,14.131-.642,2.653-.544,4.755.284,6.079a2.71,2.71,0,0,0,1.524,1.242.316.316,0,0,1-.067.624" transform="translate(-1391.524 -632.503)" fill="#efbc73"/>
        <path id="Trazado_898520" data-name="Trazado 898520" d="M1601.172,671.651a6.454,6.454,0,0,1-6.138-4.819,12.292,12.292,0,0,1,.034-4.453c.05-.387.1-.774.14-1.159a13.862,13.862,0,0,0-.9-7.117,8.094,8.094,0,0,0-5.11-4.644,5.689,5.689,0,0,0-6.188,2.19.316.316,0,0,1-.533-.338,6.332,6.332,0,0,1,6.883-2.463,8.729,8.729,0,0,1,5.525,5,14.483,14.483,0,0,1,.953,7.44c-.041.39-.092.783-.142,1.175a11.81,11.81,0,0,0-.046,4.225,5.87,5.87,0,0,0,5.8,4.327.308.308,0,0,1,.333.3.315.315,0,0,1-.3.332c-.1.006-.209.009-.314.009" transform="translate(-1355.904 -555.825)" fill="#efbc73"/>
        <path id="Trazado_898521" data-name="Trazado 898521" d="M1259.792,1682.064a21.276,21.276,0,0,1,2.251,5.5,21.567,21.567,0,0,1,.39,8.588l-25.483.54a16.606,16.606,0,0,1,.757-3.029c3.185-8.606,13.9-11.4,16.338-11.979,1.916.12,3.832.255,5.748.375" transform="translate(-1059.898 -1440.953)" fill="#d3bba3"/>
        <path id="Trazado_898522" data-name="Trazado 898522" d="M1363.67,1619.375l-1.749,9.035a3.557,3.557,0,0,1-3.958,2.812q-.158-.024-.322-.059a3.58,3.58,0,0,1-2.8-3.692l.653-8.819Z" transform="translate(-1160.907 -1386.943)" fill="#e2a18d"/>
        <path id="Trazado_898523" data-name="Trazado 898523" d="M1672,1657.915s4.424,8.154,3.847,16.77l-17.1.363a41.285,41.285,0,0,1,2.054-6.4,35.215,35.215,0,0,1,5.741-9.143Z" transform="translate(-1421.298 -1420.583)" fill="#d3bba3"/>
        <path id="Trazado_898524" data-name="Trazado 898524" d="M1688.644,1594.393c.058-3-.074-8.524-1.532-12.942l-9.878,3.146a32.837,32.837,0,0,1,4.515,10.408,3.34,3.34,0,0,0,3.558,2.686,6.777,6.777,0,0,0,.694-.1,3.319,3.319,0,0,0,2.643-3.194" transform="translate(-1437.135 -1355.068)" fill="#e2a18d"/>
        <path id="Trazado_898525" data-name="Trazado 898525" d="M1495.691,1037.07s19.3,28.85,20.721,85.073l-13.639.289s-17.387-48.315-28.415-60.208l3.409-27.22Z" transform="translate(-1263.311 -886.872)" fill="#775e33"/>
        <path id="Trazado_898526" data-name="Trazado 898526" d="M1370.873,1059.337s-16.667,28.633-20.106,55.178l-12.725.27s-2.848-63.664,19.814-89.889l11.741,2.245Z" transform="translate(-1146.417 -878.21)" fill="#775e33"/>
        <path id="Trazado_898527" data-name="Trazado 898527" d="M1481.83,1206.415a.316.316,0,0,1-.284-.177l-7.564-15.549a.316.316,0,0,1,.568-.276l7.564,15.55a.316.316,0,0,1-.284.454" transform="translate(-1262.96 -1019.873)" fill="#fff"/>
        <path id="Trazado_898528" data-name="Trazado 898528" d="M1631.1,901.442c4.451,6.105,19.611,20.192,12.85,25.545-5.592,4.428-19.385-10.021-24.177-15.819,3.883-3.325,7.445-6.4,11.327-9.726" transform="translate(-1387.903 -772.434)" fill="#e2a18d"/>
        <path id="Trazado_898529" data-name="Trazado 898529" d="M1318.737,713.641l-23.953-12.61-1.069,6.018c-.882,6.083-.645,10.29,7.411,15.11l18.6,10.523Z" transform="translate(-1108.236 -600.721)" fill="#e2a18d"/>
        <path id="Trazado_898530" data-name="Trazado 898530" d="M1293.846,537.952c.522-5.4.353-6.236,3.361-16.876,1.281-4.53,2.577-8.239,3.009-10.689.331-.8.306-6.5,1.937-6.4,1.218.073,1.056,4.471,1.208,5.6.266-.928-.114-7.852,1.753-7.737,1.939.119,1.4,6.69,1.4,7.582.038-.065.731-8.685,2.561-8.711,1.779-.025.93,7.194.924,8.874.259-1.446,1.384-7.938,2.751-7.852,2.113.133,1.022,7.5.087,12.557,2.223-1.106,3.607-1.3,3.862-.674.129.317-1.262,2.641-4.684,4.96-.351,1.887-2.443,12.442-3.487,18.75-3.458,3.038-6.814,6.024-10.271,9.063a8.769,8.769,0,0,1-4.413-8.444" transform="translate(-1108.617 -429.093)" fill="#e2a18d"/>
        <path id="Trazado_898531" data-name="Trazado 898531" d="M1367.317,599.244a.316.316,0,0,1-.307-.39,4.471,4.471,0,0,1,4.553-3.59.316.316,0,0,1-.046.63,3.79,3.79,0,0,0-3.893,3.109.315.315,0,0,1-.307.241" transform="translate(-1171.327 -510.097)" fill="#363e44"/>
        <path id="Trazado_898532" data-name="Trazado 898532" d="M1451.739,812.249l-39.15-4.906,1.768-49.481s28.9,9.935,42.792,23.3l-7.82,14.476Z" transform="translate(-1210.387 -649.414)" fill="#363e44"/>
        <path id="Trazado_898533" data-name="Trazado 898533" d="M1533.707,997.292c-5.946.548-20.014,1.146-21.385,1.259-2.562.211-16.286,1.7-16.286,3.706,0,.958,2.657.79,3.554.707-.691.424-3.521,1.764-3.243,2.8.327,1.218,3.944.137,4.011.156-.746.359-3.773,1.67-3.594,2.455.232,1.022,3.414.647,4.362.49-.078.146-3.076,1.582-2.907,2.2.187.686,3.162.408,4.351.407,2.277-.186,11.165-.434,15.488-.349a80.219,80.219,0,0,0,18.315-1.334c1.929-.3,0-10.7-2.666-12.5" transform="translate(-1281.884 -854.559)" fill="#e2a18d"/>
        <path id="Trazado_898534" data-name="Trazado 898534" d="M1654.721,995.756a.316.316,0,0,1-.018-.631c3.185-.185,12.8-.776,14.686-.929a.319.319,0,0,1,.34.289.316.316,0,0,1-.289.34c-1.984.161-11.967.772-14.7.93h-.019" transform="translate(-1417.576 -851.906)" fill="#363e44"/>
        <path id="Trazado_898535" data-name="Trazado 898535" d="M1518.686,1028.31a.316.316,0,0,1-.132-.6,12.073,12.073,0,0,1,4.485-1.093.316.316,0,0,1,.03.631,11.423,11.423,0,0,0-4.251,1.035.317.317,0,0,1-.132.029" transform="translate(-1301.02 -879.682)" fill="#363e44"/>
        <path id="Trazado_898536" data-name="Trazado 898536" d="M1523.936,1051.981a.316.316,0,0,1-.1-.615q.165-.056.338-.108a12.146,12.146,0,0,1,2.933-.5.316.316,0,1,1,.03.631,11.509,11.509,0,0,0-2.78.477q-.163.05-.319.1a.314.314,0,0,1-.1.017" transform="translate(-1305.518 -900.365)" fill="#363e44"/>
        <path id="Trazado_898537" data-name="Trazado 898537" d="M1530.108,1074.862a.316.316,0,0,1-.065-.625,12.258,12.258,0,0,1,1.936-.248.316.316,0,0,1,.03.631,11.572,11.572,0,0,0-1.835.235.33.33,0,0,1-.066.007" transform="translate(-1310.807 -920.272)" fill="#363e44"/>
        <path id="Trazado_898538" data-name="Trazado 898538" d="M1557.93,766.465l1,.052a3.107,3.107,0,0,0,3.265-2.941l.6-11.419a3.107,3.107,0,0,0-2.941-3.265l-1-.052a3.107,3.107,0,0,0-3.265,2.941l-.6,11.418a3.107,3.107,0,0,0,2.941,3.265" transform="translate(-1332.392 -641.682)" fill="#e2a18d"/>
        <path id="Trazado_898539" data-name="Trazado 898539" d="M1525.257,669.667a8.409,8.409,0,1,0,8.409-8.409,8.409,8.409,0,0,0-8.409,8.409" transform="translate(-1306.921 -566.644)" fill="#d87355"/>
        <path id="Trazado_898540" data-name="Trazado 898540" d="M1535.495,692.8c0,4.479,3.1,9.2,6.929,9.2s6.929-4.725,6.929-9.2-3.1-8.11-6.929-8.11-6.929,3.631-6.929,8.11" transform="translate(-1315.693 -586.72)" fill="#e2a18d"/>
        <path id="Trazado_898541" data-name="Trazado 898541" d="M1557.129,791.961a6.036,6.036,0,0,1-4.385-2.116.316.316,0,1,1,.46-.432,5.426,5.426,0,0,0,3.926,1.917,5.294,5.294,0,0,0,3.655-1.642.316.316,0,1,1,.438.454,5.91,5.91,0,0,1-4.093,1.819" transform="translate(-1330.398 -676.361)" fill="#363e44"/>
        <path id="Trazado_898542" data-name="Trazado 898542" d="M1621.46,729.231c-.626,1.372-.385,2.825.539,3.246s2.178-.349,2.8-1.721.385-2.825-.539-3.246-2.179.349-2.8,1.721" transform="translate(-1389.05 -623.31)" fill="#e2a18d"/>
        <path id="Trazado_898543" data-name="Trazado 898543" d="M1634.173,736.384a.316.316,0,0,1-.2-.556,1.692,1.692,0,0,0,.428-.584c.284-.624.156-1.208-.136-1.341a.486.486,0,0,0-.369.007.316.316,0,1,1-.222-.591,1.1,1.1,0,0,1,.853.01,1.594,1.594,0,0,1,.448,2.178,2.319,2.319,0,0,1-.593.8.313.313,0,0,1-.2.076" transform="translate(-1399.634 -628.317)" fill="#363e44"/>
        <path id="Trazado_898544" data-name="Trazado 898544" d="M1627.121,733.746a.32.32,0,0,1-.1-.016.316.316,0,0,1-.2-.4,8.984,8.984,0,0,0,.451-2.833,9.281,9.281,0,0,0-.113-1.445.316.316,0,0,1,.624-.1,9.889,9.889,0,0,1,.121,1.543,9.62,9.62,0,0,1-.483,3.031.317.317,0,0,1-.3.216" transform="translate(-1393.928 -624.419)" fill="#363e44"/>
        <path id="Trazado_898545" data-name="Trazado 898545" d="M1522.656,729.231c.626,1.372.385,2.825-.538,3.246s-2.179-.349-2.8-1.721-.385-2.825.538-3.246,2.179.349,2.8,1.721" transform="translate(-1301.531 -623.31)" fill="#e2a18d"/>
        <path id="Trazado_898546" data-name="Trazado 898546" d="M1523.787,736.384a.313.313,0,0,1-.2-.076,2.319,2.319,0,0,1-.593-.8,1.594,1.594,0,0,1,.448-2.178,1.1,1.1,0,0,1,.854-.01.316.316,0,1,1-.222.591.488.488,0,0,0-.369-.007c-.293.133-.421.717-.136,1.341a1.688,1.688,0,0,0,.428.583.316.316,0,0,1-.2.556" transform="translate(-1304.791 -628.316)" fill="#363e44"/>
        <path id="Trazado_898547" data-name="Trazado 898547" d="M1534.591,733.747a.316.316,0,0,1-.3-.217,9.611,9.611,0,0,1-.483-3.031,9.857,9.857,0,0,1,.121-1.544.316.316,0,1,1,.624.1,9.237,9.237,0,0,0-.113,1.444,8.978,8.978,0,0,0,.451,2.833.315.315,0,0,1-.2.4.32.32,0,0,1-.1.016" transform="translate(-1314.248 -624.42)" fill="#363e44"/>
        <path id="Trazado_898548" data-name="Trazado 898548" d="M1578.2,749.892a.316.316,0,0,1-.169-.049,1.112,1.112,0,0,1-.448-1.591,2.409,2.409,0,0,0,.185-.539,2,2,0,0,0-.032-.861.316.316,0,1,1,.613-.151,2.619,2.619,0,0,1,.039,1.133,3.034,3.034,0,0,1-.227.672c-.094.212-.137.318-.109.437a.652.652,0,0,0,.317.366.316.316,0,0,1-.169.582" transform="translate(-1351.61 -639.646)" fill="#363e44"/>
        <path id="Trazado_898549" data-name="Trazado 898549" d="M1585.048,770.572a1.164,1.164,0,0,1-.573-.151.316.316,0,1,1,.31-.55.476.476,0,0,0,.616-.1.454.454,0,0,0-.006-.477.316.316,0,0,1,.546-.316,1.079,1.079,0,0,1-.023,1.154,1.053,1.053,0,0,1-.871.437" transform="translate(-1357.522 -658.806)" fill="#363e44"/>
        <path id="Trazado_898550" data-name="Trazado 898550" d="M1541.31,733.175h0l.018,0c.01.037.035.085.074.084a1.118,1.118,0,0,1,.1.206c.057.107.22.012.163-.1-.038-.072.218.066.331.109.359.138.722.26,1.09.37.171.052.343.1.517.15a4.477,4.477,0,0,0,.634.16,4.688,4.688,0,0,1,.726.833,4.824,4.824,0,0,1-1.538.344c0-.012-.005-.023-.007-.035a7.356,7.356,0,0,0-2.073-.5.955.955,0,1,1-.035-1.624" transform="translate(-1319.562 -628.262)" fill="#fff"/>
        <path id="Trazado_898551" data-name="Trazado 898551" d="M1549.366,733.15a3.85,3.85,0,0,1,1.462.865,1.56,1.56,0,0,1-.532,1,1.586,1.586,0,0,1-.252.177,3.607,3.607,0,0,1-1.252-.133,3.429,3.429,0,0,1-.842-.391,1.568,1.568,0,0,1-.03-1.634,3.706,3.706,0,0,1,1.446.117" transform="translate(-1326.155 -628.12)" fill="#363e44"/>
        <path id="Trazado_898552" data-name="Trazado 898552" d="M1595.657,734.12h0l-.018,0c-.01.037-.035.085-.074.084a1.155,1.155,0,0,0-.1.207c-.057.107-.22.012-.163-.1.038-.072-.218.066-.331.109-.358.138-.722.26-1.09.37-.171.051-.343.1-.517.15a4.5,4.5,0,0,1-.634.16,4.679,4.679,0,0,0-.726.833,4.828,4.828,0,0,0,1.538.344c0-.012.005-.023.007-.035a7.356,7.356,0,0,1,2.073-.5.955.955,0,1,0,.034-1.624" transform="translate(-1364.111 -629.071)" fill="#fff"/>
        <path id="Trazado_898553" data-name="Trazado 898553" d="M1598.542,734.095a3.85,3.85,0,0,0-1.462.865,1.561,1.561,0,0,0,.532,1,1.589,1.589,0,0,0,.252.177,3.607,3.607,0,0,0,1.252-.133,3.438,3.438,0,0,0,.842-.391,1.569,1.569,0,0,0,.03-1.634,3.707,3.707,0,0,0-1.446.117" transform="translate(-1368.459 -628.93)" fill="#363e44"/>
        <path id="Trazado_898554" data-name="Trazado 898554" d="M1523.58,645.334s-.862-2.851-4.216-.845-12.616,3.168-13.794-3.907,4.65-6.826,6.821-4.339,3.1,5.77,6.973,5.577a3.887,3.887,0,0,1,4.216,3.514" transform="translate(-1289.92 -543.85)" fill="#d87355"/>
        <path id="Trazado_898555" data-name="Trazado 898555" d="M1511.324,681.846a8.929,8.929,0,0,1-2.151-.254c-2.276-.563-4.673-2.5-4.851-5.108a.316.316,0,0,1,.63-.043c.157,2.308,2.319,4.03,4.373,4.538a11.232,11.232,0,0,0,6.9-.84.316.316,0,0,1,.238.585,13.753,13.753,0,0,1-5.138,1.122" transform="translate(-1288.983 -579.401)" fill="#efbc73"/>
        <rect id="Rectángulo_403031" data-name="Rectángulo 403031" width="66.881" height="14.863" transform="translate(77.484 236.023)" fill="#d87355"/>
        <rect id="Rectángulo_403032" data-name="Rectángulo 403032" width="69.853" height="9.111" transform="translate(76.183 243.825)" fill="#8f4d4b"/>
        <rect id="Rectángulo_403033" data-name="Rectángulo 403033" width="69.853" height="9.111" transform="translate(75.936 232.891)" fill="#8f4d4b"/>
        <rect id="Rectángulo_403034" data-name="Rectángulo 403034" width="8.459" height="93.173" transform="matrix(0.392, -0.92, 0.92, 0.392, 125.492, 216.507)" fill="#8f4d4b"/>
        <rect id="Rectángulo_403035" data-name="Rectángulo 403035" width="10.046" height="3.491" transform="translate(128.231 218.389) rotate(-66.904)" fill="#d87355"/>
        <rect id="Rectángulo_403036" data-name="Rectángulo 403036" width="42.129" height="24.672" transform="translate(100.277 224.014) rotate(-66.906)" fill="#8f4d4b"/>
        <rect id="Rectángulo_403037" data-name="Rectángulo 403037" width="4.655" height="26.301" transform="translate(115.231 186.869) rotate(-66.905)" fill="#d87355"/>
        <rect id="Rectángulo_403038" data-name="Rectángulo 403038" width="4.655" height="26.301" transform="translate(99.146 224.291) rotate(-66.905)" fill="#d87355"/>
        <path id="Trazado_898556" data-name="Trazado 898556" d="M833.316,1299.8a.317.317,0,0,1-.122-.025l-23.918-10.073a.316.316,0,0,1,.245-.582l23.918,10.073a.316.316,0,0,1-.122.607" transform="translate(-693.3 -1104.581)" fill="#fff"/>
        <path id="Trazado_898557" data-name="Trazado 898557" d="M720.961,1559.735a.314.314,0,0,1-.126-.026l-23.995-10.485a.316.316,0,0,1,.253-.578l23.995,10.485a.316.316,0,0,1-.127.6" transform="translate(-596.968 -1326.937)" fill="#fff"/>
      </g>
    </g>
  </g>
</svg>
