<svg xmlns="http://www.w3.org/2000/svg" xmlns:xlink="http://www.w3.org/1999/xlink" width="296.118" height="278.67" viewBox="0 0 296.118 278.67">
  <defs>
    <clipPath id="clip-path">
      <rect id="Rectángulo_402349" data-name="Rectángulo 402349" width="295" height="225.635" fill="none"/>
    </clipPath>
    <clipPath id="clip-path-3">
      <rect id="Rectángulo_402339" data-name="Rectángulo 402339" width="92.835" height="13.3" fill="none"/>
    </clipPath>
    <clipPath id="clip-path-4">
      <rect id="Rectángulo_402343" data-name="Rectángulo 402343" width="53.513" height="2.16" fill="#775e33"/>
    </clipPath>
    <clipPath id="clip-path-6">
      <rect id="Rectángulo_402346" data-name="Rectángulo 402346" width="8.899" height="2.656" fill="none"/>
    </clipPath>
    <clipPath id="clip-path-7">
      <rect id="Rectángulo_402347" data-name="Rectángulo 402347" width="8.899" height="2.747" fill="none"/>
    </clipPath>
  </defs>
  <g id="Grupo_1100836" data-name="Grupo 1100836" transform="translate(-703.882 -5298.379)">
    <g id="Grupo_1100356" data-name="Grupo 1100356" transform="translate(-0.849 2187.379)">
      <circle id="Elipse_11542" data-name="Elipse 11542" cx="135.5" cy="135.5" r="135.5" transform="translate(704.73 3111)" fill="#e7d8bb"/>
      <path id="Sustracción_7" data-name="Sustracción 7" d="M18234.73,11809h-130v-120h130a60,60,0,1,1,0,120Z" transform="translate(-17295 -8502.497)" fill="#a1cad2"/>
      <g id="Grupo_1100270" data-name="Grupo 1100270" transform="translate(810 3180.771) rotate(-90)">
        <rect id="Rectángulo_401993" data-name="Rectángulo 401993" width="6.248" height="6.248" transform="translate(0 47.822)" fill="#c59d55"/>
        <rect id="Rectángulo_401994" data-name="Rectángulo 401994" width="6.248" height="6.248" transform="translate(0 23.911)" fill="#c59d55"/>
        <rect id="Rectángulo_401995" data-name="Rectángulo 401995" width="6.248" height="6.248" fill="#c59d55"/>
        <rect id="Rectángulo_401996" data-name="Rectángulo 401996" width="6.247" height="6.248" transform="translate(19.299 47.822)" fill="#c59d55"/>
        <rect id="Rectángulo_401997" data-name="Rectángulo 401997" width="6.248" height="6.248" transform="translate(19.299 23.911)" fill="#c59d55"/>
        <rect id="Rectángulo_401998" data-name="Rectángulo 401998" width="6.248" height="6.248" transform="translate(19.299)" fill="#c59d55"/>
      </g>
      <g id="Grupo_1100272" data-name="Grupo 1100272" transform="translate(930.932 3259.274) rotate(-90)">
        <rect id="Rectángulo_401993-2" data-name="Rectángulo 401993" width="6.248" height="6.248" transform="translate(0 47.822)" fill="#c59d55"/>
        <rect id="Rectángulo_401994-2" data-name="Rectángulo 401994" width="6.248" height="6.248" transform="translate(0 23.911)" fill="#c59d55"/>
        <rect id="Rectángulo_401995-2" data-name="Rectángulo 401995" width="6.248" height="6.248" fill="#c59d55"/>
        <rect id="Rectángulo_401996-2" data-name="Rectángulo 401996" width="6.247" height="6.248" transform="translate(19.299 47.822)" fill="#c59d55"/>
        <rect id="Rectángulo_401997-2" data-name="Rectángulo 401997" width="6.248" height="6.248" transform="translate(19.299 23.911)" fill="#c59d55"/>
        <rect id="Rectángulo_401998-2" data-name="Rectángulo 401998" width="6.248" height="6.248" transform="translate(19.299)" fill="#c59d55"/>
      </g>
      <g id="Grupo_1100271" data-name="Grupo 1100271" transform="translate(810 3335.047) rotate(-90)">
        <rect id="Rectángulo_401993-3" data-name="Rectángulo 401993" width="6.248" height="6.248" transform="translate(0 47.822)" fill="#c59d55"/>
        <rect id="Rectángulo_401994-3" data-name="Rectángulo 401994" width="6.248" height="6.248" transform="translate(0 23.911)" fill="#c59d55"/>
        <rect id="Rectángulo_401995-3" data-name="Rectángulo 401995" width="6.248" height="6.248" fill="#c59d55"/>
        <rect id="Rectángulo_401996-3" data-name="Rectángulo 401996" width="6.247" height="6.248" transform="translate(19.299 47.822)" fill="#c59d55"/>
        <rect id="Rectángulo_401997-3" data-name="Rectángulo 401997" width="6.248" height="6.248" transform="translate(19.299 23.911)" fill="#c59d55"/>
        <rect id="Rectángulo_401998-3" data-name="Rectángulo 401998" width="6.248" height="6.248" transform="translate(19.299)" fill="#c59d55"/>
      </g>
    </g>
    <g id="Grupo_1100479" data-name="Grupo 1100479" transform="translate(705 5351.414)">
      <g id="Grupo_1100478" data-name="Grupo 1100478" clip-path="url(#clip-path)">
        <g id="Grupo_1100477" data-name="Grupo 1100477" transform="translate(0 -0.001)">
          <g id="Grupo_1100476" data-name="Grupo 1100476" clip-path="url(#clip-path)">
            <path id="Trazado_897442" data-name="Trazado 897442" d="M875.7,958.908a20.465,20.465,0,0,1-20.466,20.466H738.6V938.44H855.231c.669,0,1.333.032,1.985.1a20.485,20.485,0,0,1,16.964,12.621c.079.193.154.385.227.582a20.426,20.426,0,0,1,1.29,7.169" transform="translate(-593.818 -754.482)" fill="#147a8f"/>
            <g id="Grupo_1100463" data-name="Grupo 1100463" transform="translate(187.755 183.958)" opacity="0.38" style="mix-blend-mode: multiply;isolation: isolate">
              <g id="Grupo_1100462" data-name="Grupo 1100462">
                <g id="Grupo_1100461" data-name="Grupo 1100461" clip-path="url(#clip-path-3)">
                  <path id="Trazado_897443" data-name="Trazado 897443" d="M1050.647,951.739,964.515,941.21l-6.7-2.77h73.658c.67,0,1.333.032,1.985.1a20.484,20.484,0,0,1,16.964,12.621c.079.193.154.385.227.582" transform="translate(-957.813 -938.44)" fill="#5c76cc"/>
                </g>
              </g>
            </g>
            <path id="Trazado_897444" data-name="Trazado 897444" d="M456.89,958.911a20.466,20.466,0,0,1-20.466,20.466h-126.2a2.9,2.9,0,0,1,0-5.8h2.9V944.244h-2.9a2.9,2.9,0,0,1,0-5.8h126.2a20.467,20.467,0,0,1,20.466,20.467" transform="translate(-247.079 -754.485)" fill="#a1cad2"/>
            <path id="Trazado_897445" data-name="Trazado 897445" d="M336.907,997.366V968.032h123.3a14.667,14.667,0,0,1,0,29.334Z" transform="translate(-270.865 -778.273)" fill="#fff"/>
            <path id="Trazado_897446" data-name="Trazado 897446" d="M382.944,1029.366l5.357-5.279,5.357,5.279V1014.3H382.944Z" transform="translate(-307.878 -815.475)" fill="#147a8f"/>
            <path id="Trazado_897447" data-name="Trazado 897447" d="M374.255,750.086a20.465,20.465,0,0,0,20.466,20.466H511.35V729.618H394.721c-.67,0-1.333.032-1.985.1a20.485,20.485,0,0,0-16.964,12.621c-.079.193-.154.385-.227.582a20.426,20.426,0,0,0-1.29,7.169" transform="translate(-300.892 -586.594)" fill="#8f4d4b"/>
            <path id="Trazado_897448" data-name="Trazado 897448" d="M741.905,750.09a20.466,20.466,0,0,0,20.466,20.466h126.2a2.9,2.9,0,0,0,0-5.8h-2.9V735.423h2.9a2.9,2.9,0,0,0,0-5.8h-126.2a20.467,20.467,0,0,0-20.466,20.467" transform="translate(-596.473 -586.598)" fill="#be6763"/>
            <path id="Trazado_897449" data-name="Trazado 897449" d="M909.459,788.545V759.211h-123.3a14.667,14.667,0,0,0,0,29.334Z" transform="translate(-620.259 -610.386)" fill="#fff"/>
            <path id="Trazado_897450" data-name="Trazado 897450" d="M1381.037,810.673l-5.357-5.279-5.357,5.279V795.612h10.714Z" transform="translate(-1101.706 -639.652)" fill="#f5b3b1"/>
            <path id="Trazado_897451" data-name="Trazado 897451" d="M744.852,762.259a.741.741,0,0,1-.525-.218,21.209,21.209,0,0,1,15-36.207h126.2a.743.743,0,0,1,0,1.486h-126.2a19.723,19.723,0,0,0-13.946,33.67.743.743,0,0,1-.525,1.268" transform="translate(-593.426 -583.552)" fill="#2f2f33"/>
            <path id="Trazado_897452" data-name="Trazado 897452" d="M1061.954,793.308H997.88a.743.743,0,1,1,0-1.485h64.074a.743.743,0,1,1,0,1.485" transform="translate(-801.673 -636.605)" fill="#2f2f33"/>
            <path id="Trazado_897453" data-name="Trazado 897453" d="M945.761,854.34H877.779a.743.743,0,1,1,0-1.486h67.982a.743.743,0,0,1,0,1.486" transform="translate(-705.115 -685.673)" fill="#2f2f33"/>
            <path id="Trazado_897454" data-name="Trazado 897454" d="M609.094,121.4H557.741L583.22,77Zm-49.712-.951H607.44L583.226,78.894Z" transform="translate(-448.41 -61.901)" fill="#9e7e44"/>
            <rect id="Rectángulo_402340" data-name="Rectángulo 402340" width="0.951" height="11.841" transform="translate(134.338 5.643)" fill="#9e7e44"/>
            <path id="Trazado_897455" data-name="Trazado 897455" d="M944.155,59.415H935.74a2.6,2.6,0,0,1-2.588-2.588V45.764a2.6,2.6,0,0,1,2.588-2.588h8.415a2.6,2.6,0,0,1,2.588,2.588V56.827a2.6,2.6,0,0,1-2.588,2.588" transform="translate(-750.232 -34.712)" fill="#c59d55"/>
            <path id="Trazado_897456" data-name="Trazado 897456" d="M1016.867,33.427c-1.335,0-2.578-.053-3.727-.143-8.755-.678-13.936-3.476-14.152-3.6l1.712-3.127a34.891,34.891,0,0,0,12.918,3.183c7.434.542,19.238-.544,33.259-8.8l1.808,3.072c-12.766,7.516-23.875,9.407-31.818,9.407" transform="translate(-803.161 -16.841)" fill="#9e7e44"/>
            <path id="Trazado_897457" data-name="Trazado 897457" d="M985.863,34.426a5.643,5.643,0,1,1-5.643-5.643,5.643,5.643,0,0,1,5.643,5.643" transform="translate(-783.536 -23.14)" fill="#775e33"/>
            <path id="Trazado_897458" data-name="Trazado 897458" d="M1230.4,5.639A5.643,5.643,0,1,1,1224.755,0a5.643,5.643,0,0,1,5.643,5.643" transform="translate(-980.136 0.004)" fill="#775e33"/>
            <path id="Trazado_897459" data-name="Trazado 897459" d="M714.941,33.427c-7.942,0-19.05-1.891-31.818-9.407l1.808-3.072c14.021,8.254,25.825,9.339,33.259,8.8a34.891,34.891,0,0,0,12.918-3.183l1.712,3.127c-.216.119-5.4,2.917-14.152,3.6-1.148.089-2.393.143-3.727.143" transform="translate(-549.214 -16.841)" fill="#9e7e44"/>
            <path id="Trazado_897460" data-name="Trazado 897460" d="M903.482,34.426a5.643,5.643,0,1,0,5.643-5.643,5.643,5.643,0,0,0-5.643,5.643" transform="translate(-726.377 -23.14)" fill="#775e33"/>
            <path id="Trazado_897461" data-name="Trazado 897461" d="M658.948,5.639A5.643,5.643,0,1,0,664.591,0a5.643,5.643,0,0,0-5.643,5.643" transform="translate(-529.778 0.004)" fill="#775e33"/>
            <rect id="Rectángulo_402341" data-name="Rectángulo 402341" width="5.297" height="9.725" transform="translate(187.068 23.067)" fill="#9e7e44"/>
            <rect id="Rectángulo_402342" data-name="Rectángulo 402342" width="5.297" height="2.912" transform="translate(187.068 24.703)" fill="#c59d55"/>
            <path id="Trazado_897462" data-name="Trazado 897462" d="M952.757,252.008H946.38a1.261,1.261,0,0,1-1.261-1.261V162.111a1.261,1.261,0,0,1,1.261-1.261h6.377a1.261,1.261,0,0,1,1.261,1.261v88.636a1.261,1.261,0,0,1-1.261,1.261" transform="translate(-759.852 -129.319)" fill="#c59d55"/>
            <path id="Trazado_897463" data-name="Trazado 897463" d="M942.567,605.692H926.285v-6.543a2.822,2.822,0,0,1,2.822-2.822h10.639a2.821,2.821,0,0,1,2.821,2.822Z" transform="translate(-744.71 -479.431)" fill="#9e7e44"/>
            <path id="Trazado_897464" data-name="Trazado 897464" d="M946.487,534.807h-10.58a1.2,1.2,0,0,1-1.2-1.2v-7.2a1.2,1.2,0,0,1,1.2-1.2h10.58a1.2,1.2,0,0,1,1.2,1.2v7.2a1.2,1.2,0,0,1-1.2,1.2" transform="translate(-751.481 -422.249)" fill="#9e7e44"/>
            <path id="Trazado_897465" data-name="Trazado 897465" d="M973.827,238.522h-.016a.713.713,0,0,1-.713-.713V171.745a.713.713,0,0,1,.713-.713h.016a.713.713,0,0,1,.713.713V237.81a.713.713,0,0,1-.713.713" transform="translate(-782.347 -137.505)" fill="#9e7e44"/>
            <path id="Trazado_897466" data-name="Trazado 897466" d="M955.912,238.522H955.9a.713.713,0,0,1-.713-.713V171.745a.713.713,0,0,1,.713-.713h.016a.713.713,0,0,1,.713.713V237.81a.713.713,0,0,1-.713.713" transform="translate(-767.944 -137.505)" fill="#9e7e44"/>
            <path id="Trazado_897467" data-name="Trazado 897467" d="M604.753,295.6a4.324,4.324,0,0,1-4.323,4.322H555.562a4.325,4.325,0,0,1-4.322-4.322Z" transform="translate(-443.183 -237.651)" fill="#775e33"/>
            <g id="Grupo_1100466" data-name="Grupo 1100466" transform="translate(108.057 57.945)" opacity="0.38" style="mix-blend-mode: multiply;isolation: isolate">
              <g id="Grupo_1100465" data-name="Grupo 1100465">
                <g id="Grupo_1100464" data-name="Grupo 1100464" clip-path="url(#clip-path-4)">
                  <path id="Trazado_897468" data-name="Trazado 897468" d="M604.753,295.6a4.292,4.292,0,0,1-.58,2.16H551.82a4.293,4.293,0,0,1-.58-2.16Z" transform="translate(-551.24 -295.596)" fill="#775e33"/>
                </g>
              </g>
            </g>
            <path id="Trazado_897469" data-name="Trazado 897469" d="M681.712,73.875a1.942,1.942,0,1,1-1.942-1.942,1.942,1.942,0,0,1,1.942,1.942" transform="translate(-544.958 -57.832)" fill="#775e33"/>
            <path id="Trazado_897470" data-name="Trazado 897470" d="M1169.26,121.4h-51.354L1143.385,77Zm-49.712-.951h48.058l-24.214-41.557Z" transform="translate(-898.768 -61.901)" fill="#9e7e44"/>
            <rect id="Rectángulo_402344" data-name="Rectángulo 402344" width="0.951" height="6.198" transform="translate(244.144 11.286)" fill="#9e7e44"/>
            <path id="Trazado_897471" data-name="Trazado 897471" d="M1164.917,295.6a4.324,4.324,0,0,1-4.323,4.322h-44.868a4.325,4.325,0,0,1-4.322-4.322Z" transform="translate(-893.541 -237.651)" fill="#775e33"/>
            <g id="Grupo_1100469" data-name="Grupo 1100469" transform="translate(217.862 57.945)" opacity="0.38" style="mix-blend-mode: multiply;isolation: isolate">
              <g id="Grupo_1100468" data-name="Grupo 1100468">
                <g id="Grupo_1100467" data-name="Grupo 1100467" clip-path="url(#clip-path-4)">
                  <path id="Trazado_897472" data-name="Trazado 897472" d="M1164.917,295.6a4.291,4.291,0,0,1-.58,2.16h-52.353a4.293,4.293,0,0,1-.58-2.16Z" transform="translate(-1111.403 -295.596)" fill="#775e33"/>
                </g>
              </g>
            </g>
            <path id="Trazado_897473" data-name="Trazado 897473" d="M1241.876,73.875a1.942,1.942,0,1,1-1.942-1.942,1.942,1.942,0,0,1,1.942,1.942" transform="translate(-995.315 -57.832)" fill="#775e33"/>
            <path id="Trazado_897474" data-name="Trazado 897474" d="M946.87,373.562H935.525a.818.818,0,0,1-.818-.818v-1.606a.818.818,0,0,1,.818-.818H946.87a.818.818,0,0,1,.818.818v1.606a.818.818,0,0,1-.818.818" transform="translate(-751.481 -297.727)" fill="#9e7e44"/>
            <g id="Grupo_1100472" data-name="Grupo 1100472" transform="translate(185.267 75.834)" opacity="0.38" style="mix-blend-mode: multiply;isolation: isolate">
              <g id="Grupo_1100471" data-name="Grupo 1100471">
                <g id="Grupo_1100470" data-name="Grupo 1100470" clip-path="url(#clip-path-6)">
                  <path id="Trazado_897475" data-name="Trazado 897475" d="M945.119,386.857v.765l8.9,1.891v-2.656Z" transform="translate(-945.119 -386.857)" fill="#5c76cc"/>
                </g>
              </g>
            </g>
            <g id="Grupo_1100475" data-name="Grupo 1100475" transform="translate(185.267 112.559)" opacity="0.38" style="mix-blend-mode: multiply;isolation: isolate">
              <g id="Grupo_1100474" data-name="Grupo 1100474">
                <g id="Grupo_1100473" data-name="Grupo 1100473" clip-path="url(#clip-path-7)">
                  <path id="Trazado_897476" data-name="Trazado 897476" d="M945.119,574.2v1.006l8.9,1.741V574.2Z" transform="translate(-945.119 -574.201)" fill="#5c76cc"/>
                </g>
              </g>
            </g>
            <path id="Trazado_897477" data-name="Trazado 897477" d="M818.7,660.865H729.767V646.6a2.5,2.5,0,0,1,2.5-2.5H816.2a2.5,2.5,0,0,1,2.5,2.5Z" transform="translate(-586.714 -517.84)" fill="#775e33"/>
            <path id="Trazado_897478" data-name="Trazado 897478" d="M809.686,671.1h-92.2a.959.959,0,0,1-.959-.959V667.1a.959.959,0,0,1,.959-.959h92.2a.959.959,0,0,1,.959.959v3.047a.959.959,0,0,1-.959.959" transform="translate(-576.069 -535.557)" fill="#9e7e44"/>
            <path id="Trazado_897479" data-name="Trazado 897479" d="M726.72,644.3a.743.743,0,0,1-.743-.743,3.245,3.245,0,0,1,3.241-3.241h32.039a.743.743,0,1,1,0,1.485H729.218a1.758,1.758,0,0,0-1.756,1.756.743.743,0,0,1-.743.743" transform="translate(-583.667 -514.794)" fill="#2f2f33"/>
            <path id="Trazado_897480" data-name="Trazado 897480" d="M1029.364,689.164H990.508a.743.743,0,0,1,0-1.486h38.856a.743.743,0,1,1,0,1.486" transform="translate(-795.746 -552.876)" fill="#2f2f33"/>
            <path id="Trazado_897481" data-name="Trazado 897481" d="M71.762,583.905a25.3,25.3,0,0,0-30.67,39.553A19.253,19.253,0,0,0,30.8,641.74a25.248,25.248,0,1,0,9.368,4.224L44.8,637.73l4.76-8.452a25.3,25.3,0,0,0,22.2-45.372M42.389,596.4a19.489,19.489,0,0,1,23.857-8.651l-8.7,15.456L47.367,621.28l-.032-.024-.016-.009a19.5,19.5,0,0,1-4.93-24.844m-4.137,37.5a13.386,13.386,0,0,1,4.722-4.816l-6.391,11.351a13.387,13.387,0,0,1,1.669-6.535M8.336,656.878a19.5,19.5,0,0,1,23.8-8.667l.017.009.037.015L13.311,681.764a19.489,19.489,0,0,1-4.974-24.885M43,658.393A19.567,19.567,0,0,1,44.444,663,19.45,19.45,0,0,1,18.4,684.629l2.965-5.267a9,9,0,0,0,3.439,3.314,2.919,2.919,0,0,0,2.865-5.088c-3.463-1.95-.984-7.57-.71-8.162l10.321-18.333a19.043,19.043,0,0,1,5.72,7.3M76.307,615.5a19.3,19.3,0,0,1-9.957,8.6,19.553,19.553,0,0,1-4.693,1.155,19.039,19.039,0,0,1-9.207-1.106l10.125-17.978c.364-.542,3.885-5.575,7.347-3.625a2.919,2.919,0,1,0,2.865-5.087,9,9,0,0,0-4.617-1.223l3.165-5.62A19.475,19.475,0,0,1,76.307,615.5" transform="translate(0 -466.834)" fill="#be6763"/>
            <path id="Trazado_897482" data-name="Trazado 897482" d="M532.572,936.141H349.316a.743.743,0,1,1,0-1.485H532.572a.743.743,0,1,1,0,1.485" transform="translate(-280.244 -751.439)" fill="#2f2f33"/>
            <path id="Trazado_897483" data-name="Trazado 897483" d="M476.139,1144.957H244.486a.743.743,0,1,1,0-1.485H476.139a.743.743,0,0,1,0,1.485" transform="translate(-195.963 -919.322)" fill="#2f2f33"/>
            <path id="Trazado_897484" data-name="Trazado 897484" d="M333.86,985.973a.743.743,0,0,1-.743-.743V964.986a.743.743,0,0,1,1.486,0v20.245a.743.743,0,0,1-.743.743" transform="translate(-267.818 -775.226)" fill="#2f2f33"/>
            <path id="Trazado_897485" data-name="Trazado 897485" d="M546.183,1012H478.2a.743.743,0,1,1,0-1.485h67.982a.743.743,0,1,1,0,1.485" transform="translate(-383.864 -812.429)" fill="#a6b7f7"/>
            <path id="Trazado_897486" data-name="Trazado 897486" d="M644.417,1063.262H576.435a.743.743,0,1,1,0-1.485h67.982a.743.743,0,1,1,0,1.485" transform="translate(-462.842 -853.641)" fill="#a6b7f7"/>
          </g>
        </g>
      </g>
    </g>
  </g>
</svg>
