<svg xmlns="http://www.w3.org/2000/svg" xmlns:xlink="http://www.w3.org/1999/xlink" width="295.051" height="248.623" viewBox="0 0 295.051 248.623">
  <defs>
    <clipPath id="clip-path">
      <rect id="Rectángulo_403074" data-name="Rectángulo 403074" width="295" height="248.622" fill="none"/>
    </clipPath>
    <clipPath id="clip-path-2">
      <rect id="Rectángulo_403043" data-name="Rectángulo 403043" width="6.04" height="14.406" fill="none"/>
    </clipPath>
    <clipPath id="clip-path-3">
      <rect id="Rectángulo_403044" data-name="Rectángulo 403044" width="12.418" height="8.694" fill="none"/>
    </clipPath>
    <clipPath id="clip-path-4">
      <rect id="Rectángulo_403045" data-name="Rectángulo 403045" width="3.098" height="10.563" fill="none"/>
    </clipPath>
    <clipPath id="clip-path-5">
      <rect id="Rectángulo_403046" data-name="Rectángulo 403046" width="11.214" height="9.249" fill="none"/>
    </clipPath>
    <clipPath id="clip-path-6">
      <rect id="Rectángulo_403047" data-name="Rectángulo 403047" width="8.753" height="12.615" fill="none"/>
    </clipPath>
    <clipPath id="clip-path-7">
      <rect id="Rectángulo_403048" data-name="Rectángulo 403048" width="72.984" height="91.395" fill="none"/>
    </clipPath>
    <clipPath id="clip-path-8">
      <rect id="Rectángulo_403049" data-name="Rectángulo 403049" width="11.682" height="21.556" fill="none"/>
    </clipPath>
    <clipPath id="clip-path-9">
      <rect id="Rectángulo_403050" data-name="Rectángulo 403050" width="27.079" height="59.335" fill="none"/>
    </clipPath>
    <clipPath id="clip-path-10">
      <rect id="Rectángulo_403051" data-name="Rectángulo 403051" width="37.399" height="50.599" fill="none"/>
    </clipPath>
    <clipPath id="clip-path-11">
      <rect id="Rectángulo_403052" data-name="Rectángulo 403052" width="5.245" height="5.246" fill="none"/>
    </clipPath>
    <clipPath id="clip-path-12">
      <rect id="Rectángulo_403053" data-name="Rectángulo 403053" width="3.744" height="3.736" fill="none"/>
    </clipPath>
    <clipPath id="clip-path-13">
      <rect id="Rectángulo_403054" data-name="Rectángulo 403054" width="47.307" height="59.498" fill="none"/>
    </clipPath>
    <clipPath id="clip-path-14">
      <rect id="Rectángulo_403055" data-name="Rectángulo 403055" width="0.581" height="5.498" fill="none"/>
    </clipPath>
    <clipPath id="clip-path-15">
      <rect id="Rectángulo_403056" data-name="Rectángulo 403056" width="6.613" height="2.361" fill="none"/>
    </clipPath>
    <clipPath id="clip-path-16">
      <rect id="Rectángulo_403057" data-name="Rectángulo 403057" width="1.843" height="1.099" fill="none"/>
    </clipPath>
    <clipPath id="clip-path-17">
      <rect id="Rectángulo_403058" data-name="Rectángulo 403058" width="0.571" height="4.572" fill="none"/>
    </clipPath>
    <clipPath id="clip-path-18">
      <rect id="Rectángulo_403059" data-name="Rectángulo 403059" width="3.605" height="12.702" fill="none"/>
    </clipPath>
    <clipPath id="clip-path-19">
      <rect id="Rectángulo_403060" data-name="Rectángulo 403060" width="1.125" height="4.476" fill="none"/>
    </clipPath>
    <clipPath id="clip-path-20">
      <rect id="Rectángulo_403061" data-name="Rectángulo 403061" width="3.305" height="12.2" fill="none"/>
    </clipPath>
    <clipPath id="clip-path-21">
      <rect id="Rectángulo_403062" data-name="Rectángulo 403062" width="0.845" height="4.375" fill="none"/>
    </clipPath>
    <clipPath id="clip-path-22">
      <rect id="Rectángulo_403063" data-name="Rectángulo 403063" width="0.716" height="3.825" fill="none"/>
    </clipPath>
    <clipPath id="clip-path-23">
      <rect id="Rectángulo_403064" data-name="Rectángulo 403064" width="1.114" height="3.62" fill="none"/>
    </clipPath>
    <clipPath id="clip-path-24">
      <rect id="Rectángulo_403065" data-name="Rectángulo 403065" width="0.603" height="1.171" fill="none"/>
    </clipPath>
    <clipPath id="clip-path-25">
      <rect id="Rectángulo_403066" data-name="Rectángulo 403066" width="17.017" height="5.608" fill="none"/>
    </clipPath>
    <clipPath id="clip-path-26">
      <rect id="Rectángulo_403067" data-name="Rectángulo 403067" width="11.675" height="9.493" fill="none"/>
    </clipPath>
    <clipPath id="clip-path-27">
      <rect id="Rectángulo_403068" data-name="Rectángulo 403068" width="19.122" height="26.684" fill="none"/>
    </clipPath>
    <clipPath id="clip-path-28">
      <rect id="Rectángulo_403069" data-name="Rectángulo 403069" width="8.305" height="8.535" fill="none"/>
    </clipPath>
    <clipPath id="clip-path-29">
      <rect id="Rectángulo_403070" data-name="Rectángulo 403070" width="1.815" height="14.686" fill="none"/>
    </clipPath>
    <clipPath id="clip-path-30">
      <rect id="Rectángulo_403071" data-name="Rectángulo 403071" width="1.487" height="12.687" fill="none"/>
    </clipPath>
    <clipPath id="clip-path-31">
      <rect id="Rectángulo_403072" data-name="Rectángulo 403072" width="2.257" height="10.097" fill="none"/>
    </clipPath>
  </defs>
  <g id="Grupo_1100834" data-name="Grupo 1100834" transform="translate(-180 -5836.91)">
    <g id="Grupo_1100833" data-name="Grupo 1100833">
      <g id="Grupo_1100524" data-name="Grupo 1100524" transform="translate(-524 58.222)">
        <g id="Grupo_1100273" data-name="Grupo 1100273" transform="translate(-0.68 2672)">
          <circle id="Elipse_11542" data-name="Elipse 11542" cx="120" cy="120" r="120" transform="translate(704.73 3111)" fill="#e7d8bb"/>
          <path id="Sustracción_7" data-name="Sustracción 7" d="M18234.73,11809h-130v-120h130a60,60,0,1,1,0,120Z" transform="translate(-17295 -8521)" fill="#a1cad2"/>
          <g id="Grupo_1100270" data-name="Grupo 1100270" transform="translate(810 3180.771) rotate(-90)">
            <rect id="Rectángulo_401993" data-name="Rectángulo 401993" width="6.248" height="6.248" transform="translate(0 47.822)" fill="#c59d55"/>
            <rect id="Rectángulo_401994" data-name="Rectángulo 401994" width="6.248" height="6.248" transform="translate(0 23.911)" fill="#c59d55"/>
            <rect id="Rectángulo_401995" data-name="Rectángulo 401995" width="6.248" height="6.248" fill="#c59d55"/>
            <rect id="Rectángulo_401996" data-name="Rectángulo 401996" width="6.247" height="6.248" transform="translate(19.299 47.822)" fill="#c59d55"/>
            <rect id="Rectángulo_401997" data-name="Rectángulo 401997" width="6.248" height="6.248" transform="translate(19.299 23.911)" fill="#c59d55"/>
            <rect id="Rectángulo_401998" data-name="Rectángulo 401998" width="6.248" height="6.248" transform="translate(19.299)" fill="#c59d55"/>
          </g>
          <g id="Grupo_1100272" data-name="Grupo 1100272" transform="translate(930.932 3240.771) rotate(-90)">
            <rect id="Rectángulo_401993-2" data-name="Rectángulo 401993" width="6.248" height="6.248" transform="translate(0 47.822)" fill="#c59d55"/>
            <rect id="Rectángulo_401994-2" data-name="Rectángulo 401994" width="6.248" height="6.248" transform="translate(0 23.911)" fill="#c59d55"/>
            <rect id="Rectángulo_401995-2" data-name="Rectángulo 401995" width="6.248" height="6.248" fill="#c59d55"/>
            <rect id="Rectángulo_401996-2" data-name="Rectángulo 401996" width="6.247" height="6.248" transform="translate(19.299 47.822)" fill="#c59d55"/>
            <rect id="Rectángulo_401997-2" data-name="Rectángulo 401997" width="6.248" height="6.248" transform="translate(19.299 23.911)" fill="#c59d55"/>
            <rect id="Rectángulo_401998-2" data-name="Rectángulo 401998" width="6.248" height="6.248" transform="translate(19.299)" fill="#c59d55"/>
          </g>
          <g id="Grupo_1100271" data-name="Grupo 1100271" transform="translate(810 3297.481) rotate(-90)">
            <rect id="Rectángulo_401993-3" data-name="Rectángulo 401993" width="6.248" height="6.248" transform="translate(0 47.822)" fill="#c59d55"/>
            <rect id="Rectángulo_401994-3" data-name="Rectángulo 401994" width="6.248" height="6.248" transform="translate(0 23.911)" fill="#c59d55"/>
            <rect id="Rectángulo_401995-3" data-name="Rectángulo 401995" width="6.248" height="6.248" fill="#c59d55"/>
            <rect id="Rectángulo_401996-3" data-name="Rectángulo 401996" width="6.247" height="6.248" transform="translate(19.299 47.822)" fill="#c59d55"/>
            <rect id="Rectángulo_401997-3" data-name="Rectángulo 401997" width="6.248" height="6.248" transform="translate(19.299 23.911)" fill="#c59d55"/>
            <rect id="Rectángulo_401998-3" data-name="Rectángulo 401998" width="6.248" height="6.248" transform="translate(19.299)" fill="#c59d55"/>
          </g>
        </g>
      </g>
    </g>
    <g id="Grupo_1100617" data-name="Grupo 1100617" transform="translate(180 5836.91)">
      <g id="Grupo_1100616" data-name="Grupo 1100616" clip-path="url(#clip-path)">
        <path id="Trazado_898567" data-name="Trazado 898567" d="M510.976,133.453c.109.065-.07.617-.7,1.932s-1.746,3.376-3.335,6.558a239.335,239.335,0,0,0-24.064,72.715c-.622,3.5-.95,5.822-1.235,7.253s-.463,1.981-.589,1.968-.181-.586-.12-2.048.2-3.815.661-7.361a205.612,205.612,0,0,1,24.2-73.141c1.746-3.122,3.044-5.091,3.861-6.3s1.209-1.637,1.318-1.572" transform="translate(-263.292 -54.765)" fill="#034c48"/>
        <path id="Trazado_898568" data-name="Trazado 898568" d="M476.576,202.91s-1.041-5.266-7.957-12.044-16.833-13.5-12.786-21.3,13.263-5.659,18.678,4.168,5.8,16.322,4.58,20.408-2.515,8.772-2.515,8.772" transform="translate(-252.626 -67.63)" fill="#088783"/>
        <path id="Trazado_898569" data-name="Trazado 898569" d="M492.06,211.481s.453-10.038,11.531-17.771,19.5-7.114,22.621-1.353.236,9.327-4.055,10.83-7.149.726-16.362,2.192-13.735,6.1-13.735,6.1" transform="translate(-267.865 -77.119)" fill="#088783"/>
        <g id="Grupo_1100528" data-name="Grupo 1100528" transform="translate(218.115 115.582)" opacity="0.56">
          <g id="Grupo_1100527" data-name="Grupo 1100527">
            <g id="Grupo_1100526" data-name="Grupo 1100526" clip-path="url(#clip-path-2)">
              <path id="Trazado_898570" data-name="Trazado 898570" d="M487.663,210.4s.621-7.358-.824-11.032-3.4-4.153-4.758-2.372,1.887,3.711,3.1,6.533,2.484,6.872,2.484,6.872" transform="translate(-481.755 -195.99)" fill="#3ee5e5"/>
            </g>
          </g>
        </g>
        <g id="Grupo_1100531" data-name="Grupo 1100531" transform="translate(226.529 121.105)" opacity="0.56">
          <g id="Grupo_1100530" data-name="Grupo 1100530">
            <g id="Grupo_1100529" data-name="Grupo 1100529" clip-path="url(#clip-path-3)">
              <path id="Trazado_898571" data-name="Trazado 898571" d="M496.015,214.045a18.729,18.729,0,0,1,6.281-7.117c4.773-3.443,6.7-.418,6,1.24s-3.149,1.273-6.554,2.085a11.663,11.663,0,0,0-5.723,3.792" transform="translate(-496.015 -205.351)" fill="#3ee5e5"/>
            </g>
          </g>
        </g>
        <path id="Trazado_898572" data-name="Trazado 898572" d="M494.6,168.685s.06-8.654-9.2-12.835-8.5-10.934-2.83-13.191,9.842,1.869,12.418,8.33-.386,17.7-.386,17.7" transform="translate(-262.246 -58.287)" fill="#088783"/>
        <path id="Trazado_898573" data-name="Trazado 898573" d="M507.006,174.006a40.7,40.7,0,0,1,13.749-6.155c7.5-1.585,11.151,1.622,14.611-4.284s-2.671-10.608-11.609-7.636c-11.8,3.922-16.751,18.075-16.751,18.075" transform="translate(-273.993 -63.608)" fill="#088783"/>
        <path id="Trazado_898574" data-name="Trazado 898574" d="M516.795,142.511s.332-12.6,7.153-21.346,13.36-6.42,16.13.173-4.981,7.718-13.7,13.6-9.585,7.571-9.585,7.571" transform="translate(-278.006 -47.392)" fill="#088783"/>
        <g id="Grupo_1100534" data-name="Grupo 1100534" transform="translate(229.74 98.235)" opacity="0.56">
          <g id="Grupo_1100533" data-name="Grupo 1100533" transform="translate(0)">
            <g id="Grupo_1100532" data-name="Grupo 1100532" clip-path="url(#clip-path-4)">
              <path id="Trazado_898575" data-name="Trazado 898575" d="M504.394,177.152s-1-6.019-2.411-8.071.338-3.27,1.546-1.929,1.023,5.059,1.008,6.426-.143,3.574-.143,3.574" transform="translate(-501.458 -166.589)" fill="#3ee5e5"/>
            </g>
          </g>
        </g>
        <g id="Grupo_1100537" data-name="Grupo 1100537" transform="translate(233.503 99.598)" opacity="0.56">
          <g id="Grupo_1100536" data-name="Grupo 1100536">
            <g id="Grupo_1100535" data-name="Grupo 1100535" clip-path="url(#clip-path-5)">
              <path id="Trazado_898576" data-name="Trazado 898576" d="M507.836,178.148a46.416,46.416,0,0,1,5.882-7.864c3.043-3.031,6.753-.3,4.778.735a56.71,56.71,0,0,0-8.324,5.05c-2.4,1.749-2.336,2.079-2.336,2.079" transform="translate(-507.836 -168.899)" fill="#3ee5e5"/>
            </g>
          </g>
        </g>
        <g id="Grupo_1100540" data-name="Grupo 1100540" transform="translate(240.623 78.663)" opacity="0.56">
          <g id="Grupo_1100539" data-name="Grupo 1100539">
            <g id="Grupo_1100538" data-name="Grupo 1100538" clip-path="url(#clip-path-6)">
              <path id="Trazado_898577" data-name="Trazado 898577" d="M519.9,146.03s2.223-7.153,4.695-10.52,3.446-2.049,3.967-.386-1.24,3.031-3.963,5.617a44.2,44.2,0,0,0-4.7,5.289" transform="translate(-519.903 -133.415)" fill="#3ee5e5"/>
            </g>
          </g>
        </g>
        <path id="Trazado_898578" data-name="Trazado 898578" d="M529.852,211.286c-1.529-1.959-3.971-3.994-7.275-3.351-5.994,1.162-4.867,8.461-1.168,11.487a9.89,9.89,0,0,0,4.272,1.923,76.311,76.311,0,0,1-5.074,8.537,8.558,8.558,0,0,0-7.186-5.222c-7.658-.743-7.511,8.555-4.331,12.071A11.042,11.042,0,0,0,513,239.458q-2.691,2.956-5.906,5.935c-.236.218-.466.431-.7.631-.938-3.156-3.221-7.593-8.62-8.124-8.49-.832-10.5,8.8-8.325,13.482a7.753,7.753,0,0,0,3.841,3.859c-20.857,10.8-38.928,2.708-41.967-5.351-3.4-9.027-4.649-29.9,14.414-44.51.532,2.791,2.03,7.835,5.894,7.711,5.328-.165,10.325-1.664,9.157-6.933a13.821,13.821,0,0,0-4.614-7.074c1.463-.7,3-1.357,4.614-1.988q3.018-1.177,5.93-2.041c-.248,2.513-.189,6.148,1.918,7.44,3.351,2.053,8.974,1.941,10.307-3.28a8.793,8.793,0,0,0-.909-6.6,69.867,69.867,0,0,1,8.331-.6c-.183.985-.384,2.124-.6,3.393-.837,4.968,4.5,8.189,9.488,4.915,3.2-2.1,1.958-5.552.648-7.753a54.762,54.762,0,0,1,16.5,4.519s.195,5.64-2.548,14.19" transform="translate(-250.335 -78.781)" fill="#088783"/>
        <path id="Trazado_898579" data-name="Trazado 898579" d="M533.84,202.179c.017.093-.527.307-1.947.707-.71.2-1.64.443-2.826.752L524.759,205c-.863.252-1.763.641-2.759,1-.989.377-2.068.746-3.2,1.206-2.252.979-4.858,2.011-7.71,3.452a151.013,151.013,0,0,0-20.78,12.279,170.262,170.262,0,0,0-18.748,15.231l-3.251,3.121c-1.006.985-1.893,1.957-2.753,2.836s-1.659,1.7-2.371,2.48l-1.951,2.2c-2.444,2.653-3.879,4.548-4.872,5.644-.972,1.113-1.4,1.511-1.474,1.454s.2-.562,1.048-1.78a72.306,72.306,0,0,1,4.559-5.953l1.9-2.273c.7-.809,1.5-1.638,2.33-2.552s1.726-1.9,2.725-2.906l3.237-3.187a159.6,159.6,0,0,1,18.833-15.44,142.941,142.941,0,0,1,21.023-12.3c2.9-1.422,5.548-2.428,7.841-3.37,1.158-.443,2.259-.791,3.267-1.145,1.017-.332,1.935-.7,2.818-.922l4.409-1.183c1.216-.241,2.174-.408,2.906-.531,1.466-.241,2.043-.277,2.06-.183" transform="translate(-252.618 -82.926)" fill="#7af4f1"/>
        <path id="Trazado_898580" data-name="Trazado 898580" d="M486.551,291.762c-.092.024-.222-.093-.409-.424s-.407-.885-.814-1.69c-.1-.2-.193-.426-.312-.661l-.405-.75c-.266-.549-.661-1.126-1.064-1.805a23.314,23.314,0,0,0-8.773-7.944c-.716-.333-1.329-.67-1.9-.88l-.787-.329c-.245-.1-.477-.168-.688-.245-.841-.324-1.415-.484-1.762-.642s-.477-.272-.462-.366.172-.155.56-.161a7.925,7.925,0,0,1,1.932.233c.23.051.483.1.75.172l.857.27a20.29,20.29,0,0,1,2.064.812,21.8,21.8,0,0,1,9.287,8.409,20.079,20.079,0,0,1,1.012,1.974l.353.825c.1.259.171.506.245.73a7.907,7.907,0,0,1,.424,1.9c.032.387-.013.549-.105.573" transform="translate(-258.48 -113.157)" fill="#7af4f1"/>
        <path id="Trazado_898581" data-name="Trazado 898581" d="M507.49,264.308c-.078.054-.227,0-.483-.2s-.6-.582-1.159-1.11a21.468,21.468,0,0,0-14.692-6.543c-.768-.063-1.277-.064-1.6-.119s-.46-.13-.473-.224.1-.2.415-.309a6.386,6.386,0,0,1,1.641-.321,10.1,10.1,0,0,1,1.43-.057,17.589,17.589,0,0,1,1.9.127,19.253,19.253,0,0,1,9.834,4.38,17.5,17.5,0,0,1,1.366,1.328,10.024,10.024,0,0,1,.914,1.1,6.373,6.373,0,0,1,.86,1.435c.127.31.126.461.048.515" transform="translate(-266.644 -104.775)" fill="#7af4f1"/>
        <path id="Trazado_898582" data-name="Trazado 898582" d="M530.349,252.544c-.081.05-.242-.028-.525-.3s-.668-.76-1.306-1.448a27.224,27.224,0,0,0-17.314-9.337c-.925-.155-1.542-.206-1.926-.3s-.539-.178-.541-.273.146-.184.539-.263a8.761,8.761,0,0,1,2.007-.138c.244.005.509,0,.8.022l.923.094a22.671,22.671,0,0,1,2.261.377,24.646,24.646,0,0,1,11.422,6.16,22.779,22.779,0,0,1,1.558,1.683l.586.72c.173.228.317.452.456.652a8.754,8.754,0,0,1,.988,1.753c.15.373.158.546.077.6" transform="translate(-274.702 -98.649)" fill="#7af4f1"/>
        <path id="Trazado_898583" data-name="Trazado 898583" d="M554.752,238.564c-.08.051-.247-.034-.549-.329s-.72-.814-1.4-1.562A35.36,35.36,0,0,0,534.818,225.2c-.963-.3-1.61-.453-2-.605s-.543-.264-.53-.359.184-.158.612-.171a10.57,10.57,0,0,1,2.137.186,29.738,29.738,0,0,1,18.546,11.822,10.524,10.524,0,0,1,1.071,1.86c.169.394.184.576.1.627" transform="translate(-284.356 -91.92)" fill="#7af4f1"/>
        <path id="Trazado_898584" data-name="Trazado 898584" d="M561.056,216.51c-.152.131-.412.054-.983-.315a11.6,11.6,0,0,0-6.692-2.261c-.678-.053-.932-.15-.972-.346-.038-.175.142-.418.876-.622a7.95,7.95,0,0,1,7.451,2.518c.46.608.456.911.32,1.027" transform="translate(-292.606 -87.296)" fill="#7af4f1"/>
        <path id="Trazado_898585" data-name="Trazado 898585" d="M579.943,213.877c-.175.1-.443-.08-1.044-.717a15.63,15.63,0,0,0-7.764-4.915c-.833-.271-1.111-.436-1.094-.637.013-.177.317-.358,1.266-.321a11.149,11.149,0,0,1,8.385,5.308c.44.843.407,1.195.253,1.282" transform="translate(-299.836 -85.038)" fill="#7af4f1"/>
        <path id="Trazado_898586" data-name="Trazado 898586" d="M456.337,248.551c.119-.13.575.01,1.606.927a21.345,21.345,0,0,1,6.386,13.188c.08,1.378-.093,1.821-.268,1.834-.2.017-.375-.4-.693-1.686a29.561,29.561,0,0,0-6.137-12.675c-.811-1.047-1.032-1.441-.893-1.589" transform="translate(-253.203 -101.941)" fill="#7af4f1"/>
        <path id="Trazado_898587" data-name="Trazado 898587" d="M467.708,228.809c.035-.088.185-.121.522-.063a6.716,6.716,0,0,1,1.616.534,16.078,16.078,0,0,1,2.931,1.7,20.406,20.406,0,0,1,6.75,8.641,16.076,16.076,0,0,1,.941,3.256,6.71,6.71,0,0,1,.127,1.7c-.025.34-.093.477-.187.49s-.206-.1-.342-.4-.277-.806-.542-1.546a22.969,22.969,0,0,0-10.136-12.977c-.654-.435-1.108-.69-1.369-.9s-.346-.342-.31-.43" transform="translate(-257.877 -93.826)" fill="#7af4f1"/>
        <path id="Trazado_898588" data-name="Trazado 898588" d="M503.757,203.411c.071-.063.218-.028.484.164a6.932,6.932,0,0,1,1.175,1.134,23.036,23.036,0,0,1,5.118,15.921,6.947,6.947,0,0,1-.294,1.606c-.105.311-.2.424-.3.415s-.176-.14-.236-.458-.084-.82-.145-1.578a29.564,29.564,0,0,0-4.927-15.328c-.392-.651-.667-1.073-.8-1.367s-.146-.447-.075-.51" transform="translate(-272.643 -83.439)" fill="#7af4f1"/>
        <path id="Trazado_898589" data-name="Trazado 898589" d="M536.816,196.06c.149-.093.515.1,1.151,1.079a15.21,15.21,0,0,1,1.355,12.185c-.407,1.092-.719,1.363-.886,1.3-.192-.065-.206-.451-.059-1.538a20.723,20.723,0,0,0-1.28-11.516c-.383-1.028-.454-1.408-.28-1.514" transform="translate(-286.178 -80.428)" fill="#7af4f1"/>
        <path id="Trazado_898590" data-name="Trazado 898590" d="M566.745,193.938c.156-.1.4-.05.779.391a7.276,7.276,0,0,1,1.1,5.911c-.191.546-.405.679-.586.645s-.316-.235-.381-.754-.06-1.368-.3-2.713c-.263-1.34-.581-2.128-.7-2.638s-.082-.738.084-.841" transform="translate(-298.421 -79.549)" fill="#7af4f1"/>
        <path id="Trazado_898591" data-name="Trazado 898591" d="M248.862,187.9s14.75-29.5-.59-51.527-35.99-30.09-44.447-29.894c0,0-11.21,29.3,3.736,55.067a52.407,52.407,0,0,0,41.3,26.354" transform="translate(-148.034 -43.708)" fill="#088783"/>
        <path id="Trazado_898592" data-name="Trazado 898592" d="M251.869,186.786c-4.761-13.764-9.538-27.567-15.9-40.669s-16.433-27.388-26.965-37.447" transform="translate(-151.813 -44.607)" fill="none" stroke="#7af4f1" stroke-linecap="round" stroke-miterlimit="10" stroke-width="1"/>
        <path id="Trazado_898593" data-name="Trazado 898593" d="M231.283,125.6c.224-4.277.479-7.575-.32-11.782" transform="translate(-160.815 -46.717)" fill="none" stroke="#7af4f1" stroke-linecap="round" stroke-miterlimit="10" stroke-width="1"/>
        <path id="Trazado_898594" data-name="Trazado 898594" d="M219.663,132.383a33.753,33.753,0,0,0-16.915-2.516" transform="translate(-149.247 -53.23)" fill="none" stroke="#7af4f1" stroke-linecap="round" stroke-miterlimit="10" stroke-width="1"/>
        <path id="Trazado_898595" data-name="Trazado 898595" d="M245.783,143.675a36.1,36.1,0,0,0-.158-17.525" transform="translate(-166.827 -51.774)" fill="none" stroke="#7af4f1" stroke-linecap="round" stroke-miterlimit="10" stroke-width="1"/>
        <path id="Trazado_898596" data-name="Trazado 898596" d="M227.668,152.814c-7.053-2.786-18.112-4.374-26.224-4.374" transform="translate(-148.713 -60.913)" fill="none" stroke="#7af4f1" stroke-linecap="round" stroke-miterlimit="10" stroke-width="1"/>
        <path id="Trazado_898597" data-name="Trazado 898597" d="M259.363,165.17c3.146-7.592,4.222-16.466,3.932-24.678" transform="translate(-172.459 -57.654)" fill="none" stroke="#7af4f1" stroke-linecap="round" stroke-miterlimit="10" stroke-width="1"/>
        <path id="Trazado_898598" data-name="Trazado 898598" d="M240.612,178.817a66.936,66.936,0,0,0-26.983-5.022" transform="translate(-153.708 -71.301)" fill="none" stroke="#7af4f1" stroke-linecap="round" stroke-miterlimit="10" stroke-width="1"/>
        <path id="Trazado_898599" data-name="Trazado 898599" d="M249.294,198.91a67.5,67.5,0,0,0-27-6.172" transform="translate(-157.262 -79.075)" fill="none" stroke="#7af4f1" stroke-linecap="round" stroke-miterlimit="10" stroke-width="1"/>
        <path id="Trazado_898600" data-name="Trazado 898600" d="M259.959,215.247a42.041,42.041,0,0,0-18.691.288" transform="translate(-165.04 -87.929)" fill="none" stroke="#7af4f1" stroke-linecap="round" stroke-miterlimit="10" stroke-width="1"/>
        <path id="Trazado_898601" data-name="Trazado 898601" d="M272.948,204.886a36.126,36.126,0,0,1,2.07-9.553,13.511,13.511,0,0,1,1.835-2.85c1.672-2.338,7.2-3.284,8.148-3.42" transform="translate(-178.029 -77.568)" fill="none" stroke="#7af4f1" stroke-linecap="round" stroke-miterlimit="10" stroke-width="1"/>
        <path id="Trazado_898602" data-name="Trazado 898602" d="M268.056,185.167c.63-8.5,1.633-18.1,4.957-25.949" transform="translate(-176.023 -65.332)" fill="none" stroke="#7af4f1" stroke-linecap="round" stroke-miterlimit="10" stroke-width="1"/>
        <path id="Trazado_898603" data-name="Trazado 898603" d="M233.971,242.168s-11.406-47.79-35.4-72.374-41.694-12.39-42.284,3.934,20.454,28.124,33.237,38.154,24.19,20.453,30.287,27.533,6.294,10.62,9.834,12.587,6.49.983,4.326-9.834" transform="translate(-130.194 -63.952)" fill="#088783"/>
        <g id="Grupo_1100543" data-name="Grupo 1100543" transform="translate(28.447 92.25)" opacity="0.84">
          <g id="Grupo_1100542" data-name="Grupo 1100542">
            <g id="Grupo_1100541" data-name="Grupo 1100541" clip-path="url(#clip-path-7)">
              <path id="Trazado_898604" data-name="Trazado 898604" d="M237.156,255.319c-6.925-16.431-14.712-32.655-25.444-46.894s-24.633-26.487-41.225-33.018" transform="translate(-164.468 -164.219)" fill="none" stroke="#7af4f1" stroke-linecap="round" stroke-miterlimit="10" stroke-width="1"/>
              <path id="Trazado_898605" data-name="Trazado 898605" d="M259.426,246.909a60.64,60.64,0,0,0-1.16-22.468" transform="translate(-200.456 -184.323)" fill="none" stroke="#7af4f1" stroke-linecap="round" stroke-miterlimit="10" stroke-width="1"/>
              <path id="Trazado_898606" data-name="Trazado 898606" d="M243.127,220.66a93.091,93.091,0,0,0-3.538-25.744" transform="translate(-192.799 -172.217)" fill="none" stroke="#7af4f1" stroke-linecap="round" stroke-miterlimit="10" stroke-width="1"/>
              <path id="Trazado_898607" data-name="Trazado 898607" d="M225.87,200.869a54.18,54.18,0,0,0-4.339-25.528" transform="translate(-185.395 -164.192)" fill="none" stroke="#7af4f1" stroke-linecap="round" stroke-miterlimit="10" stroke-width="1"/>
              <path id="Trazado_898608" data-name="Trazado 898608" d="M206.08,183.455a51.833,51.833,0,0,0-3.332-20.849" transform="translate(-177.694 -158.97)" fill="none" stroke="#7af4f1" stroke-linecap="round" stroke-miterlimit="10" stroke-width="1"/>
              <path id="Trazado_898609" data-name="Trazado 898609" d="M187.054,173.681a39,39,0,0,0-4.268-16.738" transform="translate(-169.51 -156.649)" fill="none" stroke="#7af4f1" stroke-linecap="round" stroke-miterlimit="10" stroke-width="1"/>
              <path id="Trazado_898610" data-name="Trazado 898610" d="M179.564,187.311a22.917,22.917,0,0,1-18.78,1.945" transform="translate(-160.489 -169.099)" fill="none" stroke="#7af4f1" stroke-linecap="round" stroke-miterlimit="10" stroke-width="1"/>
              <path id="Trazado_898611" data-name="Trazado 898611" d="M194.015,200.323a47.005,47.005,0,0,1-23.882,4.04" transform="translate(-164.322 -174.434)" fill="none" stroke="#7af4f1" stroke-linecap="round" stroke-miterlimit="10" stroke-width="1"/>
              <path id="Trazado_898612" data-name="Trazado 898612" d="M215.352,217.573c-1.128,2.066-3.55,3-5.8,3.705a105.613,105.613,0,0,1-13.928,3.331" transform="translate(-174.775 -181.507)" fill="none" stroke="#7af4f1" stroke-linecap="round" stroke-miterlimit="10" stroke-width="1"/>
              <path id="Trazado_898613" data-name="Trazado 898613" d="M230.659,238.549a32.76,32.76,0,0,1-20.9,2.158" transform="translate(-180.567 -190.107)" fill="none" stroke="#7af4f1" stroke-linecap="round" stroke-miterlimit="10" stroke-width="1"/>
              <path id="Trazado_898614" data-name="Trazado 898614" d="M247.878,262.064c-3.784,3.187-13.178,2.889-17.813,1.161" transform="translate(-188.894 -199.748)" fill="none" stroke="#7af4f1" stroke-linecap="round" stroke-miterlimit="10" stroke-width="1"/>
            </g>
          </g>
        </g>
        <path id="Trazado_898615" data-name="Trazado 898615" d="M253.863,101.042a21.884,21.884,0,0,0-1.405-3.485c.086.136.172.273.265.409a6.188,6.188,0,0,1,1.14,3.076" transform="translate(-169.628 -40.051)" fill="#c97e44"/>
        <path id="Trazado_898616" data-name="Trazado 898616" d="M280.532,111.2c-5.579,3.012-29.724,4.761-38.925,3.643a7.644,7.644,0,0,0,.523-1.011s-1.255.581-3.126-4.339a7.687,7.687,0,0,1,.552-7.314,4.543,4.543,0,0,1,.38-.48l-1.284-1.858a4.972,4.972,0,0,1-.781-1.434c-.008-.029-.015-.05-.022-.079s-.007-.064-.014-.1-.014-.079-.022-.115c-.487-3.27,1.721-6.59,4.991-8.655,2.524-1.592,5.184-3.6,5.027-6.468v-.007a6.188,6.188,0,0,0-1.141-3.076c-.093-.136-.179-.273-.265-.409-.007-.007-.015-.015-.015-.022-2.811-4.216-3.707-4.934-5.773-8.684-2.122-3.865-1.745-6.735,3.247-12.437s13.08-3.963,13.08-3.963,6.132-1.972,11.51,0,5.934,6.812,6.652,9.681,3.074,4.819,3.611,7.687a16.406,16.406,0,0,1-.537,9.5c-1.2,3.64,1.076,6.1,2.151,7.171a3.948,3.948,0,0,1,.9,2.869,14.023,14.023,0,0,1,4.662,6.812c1.076,4.124,1.255,9.5-5.378,13.087" transform="translate(-163.596 -21.995)" fill="#c97e44"/>
        <path id="Trazado_898617" data-name="Trazado 898617" d="M301.533,114.171c-.022-.038.114-.142.442-.416a7,7,0,0,0,1.415-1.6,5.957,5.957,0,0,0-.27-6.806,30.506,30.506,0,0,1-2.551-3.05,6.124,6.124,0,0,1-.555-4.016,16.9,16.9,0,0,1,.9-3.1c.329-.885.612-1.654.8-2.34a9.953,9.953,0,0,0,.348-1.8,6.546,6.546,0,0,0-.126-2.128c-.1-.414-.15-.577-.11-.6s.149.118.317.531a5.359,5.359,0,0,1,.312,2.218,9.4,9.4,0,0,1-.3,1.894c-.181.715-.454,1.507-.768,2.394a17.165,17.165,0,0,0-.847,3.013,5.633,5.633,0,0,0,.5,3.656,33.689,33.689,0,0,0,2.5,3,6.354,6.354,0,0,1,1.227,3.047,6.1,6.1,0,0,1-1.065,4.308,5.617,5.617,0,0,1-1.615,1.553c-.381.23-.553.268-.569.24" transform="translate(-189.082 -36.263)" fill="#eaa475"/>
        <path id="Trazado_898618" data-name="Trazado 898618" d="M258.416,66.358c-.057.034-.234-.095-.414-.645a6.5,6.5,0,0,1-.088-3.05,5.137,5.137,0,0,1,1.324-2.761c.419-.4.618-.438.658-.386.057.067-.05.217-.358.642a6.423,6.423,0,0,0-1.077,2.608,9.312,9.312,0,0,0-.075,2.862c.069.522.107.69.029.73" transform="translate(-171.811 -24.447)" fill="#eaa475"/>
        <path id="Trazado_898619" data-name="Trazado 898619" d="M268.564,58.94c.078.045-.008.267-.224.926a7.718,7.718,0,0,0-.19,3.723,11.278,11.278,0,0,0,1.28,3.557c.348.6.491.778.431.845-.038.05-.3-.037-.759-.627a8.669,8.669,0,0,1-1.5-3.679,6.613,6.613,0,0,1,.372-3.961c.331-.671.539-.818.592-.784" transform="translate(-175.784 -24.216)" fill="#eaa475"/>
        <path id="Trazado_898620" data-name="Trazado 898620" d="M290.244,84.306c0,.049-.357.165-1.218-.312a4.423,4.423,0,0,1-1.4-1.4,10.193,10.193,0,0,1-1.185-2.925,12.43,12.43,0,0,0-1.041-2.83,5.026,5.026,0,0,0-1.13-1.4c-.684-.542-.993-.6-.961-.7,0-.05.364-.139,1.2.381a4.6,4.6,0,0,1,1.336,1.451,11.363,11.363,0,0,1,1.135,2.938,10.865,10.865,0,0,0,1.083,2.8,4.755,4.755,0,0,0,1.184,1.344c.71.505,1.025.54,1,.639" transform="translate(-182.277 -30.685)" fill="#eaa475"/>
        <path id="Trazado_898621" data-name="Trazado 898621" d="M292.7,77.208c.063-.04.24.1.627.648a22.768,22.768,0,0,1,2.961,6.612c.153.655.138.879.067.9s-.2-.164-.443-.781-.618-1.666-1.349-3.315-1.284-2.617-1.575-3.214-.355-.807-.288-.85" transform="translate(-186.118 -31.705)" fill="#eaa475"/>
        <path id="Trazado_898622" data-name="Trazado 898622" d="M246.284,128.007c-.031.044-.368-.04-.979-.808a4.6,4.6,0,0,1-.794-1.837,4.783,4.783,0,0,1,.463-3.22,6.542,6.542,0,0,1,1.1-1.425l.988-.988a6.214,6.214,0,0,0,1.107-1.47c.384-.8.35-1.117.453-1.11.037,0,.078.074.093.276a2.425,2.425,0,0,1-.186.995,5.4,5.4,0,0,1-1.092,1.661,13.8,13.8,0,0,0-1.978,2.33,4.463,4.463,0,0,0-.445,2.86,5,5,0,0,0,.615,1.713c.477.755.716.952.651,1.025" transform="translate(-166.331 -48.083)" fill="#eaa475"/>
        <path id="Trazado_898623" data-name="Trazado 898623" d="M253.92,123.614c.072.042.035.208-.128.67a8.12,8.12,0,0,0-.257,5.154c.117.476.137.644.061.68s-.21-.078-.433-.549a6.382,6.382,0,0,1,.271-5.452c.268-.446.425-.539.486-.5" transform="translate(-169.719 -50.731)" fill="#eaa475"/>
        <path id="Trazado_898624" data-name="Trazado 898624" d="M256.671,125.067c-.048-.063-.02-.165.138-.368s.453-.509.839-1.071.547-.957.68-1.178.214-.287.29-.266.123.12.083.395A4.046,4.046,0,0,1,257.068,125c-.24.14-.352.13-.4.071" transform="translate(-171.347 -50.147)" fill="#eaa475"/>
        <path id="Trazado_898625" data-name="Trazado 898625" d="M295.006,105.779c.081.04-.029.3-.255,1.13a8.081,8.081,0,0,0-.261,1.729,7.074,7.074,0,0,0,.442,2.785c.424,1.083.906,1.958,1.125,2.742a4.356,4.356,0,0,1,.173,1.882,2.223,2.223,0,0,1-.324.9c-.109.156-.179.2-.211.179-.093-.046.086-.293.143-1.119a4.759,4.759,0,0,0-.271-1.689c-.225-.718-.7-1.548-1.157-2.7a7.019,7.019,0,0,1-.433-3.01,6.391,6.391,0,0,1,.4-1.821c.339-.842.576-1.04.631-1.009" transform="translate(-186.643 -43.421)" fill="#eaa475"/>
        <path id="Trazado_898626" data-name="Trazado 898626" d="M311.4,122.948c.044-.053.27.012.774.481a5.729,5.729,0,0,1,.882,1.107,6.557,6.557,0,0,1,.89,4.47,5.745,5.745,0,0,1-.391,1.361c-.286.627-.469.773-.53.741s-.018-.248.159-.872a7.054,7.054,0,0,0-1.3-6.544c-.4-.508-.536-.681-.481-.745" transform="translate(-193.789 -50.455)" fill="#eaa475"/>
        <path id="Trazado_898627" data-name="Trazado 898627" d="M288.4,65.3c-.09.013-.158-.334-.481-1.36a11.834,11.834,0,0,0-.882-2.018,10.018,10.018,0,0,0-5.315-4.572,11.882,11.882,0,0,0-2.127-.571c-1.063-.165-1.415-.181-1.416-.271,0-.063.346-.189,1.465-.12a9.354,9.354,0,0,1,2.251.478,9.927,9.927,0,0,1,5.593,4.811,9.335,9.335,0,0,1,.809,2.155c.236,1.1.163,1.46.1,1.467" transform="translate(-180.176 -23.164)" fill="#eaa475"/>
        <path id="Trazado_898628" data-name="Trazado 898628" d="M281.909,61.438c.024-.065.237-.079.821.137a9.1,9.1,0,0,1,4.756,4.581c.238.576.233.789.168.815s-.2-.126-.518-.633a11.768,11.768,0,0,0-4.575-4.407c-.519-.3-.682-.415-.653-.494" transform="translate(-181.702 -25.224)" fill="#eaa475"/>
        <path id="Trazado_898629" data-name="Trazado 898629" d="M245.518,72.421c-.018.032-.112.023-.326-.075a2.446,2.446,0,0,1-.894-.79,4.067,4.067,0,0,1-.658-2.267,7.732,7.732,0,0,1,1.09-3.626,17.509,17.509,0,0,1,2.131-3.073c.639-.75,1.157-1.281,1.548-1.67.788-.774,1.08-.975,1.136-.923s-.136.352-.846,1.191c-.352.421-.835.975-1.441,1.729a19.605,19.605,0,0,0-2.034,3.009,7.682,7.682,0,0,0-1.07,3.36,4.05,4.05,0,0,0,.476,2.056,3.5,3.5,0,0,0,.686.825c.163.145.223.219.2.254" transform="translate(-166.012 -24.648)" fill="#eaa475"/>
        <path id="Trazado_898630" data-name="Trazado 898630" d="M238.985,147.834c-.53.846-1.5,2.674-2.589,4.8v.007c-2.381,4.69-5.328,10.814-5.457,11.087v.007h-.007l-6.031.387-3.449.222c3.564-4.181,9.788-19.57,10.4-21.614s1.327-4.181,5.608-4.79c0,0,3.263,7.135,1.528,9.889" transform="translate(-156.916 -56.61)" fill="#fff"/>
        <g id="Grupo_1100546" data-name="Grupo 1100546" transform="translate(67.985 85.961)" opacity="0.39">
          <g id="Grupo_1100545" data-name="Grupo 1100545">
            <g id="Grupo_1100544" data-name="Grupo 1100544" clip-path="url(#clip-path-8)">
              <path id="Trazado_898631" data-name="Trazado 898631" d="M238.98,149.722l-.187,6.131v.007c-2.381,4.69-5.328,10.814-5.456,11.087v.007h-.008l-6.031.387a121.278,121.278,0,0,1,4.891-11.474c3.256-6.525,4.79-10.083,4.79-10.083s-.359,4.138,2,3.937" transform="translate(-227.298 -145.785)" fill="#a2d6f2"/>
            </g>
          </g>
        </g>
        <path id="Trazado_898632" data-name="Trazado 898632" d="M252.6,129.478c-2.549,1.938-9.482,5-9.482,5s.284,7.061-3.747,11.84a17.066,17.066,0,0,0-3.3,13.18c.815,3.875,1.949,5.974,2.051,12.193s-.612,20.493-1.427,25.386-1.427,8.564-1.427,8.564,10.2,2.447,15.7,2.345,7.291-51.5,7.925-56.788-6.294-21.716-6.294-21.716" transform="translate(-162.582 -53.138)" fill="#fff"/>
        <path id="Trazado_898633" data-name="Trazado 898633" d="M259.656,149.854s-4.08-9.506-4.088-10.916,1.595-1.756,1.959-2.48-1.605-1.73-1.959-2.427a8.482,8.482,0,0,1-.251-2.742s6.286-3.7,6.94-3.89,2.374-.095,2.41,3.583-.412,10.59-1.487,13.122a34.1,34.1,0,0,1-3.523,5.751" transform="translate(-170.795 -52.262)" fill="#e9f5ff"/>
        <path id="Trazado_898634" data-name="Trazado 898634" d="M297.984,197.5c-.179.014-1.377.23-3.241.588-9.437,1.792-36.092,7.071-36.092,7.071s-1.613-15.626-2.9-28.168c-.036-.345-.072-.681-.107-1.018-.057-.588-.122-1.169-.172-1.736h-.007c-.566-5.536-1.04-10.111-1.227-11.89-.028-.279-.05-.487-.064-.624-.309-2.954-.309-5.3,1.219-8.254s5.407-7.444,7.953-11.753c1.843-3.12,3.75-6,5.55-8.57.674-.975,1.334-1.907,1.972-2.8,2.316-3.234,3.263-5.866,2.567-7.766a3.948,3.948,0,0,1,2.044,1.133,20.215,20.215,0,0,0,3.363,1.786c1.412.674,3.076,1.441,4.625,2.2a.086.086,0,0,0,.029.014,24.145,24.145,0,0,1,4.833,2.811c1.929,1.835,2.123,4.3-.208,11.151q-.194.57-.409,1.183c-.473,1.327-1,2.861-1.535,4.518-2.589,7.981-5.493,18.752-4.5,22.8a8.147,8.147,0,0,0,.266.832c.165.423.373.911.631,1.463.237.5.509,1.061.818,1.656,4.145,8.01,14.062,23.084,14.593,23.363" transform="translate(-170.263 -50.311)" fill="#fff"/>
        <g id="Grupo_1100549" data-name="Grupo 1100549" transform="translate(100.642 88.44)" opacity="0.39">
          <g id="Grupo_1100548" data-name="Grupo 1100548">
            <g id="Grupo_1100547" data-name="Grupo 1100547" clip-path="url(#clip-path-9)">
              <path id="Trazado_898635" data-name="Trazado 898635" d="M309.727,208.734c-.179.014-1.377.23-3.241.588-6.239-10.871-23.923-41.807-23.837-43.084a39.372,39.372,0,0,1,1.191-8.225c.846-2.6.323-2.955,3.435-6.246A8.867,8.867,0,0,1,291.412,150c2.187-.2,5.643,1.384,6.5,8.613-2.589,7.981-5.493,18.752-4.5,22.8a8.157,8.157,0,0,0,.266.832c.165.423.373.911.631,1.463.237.5.509,1.061.818,1.656,4.145,8.01,14.062,23.084,14.593,23.363" transform="translate(-282.648 -149.987)" fill="#a2d6f2"/>
            </g>
          </g>
        </g>
        <path id="Trazado_898636" data-name="Trazado 898636" d="M230.908,180.758a12.407,12.407,0,0,0-1.187-1.614.884.884,0,0,1,.244-1.492c.548-.274,1.05-.076,1.583.533s1.507,2.116,1.507,2.116.03.35-.746.654a1.488,1.488,0,0,1-1.4-.2" transform="translate(-160.18 -72.841)" fill="#f8ac8c"/>
        <path id="Trazado_898637" data-name="Trazado 898637" d="M231.215,176.973a.835.835,0,0,1,.517-.943c.67-.29,1.355.243,1.8.715a14.244,14.244,0,0,1,1.523,2.323c.319.615.289.737.289.737a8.013,8.013,0,0,1-1.553.6,1.634,1.634,0,0,1-.929-.4Z" transform="translate(-160.912 -72.191)" fill="#f8ac8c"/>
        <path id="Trazado_898638" data-name="Trazado 898638" d="M232.475,175.31s-.249-.624.6-1.2,2.146.822,2.6,1.476a19.453,19.453,0,0,1,1.412,2.618c.186.472.293.807.293.807s-1.355.045-2.024,0-1.02-.73-1.507-1.781a7.474,7.474,0,0,0-1.38-1.918" transform="translate(-161.422 -71.38)" fill="#f8ac8c"/>
        <path id="Trazado_898639" data-name="Trazado 898639" d="M235.913,174.4a1.273,1.273,0,0,1,1.207-.293c.426.045,1.081,1.111,1.614,1.9a17.942,17.942,0,0,1,1.156,2.222,1.353,1.353,0,0,1-.776.5,2.284,2.284,0,0,1-.868,0s-1.324-2.647-1.644-3.241a10.036,10.036,0,0,0-.69-1.093" transform="translate(-162.845 -71.423)" fill="#f8ac8c"/>
        <path id="Trazado_898640" data-name="Trazado 898640" d="M249.359,190.953s-23.55,4.9-25.687,4.181a9.46,9.46,0,0,1-4.181-2.345c-1.226-1.119-3.062-8.462.509-12.643l9.48-.609h.007l16.407-3.062s2.546,1.943,3.464,7.551,0,6.927,0,6.927" transform="translate(-155.465 -72.407)" fill="#fff"/>
        <path id="Trazado_898641" data-name="Trazado 898641" d="M266.369,180.994s8.866-3.056,10.805-2.342a30.035,30.035,0,0,1,3.9,1.835l-.533,5.709a8.487,8.487,0,0,0-4.078-1.122c-1.733.2-7.544,2.855-7.544,2.855a5.5,5.5,0,0,1-2.128-3.059,14.26,14.26,0,0,1-.421-3.877" transform="translate(-175.329 -73.255)" fill="#f8ac8c"/>
        <path id="Trazado_898642" data-name="Trazado 898642" d="M286.7,172.315l-1.427,2.553a15.428,15.428,0,0,1-3.506,1.169,4.917,4.917,0,0,1-.9.05c-1.47-.086-21.613,2.811-26.038,3.442-.545.086-.853.129-.853.129s-.316-.8-.7-2.094a35.162,35.162,0,0,1-1.04-4.331,18.927,18.927,0,0,1,.409-7.236l.782-.093,20.731-2.46s1.226-18.76,2.553-23.041c.208-.681.43-1.341.674-1.972,1.277-3.385,3.012-6.081,5.271-7.171a.078.078,0,0,0,.029.014c.021.014.05.021.071.036.473.244,2.567,1.348,4.762,2.775,2.488,1.614,3.054,2.237,3.155,5.708s-3.972,32.521-3.972,32.521" transform="translate(-169.458 -53.869)" fill="#fff"/>
        <g id="Grupo_1100552" data-name="Grupo 1100552" transform="translate(83.819 75.19)" opacity="0.39">
          <g id="Grupo_1100551" data-name="Grupo 1100551">
            <g id="Grupo_1100550" data-name="Grupo 1100550" clip-path="url(#clip-path-10)">
              <path id="Trazado_898643" data-name="Trazado 898643" d="M287.559,170.785l-1.427,2.553a15.428,15.428,0,0,1-3.506,1.169,4.914,4.914,0,0,1-.9.05c-1.47-.086-21.613,2.811-26.038,3.442-.545.086-.853.129-.853.129s-.316-.8-.7-2.094a6.656,6.656,0,0,0,1.376.23h.007c.144.014.294.014.445.014,1.484-.014,20.337-2.481,26.031-3.234l1.621-.215s3.019-1.52,3.112-3.485c.057-1.284.882-15.776,1.441-25.637.3-5.206.523-9.114.523-9.114a5.87,5.87,0,0,0-1.792-1.1c-1.341-.617-4.927-2.438-4.927-2.438s-2.18,4.647-3.162,5.479a3.239,3.239,0,0,1-.567.366,26.772,26.772,0,0,1-5.593,1.771c-1.972.445-1.04.28-2.51,4.088a7.352,7.352,0,0,0-.523,1.621s-1-5.07-.409-7.53a2.979,2.979,0,0,1,.48-1.155c.7-.925,1.965-.617,4.812-2.933a19.169,19.169,0,0,0,4.388-5.235c1.413.674,3.077,1.441,4.626,2.2a.077.077,0,0,0,.029.014c.021.014.05.021.071.036a23.653,23.653,0,0,1,4.762,2.775c2.488,1.614,3.054,2.237,3.155,5.708s-3.972,32.521-3.972,32.521" transform="translate(-254.135 -127.529)" fill="#a2d6f2"/>
            </g>
          </g>
        </g>
        <path id="Trazado_898644" data-name="Trazado 898644" d="M262.681,147.542s9.316-5.144,10.438-5.551,0-5.2.816-6.117,3.41-.694,5.63-1.366,4.259-7.3,4.667-8.218.51-.917-1.428-1.733-2.549-1.483-4.384-2.169l-1.835-.686s-6.333,12.922-9.074,17.128a79.572,79.572,0,0,0-4.83,8.712" transform="translate(-173.82 -49.95)" fill="#e9f5ff"/>
        <path id="Trazado_898645" data-name="Trazado 898645" d="M264.261,127.437s-.2,2.345-.51,7.851a49.572,49.572,0,0,0,1.02,11.52s4.384-7.646,7.748-12.438,4.282-5.709,4.791-6.932-1.14-2.233-3.829-2.861-9.221,2.861-9.221,2.861" transform="translate(-174.24 -51.098)" fill="#bae8ff"/>
        <path id="Trazado_898646" data-name="Trazado 898646" d="M265.147,123.715a6.008,6.008,0,0,0-1.9,1.861c-.408.917-1.326,3.365-.917,3.67s1.522-2.975,2.12-3.187,1.434,2.971,1.434,2.971,1.237-1.008,2.359-1.824,2.3,2.861,2.3,2.861,6.466-3.473,7.078-4.289-.816-3.772-1.224-4.384a.889.889,0,0,0-1.005-.408Z" transform="translate(-173.634 -49.644)" fill="#97d0ff"/>
        <path id="Trazado_898647" data-name="Trazado 898647" d="M277.475,114.439c-.029.545-.05,1.083-.057,1.607-.007.179-.015.358-.015.537v.007c-.021.882-.021,1.7-.007,2.417a19.371,19.371,0,0,1-7.364,2.983c-1,.165-1.528,1.571-1.678,2.051a.2.2,0,0,0-.065-.015v-.007c-.043-.573-.251-2.295-1.162-2.732a2.441,2.441,0,0,0,.015-.244c.014-.122.021-.251.035-.38a6.2,6.2,0,0,0-.086-2.754l6.963-2.331Z" transform="translate(-175.628 -46.972)" fill="#f8ac8c"/>
        <path id="Trazado_898648" data-name="Trazado 898648" d="M277.475,117.181a1.692,1.692,0,0,1-.072.172v.007c-.882,1.835-5.916,4.431-8.447,4.618a3.906,3.906,0,0,1-1.814-.165c.014-.122.021-.251.035-.381a6.2,6.2,0,0,0-.086-2.754l6.963-2.33c1.671-.1,3.027.029,3.364.466a.349.349,0,0,1,.057.366" transform="translate(-175.628 -47.742)" fill="#c4745d"/>
        <path id="Trazado_898649" data-name="Trazado 898649" d="M249.643,205.95s-4.888.46-5.835.376-1.582-2.713-1.582-2.713l6.952-.933Z" transform="translate(-165.433 -83.151)" fill="#f8ac8c"/>
        <path id="Trazado_898650" data-name="Trazado 898650" d="M228.494,184.312c-.065-.037-.1-.127-.031-.324a2.786,2.786,0,0,1,1.6-1.452c.2-.049.289-.007.319.061s0,.157-.134.287-.389.3-.755.63-.553.568-.7.691-.23.146-.3.107" transform="translate(-159.775 -74.883)" fill="#a7c6ce"/>
        <path id="Trazado_898651" data-name="Trazado 898651" d="M292.485,189.606c-.074.03-.176-.057-.372-.361a12.724,12.724,0,0,0-2.4-3.016c-.253-.26-.313-.378-.267-.443s.182-.058.51.133a6.506,6.506,0,0,1,2.51,3.159c.112.363.083.5.014.527" transform="translate(-184.789 -76.21)" fill="#a7c6ce"/>
        <path id="Trazado_898652" data-name="Trazado 898652" d="M299.428,142.149c.025.08-.152.191-.71.464a12.664,12.664,0,0,0-5.086,4.223c-.371.5-.513.652-.586.613s-.045-.251.254-.824a9.759,9.759,0,0,1,5.272-4.377c.618-.188.836-.165.857-.1" transform="translate(-186.257 -58.313)" fill="#a7c6ce"/>
        <path id="Trazado_898653" data-name="Trazado 898653" d="M242.563,150.581c.06.05-.136.387-.866,1.347l-1.5,1.971a34.087,34.087,0,0,0-2.225,3.338,17.4,17.4,0,0,0-2.2,6.01c-.173,1.176-.191,1.563-.281,1.563-.063,0-.188-.383-.11-1.61a14.953,14.953,0,0,1,2.1-6.24,28.472,28.472,0,0,1,2.3-3.374c.667-.845,1.2-1.459,1.6-1.91.811-.9,1.112-1.145,1.171-1.1" transform="translate(-162.618 -61.788)" fill="#a7c6ce"/>
        <path id="Trazado_898654" data-name="Trazado 898654" d="M242.827,148.758c.138-.013.353.391.348,2.187-.047,1.8-.274,2.192-.411,2.176-.168-.018-.192-.434-.146-2.184.005-1.75.042-2.165.21-2.179" transform="translate(-165.585 -61.043)" fill="#a7c6ce"/>
        <path id="Trazado_898655" data-name="Trazado 898655" d="M267.134,134.643c.079.018.051.409-.147,1.612s-.564,3.218-.893,6.524c-.31,3.308-.336,5.359-.4,6.576s-.106,1.607-.186,1.608-.159-.385-.208-1.609a50.224,50.224,0,0,1,.238-6.629,46.223,46.223,0,0,1,1.061-6.548c.3-1.19.461-1.55.533-1.533" transform="translate(-174.884 -55.256)" fill="#97d0ff"/>
        <path id="Trazado_898656" data-name="Trazado 898656" d="M290.26,216.431c-.014.073-.286.1-1.1-.028a36.375,36.375,0,0,1-8.544-2.648c-.746-.36-.956-.533-.926-.6s.3-.028,1.076.236,2.07.752,4.206,1.42,3.482.98,4.273,1.208,1.036.335,1.021.413" transform="translate(-180.79 -87.433)" fill="#a7c6ce"/>
        <path id="Trazado_898657" data-name="Trazado 898657" d="M252.649,177.563c.024.165-.787.363-4.3,1-3.509.668-4.337.773-4.373.611-.032-.138.745-.487,4.272-1.159,3.532-.638,4.383-.591,4.4-.451" transform="translate(-166.15 -72.817)" fill="#a7c6ce"/>
        <path id="Trazado_898658" data-name="Trazado 898658" d="M296.388,207c.012.153-.928.353-5.016.675s-5.047.273-5.059.119.928-.352,5.016-.675,5.047-.273,5.059-.119" transform="translate(-183.509 -84.872)" fill="#a7c6ce"/>
        <path id="Trazado_898659" data-name="Trazado 898659" d="M251.691,196.521c-.071.022-.186-.092-.35-.519a10.229,10.229,0,0,1-.382-4.885c.1-.448.191-.578.264-.567s.122.16.128.605-.029,1.186.058,2.384.256,1.923.314,2.364.044.6-.032.618" transform="translate(-168.956 -78.178)" fill="#a7c6ce"/>
        <path id="Trazado_898660" data-name="Trazado 898660" d="M255.745,189.814c.015.153-.394.319-2.21.5s-2.25.1-2.265-.055.394-.319,2.21-.5,2.25-.1,2.265.055" transform="translate(-169.141 -77.811)" fill="#a7c6ce"/>
        <path id="Trazado_898661" data-name="Trazado 898661" d="M257.216,218.187c-.065.035-.194-.04-.414-.389a7.011,7.011,0,0,1-.822-4.311c.075-.406.168-.523.241-.514s.126.143.152.536a12.517,12.517,0,0,0,.786,4.123c.12.376.127.517.056.555" transform="translate(-171.044 -87.371)" fill="#a7c6ce"/>
        <path id="Trazado_898662" data-name="Trazado 898662" d="M286.836,164.377c-.07.006-.181-.29-.26-1.25a20.653,20.653,0,0,1,2.011-10.137c.44-.858.655-1.088.717-1.056s-.017.332-.357,1.216a26.911,26.911,0,0,0-1.977,9.967c-.023.947-.051,1.254-.135,1.26" transform="translate(-183.598 -62.344)" fill="#a7c6ce"/>
        <path id="Trazado_898663" data-name="Trazado 898663" d="M255.347,133.818c-1.119,1.009-1.222,3.381-1.376,5.907s0,6.7,0,6.7l-.619.206a83.957,83.957,0,0,1,0-8.712c.278-3.254.529-3.411,1.115-4.1s.88,0,.88,0" transform="translate(-169.944 -54.792)" fill="#2a393f"/>
        <path id="Trazado_898664" data-name="Trazado 898664" d="M254.128,156.565a3.223,3.223,0,0,1-5.729,2.023,3.175,3.175,0,0,1-.717-2.023,3.223,3.223,0,1,1,6.447,0" transform="translate(-167.67 -62.924)" fill="#75888e"/>
        <path id="Trazado_898665" data-name="Trazado 898665" d="M253.733,156.171a3.219,3.219,0,0,1-3.22,3.22,2.623,2.623,0,0,1-2.833-2.826,3.229,3.229,0,0,1,5.249-2.51,3.16,3.16,0,0,1,.8,2.116" transform="translate(-167.67 -62.924)" fill="#5e737a"/>
        <g id="Grupo_1100555" data-name="Grupo 1100555" transform="translate(80.117 90.553)" opacity="0.56">
          <g id="Grupo_1100554" data-name="Grupo 1100554">
            <g id="Grupo_1100553" data-name="Grupo 1100553" clip-path="url(#clip-path-11)">
              <path id="Trazado_898666" data-name="Trazado 898666" d="M253.106,156.192a2.623,2.623,0,1,1-2.623-2.623,2.623,2.623,0,0,1,2.623,2.623" transform="translate(-247.861 -153.568)" fill="#2a393f"/>
            </g>
          </g>
        </g>
        <path id="Trazado_898667" data-name="Trazado 898667" d="M252.108,155.193a2.623,2.623,0,1,1-2.623-2.623,2.623,2.623,0,0,1,2.623,2.623" transform="translate(-167.334 -62.606)" fill="#2a393f"/>
        <path id="Trazado_898668" data-name="Trazado 898668" d="M251.932,155.591a2.05,2.05,0,1,1-2.05-2.05,2.05,2.05,0,0,1,2.05,2.05" transform="translate(-167.732 -63.004)" fill="#5e737a"/>
        <path id="Trazado_898669" data-name="Trazado 898669" d="M251.932,155.591a2.05,2.05,0,1,1-2.05-2.05,2.05,2.05,0,0,1,2.05,2.05" transform="translate(-167.732 -63.004)" fill="#5e737a"/>
        <g id="Grupo_1100558" data-name="Grupo 1100558" transform="translate(80.456 90.901)" opacity="0.18">
          <g id="Grupo_1100557" data-name="Grupo 1100557">
            <g id="Grupo_1100556" data-name="Grupo 1100556" clip-path="url(#clip-path-12)">
              <path id="Trazado_898670" data-name="Trazado 898670" d="M252.178,155.844A2.049,2.049,0,0,1,248.435,157a2.008,2.008,0,0,0,1.183.38,2.051,2.051,0,0,0,1.678-3.22,2.062,2.062,0,0,1,.882,1.685" transform="translate(-248.434 -154.159)" fill="#fff"/>
            </g>
          </g>
        </g>
        <path id="Trazado_898671" data-name="Trazado 898671" d="M296.229,129.346c.9,1.17-5.746,12.975-5.746,12.975l.979.648s4.709-9.506,5.413-11.245.876-1.951.464-2.379-1.11,0-1.11,0" transform="translate(-185.219 -53.006)" fill="#2a393f"/>
        <path id="Trazado_898672" data-name="Trazado 898672" d="M284.546,163.692s-4.613-1.971-5.437-2.434,2.963-9,3.736-9.855,2.371.253,2.371.253l.722-1.418a11.231,11.231,0,0,0-2.823-.516c-1.456-.051-5.374,10.207-5.477,11.392s7.011,3.608,7.011,3.608Z" transform="translate(-179.952 -61.438)" fill="#2a393f"/>
        <path id="Trazado_898673" data-name="Trazado 898673" d="M284.474,152.014a9.918,9.918,0,0,1,2.079,1.52c.189.412-2.919,7.712-3.664,8.408s-6.766-1.139-6.766-1.139l-.3.876s5.109,1.3,6.276,1.705,1.418-.041,2.113-1.241c.739-1.276,3.984-7.786,3.8-8.816S285.2,150.6,285.2,150.6Z" transform="translate(-179.209 -61.797)" fill="#2a393f"/>
        <path id="Trazado_898674" data-name="Trazado 898674" d="M275.055,167.714a1.32,1.32,0,0,0-.517-1.289c-.34-.28-1.011-.928-1.588,0s-.442,1.235.3,1.752,1.5.516,1.8-.464" transform="translate(-177.883 -68.089)" fill="#c97f42"/>
        <path id="Trazado_898675" data-name="Trazado 898675" d="M288.479,173.2c.352-.876,1.022-.722,1.847-.464s1.031.67.928,1.134a2.217,2.217,0,0,1-.928,1.34,1.626,1.626,0,0,1-1.847-.773,1.443,1.443,0,0,1,0-1.237" transform="translate(-184.34 -70.791)" fill="#c97f42"/>
        <path id="Trazado_898676" data-name="Trazado 898676" d="M247.181,78.375s-1.539,14.311,4.509,20.013,16.4,2.795,19.681-.834a14.184,14.184,0,0,0,3.629-7.5s5.054,1.408,5.022-2.769c-.043-5.554-5.713-2.518-5.713-2.518s-3.456-1.382-4.665-4.32a12.062,12.062,0,0,0-4.838-5.529,22.966,22.966,0,0,0-3.11-1.555s0,3.11-2.074,3.456-5.529-5.01-5.529-5.01-.173.864-2.419,3.283a13.472,13.472,0,0,1-4.492,3.283" transform="translate(-167.393 -29.494)" fill="#f8ac8a"/>
        <path id="Trazado_898677" data-name="Trazado 898677" d="M254.375,93.281c.036.891-.41,1.633-1,1.657s-1.092-.68-1.129-1.571.41-1.634,1-1.657,1.092.679,1.129,1.571" transform="translate(-169.542 -37.653)" fill="#563139"/>
        <path id="Trazado_898678" data-name="Trazado 898678" d="M275.542,92.419c.035.891-.41,1.633-1,1.657s-1.093-.68-1.129-1.571.41-1.634,1-1.657,1.092.679,1.129,1.571" transform="translate(-178.22 -37.3)" fill="#563139"/>
        <path id="Trazado_898679" data-name="Trazado 898679" d="M261.6,92.978a1.94,1.94,0,0,1-.346,1.53,5.693,5.693,0,0,0-.668,1.208,1.679,1.679,0,0,0,1.156,2.042,1.547,1.547,0,0,1-1.5-.549,1.847,1.847,0,0,1-.342-1.7,3.559,3.559,0,0,1,.909-1.335,2.994,2.994,0,0,0,.791-1.2" transform="translate(-172.648 -38.173)" fill="#bc624d"/>
        <path id="Trazado_898680" data-name="Trazado 898680" d="M250.25,85.2a5.059,5.059,0,0,1,3.574-.4c.8.268.983-1.43.714-2.01s-1.742-.938-3.083-.715a1.856,1.856,0,0,0-1.787,1.832c0,.759.008,1.563.581,1.3" transform="translate(-168.485 -33.675)" fill="#c97f42"/>
        <path id="Trazado_898681" data-name="Trazado 898681" d="M269.564,82.361c-.139,1.153.358,1.742,1.072,1.876s2.282-.313,3.017-.268a11.96,11.96,0,0,0,1.587.089c.355-.044.4-1.161.4-1.7s-.491-1.251-2.323-1.3-3.619.179-3.753,1.3" transform="translate(-176.632 -33.287)" fill="#c97f42"/>
        <path id="Trazado_898682" data-name="Trazado 898682" d="M264.062,107.781a.622.622,0,0,1-.114.071,5.157,5.157,0,0,1-.868.388c-2.653.911-4.267.23-5.07-.445-.072-.064-.136-.129-.194-.186l-.015-.014c-.7-.739-.918-2.417-.33-2.912,1.248-1.011,1.778.093,3.162.093,1.714,0,2.323-1,3.987-.287.918.4,1.269,2.194-.559,3.292" transform="translate(-171.544 -42.789)" fill="#3c203f"/>
        <path id="Trazado_898683" data-name="Trazado 898683" d="M264.527,109.339a.622.622,0,0,1-.114.071,5.156,5.156,0,0,1-.868.388c-2.653.911-4.267.23-5.07-.445-.072-.064-.136-.129-.194-.186l-.015-.014a3.6,3.6,0,0,1,2.869-1.119,5.2,5.2,0,0,1,3.392,1.305" transform="translate(-172.01 -44.346)" fill="#d27474"/>
        <path id="Trazado_898684" data-name="Trazado 898684" d="M298.024,97.059a1.127,1.127,0,1,1-1.127-1.126,1.127,1.127,0,0,1,1.127,1.126" transform="translate(-187.387 -39.385)" fill="#b23f3f"/>
        <path id="Trazado_898685" data-name="Trazado 898685" d="M406.32,143.055l-1.915.359-11.589,2.151-3.707-18.9v-.014s5.02-1.621,9.322.861c3.672,2.115,6.217,11.115,7.888,15.539" transform="translate(-225.655 -51.768)" fill="#bae8ff"/>
        <path id="Trazado_898686" data-name="Trazado 898686" d="M406.32,142.993l-1.915.359c-.839-3.987-2.489-10.255-5.077-13.388a8.571,8.571,0,0,0-9.215-2.941,1.553,1.553,0,0,1-1-.416v-.014s5.02-1.621,9.322.861c3.672,2.115,6.217,11.115,7.888,15.539" transform="translate(-225.655 -51.742)" fill="#a2d6f2"/>
        <path id="Trazado_898687" data-name="Trazado 898687" d="M398.608,133.118c.071.035.061.2-.094.666s-.457,1.22-.857,2.479-.569,2.057-.71,2.524-.225.612-.3.6-.124-.176-.085-.671a14.792,14.792,0,0,1,1.6-5.093c.251-.429.386-.537.453-.5" transform="translate(-228.704 -54.629)" fill="#6c99bc"/>
        <path id="Trazado_898688" data-name="Trazado 898688" d="M399.613,136.615c.111.107.006.4-.84,1.29s-1.132,1.012-1.244.906-.006-.4.84-1.29,1.132-1.012,1.244-.906" transform="translate(-229.092 -56.051)" fill="#6c99bc"/>
        <path id="Trazado_898689" data-name="Trazado 898689" d="M331.982,172.864l-13.467,8.705c.6-6.683,1.735-21.032,1.735-21.032l7.91,1.348s.689,4.345,1.807,6.2a18.042,18.042,0,0,1,2.015,4.776" transform="translate(-196.712 -65.872)" fill="#f0d0bb"/>
        <path id="Trazado_898690" data-name="Trazado 898690" d="M332.441,137.262c-.954,5.378-1.915,12.105-1.915,12.105s-.244.021-.667.035c-.76.029-2.122.043-3.772-.064-.76-.043-1.578-.115-2.431-.229a27.594,27.594,0,0,1-7.472-2.338,117.885,117.885,0,0,1,5.02-14.414c2.13-4.711,6.906-5.35,8.957-5.392,0,0,0-.008.007,0a8.67,8.67,0,0,1,.961.021,19.252,19.252,0,0,1,1.312,10.276" transform="translate(-195.756 -52.106)" fill="#bae8ff"/>
        <path id="Trazado_898691" data-name="Trazado 898691" d="M337.555,136.072a101.807,101.807,0,0,1-1.592,13.331c-.761.028-2.123.043-3.772-.065a19.176,19.176,0,0,0-.079-2.517c-.215-2.058.66-4.661.674-7.135s-1.713-9.179-1.713-9.179a4.169,4.169,0,0,1,1.713,1.018c.918.832,1.061,3.779,1.061,3.779a43.465,43.465,0,0,1,2.417-8.34s0-.007.007,0c.079.143,1.513,2.66,1.284,9.107" transform="translate(-201.86 -52.107)" fill="#a2d6f2"/>
        <path id="Trazado_898692" data-name="Trazado 898692" d="M332.168,134.688c.067-.032.222.116.521.679A17.244,17.244,0,0,1,334.405,142c.012.638-.053.842-.126.847s-.155-.191-.266-.807-.255-1.657-.672-3.3c-.434-1.644-.819-2.621-1.014-3.216s-.231-.8-.159-.835" transform="translate(-202.295 -55.273)" fill="#6c99bc"/>
        <path id="Trazado_898693" data-name="Trazado 898693" d="M329.1,139.834c.037-.066.169-.076.5.063a9.042,9.042,0,0,1,2.994,2.371c.21.289.231.42.175.471s-.181.017-.457-.2-.7-.6-1.435-1.184-1.213-.9-1.481-1.125-.333-.332-.3-.4" transform="translate(-201.049 -57.365)" fill="#6c99bc"/>
        <path id="Trazado_898694" data-name="Trazado 898694" d="M327.866,187.2c-.045-.06.025-.206.372-.51a12.242,12.242,0,0,1,2.06-1.369c2.192-1.182,2.775-1.283,2.84-1.158.077.148-.409.48-2.568,1.646l-2.106,1.205c-.4.215-.549.249-.6.186" transform="translate(-200.54 -75.543)" fill="#e29b8d"/>
        <path id="Trazado_898695" data-name="Trazado 898695" d="M351.168,127.244l17.253-.806-7.475,17.3Z" transform="translate(-210.099 -51.892)" fill="#bae8ff"/>
        <path id="Trazado_898696" data-name="Trazado 898696" d="M367.495,116.648c-1.312,5.02-8.95,4.927-8.95,4.927s-7.637.093-8.949-4.927c0,0,3.349-1.621,3.349-3.585v-7.888l1.628.416,3.973,1.018V106.6l3.012-.768,2.589-.66v7.888c0,1.972,3.349,3.585,3.349,3.585" transform="translate(-209.455 -43.174)" fill="#f0d0bb"/>
        <path id="Trazado_898697" data-name="Trazado 898697" d="M366.473,106.176v2.13a7.7,7.7,0,0,1-5.6,2.581,6.844,6.844,0,0,1-5.6-2.295v-2.811l1.628.057,6.984.244Z" transform="translate(-211.782 -43.423)" fill="#d6967a"/>
        <path id="Trazado_898698" data-name="Trazado 898698" d="M392.524,196.978H363.84s-.337-4.467-.8-10.814c-.129-1.821-.266-3.793-.416-5.859-.079-1.169-.165-2.366-.251-3.585-.15-2.073-.294-4.2-.437-6.332-.388-5.6-.76-11.187-1.04-15.77-.359-5.751-.56-9.917-.467-10.527a3.071,3.071,0,0,1,.552-1.248,11.582,11.582,0,0,1,3.751-2.876s.258-.653.681-1.7c.509-1.255,1.24-3.07,2.037-4.991a98.009,98.009,0,0,1,4.066-9.215c.653-.588,3.349,0,4.6,0s2.151.939,2.782,2.9c.308.954,1.212,3.521,2.115,6.311.388,1.2.775,2.446,1.112,3.621.065.2.115.395.158.581.078.265.15.53.215.789a21.79,21.79,0,0,1,.617,3.04c.359,3.5-2.961,10.226-3.32,13a10.649,10.649,0,0,0,.33,3.9,80.938,80.938,0,0,0,4.016,11.065c.143.351.294.724.451,1.112.7,1.821,1.456,4.008,2.2,6.332.373,1.169.746,2.374,1.119,3.585.6,1.979,1.176,3.973,1.706,5.859,1.671,5.931,2.9,10.814,2.9,10.814" transform="translate(-213.889 -50.811)" fill="#00a2a7"/>
        <path id="Trazado_898699" data-name="Trazado 898699" d="M350,154.586a60.4,60.4,0,0,1,.617,7.953V196.96H325.968s.6-5.07,1.728-10.814c.38-1.929.818-3.944,1.312-5.859.3-1.155.645-2.367,1.011-3.585.645-2.13,1.355-4.3,2.044-6.332,1.528-4.489,2.926-8.3,3.134-9.445.351-1.943-.244-4.152-1.47-6.525a.007.007,0,0,1-.007-.007c-.015-.036-.036-.064-.05-.1a19.226,19.226,0,0,1-2.539-11.029c.029-.487.064-1,.122-1.52.114-1.083.28-2.266.466-3.492.258-1.643.559-3.357.874-4.991.875-4.59,1.793-8.548,1.793-8.548l6.411-.953,5.758,9.5,3.026,4.991,1.033,1.7-.007.007a12.712,12.712,0,0,0-.832,2.345,18.611,18.611,0,0,0-.6,3.922,55.116,55.116,0,0,0,.818,8.362" transform="translate(-199.767 -50.793)" fill="#00a2a7"/>
        <g id="Grupo_1100561" data-name="Grupo 1100561" transform="translate(131.328 86.669)" opacity="0.54">
          <g id="Grupo_1100560" data-name="Grupo 1100560">
            <g id="Grupo_1100559" data-name="Grupo 1100559" clip-path="url(#clip-path-13)">
              <path id="Trazado_898700" data-name="Trazado 898700" d="M374.788,206.483a29.2,29.2,0,0,0-.294-5.249c-.574-4.188-5.68-24.919-7.738-33.166-.523-2.108-.846-3.4-.846-3.4a114.89,114.89,0,0,0-12.349-.559h-.416c-.961,0-1.893.007-2.8.014-6.92.072-12.155.366-12.155.366a7.019,7.019,0,0,1-.9-.566.007.007,0,0,1-.007-.007c-.014-.036-.036-.064-.05-.1a19.226,19.226,0,0,1-2.539-11.029,4.038,4.038,0,0,0,1.234.8c2.309.975,6.92,1.262,11.84-.38,1.04-.352,1.9-.638,2.66-.861a11.551,11.551,0,0,1,2.911-.523,21.466,21.466,0,0,1,6.217,1.09c5.888,1.6,13.726.609,12.169-5.93.079.265.15.53.215.789a21.965,21.965,0,0,1,.617,3.04c.359,3.5-2.962,10.226-3.32,13a10.636,10.636,0,0,0,.33,3.9,80.919,80.919,0,0,0,4.016,11.065c.143.351.294.724.452,1.112.7,1.821,1.455,4.008,2.2,6.332.373,1.169.746,2.374,1.119,3.585.6,1.979,1.176,3.973,1.707,5.859,1.671,5.931,2.9,10.814,2.9,10.814Z" transform="translate(-334.659 -146.985)" fill="#5a9b8a"/>
            </g>
          </g>
        </g>
        <path id="Trazado_898701" data-name="Trazado 898701" d="M354.007,145.551H336.144c.258-1.642.559-3.356.874-4.991h13.962Z" transform="translate(-203.939 -57.682)" fill="#4c565b"/>
        <path id="Trazado_898702" data-name="Trazado 898702" d="M385.977,144.854H368.895c.509-1.255,1.241-3.069,2.037-4.991h13.561c.545,1.685,1.083,3.449,1.484,4.991" transform="translate(-217.367 -57.396)" fill="#4c565b"/>
        <path id="Trazado_898703" data-name="Trazado 898703" d="M375.487,209.093H332.833c.645-2.13,1.355-4.3,2.044-6.332h38.408c.7,1.821,1.456,4.008,2.2,6.332" transform="translate(-202.582 -83.184)" fill="#4c565b"/>
        <g id="Grupo_1100564" data-name="Grupo 1100564" transform="translate(150.563 89.217)" opacity="0.56">
          <g id="Grupo_1100563" data-name="Grupo 1100563">
            <g id="Grupo_1100562" data-name="Grupo 1100562" clip-path="url(#clip-path-14)">
              <path id="Trazado_898704" data-name="Trazado 898704" d="M367.611,156.8c-.154,0-.29-.512-.34-2.743s.063-2.751.217-2.755.29.512.34,2.742-.063,2.752-.217,2.755" transform="translate(-367.26 -151.304)" fill="#184047"/>
            </g>
          </g>
        </g>
        <path id="Trazado_898705" data-name="Trazado 898705" d="M376.7,225.429h-47.8c.38-1.929.818-3.944,1.312-5.859h44.783c.6,1.979,1.176,3.972,1.707,5.859" transform="translate(-200.967 -90.076)" fill="#646f75"/>
        <line id="Línea_653" data-name="Línea 653" y2="0.119" transform="translate(140.294 78.102)" fill="#60bfa0"/>
        <g id="Grupo_1100567" data-name="Grupo 1100567" transform="translate(147.831 79.04)" opacity="0.56">
          <g id="Grupo_1100566" data-name="Grupo 1100566">
            <g id="Grupo_1100565" data-name="Grupo 1100565" clip-path="url(#clip-path-15)">
              <path id="Trazado_898706" data-name="Trazado 898706" d="M369.228,134.073c.049.05-.011.231-.4.614a6.826,6.826,0,0,1-5.519,1.643c-.538-.106-.688-.224-.674-.293s.192-.1.711-.1a8.613,8.613,0,0,0,5.237-1.558c.432-.285.591-.366.65-.306" transform="translate(-362.629 -134.054)" fill="#184047"/>
            </g>
          </g>
        </g>
        <g id="Grupo_1100570" data-name="Grupo 1100570" transform="translate(149.599 82.298)" opacity="0.56">
          <g id="Grupo_1100569" data-name="Grupo 1100569">
            <g id="Grupo_1100568" data-name="Grupo 1100568" clip-path="url(#clip-path-16)">
              <path id="Trazado_898707" data-name="Trazado 898707" d="M367.465,140.522c-.013.074-.073.138-.24.152a2.118,2.118,0,0,1-1.534-.761c-.091-.142-.076-.227-.025-.283.118-.127.293-.033.959.326.689.313.87.395.84.566" transform="translate(-365.626 -139.577)" fill="#184047"/>
            </g>
          </g>
        </g>
        <g id="Grupo_1100573" data-name="Grupo 1100573" transform="translate(151.005 124.027)" opacity="0.56">
          <g id="Grupo_1100572" data-name="Grupo 1100572">
            <g id="Grupo_1100571" data-name="Grupo 1100571" clip-path="url(#clip-path-17)">
              <path id="Trazado_898708" data-name="Trazado 898708" d="M368.339,214.875c-.154,0-.287-.425-.324-2.28s.08-2.288.234-2.291.287.425.323,2.28-.08,2.288-.234,2.291" transform="translate(-368.009 -210.303)" fill="#184047"/>
            </g>
          </g>
        </g>
        <path id="Trazado_898709" data-name="Trazado 898709" d="M379.927,100.238c2.654,2.061,1.29,3.316,0,8.426s-.778,7.171,1.521,10.219,3.2,4.124,3.464,5.917a2.825,2.825,0,0,1-.986,2.689s9.143-2.331,7.8-15.059-10.667-14.912-10.667-14.912Z" transform="translate(-221.606 -40.034)" fill="#563139"/>
        <g id="Grupo_1100576" data-name="Grupo 1100576" transform="translate(159.252 59.633)" opacity="0.67">
          <g id="Grupo_1100575" data-name="Grupo 1100575">
            <g id="Grupo_1100574" data-name="Grupo 1100574" clip-path="url(#clip-path-18)">
              <path id="Trazado_898710" data-name="Trazado 898710" d="M382.224,113.862c-.05.017-.281-.29-.229-1.348a6.438,6.438,0,0,1,.554-2.063c.352-.851.968-1.806,1.607-3a6.685,6.685,0,0,0,.92-3.092,5.862,5.862,0,0,0-.308-1.957c-.33-.917-.526-1.185-.447-1.238.044-.036.36.148.814,1.1a5.328,5.328,0,0,1,.454,2.1,6.81,6.81,0,0,1-.94,3.349c-.664,1.236-1.274,2.151-1.632,2.95a7.465,7.465,0,0,0-.631,1.9c-.147.959-.064,1.285-.163,1.3" transform="translate(-381.987 -101.161)" fill="#96606f"/>
            </g>
          </g>
        </g>
        <g id="Grupo_1100579" data-name="Grupo 1100579" transform="translate(162.536 66.055)" opacity="0.67">
          <g id="Grupo_1100578" data-name="Grupo 1100578">
            <g id="Grupo_1100577" data-name="Grupo 1100577" clip-path="url(#clip-path-19)">
              <path id="Trazado_898711" data-name="Trazado 898711" d="M388.612,116.517c-.07.028-.179-.045-.346-.355a6.6,6.6,0,0,1-.58-1.8,3.488,3.488,0,0,1,0-1.942c.159-.358.314-.4.369-.361.175.117-.207.38.181,2.2.176.9.339,1.438.4,1.772s.048.459-.024.489" transform="translate(-387.554 -112.046)" fill="#96606f"/>
            </g>
          </g>
        </g>
        <g id="Grupo_1100582" data-name="Grupo 1100582" transform="translate(164.439 61.351)" opacity="0.67">
          <g id="Grupo_1100581" data-name="Grupo 1100581">
            <g id="Grupo_1100580" data-name="Grupo 1100580" clip-path="url(#clip-path-20)">
              <path id="Trazado_898712" data-name="Trazado 898712" d="M393.667,116.272c-.086-.012-.087-.319-.068-1.261a19.023,19.023,0,0,0-2.3-9.775c-.437-.834-.573-1.11-.5-1.159.055-.038.306.157.841.96a15.852,15.852,0,0,1,2.355,10c-.122.958-.259,1.244-.325,1.234" transform="translate(-390.778 -104.073)" fill="#96606f"/>
            </g>
          </g>
        </g>
        <path id="Trazado_898713" data-name="Trazado 898713" d="M331.536,173.656l-13.081-1.4a1.925,1.925,0,0,1-1.71-2.119l.927-8.675a1.925,1.925,0,0,1,2.119-1.71l13.08,1.4Z" transform="translate(-195.982 -65.547)" fill="#646f75"/>
        <path id="Trazado_898714" data-name="Trazado 898714" d="M342.132,182.419,327.85,196.593s-4.583,3.036-7.02.825c-.8-.722-3.208-3.525-2.85-6.394.065-.509.172-1.592.3-3.04l13.467-8.706,4.869-3.076s1.2-.359,3.349,1.915a7.087,7.087,0,0,1,2.166,4.3" transform="translate(-196.477 -72.287)" fill="#f0d0bb"/>
        <path id="Trazado_898715" data-name="Trazado 898715" d="M349.531,174.632l-.326-1.915.742-2.762s2.752-1.881,4.772-1.964,3.9-1.158,4.885,1.262a31.26,31.26,0,0,1,1.519,9.114c-.171.925-10.489,2.991-11.918,1.33s.326-5.066.326-5.066" transform="translate(-209.065 -68.802)" fill="#f0d0bb"/>
        <path id="Trazado_898716" data-name="Trazado 898716" d="M350.27,167.572a6.449,6.449,0,0,0-.741-4.159c-.535-1.024,1.3-2.189,2.129-1.114s.532,2.809,1.22,3.869a3.549,3.549,0,0,0,2.165,1.307,5.423,5.423,0,0,1-3,1.505,1.617,1.617,0,0,1-1.77-1.408" transform="translate(-209.388 -66.419)" fill="#f0d0bb"/>
        <path id="Trazado_898717" data-name="Trazado 898717" d="M349.586,158.383l-3.8-7.5a1.181,1.181,0,0,1,.775-1.179,1.334,1.334,0,0,1,1.4.244l3.8,7.153Z" transform="translate(-207.893 -61.389)" fill="#8e475a"/>
        <path id="Trazado_898718" data-name="Trazado 898718" d="M350.283,162.023l5.656,25.126a1.971,1.971,0,0,0,1.913,1.5h14.48a1.97,1.97,0,0,0,1.95-1.688l3.325-25.574a1.971,1.971,0,0,0-1.988-2.253l-23.461.448a1.97,1.97,0,0,0-1.875,2.445" transform="translate(-209.712 -65.296)" fill="#f98364"/>
        <path id="Trazado_898719" data-name="Trazado 898719" d="M397.463,179.512s-.6,1.836-4.467,2.158a21.411,21.411,0,0,1-5.78-.437c-9.115-1.728-17.3-3.335-17.3-3.335l-.953-9.387,14.457,1.707,4.231.5-1.965-11.008v-.007c.258-.847.5-1.678.667-2.467l1.4-.258,7.9-1.463c1.2,5.529,3.463,15.9,3.6,17.031a9.793,9.793,0,0,1-1.785,6.963" transform="translate(-217.393 -63.815)" fill="#f0d0bb"/>
        <path id="Trazado_898720" data-name="Trazado 898720" d="M361.875,173.643c-.348-.268-.453-1.041-1.12-1.709a22.9,22.9,0,0,0-2.846-2.178,6.622,6.622,0,0,1-1.441-1.51c-.491-.6-1.229.175-1.37.948a1.46,1.46,0,0,0,.527,1.644,10.789,10.789,0,0,1,1.205,1.378s-2.927-.281-3.806-.281-1.721.949-1.159,3.935,1,4.76,1.343,5.945.447,1.008,2.028,1.254a43.39,43.39,0,0,0,5.234.457,6.893,6.893,0,0,0,2.358-.5s.771-4.491.349-6.564a5.143,5.143,0,0,0-1.3-2.823" transform="translate(-210.311 -68.946)" fill="#f0d0bb"/>
        <path id="Trazado_898721" data-name="Trazado 898721" d="M352.777,174.415s-2.635-.383-3.654-.489-1.234,1.212-1.214,1.977a1.5,1.5,0,0,0,1.32,1.287c.562.109.954.183.954.183a1.179,1.179,0,0,0-.814.735,2.691,2.691,0,0,0,.106,1.581c.175.527,1.228.549,1.228.549s-.972-.154-.871.7-.057,1.127.305,1.549,1.135.281,1.135.281a2.989,2.989,0,0,0-.664.748,2.4,2.4,0,0,0,.235,1.579c.281.422,2.358.3,2.358.3s-.287-4.336-.458-6.092a40.2,40.2,0,0,1,.035-4.886" transform="translate(-208.763 -71.359)" fill="#f0d0bb"/>
        <path id="Trazado_898722" data-name="Trazado 898722" d="M405.385,184.838c-.059.053-.2-.009-.541-.285s-.879-.772-1.839-1.464-1.615-1.026-1.984-1.262-.477-.346-.446-.419.188-.083.615.063a10.077,10.077,0,0,1,3.935,2.805c.277.356.315.512.26.562" transform="translate(-230.354 -74.409)" fill="#e29b8d"/>
        <path id="Trazado_898723" data-name="Trazado 898723" d="M361.988,176.166c-.019.073-.082.133-.244.13a1.718,1.718,0,0,1-1.309-.976c-.048-.155-.009-.231.055-.271.15-.093.277.044.809.477.568.386.735.468.689.64" transform="translate(-213.89 -71.811)" fill="#e29b8d"/>
        <path id="Trazado_898724" data-name="Trazado 898724" d="M351.872,178.768c-.017.079-.144.11-.51.127-.185.008-.431.023-.776.021a4.29,4.29,0,0,1-1.319-.214,2.62,2.62,0,0,1-1.217-.693,1.491,1.491,0,0,1-.329-.831c-.015-.443.15-.555.207-.529.084.024.08.147.181.46a1.543,1.543,0,0,0,.328.563,2.636,2.636,0,0,0,1,.5,5.093,5.093,0,0,0,1.177.232,6.737,6.737,0,0,1,.782.1c.389.086.493.195.477.265" transform="translate(-208.686 -72.477)" fill="#e29b8d"/>
        <path id="Trazado_898725" data-name="Trazado 898725" d="M353.591,183.92c.006.076-.078.156-.365.221a5.327,5.327,0,0,1-1.572.045,3.316,3.316,0,0,1-1.008-.206.843.843,0,0,1-.5-.562.453.453,0,0,1,.06-.386c.053-.063.1-.063.133-.047.076.039.068.138.176.294a.577.577,0,0,0,.322.225,4.878,4.878,0,0,0,.864.126c1.506.109,1.871.113,1.884.29" transform="translate(-209.676 -75.072)" fill="#e29b8d"/>
        <path id="Trazado_898726" data-name="Trazado 898726" d="M351.194,187.434c.079.028.092.122.2.255.118.158.324.271,1.077.277,1.418.078,1.741.221,1.732.375s-.345.26-1.764.182a2.544,2.544,0,0,1-.942-.161.821.821,0,0,1-.464-.514.429.429,0,0,1,.035-.358c.044-.061.09-.067.125-.055" transform="translate(-210.036 -76.898)" fill="#e29b8d"/>
        <path id="Trazado_898727" data-name="Trazado 898727" d="M338.063,69.594V64.17c0-3.428,1.594-12.576,12.536-13,11.973-.46,14.788,5.014,16.016,10.029s.921,7.266.921,7.266-7.521,5.424-9.108,5.782-16.169-.768-17.908-1.484-2.456-3.172-2.456-3.172" transform="translate(-204.726 -21.022)" fill="#563139"/>
        <path id="Trazado_898728" data-name="Trazado 898728" d="M340.054,74.626a3.048,3.048,0,0,0-3.531-.512c-2.2.972-1.484,5.014.614,5.935s2.916-.256,2.916-.256S339.744,91.05,352.69,91.05c13,0,12.129-12.123,12.129-12.123s3.274.563,3.684-2.558-1.74-3.531-2.866-3.48a2.355,2.355,0,0,0-1.74,1.024v1.433a2.031,2.031,0,0,1-1.535-.837c-.409-.768-.1-4.846-1.024-7.1s-4.144-3.991-4.144-3.991H344.812s-2.353,2.968-2.61,5.424a76.649,76.649,0,0,0,0,7.88,10.106,10.106,0,0,0-1.33-.358c-.768-.154-.819-1.74-.819-1.74" transform="translate(-203.544 -26.055)" fill="#f0d0bb"/>
        <g id="Grupo_1100585" data-name="Grupo 1100585" transform="translate(134.583 43.018)" opacity="0.67">
          <g id="Grupo_1100584" data-name="Grupo 1100584">
            <g id="Grupo_1100583" data-name="Grupo 1100583" clip-path="url(#clip-path-21)">
              <path id="Trazado_898729" data-name="Trazado 898729" d="M340.945,73.006c.074.027.1.148.051.47s-.169.847-.244,1.713-.022,1.405-.031,1.73-.047.44-.125.455-.168-.074-.266-.4a6.021,6.021,0,0,1,.289-3.614c.149-.307.255-.38.326-.354" transform="translate(-340.175 -73.001)" fill="#96606f"/>
            </g>
          </g>
        </g>
        <g id="Grupo_1100588" data-name="Grupo 1100588" transform="translate(136.775 43.166)" opacity="0.67">
          <g id="Grupo_1100587" data-name="Grupo 1100587">
            <g id="Grupo_1100586" data-name="Grupo 1100586" clip-path="url(#clip-path-22)">
              <path id="Trazado_898730" data-name="Trazado 898730" d="M344.472,77.071c-.07.025-.172-.038-.3-.313a4.368,4.368,0,0,1,.043-3.2c.135-.272.239-.33.309-.305s.1.137.07.418a8.947,8.947,0,0,0-.04,2.981c.024.282-.005.389-.081.415" transform="translate(-343.89 -73.251)" fill="#96606f"/>
            </g>
          </g>
        </g>
        <g id="Grupo_1100591" data-name="Grupo 1100591" transform="translate(159.273 42.315)" opacity="0.67">
          <g id="Grupo_1100590" data-name="Grupo 1100590">
            <g id="Grupo_1100589" data-name="Grupo 1100589" clip-path="url(#clip-path-23)">
              <path id="Trazado_898731" data-name="Trazado 898731" d="M383.092,75.413c-.06.043-.176.017-.37-.21a3.582,3.582,0,0,1-.566-3.061c.1-.281.2-.348.271-.329s.115.123.118.395A6.082,6.082,0,0,0,383.061,75c.094.255.1.364.031.411" transform="translate(-382.023 -71.81)" fill="#96606f"/>
            </g>
          </g>
        </g>
        <g id="Grupo_1100594" data-name="Grupo 1100594" transform="translate(161.235 42.451)" opacity="0.67">
          <g id="Grupo_1100593" data-name="Grupo 1100593">
            <g id="Grupo_1100592" data-name="Grupo 1100592" clip-path="url(#clip-path-24)">
              <path id="Trazado_898732" data-name="Trazado 898732" d="M385.745,73.206c-.152.025-.293-.064-.371-.536s.028-.6.18-.627.293.064.371.536-.028.6-.179.627" transform="translate(-385.348 -72.039)" fill="#96606f"/>
            </g>
          </g>
        </g>
        <path id="Trazado_898733" data-name="Trazado 898733" d="M348.21,74.873c.086.007.309.029.638.057a4.759,4.759,0,0,1-.638-.057" transform="translate(-208.886 -30.75)" fill="#db376a"/>
        <path id="Trazado_898734" data-name="Trazado 898734" d="M366.907,56.442s-5.034-3.356-14.987-3.356a37.712,37.712,0,0,0-5.249.344c-6.2.854-8.893,3.012-8.893,3.012S336.043,40.5,351.69,40.5a20.8,20.8,0,0,1,5.887.767.007.007,0,0,1,.007.008c10.821,3.184,9.323,15.167,9.323,15.167" transform="translate(-204.586 -16.658)" fill="#ed807c"/>
        <path id="Trazado_898735" data-name="Trazado 898735" d="M373.126,56.981s-5.034-3.356-14.987-3.356a37.711,37.711,0,0,0-5.249.344,11.882,11.882,0,0,1,5.393-2.022,21.285,21.285,0,0,1,11.4,1.871c0-2.158.237-8.175-5.881-12,10.821,3.184,9.323,15.167,9.323,15.167" transform="translate(-210.805 -17.196)" fill="#db376a"/>
        <path id="Trazado_898736" data-name="Trazado 898736" d="M366.947,64.734s-1.42,4.145-14.564,4.145c-.868,0-1.686-.021-2.453-.05-10.871-.48-12.112-4.095-12.112-4.095s4.453-4.008,14.543-4.008a27.135,27.135,0,0,1,12.248,2.546,11.412,11.412,0,0,1,2.338,1.463" transform="translate(-204.626 -24.95)" fill="#8f4d4b"/>
        <g id="Grupo_1100597" data-name="Grupo 1100597" transform="translate(145.304 38.321)" opacity="0.46">
          <g id="Grupo_1100596" data-name="Grupo 1100596">
            <g id="Grupo_1100595" data-name="Grupo 1100595" clip-path="url(#clip-path-25)">
              <path id="Trazado_898737" data-name="Trazado 898737" d="M375.364,66.5s-1.42,4.145-14.564,4.145c-.868,0-1.686-.021-2.453-.05,1.412-.158,3.141-.387,5.235-.71,6.5-1.011,8.713-3.478,9.444-4.847a11.412,11.412,0,0,1,2.338,1.463" transform="translate(-358.347 -65.04)" fill="#db376a"/>
            </g>
          </g>
        </g>
        <path id="Trazado_898738" data-name="Trazado 898738" d="M353.032,84.615a.359.359,0,0,1-.355-.307,1.507,1.507,0,0,0-1.692-1.177,1.125,1.125,0,0,0-1.279,1.126.36.36,0,0,1-.358.357h0a.358.358,0,0,1-.358-.356,2,2,0,0,1,.537-1.307,1.975,1.975,0,0,1,1.458-.537,2.235,2.235,0,0,1,2.4,1.793.358.358,0,0,1-.306.4.361.361,0,0,1-.05,0" transform="translate(-209.206 -33.842)" fill="#33181f"/>
        <path id="Trazado_898739" data-name="Trazado 898739" d="M375.348,84.615h0a.359.359,0,0,1-.357-.36,1.124,1.124,0,0,0-1.279-1.124c-1.469,0-1.674,1.057-1.692,1.177a.358.358,0,0,1-.71-.1,2.235,2.235,0,0,1,2.4-1.793,1.975,1.975,0,0,1,1.458.537,2,2,0,0,1,.538,1.307.358.358,0,0,1-.358.357" transform="translate(-218.356 -33.842)" fill="#33181f"/>
        <path id="Trazado_898740" data-name="Trazado 898740" d="M362.755,87.759a4.018,4.018,0,0,1,.284,1.145,2.466,2.466,0,0,1-.183,1.217,4.625,4.625,0,0,0-.464.971,1.139,1.139,0,0,0,.32.963,1.05,1.05,0,0,1-.686-.986,2.778,2.778,0,0,1,.4-1.141,6.808,6.808,0,0,0,.327-2.169" transform="translate(-214.551 -36.034)" fill="#eaa294"/>
        <path id="Trazado_898741" data-name="Trazado 898741" d="M360.971,99.1a9.9,9.9,0,0,1-2.246-.25.235.235,0,0,1,.116-.455,9.383,9.383,0,0,0,4.1,0,4.191,4.191,0,0,0,2.5-1.351.238.238,0,0,1,.322-.078.235.235,0,0,1,.081.32c-.024.04-.617,1-2.784,1.564a8.411,8.411,0,0,1-2.093.25" transform="translate(-213.125 -39.796)" fill="#563139"/>
        <path id="Trazado_898742" data-name="Trazado 898742" d="M352.349,96.307a2.135,2.135,0,1,1-2.1-1.74,1.944,1.944,0,0,1,2.1,1.74" transform="translate(-208.863 -38.825)" fill="#ff9cc0"/>
        <path id="Trazado_898743" data-name="Trazado 898743" d="M377.493,96.307a2.135,2.135,0,1,1-2.1-1.74,1.944,1.944,0,0,1,2.1,1.74" transform="translate(-219.172 -38.825)" fill="#ff9cc0"/>
        <path id="Trazado_898744" data-name="Trazado 898744" d="M347.989,75.713c.122.6.238.954,1.041.694a5.806,5.806,0,0,1,2.689.087c.542.152.954.13,1.128-.543s-.152-1.171-1.627-1.366-3.4.281-3.231,1.128" transform="translate(-208.792 -30.615)" fill="#563139"/>
        <path id="Trazado_898745" data-name="Trazado 898745" d="M374.733,75.713c-.122.6-.238.954-1.041.694a5.805,5.805,0,0,0-2.689.087c-.542.152-.954.13-1.128-.543s.152-1.171,1.626-1.366,3.4.281,3.231,1.128" transform="translate(-217.752 -30.615)" fill="#563139"/>
        <path id="Trazado_898746" data-name="Trazado 898746" d="M340.318,85.867a1.25,1.25,0,1,1-1.25-1.25,1.249,1.249,0,0,1,1.25,1.25" transform="translate(-204.626 -34.745)" fill="#ff9cc0"/>
        <path id="Trazado_898747" data-name="Trazado 898747" d="M387.69,83.749a1.25,1.25,0,1,1-1.25-1.25,1.249,1.249,0,0,1,1.25,1.25" transform="translate(-224.049 -33.877)" fill="#ff9cc0"/>
        <path id="Trazado_898748" data-name="Trazado 898748" d="M483.031,147.053l3.2,20.09s.628,4.636,0,4.848a18.271,18.271,0,0,1-6.317-.917,8.712,8.712,0,0,1-3.454-2.008L470.539,147.3s3.75-.594,5.541-1.041,6.951.793,6.951.793" transform="translate(-259.041 -59.979)" fill="#b9705d"/>
        <path id="Trazado_898749" data-name="Trazado 898749" d="M477.35,129.31c3.675.448,5.109,1.7,6.364,5.289a31.749,31.749,0,0,1,1.524,7.17,11.268,11.268,0,0,1-3.944.628,10.034,10.034,0,0,1-3.944-.717s-2.326-5.02-1.836-8.156,1.836-4.214,1.836-4.214" transform="translate(-261.053 -53.069)" fill="#e9f5ff"/>
        <path id="Trazado_898750" data-name="Trazado 898750" d="M488.418,159.227l7.35-18.279s.9-.9,4.124,0,2.51,2.518,2.51,2.518-6.723,25.054-7.35,26.282-3.944.806-8.157-.058-3.137-3.285-2.689-5.7,4.213-4.758,4.213-4.758" transform="translate(-264.456 -57.678)" fill="#b9705d"/>
        <path id="Trazado_898751" data-name="Trazado 898751" d="M432.376,124.689s-4.981.937-6.416,1.923-4.7,4.89-3.265,16,3.406,17.21,1.792,26.174-3.316,20.527-3.316,20.527,7.709,5.02,22.051,4.3S465.99,186.9,465.99,186.9s-5.647-14.88-5.826-27.788-3.249-30.448-4.324-31.613-9.126-3.428-9.126-3.428Z" transform="translate(-238.8 -50.921)" fill="#e9f5ff"/>
        <path id="Trazado_898752" data-name="Trazado 898752" d="M449.035,121.192c-6.181,0-8.871-3.672-8.871-3.672s1.341-.086,1.341-2.151v-8.785l.645.05,11.545.846V113.4c0,.122,0,.244.008.359a5.99,5.99,0,0,0,.8,3.149s.722,4.288-5.467,4.288" transform="translate(-246.588 -43.752)" fill="#b9705d"/>
        <g id="Grupo_1100600" data-name="Grupo 1100600" transform="translate(195.497 60.947)" opacity="0.64">
          <g id="Grupo_1100599" data-name="Grupo 1100599">
            <g id="Grupo_1100598" data-name="Grupo 1100598" clip-path="url(#clip-path-26)">
              <path id="Trazado_898753" data-name="Trazado 898753" d="M455.031,112.087c0,.122,0,.244.007.359-1.054.387-3.385.875-7.028-.316-3.428-1.119-4.317-4.59-4.525-6.805a11.258,11.258,0,0,1-.043-1.936,109.026,109.026,0,0,1,11.653,2.646l-.064.136Z" transform="translate(-443.42 -103.388)" fill="#963c3c"/>
            </g>
          </g>
        </g>
        <path id="Trazado_898754" data-name="Trazado 898754" d="M455.74,72.476c1.534.059.885-.708,1.062-2.065s0-1.061,0-4.424-1-9.321-11.74-9.321-14.336,5.428-14.336,10.678V77.962a18.688,18.688,0,0,0,6.49,1.593c3.008,0,7.61.236,10.383-1.062s8.141-6.017,8.141-6.017" transform="translate(-242.718 -23.285)" fill="#1c2238"/>
        <path id="Trazado_898755" data-name="Trazado 898755" d="M455.151,76.415V87.506c0,3.422-2.832,7.551-10.737,7.138s-11.091-5.368-11.091-9.911a3.278,3.278,0,0,1-3.539-1.121,2.867,2.867,0,0,1,1.887-4.365,2.062,2.062,0,0,1,2.478,2.064c0,.944-.413,2.3.649,2.3s1.357-.177,1.357-1.18V80.191c0-1.061,1.061-.648,1.356-1.3s-.177-1.357.531-2.065,1.947-.236,2.242-1-.059-1.652.472-2.891.59-4.07,6.312-4.07,5.958,3.161,5.958,4.9c0,3.3,2.124,2.655,2.124,2.655" transform="translate(-242.128 -28.287)" fill="#b9705d"/>
        <path id="Trazado_898756" data-name="Trazado 898756" d="M430.727,66.631V58.489c0-3.421,2.242-10.324,12.566-10.324s13.589,6.6,13.589,11.445v5.545s-3.324,2.065-12.291,2.065a128.981,128.981,0,0,1-13.864-.59" transform="translate(-242.718 -19.8)" fill="#f1b95a"/>
        <path id="Trazado_898757" data-name="Trazado 898757" d="M437.212,74.32a24.77,24.77,0,0,1,16.7-8.039c7.668-.615,8.849,1.239,9.144,3.127s-3.52,3.127-3.52,3.127-1.343,1.307-8.927,1.959a65.679,65.679,0,0,1-13.4-.173" transform="translate(-245.377 -27.178)" fill="#ed7540"/>
        <path id="Trazado_898758" data-name="Trazado 898758" d="M454.625,58.362V61.7a23.881,23.881,0,0,1,4.247-.443,12.291,12.291,0,0,1,3.481.443V58.673a7.326,7.326,0,0,0-3.865-.724c-2.271.177-3.864.413-3.864.413" transform="translate(-252.517 -23.802)" fill="#ffdeae"/>
        <g id="Grupo_1100603" data-name="Grupo 1100603" transform="translate(192.591 78.021)" opacity="0.46">
          <g id="Grupo_1100602" data-name="Grupo 1100602">
            <g id="Grupo_1100601" data-name="Grupo 1100601" clip-path="url(#clip-path-27)">
              <path id="Trazado_898759" data-name="Trazado 898759" d="M438.5,159c-.021-.032.124-.173.528-.486s1.08-.775,2.049-1.554A45.951,45.951,0,0,0,456.5,135.424c.425-1.169.642-1.959.811-2.44s.252-.664.29-.656.021.209-.08.712a22.745,22.745,0,0,1-.647,2.508,42.965,42.965,0,0,1-15.561,21.734,22.761,22.761,0,0,1-2.167,1.42c-.442.258-.627.337-.647.3" transform="translate(-438.494 -132.328)" fill="#6c99bc"/>
            </g>
          </g>
        </g>
        <g id="Grupo_1100606" data-name="Grupo 1100606" transform="translate(206.452 90.546)" opacity="0.46">
          <g id="Grupo_1100605" data-name="Grupo 1100605">
            <g id="Grupo_1100604" data-name="Grupo 1100604" clip-path="url(#clip-path-28)">
              <path id="Trazado_898760" data-name="Trazado 898760" d="M470.259,153.558c.063.02.065.327-.253,1.2a12.863,12.863,0,0,1-6.827,7.02c-.861.342-1.168.348-1.189.286-.031-.083.229-.221,1.022-.643a14.9,14.9,0,0,0,6.633-6.82c.4-.8.53-1.068.614-1.04" transform="translate(-461.987 -153.556)" fill="#6c99bc"/>
            </g>
          </g>
        </g>
        <g id="Grupo_1100609" data-name="Grupo 1100609" transform="translate(190.123 80.066)" opacity="0.46">
          <g id="Grupo_1100608" data-name="Grupo 1100608">
            <g id="Grupo_1100607" data-name="Grupo 1100607" clip-path="url(#clip-path-29)">
              <path id="Trazado_898761" data-name="Trazado 898761" d="M434.341,135.8c.063-.024.278.271.664,1.325a21.014,21.014,0,0,1,.469,11.986c-.3,1.08-.5,1.392-.559,1.372-.083-.024-.025-.376.175-1.46a25.256,25.256,0,0,0-.461-11.781c-.284-1.065-.369-1.412-.288-1.443" transform="translate(-434.311 -135.794)" fill="#6c99bc"/>
            </g>
          </g>
        </g>
        <path id="Trazado_898762" data-name="Trazado 898762" d="M499.128,139.626V121.737c0-4.022,2.176-3.305,2.624-2.409a8.868,8.868,0,0,1,.355,3.067h.568s.512-4.187-1.953-4.187-2.151,3.5-2.151,8.606v15.014Z" transform="translate(-270.529 -48.518)" fill="#bae8ff"/>
        <path id="Trazado_898763" data-name="Trazado 898763" d="M509.566,135.079s.986-4.131,1.165-5.476-1.03-7.53-1.1-8.157-5.894-1.434-6.791-1.345-1.434,9.054-1.613,10.129,1.7,2.331,1.7,2.331Z" transform="translate(-271.619 -49.291)" fill="#b9705d"/>
        <path id="Trazado_898764" data-name="Trazado 898764" d="M501.7,119.593l-3.02-.666c-1.211-.367-1.382,1.124-1.333,1.882s.367,1.027,1.149,1.2,2.126.66,2.126.66,1.319.024,1.515-1.027a3.21,3.21,0,0,0-.437-2.047" transform="translate(-270.03 -48.789)" fill="#b9705d"/>
        <path id="Trazado_898765" data-name="Trazado 898765" d="M500.169,124.443s-3.323-.684-3.861-.758-.855.758-.9,1.344a1.684,1.684,0,0,0,.586,1.491,16.326,16.326,0,0,0,3.279.8,1.084,1.084,0,0,0,1.292-.6,1.989,1.989,0,0,0,.122-1.637c-.235-.537-.513-.635-.513-.635" transform="translate(-269.233 -50.762)" fill="#b9705d"/>
        <path id="Trazado_898766" data-name="Trazado 898766" d="M499.634,129.3s-3.658-.7-4.538-.82-1.051.733-1.247,1.173a1.949,1.949,0,0,0,.415,1.564,22.077,22.077,0,0,0,4.587,1.126c.66.025,1.04-.44,1.3-1.1s-.52-1.943-.52-1.943" transform="translate(-268.576 -52.725)" fill="#b9705d"/>
        <path id="Trazado_898767" data-name="Trazado 898767" d="M499.554,134.075s-2.434-.586-3.086-.611a1.219,1.219,0,0,0-1.148.782,1.82,1.82,0,0,0,0,1.246,1.689,1.689,0,0,0,1.026.929c.691.293,3.5,1.136,3.5,1.136a3.321,3.321,0,0,0,.441-1.5,2.8,2.8,0,0,0-.733-1.979" transform="translate(-269.156 -54.772)" fill="#b9705d"/>
        <path id="Trazado_898768" data-name="Trazado 898768" d="M511.074,117.05c-.651-.5-.9-1.817-1.067-2.452s-.073-3.495-.293-4.228-1.222-.782-2.2,0a2.849,2.849,0,0,0-1.075,2.835c.146,1.1.2,1.3-.269,1.833a3.679,3.679,0,0,1-1.439.837A5.682,5.682,0,0,0,507.9,117.8a9.906,9.906,0,0,0,3.262,0Z" transform="translate(-273.06 -45.071)" fill="#b9705d"/>
        <path id="Trazado_898769" data-name="Trazado 898769" d="M499.665,134.112c-.047.156-.352.158-1.564-.11-1.217-.243-1.5-.367-1.476-.529.016-.143.332-.267,1.591-.017,1.253.277,1.492.519,1.449.656" transform="translate(-269.736 -54.71)" fill="#9b3c32"/>
        <path id="Trazado_898770" data-name="Trazado 898770" d="M500.594,129.721c-.038.149-.424.179-1.951-.212s-1.85-.6-1.812-.752.424-.179,1.951.212,1.85.6,1.812.752" transform="translate(-269.82 -52.8)" fill="#9b3c32"/>
        <path id="Trazado_898771" data-name="Trazado 898771" d="M502.227,124.408c-.045.155-.431.144-1.993-.225-1.567-.348-1.92-.506-1.893-.666.024-.144.424-.232,2.017.122,1.588.375,1.91.628,1.869.769" transform="translate(-270.439 -50.643)" fill="#9b3c32"/>
        <path id="Trazado_898772" data-name="Trazado 898772" d="M491.491,153.792c0,4.439-.9,8.039-5.78,8.039s-5.78-3.6-5.78-8.039c0-.566,2.589-1.033,5.78-1.033s5.78.466,5.78,1.033" transform="translate(-262.892 -62.684)" fill="#bae8ff"/>
        <path id="Trazado_898773" data-name="Trazado 898773" d="M491.491,153.792c0,.573-2.589,1.032-5.78,1.032s-5.78-.459-5.78-1.032,2.589-1.033,5.78-1.033,5.78.466,5.78,1.033" transform="translate(-262.892 -62.684)" fill="#6c99bc"/>
        <path id="Trazado_898774" data-name="Trazado 898774" d="M425.09,157.1c.021.445-2.381,12.635-2.381,12.635l-.05.237-.143.725-1.915,9.674s-6.346.208-7.831.351h-.014c-.043.008-.086.008-.122.015-1.162.143-2.675-1.492-2.876-2.023-.165-.423,1.65-16.852,2.374-23.306.172-1.585.287-2.568.287-2.568Z" transform="translate(-234.117 -62.718)" fill="#b9705d"/>
        <path id="Trazado_898775" data-name="Trazado 898775" d="M426.059,147.928s2.819-9.481.942-15.138-9.432-5.46-12.132-1.746S410.263,144,410.263,144a27.113,27.113,0,0,0,7.185,2.845,31.218,31.218,0,0,0,8.61,1.084" transform="translate(-234.328 -52.688)" fill="#e9f5ff"/>
        <g id="Grupo_1100612" data-name="Grupo 1100612" transform="translate(192.096 82.085)" opacity="0.46">
          <g id="Grupo_1100611" data-name="Grupo 1100611">
            <g id="Grupo_1100610" data-name="Grupo 1100610" clip-path="url(#clip-path-30)">
              <path id="Trazado_898776" data-name="Trazado 898776" d="M438.685,139.217c.071-.008.184.284.3,1.234a29.045,29.045,0,0,1-.8,10.281c-.264.92-.42,1.191-.49,1.172s-.057-.327.106-1.259a44.468,44.468,0,0,0,.79-10.166c-.017-.946.009-1.253.091-1.261" transform="translate(-437.654 -139.216)" fill="#6c99bc"/>
            </g>
          </g>
        </g>
        <g id="Grupo_1100615" data-name="Grupo 1100615" transform="translate(217.478 79.067)" opacity="0.46">
          <g id="Grupo_1100614" data-name="Grupo 1100614">
            <g id="Grupo_1100613" data-name="Grupo 1100613" clip-path="url(#clip-path-31)">
              <path id="Trazado_898777" data-name="Trazado 898777" d="M480.71,134.1c.068-.028.233.169.547.88a22.609,22.609,0,0,1,1.675,8.192c-.01.776-.084,1.022-.158,1.024s-.146-.241-.236-1-.2-2.042-.608-4.084c-.427-2.038-.837-3.258-1.044-3.995s-.251-.984-.176-1.014" transform="translate(-480.675 -134.101)" fill="#6c99bc"/>
            </g>
          </g>
        </g>
        <path id="Trazado_898778" data-name="Trazado 898778" d="M451.343,87c0,.708-.355,1.282-.792,1.282s-.792-.574-.792-1.282.355-1.282.792-1.282.792.574.792,1.282" transform="translate(-250.521 -35.198)" fill="#1c2238"/>
        <path id="Trazado_898779" data-name="Trazado 898779" d="M467.966,87c0,.708-.355,1.282-.792,1.282s-.792-.574-.792-1.282.355-1.282.792-1.282.792.574.792,1.282" transform="translate(-257.337 -35.198)" fill="#1c2238"/>
        <path id="Trazado_898780" data-name="Trazado 898780" d="M460.636,89.782a1.8,1.8,0,0,0,.569.922,2.749,2.749,0,0,1,.74,1.041,1.316,1.316,0,0,1-.39,1.389,1.055,1.055,0,0,1-1.281.1,1.015,1.015,0,0,0,.987-1.276,5.575,5.575,0,0,0-.508-.929,1.266,1.266,0,0,1-.117-1.248" transform="translate(-254.833 -36.863)" fill="#af4745"/>
        <path id="Trazado_898781" data-name="Trazado 898781" d="M460.4,98.276a.678.678,0,0,1,.678.733,12.868,12.868,0,0,1-.31,2.078,1.041,1.041,0,0,1-.143.323,3.48,3.48,0,0,1-4.173.932,2.533,2.533,0,0,1-1.349-1.262,5.267,5.267,0,0,1-.495-2.1.678.678,0,0,1,.681-.7Z" transform="translate(-252.511 -40.346)" fill="#3c203f"/>
        <path id="Trazado_898782" data-name="Trazado 898782" d="M460.974,102.917a3.482,3.482,0,0,1-4.174.932,2.534,2.534,0,0,1-1.348-1.262,6.2,6.2,0,0,1,3.091-.624,3.832,3.832,0,0,1,2.431.954" transform="translate(-252.856 -41.854)" fill="#ffb6bf"/>
        <path id="Trazado_898783" data-name="Trazado 898783" d="M447.761,83.208a2.5,2.5,0,0,1,1.828-.867c1.143,0,1.217.867,1.542.867s.379-1.793-1.542-1.793-2.152.867-2.2,1.256.238.684.375.537" transform="translate(-249.546 -33.433)" fill="#1c2238"/>
        <path id="Trazado_898784" data-name="Trazado 898784" d="M464.844,83.208a2.223,2.223,0,0,1,1.661-.867c1.038,0,1.106.867,1.4.867s.345-1.793-1.4-1.793-1.956.867-2,1.256.216.684.34.537" transform="translate(-256.564 -33.433)" fill="#1c2238"/>
        <path id="Trazado_898785" data-name="Trazado 898785" d="M480.228,169.036a11.38,11.38,0,1,1-22.746,0c0-.732,5.091-1.327,11.373-1.327s11.373.6,11.373,1.327" transform="translate(-253.688 -68.813)" fill="#bae8ff"/>
        <path id="Trazado_898786" data-name="Trazado 898786" d="M480.228,169.036c0,.732-5.092,1.327-11.373,1.327s-11.373-.6-11.373-1.327,5.091-1.327,11.373-1.327,11.373.6,11.373,1.327" transform="translate(-253.688 -68.813)" fill="#9fd2f4"/>
        <path id="Trazado_898787" data-name="Trazado 898787" d="M480.043,169.212c0,.592-4.821,1.072-10.768,1.072s-10.768-.48-10.768-1.072,4.821-1.072,10.768-1.072,10.768.48,10.768,1.072" transform="translate(-254.108 -68.99)" fill="#6c99bc"/>
        <path id="Trazado_898788" data-name="Trazado 898788" d="M438.879,187.977s-14.163,3.915-17.21,4.274a50.651,50.651,0,0,1-6.174.48,7.808,7.808,0,0,1-1.664-.165h-.014a2.112,2.112,0,0,1-.753-.316c-.867-.653-.946-1.578-.315-3.4l.007-.029c.229-.653.545-1.412.939-2.323,1.52-3.478,6.719-4.775,6.719-4.775l1.714.05,1.592.043,14.823.43.028.487.251,4.324Z" transform="translate(-235.177 -74.559)" fill="#b9705d"/>
        <path id="Trazado_898789" data-name="Trazado 898789" d="M421.158,185.7c-.055-.044,0-.247.376-.73a9.583,9.583,0,0,1,5.659-3.239c.608-.081.81-.024.82.046s-.169.164-.733.339a12.841,12.841,0,0,0-5.457,3.123c-.437.4-.6.513-.664.461" transform="translate(-238.788 -74.546)" fill="#9b3c32"/>
        <path id="Trazado_898790" data-name="Trazado 898790" d="M456.263,180.334a14.821,14.821,0,0,1,3.3-2.007c1.016-.239,2.689-.777,3.167-.777a3.115,3.115,0,0,0,1.793-.418c.657-.418.956,1.111.418,1.6s-1.972,1.088-2.152,1.327a7.538,7.538,0,0,0-.3,1.733l3.944,1.076-.956,4.84-8.874-1.644a4.321,4.321,0,0,1-1.045-2.718,9.92,9.92,0,0,1,.706-3.013" transform="translate(-252.897 -72.647)" fill="#b9705d"/>
        <path id="Trazado_898791" data-name="Trazado 898791" d="M472.216,193.436a10.073,10.073,0,0,0,2.839.12A5.378,5.378,0,0,0,477,192.1a1.721,1.721,0,0,0,.443-1.051s-2.4-.04-3.581,0-1.62.09-1.811.537a4.894,4.894,0,0,0,.168,1.853" transform="translate(-259.637 -78.374)" fill="#b9705d"/>
        <path id="Trazado_898792" data-name="Trazado 898792" d="M472.742,190.8a15.5,15.5,0,0,0,3.4.148,11.287,11.287,0,0,0,2.571-1.91s0-.481-.629-.6a6.394,6.394,0,0,0-1.584,0s-1.015.329-1.882.507a1.954,1.954,0,0,1-1.459-.25,1.164,1.164,0,0,0-.6.758,2.978,2.978,0,0,0,.187,1.346" transform="translate(-259.856 -77.29)" fill="#b9705d"/>
        <path id="Trazado_898793" data-name="Trazado 898793" d="M473.211,185.838l1.74.25,2.448-.25a11.331,11.331,0,0,1,1.661-1.342c.685-.394,1.489-.155,1.489.428s-1.729,2.294-2.243,2.6a16.13,16.13,0,0,1-3.612.48c-.274,0-1.866-.229-1.866-.229a2.633,2.633,0,0,1-.736-1.071c-.068-.463.646-.809,1.119-.867" transform="translate(-259.676 -75.616)" fill="#b9705d"/>
        <path id="Trazado_898794" data-name="Trazado 898794" d="M388,266.827v97.116a2.569,2.569,0,0,1-2.569,2.569H234.017a2.569,2.569,0,0,1-2.569-2.569V266.827Z" transform="translate(-161.014 -109.451)" fill="#d88a68"/>
        <rect id="Rectángulo_403073" data-name="Rectángulo 403073" width="156.554" height="18.669" transform="translate(70.434 163.226)" fill="#c9574b"/>
        <path id="Trazado_898795" data-name="Trazado 898795" d="M395.205,267.309H194.689l21.47-41.82a1.832,1.832,0,0,1,1.63-1H372.105a1.832,1.832,0,0,1,1.63,1Z" transform="translate(-145.943 -92.095)" fill="#f9c8b7"/>
        <path id="Trazado_898800" data-name="Trazado 898800" d="M144.7,130.887c-.244,0-1.079-.825-15.09-24.424l.484-.349c5.58,9.4,14.111,23.594,14.745,24.188l-.162.211.012.045.282.1-.244.222-.027,0" transform="translate(-119.26 -43.559)" fill="#5e91ad"/>
        <path id="Trazado_898801" data-name="Trazado 898801" d="M162.78,129.473l-9.006-24.5.536-.24,9.006,24.5Z" transform="translate(-129.168 -42.995)" fill="#5e91ad"/>
        <path id="Trazado_898802" data-name="Trazado 898802" d="M192.505,130.887l-.027,0-.244-.222.275-.1-.143-.257c.634-.594,9.165-14.791,14.745-24.188l.483.349c-14.01,23.6-14.845,24.424-15.089,24.424" transform="translate(-144.937 -43.559)" fill="#5e91ad"/>
        <path id="Trazado_898803" data-name="Trazado 898803" d="M178.466,129.473l-.536-.24,9.006-24.5.536.24Z" transform="translate(-139.072 -42.995)" fill="#5e91ad"/>
        <path id="Trazado_898804" data-name="Trazado 898804" d="M182,91.58h-.136a8.5,8.5,0,0,0-7.475-4.9,8.323,8.323,0,0,0-7,4.071c-2.649-2.472-6.968-4.071-11.835-4.071-4.9,0-9.234,1.617-11.871,4.1a8.349,8.349,0,0,0-7.021-4.1,8.5,8.5,0,0,0-7.475,4.9h-.083a26.456,26.456,0,0,1,26.45-25.86c.614,0,1.221.024,1.823.065A26.449,26.449,0,0,1,182,91.58" transform="translate(-119.056 -26.998)" fill="#ff9b9b"/>
        <path id="Trazado_898805" data-name="Trazado 898805" d="M181.081,144.252v17a5.652,5.652,0,0,1-5.646,5.652H150.684a5.648,5.648,0,0,1-5.646-5.652v-17a5.648,5.648,0,0,1,5.646-5.652h24.751a5.652,5.652,0,0,1,5.646,5.652" transform="translate(-125.586 -56.878)" fill="#e9835b"/>
        <path id="Trazado_898806" data-name="Trazado 898806" d="M181.26,144.429v17a5.652,5.652,0,0,1-5.646,5.652H150.864a5.658,5.658,0,0,1-5.393-3.965,5.8,5.8,0,0,0,1.67.248h24.751a5.652,5.652,0,0,0,5.646-5.652v-17a5.659,5.659,0,0,0-.254-1.682,5.657,5.657,0,0,1,3.977,5.4" transform="translate(-125.764 -57.055)" fill="#d66647"/>
        <path id="Trazado_898807" data-name="Trazado 898807" d="M176.57,138.6v15.482a2.674,2.674,0,0,1-2.673,2.673h-1.133a2.669,2.669,0,0,1-2.667-2.673V138.6Z" transform="translate(-135.861 -56.878)" fill="#f8efea"/>
        <path id="Trazado_898808" data-name="Trazado 898808" d="M157.655,148.241h-8.913A1.24,1.24,0,0,1,147.5,147v-2.413a1.24,1.24,0,0,1,1.24-1.24h8.913a1.239,1.239,0,0,1,1.24,1.24V147a1.239,1.239,0,0,1-1.24,1.24" transform="translate(-126.597 -58.825)" fill="#f8efea"/>
        <path id="Trazado_898809" data-name="Trazado 898809" d="M524.24,87.669c-.244,0-1.078-.825-15.089-24.424l.483-.349c5.58,9.4,14.111,23.594,14.745,24.188l-.162.211.012.045.282.1-.244.222-.027,0" transform="translate(-274.872 -25.84)" fill="#5e91ad"/>
        <path id="Trazado_898810" data-name="Trazado 898810" d="M542.322,86.256l-9.006-24.5.536-.24,9.006,24.5Z" transform="translate(-284.78 -25.275)" fill="#5e91ad"/>
        <path id="Trazado_898811" data-name="Trazado 898811" d="M572.048,87.669l-.027,0-.244-.222.275-.1-.143-.257c.634-.594,9.165-14.791,14.745-24.188l.483.349c-14.01,23.6-14.845,24.424-15.089,24.424" transform="translate(-300.549 -25.84)" fill="#5e91ad"/>
        <path id="Trazado_898812" data-name="Trazado 898812" d="M558.009,86.256l-.536-.24,9.006-24.5.536.24Z" transform="translate(-294.684 -25.275)" fill="#5e91ad"/>
        <path id="Trazado_898813" data-name="Trazado 898813" d="M561.548,48.362h-.136a8.5,8.5,0,0,0-7.475-4.9,8.323,8.323,0,0,0-7,4.071c-2.649-2.472-6.968-4.071-11.835-4.071-4.9,0-9.234,1.617-11.871,4.1a8.349,8.349,0,0,0-7.021-4.1,8.5,8.5,0,0,0-7.475,4.9h-.083A26.456,26.456,0,0,1,535.1,22.5c.614,0,1.221.024,1.823.065a26.449,26.449,0,0,1,24.621,25.795" transform="translate(-274.668 -9.278)" fill="#f5b3b1"/>
        <path id="Trazado_898814" data-name="Trazado 898814" d="M560.624,101.034v17a5.652,5.652,0,0,1-5.646,5.652h-24.75a5.648,5.648,0,0,1-5.646-5.652v-17a5.648,5.648,0,0,1,5.646-5.652h24.75a5.652,5.652,0,0,1,5.646,5.652" transform="translate(-281.198 -39.159)" fill="#e9835b"/>
        <path id="Trazado_898815" data-name="Trazado 898815" d="M560.8,101.21v17a5.652,5.652,0,0,1-5.646,5.652H530.407a5.658,5.658,0,0,1-5.393-3.965,5.8,5.8,0,0,0,1.67.248h24.751a5.652,5.652,0,0,0,5.646-5.652v-17a5.659,5.659,0,0,0-.254-1.682,5.657,5.657,0,0,1,3.977,5.4" transform="translate(-281.376 -39.335)" fill="#d66647"/>
        <path id="Trazado_898816" data-name="Trazado 898816" d="M556.113,95.382v15.482a2.674,2.674,0,0,1-2.673,2.673h-1.133a2.669,2.669,0,0,1-2.667-2.673V95.382Z" transform="translate(-291.473 -39.159)" fill="#f8efea"/>
        <path id="Trazado_898817" data-name="Trazado 898817" d="M537.2,105.024h-8.913a1.24,1.24,0,0,1-1.24-1.24v-2.413a1.24,1.24,0,0,1,1.24-1.24H537.2a1.24,1.24,0,0,1,1.24,1.24v2.413a1.24,1.24,0,0,1-1.24,1.24" transform="translate(-282.209 -41.107)" fill="#f8efea"/>
      </g>
    </g>
  </g>
</svg>
