<svg xmlns="http://www.w3.org/2000/svg" width="85" height="93" viewBox="0 0 85 93">
  <g id="Grupo_1100839" data-name="Grupo 1100839" transform="translate(-180 -836.863)">
    <g id="Grupo_1100420" data-name="Grupo 1100420" transform="translate(-524.73 -2025.137)">
      <rect id="Rectángulo_402215" data-name="Rectángulo 402215" width="85" height="93" rx="15" transform="translate(704.73 2862)" fill="#106273"/>
      <g id="calidad-de-vida" transform="translate(712.377 2871.723)">
        <path id="Trazado_899481" data-name="Trazado 899481" d="M55.73,33.287A1.159,1.159,0,0,0,54.578,32H49.941a1.159,1.159,0,0,0-1.094.777l-.435,1.261c-1.151,4.6-3.139,7.382-5.892,11.228l-.6.833a2.325,2.325,0,0,1-1.887.97h-.03a6.955,6.955,0,1,0-10.34,0,2.326,2.326,0,0,1-1.881-.967l-.6-.842c-2.752-3.843-4.739-6.621-5.919-11.326l-.406-1.159A1.159,1.159,0,0,0,19.765,32H15.128a1.159,1.159,0,0,0-1.152,1.287,31.817,31.817,0,0,0,5.445,14.549l6.14,8.869V66.777H27.88V56.344a1.157,1.157,0,0,0-.206-.66l-6.347-9.167a29.5,29.5,0,0,1-4.875-12.2h2.493l.1.281c1.257,5.031,3.461,8.111,6.253,12.011l.6.838a4.657,4.657,0,0,0,3.776,1.939H40.036a4.647,4.647,0,0,0,3.774-1.944l.594-.83c2.793-3.9,5-6.982,6.226-11.913l.133-.383h2.489a29.468,29.468,0,0,1-4.875,12.2l-6.347,9.167a1.171,1.171,0,0,0-.205.661V66.777h2.318V56.705l6.14-8.869A31.8,31.8,0,0,0,55.73,33.287ZM34.837,37.8A4.637,4.637,0,1,1,30.2,42.433,4.642,4.642,0,0,1,34.837,37.8Z" transform="translate(0 4.777)" fill="#a1cad2"/>
        <path id="Trazado_899482" data-name="Trazado 899482" d="M32.945,30.669a1.16,1.16,0,0,0,1.294,0c2.568-1.726,10.945-7.861,10.945-14.353a5.959,5.959,0,0,0-4.732-6.151,7.181,7.181,0,0,0-6.86,2.243,7.171,7.171,0,0,0-6.86-2.243A5.959,5.959,0,0,0,22,16.315c0,6.493,8.378,12.627,10.945,14.353ZM27.239,12.427a4.486,4.486,0,0,1,.991-.108,4.723,4.723,0,0,1,4.315,2.691,1.159,1.159,0,0,0,2.1,0,4.755,4.755,0,0,1,5.306-2.584,3.648,3.648,0,0,1,2.92,3.889c0,4.957-6.754,10.2-9.274,11.983-2.52-1.784-9.274-7.026-9.274-11.983a3.645,3.645,0,0,1,2.92-3.888Z" transform="translate(1.279 1.274)" fill="#a1cad2"/>
        <path id="Trazado_899483" data-name="Trazado 899483" d="M45,16h4.637v2.318H45Z" transform="translate(4.941 2.229)" fill="#a1cad2"/>
        <path id="Trazado_899484" data-name="Trazado 899484" d="M15,16h4.637v2.318H15Z" transform="translate(0.164 2.229)" fill="#a1cad2"/>
        <path id="Trazado_899485" data-name="Trazado 899485" d="M31,2h2.318V6.637H31Z" transform="translate(2.712)" fill="#a1cad2"/>
        <path id="Trazado_899486" data-name="Trazado 899486" d="M0,0H2.318V4.637H0Z" transform="translate(20.112 7.459) rotate(-45)" fill="#a1cad2"/>
        <path id="Trazado_899487" data-name="Trazado 899487" d="M0,0H4.637V2.318H0Z" transform="translate(44.7 9.096) rotate(-45)" fill="#a1cad2"/>
      </g>
    </g>
  </g>
</svg>
