<svg xmlns="http://www.w3.org/2000/svg" width="85" height="93" viewBox="0 0 85 93">
  <g id="Grupo_1100834" data-name="Grupo 1100834" transform="translate(-212.051 -6782.222)">
    <g id="Grupo_1100366" data-name="Grupo 1100366" transform="translate(-492.68 3920.222)">
      <rect id="Rectángulo_402215" data-name="Rectángulo 402215" width="85" height="93" rx="15" transform="translate(704.73 2862)" fill="#fbe6e5"/>
      <g id="propiedad-intelectual" transform="translate(643.633 2876.656)">
        <g id="Grupo_1100264" data-name="Grupo 1100264" transform="translate(82.829)">
          <path id="Trazado_896766" data-name="Trazado 896766" d="M120.135,28.866V24.483a.9.9,0,1,0-1.8,0v4.35H115.29V16.538a11.69,11.69,0,0,0-22.139-5.246,10.4,10.4,0,0,0-3.562.655,14.741,14.741,0,0,1,28.748,4.59v3.748a.9.9,0,1,0,1.8,0V16.538a16.539,16.539,0,0,0-32.708-3.48,10.419,10.419,0,0,0-2.876,2.9.9.9,0,1,0,1.5.992A8.6,8.6,0,1,1,97.715,29.029a.9.9,0,0,0-.341.377L95.83,32.613h-1.7V23.336a1.005,1.005,0,1,1,2.01,0,.9.9,0,0,0,1.8,0,2.8,2.8,0,0,0-4.709-2.056,2.8,2.8,0,0,0-4.709,2.056.9.9,0,1,0,1.8,0,1.005,1.005,0,0,1,2.01,0v9.277h-1.7l-1.544-3.207a.9.9,0,0,0-.341-.377,8.6,8.6,0,0,1-4.029-8.549.9.9,0,1,0-1.781-.255,10.408,10.408,0,0,0,3.022,8.9,4.784,4.784,0,0,0-3.126,4.481v14.15a.9.9,0,1,0,1.8,0V33.609a2.981,2.981,0,0,1,2.978-2.977h.071l.994,2.065A2.837,2.837,0,0,0,89,38.267v1.061a2.841,2.841,0,0,0,2.838,2.838h2.774a2.841,2.841,0,0,0,2.838-2.838V38.267a2.837,2.837,0,0,0,.333-5.57l.994-2.064h20.808a2.981,2.981,0,0,1,2.978,2.977V56.627a2.981,2.981,0,0,1-2.978,2.978H87.606a2.981,2.981,0,0,1-2.978-2.978v-4.67a.9.9,0,1,0-1.8,0v4.67A4.782,4.782,0,0,0,87.606,61.4h31.983a4.782,4.782,0,0,0,4.777-4.777V33.609A4.782,4.782,0,0,0,120.135,28.866Zm-25.026-17.4a9.891,9.891,0,0,1,18.381,5.076V28.833h-12.7a10.405,10.405,0,0,0-5.684-17.371Zm.545,27.866a1.04,1.04,0,0,1-1.039,1.039H91.842A1.04,1.04,0,0,1,90.8,39.328V38.289h4.852Zm2.49-3.877a1.04,1.04,0,0,1-1.039,1.039H89.352a1.039,1.039,0,0,1,0-2.078h7.753a1.04,1.04,0,0,1,1.039,1.039Z" transform="translate(-82.829)" fill="#f5b3b1"/>
          <path id="Trazado_896767" data-name="Trazado 896767" d="M220.951,327.507a2.841,2.841,0,0,0,2.838-2.838v-3.913a4.775,4.775,0,0,0,.42-7.333,4.736,4.736,0,0,0-3.6-1.272,4.776,4.776,0,0,0-2.5,8.606v3.912A2.841,2.841,0,0,0,220.951,327.507Zm-2.97-10.8a2.98,2.98,0,0,1,2.757-2.76q.108-.008.214-.007a2.977,2.977,0,0,1,2.976,2.977,2.989,2.989,0,0,1-1.489,2.578.9.9,0,0,0-.449.778v4.4a1.039,1.039,0,0,1-2.078,0v-4.4a.9.9,0,0,0-.449-.778A2.968,2.968,0,0,1,217.981,316.705Z" transform="translate(-200.183 -274.704)" fill="#f5b3b1"/>
        </g>
      </g>
    </g>
  </g>
</svg>
