<svg xmlns="http://www.w3.org/2000/svg" xmlns:xlink="http://www.w3.org/1999/xlink" width="316.993" height="310.491" viewBox="0 0 316.993 310.491">
  <defs>
    <clipPath id="clip-path">
      <rect id="Rectángulo_403138" data-name="Rectángulo 403138" width="316.993" height="310.491" fill="none"/>
    </clipPath>
    <clipPath id="clip-path-3">
      <rect id="Rectángulo_403122" data-name="Rectángulo 403122" width="49.603" height="43.361" fill="none"/>
    </clipPath>
    <clipPath id="clip-path-4">
      <rect id="Rectángulo_403123" data-name="Rectángulo 403123" width="24.867" height="7.144" fill="none"/>
    </clipPath>
    <clipPath id="clip-path-6">
      <rect id="Rectángulo_403129" data-name="Rectángulo 403129" width="90.845" height="90.845" fill="none"/>
    </clipPath>
  </defs>
  <g id="Grupo_1100837" data-name="Grupo 1100837" transform="translate(-846.391 -8161.222)">
    <g id="Grupo_1100730" data-name="Grupo 1100730" transform="translate(846.391 8161.222)">
      <g id="Grupo_1100729" data-name="Grupo 1100729" clip-path="url(#clip-path)">
        <g id="Grupo_1100728" data-name="Grupo 1100728">
          <g id="Grupo_1100727" data-name="Grupo 1100727" clip-path="url(#clip-path)">
            <path id="Trazado_899049" data-name="Trazado 899049" d="M319.423,41.371V93.03a4.318,4.318,0,0,0,4.318,4.318h43.5a4.318,4.318,0,0,0,4.318-4.318V41.371Z" transform="translate(-72.324 -9.367)" fill="#d0e4e8"/>
            <rect id="Rectángulo_403119" data-name="Rectángulo 403119" width="9.448" height="12.447" transform="translate(253.976 68.456)" fill="#d35d57"/>
            <rect id="Rectángulo_403120" data-name="Rectángulo 403120" width="9.448" height="22.32" transform="translate(268.444 58.583)" fill="#d35d57"/>
            <rect id="Rectángulo_403121" data-name="Rectángulo 403121" width="9.448" height="30.877" transform="translate(282.912 50.027)" fill="#d35d57"/>
            <path id="Trazado_899050" data-name="Trazado 899050" d="M327.761,68.265c3.428-1.208,6.83-2.47,10.119-3.995l1.241-.552,1.224-.589,2.442-1.184c1.606-.834,3.22-1.647,4.794-2.537q4.745-2.621,9.284-5.574c3.009-1.964,5.994-4.05,8.768-6.228l1.879,2.506c-3.1,2.094-6.225,3.952-9.436,5.735s-6.47,3.425-9.787,4.958c-1.65.783-3.337,1.486-5.012,2.209l-2.542,1.013-1.272.5L338.176,65c-3.409,1.292-6.913,2.312-10.415,3.27" transform="translate(-74.212 -10.779)" fill="#162a45"/>
            <path id="Trazado_899051" data-name="Trazado 899051" d="M368.922,32h-46.86a2.639,2.639,0,0,0-2.639,2.639v4.611H371.56V34.638A2.639,2.639,0,0,0,368.922,32" transform="translate(-72.324 -7.245)" fill="#147a8f"/>
            <path id="Trazado_899052" data-name="Trazado 899052" d="M34.623,4.846V61.087a4.049,4.049,0,0,0,4.05,4.049H92.436a4.049,4.049,0,0,0,4.05-4.049V4.846A4.847,4.847,0,0,0,91.639,0H39.469a4.847,4.847,0,0,0-4.846,4.846" transform="translate(-7.839)" fill="#252b3a"/>
            <path id="Trazado_899053" data-name="Trazado 899053" d="M66.941,14.813a22.918,22.918,0,1,0,22.986,23l-22.919-.079Z" transform="translate(-9.983 -3.354)" fill="#a1cad2"/>
            <path id="Trazado_899054" data-name="Trazado 899054" d="M101.293,33.054A23.027,23.027,0,0,0,78.375,10.136h-.07l.07,22.918Z" transform="translate(-17.73 -2.295)" fill="#e7d8bb"/>
            <path id="Trazado_899055" data-name="Trazado 899055" d="M105.832,197.316a52.916,52.916,0,1,0-88.324,39.316,35.006,35.006,0,0,1,10.575,18.142l3.5,15.088H74.253l3.576-15.435a35.217,35.217,0,0,1,10.73-18.008,52.765,52.765,0,0,0,17.272-39.1" transform="translate(0 -32.695)" fill="#ffb552"/>
            <path id="Trazado_899056" data-name="Trazado 899056" d="M72.541,275.777a1.647,1.647,0,0,1-.589-.108,1.671,1.671,0,0,1-.974-2.153l11.8-31.284-3.873-10.663-4.845,10.586a1.671,1.671,0,0,1-3.093-.132l-3.63-10.133-3.912,9.831a1.671,1.671,0,0,1-3.106,0l-3.913-9.831-3.63,10.133a1.672,1.672,0,0,1-3.094.132l-4.845-10.586-3.873,10.663,11.8,31.284a1.671,1.671,0,0,1-3.128,1.18L37.62,242.833a1.668,1.668,0,0,1-.008-1.16l5.477-15.079a1.671,1.671,0,0,1,3.09-.124l4.835,10.562L54.751,226.6a1.672,1.672,0,0,1,3.127-.053l3.994,10.036,3.995-10.036a1.688,1.688,0,0,1,1.582-1.054,1.67,1.67,0,0,1,1.545,1.107l3.736,10.431,4.835-10.562a1.671,1.671,0,0,1,3.09.124l5.476,15.079a1.673,1.673,0,0,1-.007,1.16L74.1,274.7a1.671,1.671,0,0,1-1.564,1.081" transform="translate(-8.494 -51.056)" fill="#fff"/>
            <g id="Grupo_1100714" data-name="Grupo 1100714" transform="translate(10.618 117.965)" opacity="0.5" style="mix-blend-mode: soft-light;isolation: isolate">
              <g id="Grupo_1100713" data-name="Grupo 1100713">
                <g id="Grupo_1100712" data-name="Grupo 1100712" clip-path="url(#clip-path-3)">
                  <path id="Trazado_899057" data-name="Trazado 899057" d="M61.136,157.371c5.623,7.566.06,21.223-12.427,30.5s-27.167,10.668-32.79,3.1-.06-21.223,12.427-30.5,27.167-10.668,32.79-3.1" transform="translate(-13.726 -152.492)" fill="#fff"/>
                </g>
              </g>
            </g>
            <path id="Trazado_899058" data-name="Trazado 899058" d="M74.86,325.811c0,2.494-4.2,4.516-9.388,4.516s-9.388-2.022-9.388-4.516,4.2-4.516,9.388-4.516,9.388,2.022,9.388,4.516" transform="translate(-12.699 -72.748)" fill="#d35d57"/>
            <path id="Trazado_899059" data-name="Trazado 899059" d="M37.512,295.689v12a12.323,12.323,0,0,0,12.322,12.322H72.985a12.322,12.322,0,0,0,12.322-12.322v-12Z" transform="translate(-8.493 -66.95)" fill="#162a45"/>
            <path id="Trazado_899060" data-name="Trazado 899060" d="M82.922,318.071c-.041,0-.082,0-.124,0l-46.586-3.414a1.672,1.672,0,0,1-.162-3.315l33.344-5.759-33.907-1.308a1.671,1.671,0,1,1,.129-3.34L85.4,302.852a1.671,1.671,0,0,1,.22,3.316l-35.582,6.145,33,2.418a1.672,1.672,0,0,1-.121,3.339" transform="translate(-7.671 -68.136)" fill="#383d84"/>
            <path id="Trazado_899061" data-name="Trazado 899061" d="M84.627,296.145H35.694a3.7,3.7,0,0,1,0-7.4H84.627a3.7,3.7,0,1,1,0,7.4" transform="translate(-7.245 -65.379)" fill="#383d84"/>
            <path id="Trazado_899062" data-name="Trazado 899062" d="M346.2,200.174a5.321,5.321,0,0,0,4.208-2.429v11.863h11.863a5.321,5.321,0,0,0-2.429,4.208c0,3.449,4.163,6.244,9.3,6.244s9.3-2.8,9.3-6.244a5.321,5.321,0,0,0-2.429-4.208H387.87V177.826a5.683,5.683,0,0,0-5.683-5.683H350.406v11.863a5.321,5.321,0,0,0-4.208-2.429c-3.449,0-6.244,4.163-6.244,9.3s2.8,9.3,6.244,9.3" transform="translate(-76.972 -38.977)" fill="#828692"/>
            <path id="Trazado_899063" data-name="Trazado 899063" d="M333.044,213.816a5.318,5.318,0,0,0-2.429-4.207h11.863V197.745a5.321,5.321,0,0,0,4.208,2.429c3.449,0,6.244-4.163,6.244-9.3s-2.8-9.3-6.244-9.3a5.319,5.319,0,0,0-4.208,2.429V172.143H310.7a5.683,5.683,0,0,0-5.683,5.683v31.782h11.863a5.318,5.318,0,0,0-2.429,4.207c0,3.449,4.163,6.244,9.3,6.244s9.3-2.8,9.3-6.244" transform="translate(-69.061 -38.977)" fill="#ed807c"/>
            <path id="Trazado_899064" data-name="Trazado 899064" d="M346.686,226.844a5.321,5.321,0,0,0-4.208,2.429V217.411H330.615a5.321,5.321,0,0,0,2.429-4.208c0-3.449-4.163-6.244-9.3-6.244s-9.3,2.8-9.3,6.244a5.321,5.321,0,0,0,2.429,4.208H305.013v31.782a5.683,5.683,0,0,0,5.683,5.683h31.782V243.012a5.321,5.321,0,0,0,4.208,2.429c3.449,0,6.244-4.163,6.244-9.3s-2.8-9.3-6.244-9.3" transform="translate(-69.061 -46.86)" fill="#147a8f"/>
            <path id="Trazado_899065" data-name="Trazado 899065" d="M359.839,213.2a5.321,5.321,0,0,0,2.429,4.208H350.4v11.863a5.318,5.318,0,0,0-4.208-2.429c-3.449,0-6.244,4.163-6.244,9.3s2.8,9.3,6.244,9.3a5.318,5.318,0,0,0,4.208-2.429v11.863h31.782a5.683,5.683,0,0,0,5.683-5.683V217.411H376.007a5.321,5.321,0,0,0,2.429-4.208c0-3.449-4.163-6.244-9.3-6.244s-9.3,2.8-9.3,6.244" transform="translate(-76.972 -46.86)" fill="#ffb552"/>
            <g id="Grupo_1100717" data-name="Grupo 1100717" transform="translate(250.547 136.568)" opacity="0.5" style="mix-blend-mode: soft-light;isolation: isolate">
              <g id="Grupo_1100716" data-name="Grupo 1100716">
                <g id="Grupo_1100715" data-name="Grupo 1100715" clip-path="url(#clip-path-4)">
                  <path id="Trazado_899066" data-name="Trazado 899066" d="M323.88,180.113c0-1.973,5.567-3.572,12.434-3.572s12.433,1.6,12.433,3.572-5.567,3.572-12.433,3.572-12.434-1.6-12.434-3.572" transform="translate(-323.88 -176.54)" fill="#fff"/>
                </g>
              </g>
            </g>
            <g id="Grupo_1100720" data-name="Grupo 1100720" transform="translate(264.678 198.377)" opacity="0.5" style="mix-blend-mode: soft-light;isolation: isolate">
              <g id="Grupo_1100719" data-name="Grupo 1100719">
                <g id="Grupo_1100718" data-name="Grupo 1100718" clip-path="url(#clip-path-4)">
                  <path id="Trazado_899067" data-name="Trazado 899067" d="M342.147,260.013c0-1.973,5.567-3.572,12.434-3.572s12.433,1.6,12.433,3.572-5.567,3.572-12.433,3.572-12.434-1.6-12.434-3.572" transform="translate(-342.147 -256.44)" fill="#fff"/>
                </g>
              </g>
            </g>
            <path id="Trazado_899068" data-name="Trazado 899068" d="M194.024,30.48H102.37a4.927,4.927,0,0,0-4.927,4.927V192.24a4.927,4.927,0,0,0,4.927,4.927h91.654a4.927,4.927,0,0,0,4.927-4.927V35.407a4.927,4.927,0,0,0-4.927-4.927" transform="translate(-22.063 -6.901)" fill="#fff"/>
            <path id="Trazado_899069" data-name="Trazado 899069" d="M187.071,84.377a33.966,33.966,0,0,1-53.351,27.886,34.389,34.389,0,0,1-5.894-5.21,33.962,33.962,0,1,1,59.245-22.676" transform="translate(-26.978 -11.415)" fill="#abafb6"/>
            <rect id="Rectángulo_403125" data-name="Rectángulo 403125" width="49.062" height="1.781" transform="translate(101.603 122.645)" fill="#a9b3ff"/>
            <rect id="Rectángulo_403126" data-name="Rectángulo 403126" width="73.371" height="1.781" transform="translate(89.448 132.261)" fill="#a9b3ff"/>
            <rect id="Rectángulo_403127" data-name="Rectángulo 403127" width="73.371" height="1.781" transform="translate(89.448 141.878)" fill="#a9b3ff"/>
            <rect id="Rectángulo_403128" data-name="Rectángulo 403128" width="73.371" height="1.781" transform="translate(89.448 151.495)" fill="#a9b3ff"/>
            <path id="Trazado_899070" data-name="Trazado 899070" d="M126.106,219.874l-2.981-.69-1.577-2.622a.548.548,0,0,0-.938,0l-1.577,2.622-2.981.69a.547.547,0,0,0-.289.892l2.005,2.31-.265,3.048a.548.548,0,0,0,.759.552l2.817-1.194,2.817,1.194a.547.547,0,0,0,.758-.552l-.265-3.048,2.006-2.31a.547.547,0,0,0-.29-.892" transform="translate(-26.181 -48.974)" fill="#ffb552"/>
            <path id="Trazado_899071" data-name="Trazado 899071" d="M146.294,219.874l-2.981-.69-1.577-2.622a.548.548,0,0,0-.938,0l-1.577,2.622-2.981.69a.547.547,0,0,0-.289.892l2.005,2.31-.265,3.048a.548.548,0,0,0,.759.552l2.817-1.194,2.817,1.194a.548.548,0,0,0,.759-.552l-.265-3.048,2.006-2.31a.547.547,0,0,0-.29-.892" transform="translate(-30.752 -48.974)" fill="#ffb552"/>
            <path id="Trazado_899072" data-name="Trazado 899072" d="M166.483,219.874l-2.981-.69-1.577-2.622a.548.548,0,0,0-.938,0l-1.577,2.622-2.981.69a.547.547,0,0,0-.289.892l2.005,2.31-.265,3.048a.548.548,0,0,0,.759.552l2.817-1.194,2.817,1.194a.548.548,0,0,0,.759-.552l-.265-3.048,2.006-2.31a.548.548,0,0,0-.29-.892" transform="translate(-35.323 -48.974)" fill="#ffb552"/>
            <path id="Trazado_899073" data-name="Trazado 899073" d="M186.671,219.874l-2.981-.69-1.577-2.622a.548.548,0,0,0-.938,0l-1.577,2.622-2.981.69a.547.547,0,0,0-.289.892l2.005,2.31-.265,3.048a.548.548,0,0,0,.759.552l2.817-1.194,2.817,1.194a.548.548,0,0,0,.759-.552l-.265-3.048,2.006-2.31a.547.547,0,0,0-.29-.892" transform="translate(-39.894 -48.974)" fill="#ffb552"/>
            <path id="Trazado_899074" data-name="Trazado 899074" d="M206.859,219.874l-2.981-.69-1.577-2.622a.548.548,0,0,0-.938,0l-1.577,2.622-2.981.69a.547.547,0,0,0-.289.892l2.005,2.31-.265,3.048a.548.548,0,0,0,.759.552l2.817-1.194,2.817,1.194a.547.547,0,0,0,.758-.552l-.265-3.048,2.006-2.31a.547.547,0,0,0-.29-.892" transform="translate(-44.465 -48.974)" fill="#ffb552"/>
            <path id="Trazado_899075" data-name="Trazado 899075" d="M178.144,125.8a33.953,33.953,0,0,1-47.779-2.769,10.823,10.823,0,0,1,2.469-.88l5.2-1.157,10.414.467,13.887.627,8.753.391,3.327,1.13a10.685,10.685,0,0,1,3.732,2.19" transform="translate(-29.517 -27.396)" fill="#d35d57"/>
            <path id="Trazado_899076" data-name="Trazado 899076" d="M174.164,129.04a34.01,34.01,0,0,1-36.18-1.645l.161-.648.349-1.424.781-3.194.328-1.354.154-.627,9.5-1.45,1.486-.224,8.07-1.228,4.519,1.423h.014l1.625.509.677.217h.007l7.156,2.239.049.265.251,1.367Z" transform="translate(-31.242 -26.547)" fill="#d35d57"/>
            <path id="Trazado_899077" data-name="Trazado 899077" d="M155.39,101.855l-.93,13.314s7.6,3.784,12.629.837l-.176-10.1Z" transform="translate(-34.973 -23.062)" fill="#faa894"/>
            <path id="Trazado_899078" data-name="Trazado 899078" d="M168.063,114.359c-6.678-.566-9.026-4.212-9.026-4.212l8.964.632Z" transform="translate(-36.009 -24.94)" fill="#ad6253"/>
            <path id="Trazado_899079" data-name="Trazado 899079" d="M152.551,118.7l9.556-1.453,6.158,1.931c-1.215,6.33-13.565,6.757-15.714-.478" transform="translate(-34.541 -26.547)" fill="#faa894"/>
            <path id="Trazado_899080" data-name="Trazado 899080" d="M174.979,72.571a8.576,8.576,0,0,0-4.88-5.608,3.472,3.472,0,0,0-1.69-2.755,7.633,7.633,0,0,0-3.187-1,19.582,19.582,0,0,0-10.509,1.625,3.787,3.787,0,0,0-3.774-.333,7.383,7.383,0,0,0-2.954,2.588,14.683,14.683,0,0,0-2.311,6.736,7.586,7.586,0,0,0-4.216,6.683c0,1.145.408,2.461,1.479,2.867a14.66,14.66,0,0,0,8.344,12.4l18.833-5.99a20.8,20.8,0,0,0,3.327-9.906,8.646,8.646,0,0,0,1.539-7.306" transform="translate(-32.029 -14.276)" fill="#162a45"/>
            <path id="Trazado_899081" data-name="Trazado 899081" d="M167.808,73.1c-12.431-1.542-18.958,4.438-17.905,16.05.837,9.244,6.2,15,14.945,15.024,8.051.026,9.357-6.544,9.466-13.437.155-9.826.876-16.721-6.505-17.637" transform="translate(-33.916 -16.498)" fill="#faa894"/>
            <path id="Trazado_899082" data-name="Trazado 899082" d="M149.087,90.287a10.733,10.733,0,0,0,4.986-8.673,1.385,1.385,0,0,0,1.627.043,2.271,2.271,0,0,0,.905-1.443,6.758,6.758,0,0,0,.071-1.741,18.728,18.728,0,0,0,6.692.849,4.257,4.257,0,0,0,1.372-.243,1.7,1.7,0,0,0,.988-.933,11.137,11.137,0,0,0,8.5,1.112,6.681,6.681,0,0,0-2.607-6.046,10.664,10.664,0,0,0-6.358-2.151,30.366,30.366,0,0,0-6.776.743c-3.179.6-6.592,1.368-8.727,3.8a10.023,10.023,0,0,0-2.129,7.224,28.959,28.959,0,0,0,1.457,7.46" transform="translate(-33.421 -16.087)" fill="#162a45"/>
            <path id="Trazado_899083" data-name="Trazado 899083" d="M179.615,89.542a18.876,18.876,0,0,0-5.031-.186c1.048-1.45,3.824-.748,5.031.186" transform="translate(-39.529 -20.044)" fill="#162a45"/>
            <path id="Trazado_899084" data-name="Trazado 899084" d="M161.611,89.542a18.876,18.876,0,0,1,5.031-.186c-1.048-1.45-3.824-.748-5.031.186" transform="translate(-36.592 -20.044)" fill="#162a45"/>
            <path id="Trazado_899085" data-name="Trazado 899085" d="M175.844,95.437a.926.926,0,1,0,.906-1.116,1.028,1.028,0,0,0-.906,1.116" transform="translate(-39.815 -21.356)" fill="#162a45"/>
            <path id="Trazado_899086" data-name="Trazado 899086" d="M177.015,95.135a.292.292,0,1,0,.285-.36.329.329,0,0,0-.285.36" transform="translate(-40.08 -21.459)" fill="#fff"/>
            <path id="Trazado_899087" data-name="Trazado 899087" d="M164.513,95.437a.926.926,0,1,0,.906-1.116,1.028,1.028,0,0,0-.906,1.116" transform="translate(-37.249 -21.356)" fill="#162a45"/>
            <path id="Trazado_899088" data-name="Trazado 899088" d="M165.684,95.135a.292.292,0,1,0,.285-.36.329.329,0,0,0-.285.36" transform="translate(-37.514 -21.459)" fill="#fff"/>
            <path id="Trazado_899089" data-name="Trazado 899089" d="M172.5,100.082a.249.249,0,0,0,.053-.005,1.5,1.5,0,0,0,1.09-.641,1.035,1.035,0,0,0,.029-.905,6.551,6.551,0,0,0-.468-.868,6,6,0,0,1-.435-.8.287.287,0,1,0-.538.2,6.365,6.365,0,0,0,.481.9,6.178,6.178,0,0,1,.423.776.484.484,0,0,1,.006.421.987.987,0,0,1-.694.358.287.287,0,0,0,.052.569" transform="translate(-38.993 -21.889)" fill="#ad6253"/>
            <path id="Trazado_899090" data-name="Trazado 899090" d="M167.621,103.156a.289.289,0,0,1,.393-.1,3.968,3.968,0,0,0,3.7.549c.349-.123.5.432.152.554a4.5,4.5,0,0,1-4.143-.607.3.3,0,0,1-.1-.393" transform="translate(-37.944 -23.324)" fill="#8f4536"/>
            <path id="Trazado_899091" data-name="Trazado 899091" d="M151.09,95.383c.736,1.822.207,3.579-1.112,4.112s-2.984-.51-3.722-2.331-.265-3.731,1.054-4.265,3.043.662,3.78,2.483" transform="translate(-33.037 -21.005)" fill="#faa894"/>
            <path id="Trazado_899092" data-name="Trazado 899092" d="M150.1,98.059a.286.286,0,0,0,.1-.556.926.926,0,0,1-.637-.746,1.135,1.135,0,0,1,.108-.443,1.832,1.832,0,0,0,.144-.548,1.49,1.49,0,0,0-1.618-1.53,1.354,1.354,0,0,0-1.053,1.392.287.287,0,1,0,.574,0,.8.8,0,0,1,.571-.826.9.9,0,0,1,.714.3.845.845,0,0,1,.239.627,1.357,1.357,0,0,1-.106.379,1.6,1.6,0,0,0-.145.677A1.485,1.485,0,0,0,150,98.042a.285.285,0,0,0,.1.016" transform="translate(-33.315 -21.333)" fill="#ad6253"/>
            <g id="Grupo_1100723" data-name="Grupo 1100723" transform="translate(100.879 211.305)" style="mix-blend-mode: soft-light;isolation: isolate">
              <g id="Grupo_1100722" data-name="Grupo 1100722">
                <g id="Grupo_1100721" data-name="Grupo 1100721" clip-path="url(#clip-path-6)">
                  <path id="Trazado_899093" data-name="Trazado 899093" d="M155.3,278.068a45.413,45.413,0,1,0,61.038,19.975A45.413,45.413,0,0,0,155.3,278.068" transform="translate(-130.405 -273.152)" fill="#fff"/>
                </g>
              </g>
            </g>
            <path id="Trazado_899094" data-name="Trazado 899094" d="M149.077,268.172a53.77,53.77,0,1,1-23.651,72.271,53.831,53.831,0,0,1,23.651-72.271m5.04,9.944A42.622,42.622,0,1,0,211.4,296.864a42.671,42.671,0,0,0-57.287-18.748" transform="translate(-27.085 -59.406)" fill="#162a45"/>
            <rect id="Rectángulo_403130" data-name="Rectángulo 403130" width="18.595" height="11.148" transform="translate(84.206 281.953) rotate(-26.878)" fill="#162a45"/>
            <path id="Trazado_899095" data-name="Trazado 899095" d="M65.253,386.905h0a8.1,8.1,0,0,0,10.881,3.561l29.9-15.155-7.32-14.443-29.9,15.156a8.1,8.1,0,0,0-3.561,10.881" transform="translate(-14.576 -81.708)" fill="#f78721"/>
            <path id="Trazado_899096" data-name="Trazado 899096" d="M111.167,359.162l6.807,13.429a2.971,2.971,0,1,1-5.3,2.687l-6.807-13.429a2.972,2.972,0,0,1,5.3-2.687" transform="translate(-23.897 -80.953)" fill="#147a8f"/>
            <path id="Trazado_899105" data-name="Trazado 899105" d="M266.091,207.712,252.754,348.224a3.519,3.519,0,0,1-7.022-.344l.439-141.143a9.983,9.983,0,1,1,19.965.063c0,.3-.018.617-.045.912" transform="translate(-55.639 -44.556)" fill="#ef9983"/>
            <path id="Trazado_899106" data-name="Trazado 899106" d="M250.827,397.743H223.734a5.868,5.868,0,0,1-.038-1.672c.19-1.667,1.2-4.015,5.311-4.2A30.327,30.327,0,0,0,239.8,389.5a33.951,33.951,0,0,0,8.731,0,14.3,14.3,0,0,1,2.3,8.246" transform="translate(-50.64 -88.19)" fill="#162a45"/>
            <path id="Trazado_899107" data-name="Trazado 899107" d="M236.259,393.367a6.119,6.119,0,0,0-1.247-1.835.856.856,0,0,0-.439-.258.782.782,0,0,0-.514.056.486.486,0,0,0-.142.771,6.061,6.061,0,0,1,.731.908,5.276,5.276,0,0,1,.344.658.807.807,0,0,0,.884.393.5.5,0,0,0,.383-.692" transform="translate(-52.933 -88.588)" fill="#6265ce"/>
            <path id="Trazado_899108" data-name="Trazado 899108" d="M239.268,392.834A6.119,6.119,0,0,0,238.021,391a.856.856,0,0,0-.439-.258.782.782,0,0,0-.514.056.486.486,0,0,0-.142.77,6.066,6.066,0,0,1,.731.908,5.282,5.282,0,0,1,.344.658.808.808,0,0,0,.884.393.5.5,0,0,0,.383-.692" transform="translate(-53.614 -88.467)" fill="#6265ce"/>
            <path id="Trazado_899109" data-name="Trazado 899109" d="M242.277,392.3a6.119,6.119,0,0,0-1.247-1.835.862.862,0,0,0-.439-.259.786.786,0,0,0-.514.057.486.486,0,0,0-.143.77,6.029,6.029,0,0,1,.732.909,5.384,5.384,0,0,1,.344.658.807.807,0,0,0,.884.393.5.5,0,0,0,.383-.692" transform="translate(-54.295 -88.347)" fill="#6265ce"/>
            <path id="Trazado_899110" data-name="Trazado 899110" d="M223.734,399.667h27.093a10.3,10.3,0,0,0-.039-1.672H223.7a5.853,5.853,0,0,0,.037,1.672" transform="translate(-50.64 -90.114)" fill="#6265ce"/>
            <path id="Trazado_899111" data-name="Trazado 899111" d="M293.965,206.333l9.291,141.7a3.519,3.519,0,0,1-6.988.779l-22.125-140.27a9.982,9.982,0,1,1,19.721-3.111c.046.3.08.609.1.9" transform="translate(-62.044 -44.605)" fill="#ef9983"/>
            <path id="Trazado_899112" data-name="Trazado 899112" d="M307.48,397.743H280.387a5.868,5.868,0,0,1-.038-1.672c.19-1.667,1.2-4.015,5.311-4.2a30.328,30.328,0,0,0,10.793-2.376,33.951,33.951,0,0,0,8.731,0,14.3,14.3,0,0,1,2.3,8.246" transform="translate(-63.468 -88.19)" fill="#162a45"/>
            <path id="Trazado_899113" data-name="Trazado 899113" d="M292.912,393.367a6.119,6.119,0,0,0-1.247-1.835.855.855,0,0,0-.439-.258.782.782,0,0,0-.514.056.486.486,0,0,0-.142.771,6.06,6.06,0,0,1,.731.908,5.27,5.27,0,0,1,.344.658.808.808,0,0,0,.884.393.5.5,0,0,0,.383-.692" transform="translate(-65.76 -88.588)" fill="#6265ce"/>
            <path id="Trazado_899114" data-name="Trazado 899114" d="M295.921,392.834A6.119,6.119,0,0,0,294.674,391a.857.857,0,0,0-.438-.258.784.784,0,0,0-.515.056.486.486,0,0,0-.142.77,6.019,6.019,0,0,1,.731.908,5.274,5.274,0,0,1,.344.658.808.808,0,0,0,.884.393.5.5,0,0,0,.383-.692" transform="translate(-66.441 -88.467)" fill="#6265ce"/>
            <path id="Trazado_899115" data-name="Trazado 899115" d="M298.93,392.3a6.12,6.12,0,0,0-1.247-1.835.862.862,0,0,0-.439-.259.786.786,0,0,0-.514.057.486.486,0,0,0-.143.77,6.028,6.028,0,0,1,.732.909,5.272,5.272,0,0,1,.344.658.807.807,0,0,0,.884.393.5.5,0,0,0,.383-.692" transform="translate(-67.123 -88.347)" fill="#6265ce"/>
            <path id="Trazado_899116" data-name="Trazado 899116" d="M280.387,399.667H307.48a10.3,10.3,0,0,0-.039-1.672H280.35a5.852,5.852,0,0,0,.037,1.672" transform="translate(-63.468 -90.114)" fill="#6265ce"/>
            <path id="Trazado_899117" data-name="Trazado 899117" d="M284.378,332.2h13.6l-6.611-116.024a74.363,74.363,0,0,0-8.876-32.049l-3.336-6.168-16.421-2.631-.553-2.686-10.387,5.291-3.8,11.194a75.732,75.732,0,0,0-4.015,23.806L242.267,332.2h13.371l10.327-121.735.675.07Z" transform="translate(-54.854 -39.09)" fill="#0c4956"/>
            <path id="Trazado_899118" data-name="Trazado 899118" d="M294.463,370.956l1.127,7.17H310.7l-.911-6.589Z" transform="translate(-66.673 -83.992)" fill="#4d52a8"/>
            <path id="Trazado_899119" data-name="Trazado 899119" d="M241.853,370.956v6.879h14.075l.358-4.993Z" transform="translate(-54.761 -83.992)" fill="#4d52a8"/>
            <path id="Trazado_899120" data-name="Trazado 899120" d="M271.216,220.7a.154.154,0,0,1-.041-.005,10.963,10.963,0,0,1-4.26-2.4.148.148,0,0,1,.2-.22,10.65,10.65,0,0,0,4.145,2.339.148.148,0,0,1-.041.29" transform="translate(-60.424 -49.368)" fill="#252a5e"/>
            <path id="Trazado_899121" data-name="Trazado 899121" d="M229.536,164.2l-19.511-27.037a2.909,2.909,0,0,1,4.482-3.69l22.787,24.34a5.035,5.035,0,0,1-7.351,6.883,5.8,5.8,0,0,1-.407-.5" transform="translate(-47.429 -30.013)" fill="#ef9983"/>
            <path id="Trazado_899122" data-name="Trazado 899122" d="M240.291,162.474a5.027,5.027,0,0,1-4.659-6.9l14.9-37.026a5.025,5.025,0,0,1,9.322,3.752l-14.9,37.027a5.027,5.027,0,0,1-4.663,3.149" transform="translate(-53.269 -26.128)" fill="#ef9983"/>
            <path id="Trazado_899123" data-name="Trazado 899123" d="M244.528,163.482a.148.148,0,0,1-.1-.043l-3.618-3.6a.148.148,0,0,1,.209-.209l3.618,3.6a.148.148,0,0,1-.1.252" transform="translate(-54.514 -36.133)" fill="#b56757"/>
            <path id="Trazado_899124" data-name="Trazado 899124" d="M210.56,130.83s.07-10.2-.791-10.752-2.415,6.339-2.415,6.339S192.34,121.2,191.8,122.048s5.913,3.429,5.913,3.429-7.675-1.873-8.051-.933c-.342.852,7.456,3.281,7.456,3.281s-8.309-1.069-8.123-.227,7.582,2.4,7.582,2.4-6.839-.013-6.664.543,6.941,1.874,6.941,1.874c3.359.677,4.562,1.658,7.911,3.2,6.026,2.773,6.982.434,5.793-4.788" transform="translate(-42.792 -27.181)" fill="#ef9983"/>
            <path id="Trazado_899125" data-name="Trazado 899125" d="M259.223,114.871l-1.369-.217a6.938,6.938,0,0,0-7.556,4.336l-8.487,21.8c3.209,2.629,12.2,5.053,12.2,5.053l6.235-28.243Z" transform="translate(-54.751 -25.94)" fill="#c59d55"/>
            <path id="Trazado_899126" data-name="Trazado 899126" d="M281.774,114.979l-11.969,1.669-8.565-1.688L254.4,131.6c-1.746,2.427-3.5,5.1-3.668,8.564a8.211,8.211,0,0,0,3.1,6.7l-.125,18.008,27.362.026,6.11-34.8Z" transform="translate(-56.768 -26.029)" fill="#162a45"/>
            <path id="Trazado_899127" data-name="Trazado 899127" d="M261.921,115.449,257.6,145.26l-2.731,53.561a56.986,56.986,0,0,1-12.086,0,67.652,67.652,0,0,1,4.095-23.176l4.1-11.239.528-18.236s-2.686-1.358-2.393-6.434a15.364,15.364,0,0,1,3.436-8.584l6.895-16.19Z" transform="translate(-54.97 -26.029)" fill="#c59d55"/>
            <path id="Trazado_899128" data-name="Trazado 899128" d="M286.048,115.3l-6.37,29.962,4.609,53.7a105.857,105.857,0,0,0,17.626,0l-.126-1.677a61.053,61.053,0,0,0-11.7-31.594l-1.219-1.657,5.357-34.444-5.892-14.606Z" transform="translate(-63.325 -26.035)" fill="#c59d55"/>
            <path id="Trazado_899129" data-name="Trazado 899129" d="M255.488,216.79l-.136,5.421c-8.57.793-13.145,0-13.145,0v-5.182a122.9,122.9,0,0,0,13.282-.239" transform="translate(-54.84 -49.086)" fill="#775e33"/>
            <path id="Trazado_899130" data-name="Trazado 899130" d="M284.4,217.54l.444,5.565a102.056,102.056,0,0,0,18.676-.205l-.538-5.224c-9.022.41-18.582-.136-18.582-.136" transform="translate(-64.394 -49.256)" fill="#775e33"/>
            <path id="Trazado_899131" data-name="Trazado 899131" d="M278.942,100.93l.772,11.867s-5.175,3.336-9.352.709l.146-9.006Z" transform="translate(-61.216 -22.853)" fill="#ef9983"/>
            <path id="Trazado_899132" data-name="Trazado 899132" d="M270.469,109.7a10.315,10.315,0,0,0,8.382-3.077h-8.332Z" transform="translate(-61.24 -24.141)" fill="#ad6253"/>
            <path id="Trazado_899133" data-name="Trazado 899133" d="M273.814,116.794l-5.388-1.062c0,5.824,9.964,7.785,13.905-.125Z" transform="translate(-60.777 -26.176)" fill="#ef9983"/>
            <path id="Trazado_899134" data-name="Trazado 899134" d="M296.521,80.2c-2.54,3-7.5,2.976-11.088-.057S281,72.217,283.541,69.215s7.5-2.975,11.088.057,4.431,7.925,1.891,10.926" transform="translate(-63.868 -15.166)" fill="#d35d57"/>
            <path id="Trazado_899135" data-name="Trazado 899135" d="M289.955,80.719c-1.752,2.071-5.177,2.053-7.65-.039s-3.057-5.467-1.305-7.538,5.177-2.053,7.65.039,3.057,5.467,1.305,7.538" transform="translate(-63.396 -16.212)" fill="#ffb552"/>
            <path id="Trazado_899136" data-name="Trazado 899136" d="M285.022,82.949a14.13,14.13,0,0,0-6.981-10.959,14.764,14.764,0,0,0-10.516-1.5,11,11,0,0,0-10.439,1.433,12.672,12.672,0,0,0-4.809,10.842,15.264,15.264,0,0,0,5.652,10.607,19.252,19.252,0,0,0,11.423,4.133,16.47,16.47,0,0,0,10.275-2.794,13.51,13.51,0,0,0,5.4-11.765" transform="translate(-57.115 -15.797)" fill="#d35d57"/>
            <path id="Trazado_899137" data-name="Trazado 899137" d="M268.166,75.194c9.334-1.391,14.235,4,13.445,14.476-.629,8.338-5.828,12.96-12.309,11.916-5.13-.825-8.372-4.9-8.9-11.09-.757-8.84,2.225-14.476,7.768-15.3" transform="translate(-58.933 -16.977)" fill="#ef9983"/>
            <path id="Trazado_899138" data-name="Trazado 899138" d="M285.846,85.121a16.426,16.426,0,0,0-.7-2.441,14.393,14.393,0,0,0-6.045-7.506,11.557,11.557,0,0,0-10.825-.433.4.4,0,0,0-.186.451.333.333,0,0,0-.154.383,18.779,18.779,0,0,0,5.017,9.168,14.675,14.675,0,0,0,9.068,4.212,11.156,11.156,0,0,0,2.53-.052,1.643,1.643,0,0,0,1.5-1.153,6.4,6.4,0,0,0-.209-2.629" transform="translate(-60.664 -16.665)" fill="#d35d57"/>
            <path id="Trazado_899139" data-name="Trazado 899139" d="M286.07,94.144c-.591,1.461-.166,2.869.891,3.3s2.393-.408,2.984-1.869.213-2.991-.845-3.419-2.439.531-3.03,1.991" transform="translate(-64.712 -20.842)" fill="#ef9983"/>
            <path id="Trazado_899140" data-name="Trazado 899140" d="M287.379,96.336a.3.3,0,0,1-.1-.574.673.673,0,0,0,.466-.539.853.853,0,0,0-.082-.329,1.527,1.527,0,0,1-.12-.457,1.261,1.261,0,0,1,1.373-1.3,1.152,1.152,0,0,1,.9,1.182.3.3,0,1,1-.591,0,.577.577,0,0,0-.4-.6.634.634,0,0,0-.516.224.621.621,0,0,0-.172.453,1.01,1.01,0,0,0,.081.283,1.324,1.324,0,0,1,.121.572,1.257,1.257,0,0,1-.859,1.065.293.293,0,0,1-.1.017" transform="translate(-65.002 -21.086)" fill="#ad6253"/>
            <path id="Trazado_899141" data-name="Trazado 899141" d="M261.441,87.739a17.319,17.319,0,0,1,4.609-.171c-.96-1.327-3.5-.685-4.609.171" transform="translate(-59.196 -19.655)" fill="#d35d57"/>
            <path id="Trazado_899142" data-name="Trazado 899142" d="M277.935,87.739a17.318,17.318,0,0,0-4.609-.171c.96-1.327,3.5-.685,4.609.171" transform="translate(-61.887 -19.655)" fill="#d35d57"/>
            <path id="Trazado_899143" data-name="Trazado 899143" d="M265.759,93.139a.848.848,0,1,1-.83-1.023.941.941,0,0,1,.83,1.023" transform="translate(-59.798 -20.857)" fill="#162a45"/>
            <path id="Trazado_899144" data-name="Trazado 899144" d="M265.019,92.862a.268.268,0,1,1-.261-.33.3.3,0,0,1,.261.33" transform="translate(-59.888 -20.951)" fill="#fff"/>
            <path id="Trazado_899145" data-name="Trazado 899145" d="M276.139,93.139a.848.848,0,1,1-.83-1.023.941.941,0,0,1,.83,1.023" transform="translate(-62.148 -20.857)" fill="#162a45"/>
            <path id="Trazado_899146" data-name="Trazado 899146" d="M275.4,92.862a.268.268,0,1,1-.261-.33.3.3,0,0,1,.261.33" transform="translate(-62.238 -20.951)" fill="#fff"/>
            <path id="Trazado_899147" data-name="Trazado 899147" d="M268.884,97.416a.329.329,0,0,1-.055,0,1.4,1.4,0,0,1-1.02-.6.976.976,0,0,1-.029-.856,5.821,5.821,0,0,1,.432-.8,5.592,5.592,0,0,0,.4-.728.3.3,0,0,1,.554.207,5.837,5.837,0,0,1-.442.825,5.534,5.534,0,0,0-.385.707.386.386,0,0,0-.009.357.891.891,0,0,0,.613.312.3.3,0,0,1-.053.586" transform="translate(-60.612 -21.336)" fill="#ad6253"/>
            <path id="Trazado_899148" data-name="Trazado 899148" d="M266.644,99.957a28.952,28.952,0,0,0,5.707-.207c-1.017,2.271-5.079,1.873-5.707.207" transform="translate(-60.374 -22.585)" fill="#fff"/>
            <path id="Trazado_899149" data-name="Trazado 899149" d="M304.4,159.32l35.158-11.006a2.908,2.908,0,0,1,2.051,5.431l-33.658,14.977a5.033,5.033,0,1,1-4.092-9.2,5.191,5.191,0,0,1,.542-.205" transform="translate(-68.124 -33.551)" fill="#ef9983"/>
            <path id="Trazado_899150" data-name="Trazado 899150" d="M349.714,146.075s5.955-9.119,7.184-8.863-1.1,5.889-1.1,5.889,8.4.589,8.912,1.358-1.912,8.089-3.107,8.385c-2.629-.883-9.664-.108-11.5-.5s-.388-6.274-.388-6.274" transform="translate(-79.06 -31.067)" fill="#ef9983"/>
            <path id="Trazado_899151" data-name="Trazado 899151" d="M359.021,132.658,342.5,129.463l-5.135,26.558,18.86,3.647,4.683-24.22-1.886-2.79" transform="translate(-76.386 -29.313)" fill="#fff"/>
            <path id="Trazado_899152" data-name="Trazado 899152" d="M365.228,133.593l-.449,2.323,2.338.452Z" transform="translate(-82.594 -30.248)" fill="#a9b3ff"/>
            <rect id="Rectángulo_403132" data-name="Rectángulo 403132" width="0.486" height="14.447" transform="translate(266.966 108.276) rotate(-79.055)" fill="#a9b3ff"/>
            <rect id="Rectángulo_403133" data-name="Rectángulo 403133" width="0.486" height="14.447" transform="translate(266.366 111.38) rotate(-79.055)" fill="#a9b3ff"/>
            <rect id="Rectángulo_403134" data-name="Rectángulo 403134" width="0.486" height="14.447" transform="translate(265.766 114.484) rotate(-79.058)" fill="#a9b3ff"/>
            <rect id="Rectángulo_403135" data-name="Rectángulo 403135" width="0.486" height="14.447" transform="translate(265.166 117.587) rotate(-79.055)" fill="#a9b3ff"/>
            <rect id="Rectángulo_403136" data-name="Rectángulo 403136" width="0.486" height="14.447" transform="translate(264.566 120.69) rotate(-79.055)" fill="#a9b3ff"/>
            <path id="Trazado_899153" data-name="Trazado 899153" d="M366.2,146.779c.031-.658-6.555-.7-6.606,0s4.788,1.472,4.788,1.472-6.031-.314-6.133.483,5.9,1.835,5.9,1.835-4.622-.346-4.712.192,4.276,1.383,4.276,1.383-3.8.268-3.866.845,4.02.9,4.02.9,2.176-3.842,2.33-7.106" transform="translate(-81.115 -33.118)" fill="#ef9983"/>
            <path id="Trazado_899154" data-name="Trazado 899154" d="M303.775,161.513a5.025,5.025,0,0,1-4.922-4.044l-7.377-37.047a5.024,5.024,0,0,1,9.855-1.963l7.376,37.047a5.031,5.031,0,0,1-4.932,6.007" transform="translate(-65.974 -25.906)" fill="#ef9983"/>
            <path id="Trazado_899155" data-name="Trazado 899155" d="M290.545,114.738l4.066-.733a6.865,6.865,0,0,1,7.965,5.489l4.753,25.311c-3.756,1.775-12.6,2.7-12.6,2.7l-5.268-27.821Z" transform="translate(-65.54 -25.788)" fill="#c59d55"/>
            <path id="Trazado_899156" data-name="Trazado 899156" d="M304.855,162.312a.148.148,0,0,1,.009-.278l5.367-1.744a.148.148,0,0,1,.091.281l-5.367,1.744a.147.147,0,0,1-.1,0" transform="translate(-69.004 -36.292)" fill="#b56757"/>
            <path id="Trazado_899157" data-name="Trazado 899157" d="M292.535,135.95a.144.144,0,0,1-.09-.031,6.2,6.2,0,0,1-2.349-3.055.148.148,0,0,1,.287-.07,5.693,5.693,0,0,0,1.782,2.511,21.909,21.909,0,0,1-1.618-6.948.148.148,0,0,1,.144-.152h0a.148.148,0,0,1,.148.144,22.363,22.363,0,0,0,1.826,7.392.149.149,0,0,1-.043.177.147.147,0,0,1-.092.032" transform="translate(-65.683 -29.028)" fill="#f78721"/>
            <path id="Trazado_899158" data-name="Trazado 899158" d="M254.98,150.264a.156.156,0,0,1-.071-.018c-.046-.026-4.614-2.588-4.369-7.7.182-3.8,2.282-6.7,4.134-9.252l.15-.207c-.009-.549-.045-4.988.876-7.46a.148.148,0,0,1,.277.1c-.943,2.53-.858,7.353-.857,7.4a.149.149,0,0,1-.028.09l-.179.246c-1.829,2.523-3.9,5.382-4.078,9.093-.235,4.921,4.171,7.4,4.216,7.423a.148.148,0,0,1-.071.277" transform="translate(-56.725 -28.424)" fill="#f78721"/>
            <path id="Trazado_899159" data-name="Trazado 899159" d="M255.843,133.154a.146.146,0,0,1-.08-.024,3.726,3.726,0,0,1-1.426-2.237.148.148,0,0,1,.118-.172.144.144,0,0,1,.173.118,3.489,3.489,0,0,0,1.3,2.044.147.147,0,0,1,.043.2.149.149,0,0,1-.124.067" transform="translate(-57.587 -29.597)" fill="#f78721"/>
            <path id="Trazado_899160" data-name="Trazado 899160" d="M278.558,156.274c-.108,0-.216,0-.325,0a.148.148,0,0,1-.145-.151.156.156,0,0,1,.15-.145c.1,0,.2,0,.3,0,5.661,0,9.059-3.282,9.674-5.662a.151.151,0,0,1,.18-.106.148.148,0,0,1,.106.18c-.595,2.3-3.815,5.884-9.944,5.884" transform="translate(-62.965 -34.01)" fill="#f78721"/>
          </g>
        </g>
      </g>
    </g>
  </g>
</svg>
