<svg xmlns="http://www.w3.org/2000/svg" xmlns:xlink="http://www.w3.org/1999/xlink" width="420.27" height="417.741" viewBox="0 0 420.27 417.741">
  <defs>
    <clipPath id="clip-path">
      <rect id="Rect치ngulo_403018" data-name="Rect치ngulo 403018" width="393.317" height="350.802" fill="none"/>
    </clipPath>
  </defs>
  <g id="Grupo_1100834" data-name="Grupo 1100834" transform="translate(-999.73 -1536.863)">
    <g id="Grupo_1100263" data-name="Grupo 1100263" transform="translate(999.73 1536.863)">
      <rect id="Rect치ngulo_35205" data-name="Rect치ngulo 35205" width="420.27" height="417.741" fill="#a1cad2"/>
      <path id="Trazado_896765" data-name="Trazado 896765" d="M25.009,152.622c0,84.291,66.208,152.621,147.88,152.621s147.88-68.33,147.88-152.621S254.561,0,172.889,0,25.009,68.331,25.009,152.622" transform="translate(36.501 56.249)" fill="#e8f2f4"/>
      <g id="Grupo_1100506" data-name="Grupo 1100506" transform="translate(20.27 56.251)">
        <g id="Grupo_1100505" data-name="Grupo 1100505" transform="translate(0 -0.002)" clip-path="url(#clip-path)">
          <path id="Trazado_898067" data-name="Trazado 898067" d="M628.961,260.3c1.8-4.443-.587-9.145-2.951-13.474-2.275-4.168.547-8.1.137-12.439a20.3,20.3,0,0,0-3.81-10.721c-.253-.337-6.411-4.657-9.313-5.749a33.2,33.2,0,0,0-3.916-1.04q-2.981-.718-5.982-1.358c-.931-.2-1.863-.394-2.8-.56a5.509,5.509,0,0,0-.864-.135,4.377,4.377,0,0,0-2.337,1.133,15.215,15.215,0,0,0-5.188,6.473c-.853,2.069-.8,4.213-.967,6.406a15.26,15.26,0,0,1-3.017,8.1c-2.549,3.618-5.319,6.83-6.12,11.3a16.116,16.116,0,0,0,1.893,10.905.624.624,0,0,0,.313.275c1.032,2.64,6.117,2.256,8.491,2.9,5.462,1.49,9.129,3.13,14.657.884,4.62-1.878,8.039-3.631,12.358.007,1.43,1.2,2.6,2.483,4.579,2.746,3.313.442,5.972-2.243,4.959-5.44a.69.69,0,0,0-.121-.216" transform="translate(-438.483 -161.969)" fill="#4a2521"/>
          <path id="Trazado_898068" data-name="Trazado 898068" d="M643.338,340.208c2.828,2.76,7.574,4,11.224,3.748,2.639-.184,10.652-3.748,11.51-9.52-2.465-.788-5.01-1.514-6.023-4.182-.583-1.536-.337-3.109-.363-4.7-.048-2.962-.033-5.924.022-8.886a.918.918,0,0,0-.381-.8.9.9,0,0,0-.712-.72,17.615,17.615,0,0,0-4.65-.075c-1.912.046-3.822.023-5.733-.047a.89.89,0,0,0-.887.52.979.979,0,0,0-1.268.965l.166,7.487c.044,1.969,1.218,7.79-4.054,9.045-.5.119-1.371,4.707,1.149,7.166" transform="translate(-483.761 -237.458)" fill="#ab5138"/>
          <path id="Trazado_898069" data-name="Trazado 898069" d="M650.78,120.195c-1.743-1.381-9.143-3.357-12.474-2.281a2.7,2.7,0,0,0-1.033.563c-.525.485-.44.832-.96,2.507-.7,2.257,5.088,2.888,7.093,3.036a15.419,15.419,0,0,0,4.657-.249,5.9,5.9,0,0,0,2.668-1.848c.075-.613.361-1.481.049-1.729" transform="translate(-479.709 -88.669)" fill="#475291"/>
          <path id="Trazado_898070" data-name="Trazado 898070" d="M659.858,229.437c-2.091-3.365-10.527-2.359-13.166-1.419-2.656.945-4.208,3.37-5.317,5.7a16.872,16.872,0,0,0-1.452,8.6c.409,5.12,1.691,11.169,7.876,12.856a13.62,13.62,0,0,0,8.794-.453c3.868-1.667,4.9-4.927,5.5-8.514.8-4.793.491-12.383-2.235-16.77" transform="translate(-482.428 -171.23)" fill="#ab5138"/>
          <path id="Trazado_898071" data-name="Trazado 898071" d="M780.351,420.489a212.615,212.615,0,0,0-11.412-21.08c-3.652-5.7-7.739-8.562-14.679-10.083-1-.219.245,19.8,1.821,24.946a126.506,126.506,0,0,0,5.652,13.834c1.379,3.122,9.77,18.565,18.863,11.752,4.367-3.272,2.167-14.51-.245-19.369" transform="translate(-568.41 -293.533)" fill="#9e7e44"/>
          <path id="Trazado_898072" data-name="Trazado 898072" d="M782.9,1089.379a9.4,9.4,0,0,0,5.349-1.288,26.189,26.189,0,0,0,2.693-2.151c-.013-.759-.012-1.515-.027-2.253-.069-3.339-.026-6.68-.017-10.02q.014-5.271.027-10.542c0-1.709-.2-7.487.026-10.256.086-1.036-.038-2.315-1.41-2.459a39.225,39.225,0,0,0-12.206.619,3.1,3.1,0,0,0-2.3,3.233c.456,11.087,1.16,22.167,1.813,33.245,1.526,1.426,3.927,1.868,6.053,1.873" transform="translate(-584.345 -791.799)" fill="#ab5138"/>
          <path id="Trazado_898073" data-name="Trazado 898073" d="M595.009,1092.959c2.289-.15,5.025-.224,6.924-1.682-.181-4.125.533-10.965,1.02-16.486.321-3.636,1.939-16.516,2.285-20.149.169-1.767-14.849-3.58-14.928-2.114-.654,12.143-2.432,34.405-2.639,40.126,1.862,1.582,5.242.441,7.336.3" transform="translate(-443.081 -793.158)" fill="#ab5138"/>
          <path id="Trazado_898074" data-name="Trazado 898074" d="M630.977,389.033c-.014-.8-.01-1.593.017-2.389.139-4.064.882-8.106.735-12.17-.138-3.843.684-7.846-2.734-10.529a23.218,23.218,0,0,0-8.394-3.672c-2.6-.711-6.32-1.06-8.364-2.962-1.087-1.011-.758-3.856-.858-5.279a.662.662,0,0,0-.323-.533.544.544,0,0,0-.627-.117c-4.347,1.725-8.8,1.1-13.063-.542a.561.561,0,0,0-.754.3.544.544,0,0,0-.158.373c.373,6.023-4.689,4.98-14.744,1.9a4.139,4.139,0,0,0-2.366-.221c-2.768.831-2.628,8.659-2.7,10.811-.154,4.578.665,6.825,1.256,11.367,1.176,9.034,6.838,17.717,9.654,26.429.672,2.079,2.2,9.661,2.2,9.661,3.073,3.779,33.791,7.584,42.2,6.245,0,0,.1-6.723.176-7.81.482-6.952-1.03-13.9-1.155-20.856" transform="translate(-434.751 -264.481)" fill="#9e7e44"/>
          <path id="Trazado_898075" data-name="Trazado 898075" d="M545.13,712.831c12.718,1.271,25.214-2.205,37.914-1.666,6.2.263,12.3,1.749,18.512,1.834,5.765.079,14.382-2.678,18.169-4.376a1.043,1.043,0,0,0,.583-1c-1.4-80.369-18.858-128.435-18.858-128.435a1.2,1.2,0,0,0-.287-.658c-.083-2.855.469-4.6.386-7.458-.02-.681-1.456-1.238-1.86-1.183-20.922,2.833-40.1-1.852-44.3-2.563a.514.514,0,0,0-.6.48c-.317,4.383-.092,5.507-.565,9.7-9.083,22.8-13.926,60.93-17.719,91.206-.984,7.856-2.533,33.395-2.788,36.906-.091,1.249-.22,2.526-.34,3.812a1.543,1.543,0,0,0,1.1,1.647,67.348,67.348,0,0,0,10.642,1.762" transform="translate(-402.144 -427.731)" fill="#2e3649"/>
          <path id="Trazado_898076" data-name="Trazado 898076" d="M699.566,422.057c-.622-1.173-23.878-5.189-29.043-5.593a1.513,1.513,0,0,0-1.632,1.249c-.667,4.187-5.848,36.346-5.908,37.67-.125,2.764,23.436,5.366,30.446,6.077a.943.943,0,0,0,1.038-.77c.8-4.813,4.673-28.338,4.85-32.43.382-2.109.957-4.867.249-6.2" transform="translate(-499.862 -313.992)" fill="#fff"/>
          <path id="Trazado_898077" data-name="Trazado 898077" d="M675.532,503.021a28.93,28.93,0,0,0-7.381-3.387,12.723,12.723,0,0,0-3.112-.651c-1.175-.009-4.478.73-4.591,1.212a1.486,1.486,0,0,0,.215,1.251,2.38,2.38,0,0,0-1.992,1.2,2.725,2.725,0,0,0-.209,1.928,2.825,2.825,0,0,0-1.068,1.921,3.037,3.037,0,0,0,.262,1.565,4.5,4.5,0,0,0,.573,1.409,4.433,4.433,0,0,0,.332,3.381c.671,1.131,2.137,1.54,3.473,1.823,2.273.48,9.845.139,13.225-.191,1.092-.107,1.562-.935,1.107-1.6a.963.963,0,0,0,.2-.646,19.289,19.289,0,0,0-1.42-7.4.99.99,0,0,0,.39-1.806" transform="translate(-495.634 -376.212)" fill="#ab5138"/>
          <path id="Trazado_898078" data-name="Trazado 898078" d="M661.617,10.659c-.583.9-1.494,4.551-3.035,3.991-1.422-.517-.664-3.464-.561-4.5.353-3.536,1.054-6.352.426-8.314-.337-1.052-2.165-.5-2.267.446A99.369,99.369,0,0,1,654.7,12.372a.086.086,0,0,1-.17-.017c.056-3.149-.053-10.5-1.1-12-.547-.78-2.3-.194-2.3.922,0,3.492.268,6.685-.032,9.979a26.165,26.165,0,0,0-1.88-6.806c-.454-1.017-1.87-.461-1.968.464a19.114,19.114,0,0,0,.638,5.374c0,.011.508,2.1.51,2.109-.64-1.122-1.988-3.968-3.11-3.717a1.067,1.067,0,0,0-.8.973c-.177,1.507.824,3.247,1.345,4.631.274.73.527,1.45.732,2.175a4.618,4.618,0,0,1,.146,1.784c-.471,4.1-.6,8.259-1.522,12.293-.1.426-1.847,5.932-1.518,6.057.036.014.095-.024.123-.042,2.4.7,9.814.679,10-.011a47.07,47.07,0,0,0,1.363-7.114c.024-.026.371-1.345.394-1.375a20.863,20.863,0,0,0,1.465-2.231,48.521,48.521,0,0,0,7.359-15.194c.285-1.116-2.091-.981-2.75.034" transform="translate(-485.264 0.002)" fill="#ab5138"/>
          <path id="Trazado_898079" data-name="Trazado 898079" d="M705.831,240.68a2.836,2.836,0,0,0-.678-1.109A4.2,4.2,0,0,0,701,238.45c-.917.384-2.306,2.126-.961,2.925a4,4,0,0,0,2.38.092c.926-.073,1.808.5,2.708.4.778-.083.881-.624.709-1.187" transform="translate(-527.375 -179.63)" fill="#4a2521"/>
          <path id="Trazado_898080" data-name="Trazado 898080" d="M649.577,238.851a3.132,3.132,0,0,1,.77-1.23c1.162-1.107,3.209-1.861,4.72-1.243,1.041.426,2.617,2.357,1.091,3.244-.806.468-1.842.168-2.7.1-1.051-.081-2.053.55-3.074.444-.884-.092-1-.692-.8-1.317" transform="translate(-489.693 -178.051)" fill="#4a2521"/>
          <path id="Trazado_898081" data-name="Trazado 898081" d="M683.748,64.877c-.867,1.956-2.894,2.67-4.376,4.048a6.562,6.562,0,0,0-2.012,4.049c-.045.34.49.337.535,0,.313-2.361,1.752-3.7,3.616-4.984a7.036,7.036,0,0,0,2.7-2.843c.139-.312-.323-.585-.462-.27" transform="translate(-510.699 -48.809)" fill="#5e2518"/>
          <path id="Trazado_898082" data-name="Trazado 898082" d="M665.279,222.768c-1.1-2.752-3.641-5.388-5.446-7.777a7.058,7.058,0,0,0-4.6-2.778,5.779,5.779,0,0,0-4.161-1.467c-1.892.1-3.456,1-5.438.734-1.093-.145-1.97-.658-3.118-.494a9.328,9.328,0,0,0-3.954,1.775,10.392,10.392,0,0,0-1.846,3.775c-.21.84-.659,5.574,1.609,3.969,2.5-1.768,5.192-4.928,8.7-4.109,2.684.546,6.159-1.569,8.367.4,1.744,1.556,2.09,5.054,3.214,6.965,1.852,3.148,3.86,5.293,4.068,9.131.045.835,1.443.84,1.4,0,0-.025,0-.049-.006-.074a.632.632,0,0,0,.337-.377c1.054-3.087,2.15-6.5.875-9.675" transform="translate(-479.92 -158.887)" fill="#4a2521"/>
          <path id="Trazado_898083" data-name="Trazado 898083" d="M707.6,254.043c-1.033-.966-1.713.4-1.8,1.314-.119,1.221,1.2,3.495,2.321,1.584a2.444,2.444,0,0,0-.519-2.9" transform="translate(-532.136 -191.287)" fill="#250606"/>
          <path id="Trazado_898084" data-name="Trazado 898084" d="M659.529,252.841c1.033-.966,1.713.4,1.8,1.315.119,1.221-1.2,3.494-2.321,1.584a2.444,2.444,0,0,1,.519-2.9" transform="translate(-496.659 -190.381)" fill="#250606"/>
          <path id="Trazado_898085" data-name="Trazado 898085" d="M733.333,508.887a.82.82,0,0,0-.637-.528c-5.321-2.737-35.74-7.846-35.771-7.843a1.062,1.062,0,0,0-.675.1c-3.468,1.692-4.559,12.841-2.939,15.578.328.555,6.044,1,9.79,2.418,5.565,2.111,18.2,7.29,26.478,7.125,8.859-.177,6.2-11.2,3.754-16.847" transform="translate(-522.173 -377.354)" fill="#9e7e44"/>
          <path id="Trazado_898086" data-name="Trazado 898086" d="M595.468,123.883a14.275,14.275,0,0,1-4.064-.766,13.151,13.151,0,0,1-2.833-1.738.676.676,0,0,0-.994.315c-2.422,6.087-4.736,12.21-7.1,18.32-6.8,17.6-10.859,36.786-9.423,51.018a117.146,117.146,0,0,0,3.716,17.559c.083.3,15.244-12.086,15.251-12.758a60.575,60.575,0,0,0,0-6.243c-1.284-19.712,5.322-37.167,6.98-43.758q.5-1.892.937-3.8a177.543,177.543,0,0,0,3.535-18.22.809.809,0,0,0-1.078-.854,11.983,11.983,0,0,1-4.932.923" transform="translate(-430.338 -91.433)" fill="#9e7e44"/>
          <path id="Trazado_898087" data-name="Trazado 898087" d="M679.636,257.639c-1.5,1.344-.916,3.356-.048,4.879a.268.268,0,0,0,.462-.27c-.75-1.317-1.349-3.05-.036-4.231.257-.231-.123-.608-.378-.378" transform="translate(-511.723 -194.195)" fill="#5e2518"/>
          <path id="Trazado_898088" data-name="Trazado 898088" d="M689.43,270.846a2.809,2.809,0,0,1,1.023,1.041.268.268,0,0,0,.462-.27,3.358,3.358,0,0,0-1.215-1.233.268.268,0,0,0-.27.462" transform="translate(-519.705 -203.828)" fill="#5e2518"/>
          <path id="Trazado_898089" data-name="Trazado 898089" d="M679.953,285.68c-.351-.643-4.717-.517-6.422-.375a2.482,2.482,0,0,0-.806.16c-1.231.548.052,3.118,2.025,3.371,2.241.287,4.532.1,5.471-2.442.106-.286-.14-.479-.268-.714" transform="translate(-506.843 -215.021)" fill="#fff"/>
          <path id="Trazado_898090" data-name="Trazado 898090" d="M675.251,336.066c-3.719,2.023-7.7,1.632-11.578.3-.327-.112-.467.4-.142.516,4.024,1.379,8.144,1.734,11.991-.358.3-.165.033-.627-.27-.462" transform="translate(-500.136 -253.353)" fill="#5e2518"/>
          <path id="Trazado_898091" data-name="Trazado 898091" d="M649.736,239.223q-2.227,6.021-3.97,12.2a.268.268,0,0,0,.516.142q1.743-6.178,3.97-12.2c.12-.323-.4-.463-.516-.142" transform="translate(-486.872 -180.227)" fill="#401e15"/>
          <path id="Trazado_898092" data-name="Trazado 898092" d="M674.648,506.062a8.114,8.114,0,0,1,3.136-.094c.337.056.482-.46.142-.516a8.843,8.843,0,0,0-3.42.094c-.336.075-.194.591.142.516" transform="translate(-508.405 -380.996)" fill="#5e2518"/>
          <path id="Trazado_898093" data-name="Trazado 898093" d="M645.18,375.4a68.112,68.112,0,0,1,.739,8.707.268.268,0,0,0,.535,0,69.267,69.267,0,0,0-.758-8.849c-.051-.34-.567-.2-.516.142" transform="translate(-486.436 -282.781)" fill="#401e15"/>
          <path id="Trazado_898094" data-name="Trazado 898094" d="M808.1,518.522c2.919-.13,6.04,1.414,8.773,2.307.328.108.469-.409.142-.516-2.8-.915-5.918-2.459-8.916-2.326-.343.015-.345.55,0,.535" transform="translate(-609.08 -390.534)" fill="#401e15"/>
          <path id="Trazado_898095" data-name="Trazado 898095" d="M628.221,605.964a50.163,50.163,0,0,0,10.983,2.489c3.479.5,6.966.959,10.472,1.22,7.064.526,14.248.2,20.951-2.269.32-.118.182-.636-.143-.516-6.663,2.454-13.788,2.77-20.809,2.251-3.539-.262-7.059-.726-10.569-1.235a49.256,49.256,0,0,1-10.744-2.454c-.322-.124-.461.393-.142.516" transform="translate(-473.517 -456.467)" fill="#401e15"/>
          <path id="Trazado_898096" data-name="Trazado 898096" d="M687.181,724.521q-2.388,31.746-5.993,63.384-1.023,8.963-2.143,17.914c-.043.341.493.338.535,0q3.951-31.591,6.688-63.317.774-8.987,1.449-17.981c.026-.344-.509-.342-.535,0" transform="translate(-511.97 -546.065)" fill="#401e15"/>
          <path id="Trazado_898097" data-name="Trazado 898097" d="M739.537,886.95a324.842,324.842,0,0,1,2.462,48.9.268.268,0,0,0,.535,0,324.818,324.818,0,0,0-2.462-48.9c-.043-.337-.578-.341-.535,0" transform="translate(-557.579 -668.531)" fill="#401e15"/>
          <path id="Trazado_898098" data-name="Trazado 898098" d="M803.892,1206.481a8.668,8.668,0,0,1-.285-1.8c-.479-1.91-2.507-3.422-3.8-4.848a33.928,33.928,0,0,1-4.376-5.518c-2.073-3.581-2.655-8.213-3.241-12.546-.018-.13-.8-.605-.873.108-.292,2.72-12.116.571-14.25-.483-.19-.094-.6.274-.6.483.069,2,.4,8.5.177,11.627-.2,2.812-.776,5.576-.439,8.357-.657.43-.467,2.719-.374,3.687a.555.555,0,0,0,.374.472,68.8,68.8,0,0,1,8.172,3.837,13.428,13.428,0,0,0,4.6,1.777c4.809.823,15.151.241,15.193-.07a.661.661,0,0,0,.6-.645c.046-1.292.185-3.512-.882-4.438" transform="translate(-584.875 -890.709)" fill="#c59d55"/>
          <path id="Trazado_898099" data-name="Trazado 898099" d="M784.828,1266.4a19.783,19.783,0,0,1,6.395,2.912,15.524,15.524,0,0,0,5.273,2.836c4.181.98,8.859.552,13.034-.236.338-.064.2-.58-.142-.516a39.57,39.57,0,0,1-7.013.7,20.431,20.431,0,0,1-6.625-.712c-2.049-.694-3.613-2.21-5.438-3.307a20.014,20.014,0,0,0-5.341-2.2.268.268,0,0,0-.142.516" transform="translate(-591.584 -954.414)" fill="#401e15"/>
          <path id="Trazado_898100" data-name="Trazado 898100" d="M791.455,1187.162l.69,13.948c.017.343.552.345.535,0q-.345-6.974-.69-13.948c-.017-.343-.552-.345-.535,0" transform="translate(-596.724 -894.876)" fill="#401e15"/>
          <path id="Trazado_898101" data-name="Trazado 898101" d="M599.889,1207.925c.275-2.978.208-2.309-.832-5.517-.2-.631-1.868-6.614-1.969-7.27a89.17,89.17,0,0,1-1-13.467c-.01-1.3-.361-2.1-.963-1.448-3.469,3.74-10.659,2.436-14.654-.536a.428.428,0,0,0-.681.308c-.153,2.176-.013,7.568-.494,10.37a81.3,81.3,0,0,0-.8,9.1c-.094.044-.192.087-.283.133a.666.666,0,0,0-.309.56c-.018,1.275-.055,1.094-.026,2.126a.568.568,0,0,0,.254.458c.6.4,2.2,1.758,3.57,5.456.346.938,3.226,3.39,6.58,3.836,2.3.306,9.044.679,11.767-.36.234-.089.233-1.057.241-1.217.028-.513.066-1.027.044-1.542a1.258,1.258,0,0,0-.1-.613c-.054-.085-.358-.3-.351-.377" transform="translate(-435.695 -889.371)" fill="#611e2e"/>
          <path id="Trazado_898102" data-name="Trazado 898102" d="M583.08,1261.853c1.5,1.457,2,3.294,3.125,4.99a9.488,9.488,0,0,0,3.838,3.223c3.947,1.9,8.415,1.361,12.6.752.339-.049.2-.565-.142-.516-4.281.622-8.969,1.18-12.9-1.071a9.078,9.078,0,0,1-3.715-4.088,12.2,12.2,0,0,0-2.431-3.668c-.248-.24-.626.138-.378.378" transform="translate(-439.557 -951.041)" fill="#401e15"/>
          <path id="Trazado_898103" data-name="Trazado 898103" d="M593.711,1189.372q-.193,4.881-.386,9.762c-.014.344.522.344.535,0q.193-4.881.386-9.762c.014-.344-.522-.344-.535,0" transform="translate(-447.342 -896.542)" fill="#401e15"/>
          <path id="Trazado_898104" data-name="Trazado 898104" d="M1031.93,33.083a.484.484,0,0,1-.111-.68,7.4,7.4,0,0,0,.947-7.309,6.064,6.064,0,0,0-4.706-3.715.519.519,0,0,1-.456-.388,6.933,6.933,0,0,0-3.147-4.684,5.507,5.507,0,0,0-5.151-.04.542.542,0,0,1-.644-.11c-2.136-2.341-5.26-4.176-8.4-3.073a4.508,4.508,0,0,0-3.137,4.31c-.008.228-.162.494-.4.472-2.887-.268-5.009,3.224-4.966,6.532a.49.49,0,0,1-.5.459c-1.842.015-2.984,1.311-3.331,3.63a8.316,8.316,0,0,0,1.448,5.994.474.474,0,0,1,.078.347,3.854,3.854,0,0,0,.015,1.321c.449,2.375,3.153,3.552,5.212,4.424.023.01.046.014.069.022a6.118,6.118,0,0,0,4.918,1.541c2.541-.263,4.594-1.234,6.953.277a19.06,19.06,0,0,1,4.556,4.6A3.238,3.238,0,0,0,1024.2,48.5c1.125-.225,4.073-2.946,4.348-3.52a8.788,8.788,0,0,0,.38-.923c.054-.156.121-.741.275-.814a8.518,8.518,0,0,0,4.419-5.178,4.073,4.073,0,0,0-1.687-4.985" transform="translate(-752.324 -9.616)" fill="#4a1d17"/>
          <path id="Trazado_898105" data-name="Trazado 898105" d="M1405.841,594.774a23.137,23.137,0,0,0,1.855,6.443c.386.8,1.507,3.958,3.094,2.776,1.519-1.132-.333-5.269-.162-7.3.09-1.061-3.214-1.713-4.787-1.923" transform="translate(-1059.946 -448.434)" fill="#ab5138"/>
          <path id="Trazado_898106" data-name="Trazado 898106" d="M1076.71,127.639c-2.355-1.553-5.258-1.9-7.318-3.962-1.748-1.75-2.474-4.943-3.047-7.289a38.984,38.984,0,0,1-.569-16.88.756.756,0,0,0-.78-.857.8.8,0,0,0-1.037.23c-3.926,5.76-7.955,11.464-13.857,15.78-.542.4-.158.984.381,1.113.587,2.039,1.866,3.995,2.5,8a.9.9,0,0,1-.7,1.011c-1.527.384-3.216.56-3.223,1.932-.005,1.028,1,2.536,1.53,3.426,2.621,4.378,7.837,8.638,13.2,8.337,5.723-.321,9.634-6.316,13.075-9.75a.664.664,0,0,0-.157-1.089" transform="translate(-790.95 -74.305)" fill="#ab5138"/>
          <path id="Trazado_898107" data-name="Trazado 898107" d="M1075.431,183.61c-2.458-1.758-5.488-2.151-7.637-4.485-.942-1.023-1.968-4.106-2.465-5.642-.215-.667-.659-.59-1.267-.237-3.991,2.315-9.165,4.255-13.558,3.5-.333-.057-.4.205-.345.536.048.273.464,1.66.507,1.951.074.509.317,1.218-.191,1.357-1.593.435-3.892.422-3.9,1.975-.005,1.164,1.042,2.871,1.6,3.878,2.736,4.956,8.18,9.778,13.775,9.438,5.973-.364,10.055-7.15,13.645-11.038a.787.787,0,0,0-.164-1.233" transform="translate(-789.076 -130.419)" fill="#2e3649"/>
          <path id="Trazado_898108" data-name="Trazado 898108" d="M1414.96,570.221l-11.4-18.441a.865.865,0,0,0-.574-.424.935.935,0,0,0-.965-.084,325.552,325.552,0,0,0-32.569,15.99,56.673,56.673,0,0,0-5.9,3.848c-.98.746-2.714,1.72-2.953,3.1-.293,1.686,1.424,3.806,2.148,5.143,1.262,2.331,2.585,4.629,3.943,6.906,1.422,2.383,2.887,4.741,4.376,7.083,1.366,2.15,2.609,4.92,4.42,6.718,2.881,2.862,7.723-1.247,10.488-2.627q8.187-4.086,16.291-8.336,3.9-2.046,7.783-4.13c2.547-1.367,5.679-2.581,7.977-4.343,3.248-2.492-1.567-7.984-3.061-10.4" transform="translate(-1025.807 -415.564)" fill="#fce7d8"/>
          <path id="Trazado_898109" data-name="Trazado 898109" d="M1416.123,538.061a6.142,6.142,0,0,0-1.461-1.406,29.058,29.058,0,0,0-5.938-2.94c-.91-.363-1.827-.715-2.752-1.041-.974-.343-1.873-.435-2.525-1.273-.6-.776-1.193-1.559-1.817-2.319s-1.238-1.491-1.883-2.214c-.216-.242-.623-.891-.963-.984a1.631,1.631,0,0,0-.869.07c-3.612,1.034-6.078,4.18-9,6.5a1.065,1.065,0,0,0-.333.358c-.147.319.064.679.267.968l2.652,3.769a4.4,4.4,0,0,1,1.028,2.933c.064.875.172,1.783.319,2.7,1.675.2,1.715,0,3.211.826a18.326,18.326,0,0,1,2.475.673c3.185,1.419,5.848,5.122,9.021,6.567,1.082.493,1.863-.775,1.473-1.729a11.9,11.9,0,0,0-2.49-3.247q-1.337-1.419-2.813-2.709a.059.059,0,0,1,.073-.093c2.043,1.337,5.2,4.132,6.927,5.537.667.544,1.576,1.117,2.334.7.714-.39.427-1.179.247-1.958-.4-1.746-3.278-3.848-4.27-4.985,1.385.338,3.993,2.452,4.976,3.284a1.516,1.516,0,0,0,1.447.241c.723-.275.773-.972.577-1.628-.673-2.266-3.253-3.854-4.906-5.421a.1.1,0,0,1,.1-.17c1.062.3,3.791,1.342,4.249,1.2a1.4,1.4,0,0,0,1.046-1.13c0-.027,0-.053,0-.08a1.792,1.792,0,0,0-.407-1" transform="translate(-1046.897 -396.467)" fill="#ab5138"/>
          <path id="Trazado_898110" data-name="Trazado 898110" d="M1088.714,1132.124c-.043-.124-.274-3.909-.331-4.016a1.87,1.87,0,0,0,.326-1.245q-.933-14.406-.769-28.839c.023-2-12.545-1.777-16.965-2.5a2.349,2.349,0,0,0-2.592,3.213c.394,5.505.638,11.017.871,16.53.578,13.719-2.119,16.9-1.394,17.491.247,1.082,21.809,2.16,20.855-.63" transform="translate(-805.028 -825.948)" fill="#fce7d8"/>
          <path id="Trazado_898111" data-name="Trazado 898111" d="M1328.444,1075.473c-1.407-4.632-3.867-9-5.537-13.558-1.817-4.96-3.43-9.992-5.03-15.024-.606-1.906-12.476,2.2-16.9,2.883a2.342,2.342,0,0,0-1.456,3.856c2.1,5.109,4.06,10.27,6.009,15.436,4.851,12.856,3.285,16.718,4.159,17.052.574.952,11.49-2.356,16.68-4.26,2.892-1.062,2.9-3.688,2.079-6.385" transform="translate(-979.342 -788.935)" fill="#fce7d8"/>
          <path id="Trazado_898112" data-name="Trazado 898112" d="M915.467,275.454a19.97,19.97,0,0,0-1.516-4.651,5.925,5.925,0,0,0-6.421-3.208c-1.023.143-.919,1.362-.216,1.832.333,2.1.2,6.974,2.617,10.075,1.078,1.383,5.167,2.2,5.97.072.422-1.118-.188-3.014-.434-4.12" transform="translate(-683.67 -201.699)" fill="#c0b8cf"/>
          <path id="Trazado_898113" data-name="Trazado 898113" d="M1041.5,60.361c-4.188-7.459-14.433-9.326-20.569-3.4a10.689,10.689,0,0,0-2.708,5.648c-1.282,6-2.642,12.661-1.04,18.687,1.28,4.814,7.217,4.5,11.321,4.106,2.353-.225,5.285-.39,7.072-2.011,3.01-2.732,4.646-6.719,5.7-10.536,1.043-3.772,2.3-8.8.222-12.494" transform="translate(-766.366 -40.298)" fill="#ab5138"/>
          <path id="Trazado_898114" data-name="Trazado 898114" d="M1080.772,542.633c-.12-14.953,1.516-30.934,1.4-45.887-.059-7.3-4.388-39.611-8.773-43.358-6.276-5.363-22.834-9.355-27.321-.916a1.078,1.078,0,0,0-1.222.9c-.99,8.992,1.071,17.09-.083,25.627-.988,7.312-1.572,14.682-2.13,22.032-1.737,22.911-2.59,45.907-2.435,68.876.125,18.712.781,37.555,3.6,56.1.853,5.617,35.589.648,35.585.158-.243-30.107,1.625-53.425,1.383-83.532" transform="translate(-784.257 -337.469)" fill="#8f4d4b"/>
          <path id="Trazado_898115" data-name="Trazado 898115" d="M712.339,39.747c-1.828-2.134-3.533-4.354-5.138-6.65,0-.025,0-.048,0-.074-.063-1,.772-2.766.873-6.95a25.3,25.3,0,0,0-.056-4.122,43.7,43.7,0,0,0-2.434-8.123,1.54,1.54,0,0,0-.913-1.1.938.938,0,0,0-1.231.449,6.267,6.267,0,0,0-.469,2.974,9.689,9.689,0,0,0,.256,1.512,5.8,5.8,0,0,1,.392,1.531,3.584,3.584,0,0,0-.657-.026,44.272,44.272,0,0,0-7.231-10.876,1.464,1.464,0,0,0-2.416,1.468c.186,1.973,1.652,3.513,2.559,5.23.471.891,1.04,1.727,1.522,2.612a9.853,9.853,0,0,1,.645,1.4,1.716,1.716,0,0,1,.206.653c-.012.155-.157.347-.327.3-.081-.024-.212-.313-.261-.386q-.275-.4-.567-.8c-.433-.584-.889-1.151-1.36-1.705a35.509,35.509,0,0,0-3.2-3.328c-.694-.629-3.846-3.644-4.839-2.092-1.215,1.9,1.183,3.359,2.041,4.324,2.7,3.042,5.246,6.48,4.44,6.367A13.71,13.71,0,0,0,692,20.16c-1.1-.851-4.539-3.726-5.6-2.279-1.192,1.633,1.228,2.973,2.009,3.745.817.807,4.579,3.825,4.274,4.385-.189-.091-2.351-1.3-2.546-1.387-1.132-.48-3.814-1.95-4.582-.737-1.015,1.606.989,2.712,2.126,3.363a15.877,15.877,0,0,1,4.531,3.2c1.908,7.259,6.71,9.4,6.724,9.425,2.258,3.318,4.117,7.161,6.635,10.288.581.721,1.461.238,1.677-.47.006-.008.013-.014.019-.023q2.652-3.947,5-8.081a1.013,1.013,0,0,0,.138-.531,1.05,1.05,0,0,0-.064-1.312" transform="translate(-516.673 -5.964)" fill="#ab5138"/>
          <path id="Trazado_898116" data-name="Trazado 898116" d="M1212.942,640.409a2.781,2.781,0,0,0,.895-2.915c-5.44-18.641-13.8-37.789-19.915-56.229a151.991,151.991,0,0,1-6.99-30.761,282.046,282.046,0,0,0-4.608-30.144,252.269,252.269,0,0,0-10.5-34.364.888.888,0,0,0-.629-1.274,61.689,61.689,0,0,0-24.249-1.185c-2.591.4-6.227.644-7.668,3.063-1.547,2.6-.274,6.6.046,9.314,1.969,16.722,7.744,67.363,17.966,99.429,3.294,10.333,13.007,40.441,21.6,54.692.681,1.13,2.219.455,3.439,1.082,3.246,1.669,20.928-2.555,30.61-10.709" transform="translate(-858.403 -364.046)" fill="#8f4d4b"/>
          <path id="Trazado_898117" data-name="Trazado 898117" d="M1123.754,513.168a1.028,1.028,0,0,0-.73-.726c-1.809-.416-3.842.066-5.673.222q-3.723.318-7.448.62-7.111.577-14.227,1.1c-9.313.681-18.937,2-28.248.819-1.209-.153-1.306,1.545-.327,1.984a80.638,80.638,0,0,0,1.333,12.716,1.08,1.08,0,0,0,.73.726,89.089,89.089,0,0,0,37.8,2.822,52.888,52.888,0,0,0,9.786-2.367c1.456-.512,7.148-.89,8.147-2.161,1.569-1.994,1.307-5.24.652-8.208-.519-2.352-1.249-5.18-1.791-7.544" transform="translate(-804.047 -386.235)" fill="#2e3649"/>
          <path id="Trazado_898118" data-name="Trazado 898118" d="M1308.432,381.4a1.429,1.429,0,0,0-.123-1.245q-6.748-11.255-13.512-22.5c-5.272-8.736-11.3-17.059-17.044-25.5a1.153,1.153,0,0,0-.61-.459,1.241,1.241,0,0,0-1.969-.116,91.465,91.465,0,0,0-5.929,8.1c-1.1,1.71-2.6,3.692-2.88,5.76a7.8,7.8,0,0,0,1.566,5.233c1.623,2.56,3.4,5.024,5.229,7.44,4.721,6.218,9.6,12.242,13.731,18.846,2.087,3.336,6.051,8.944,8.692,12.414a1.121,1.121,0,0,0,.946.445,13.312,13.312,0,0,0,11.9-8.414" transform="translate(-954.749 -249.665)" fill="#2e3649"/>
          <path id="Trazado_898119" data-name="Trazado 898119" d="M1061,276.849c.568-1.17.285-2.519.051-4.04-.906-5.881-6.327-18.235-7.7-23.994-1.876-7.885-3.4-15.862-5.1-23.786-1.26-5.875,2.519-10.578-2.16-14.758-2.978-2.661-16.56-6.637-18.123-7.085-4.815-1.378-4.3-1.35-4.663-.663-2.127,3.99-5.334,10.057-10.1,11.151s-11.808-3.391-13.178-7.642a15.838,15.838,0,0,1-.621-2.77c-.124-.933.358-2.173-.81-2.242-9.267-.543-10.354-.52-12.9-.788-.746-.079-4.091,16.212-3.317,23.054a67.691,67.691,0,0,0,3.712,15.7c2.07,6.07,5.057,29.328,9.868,41.066a3.634,3.634,0,0,0,1.985,2.237c9.52,3.445,24.668,4.731,34.429,3.428,6.417-.857,12.637-3.558,19-4.642,2.73-.465,6.06-1.215,8.37-2.838a3.658,3.658,0,0,0,1.247-1.391" transform="translate(-740.594 -150.968)" fill="#fce7d8"/>
          <path id="Trazado_898120" data-name="Trazado 898120" d="M1081.769,82.81a4.612,4.612,0,0,0-.97-1.551,5.316,5.316,0,0,0-4.671-1.36,2.331,2.331,0,0,0-1.875,1.479,1.664,1.664,0,0,0,.856,2.053,8.815,8.815,0,0,0,2.9.315c1.016.113,2.095,1,3.134.648.8-.269.856-.92.63-1.584" transform="translate(-809.877 -60.164)" fill="#4a1d17"/>
          <path id="Trazado_898121" data-name="Trazado 898121" d="M800.816,137.447a1.131,1.131,0,0,1,.047-.608.911.911,0,0,0-.677-1.293c-8.244-1.618-18.279-2.17-25.466-6.826-3.709-2.4-7-5.687-10.3-8.606q-4.837-4.283-9.561-8.689a1.192,1.192,0,0,0-1.953.512,28.029,28.029,0,0,1-2.88,6.76,40.551,40.551,0,0,1-4.021,5.175,1.187,1.187,0,0,0-.08,1.47c5.831,8.178,13.867,15.481,21.964,21.333,8.661,6.259,19.593,7.75,29.359,11.584.873.343,1.4-.531,1.216-1.256a1.316,1.316,0,0,1,.244-1.034c3.792-5.637,3.359-11.978,2.107-18.521" transform="translate(-562.233 -83.766)" fill="#2e3649"/>
          <path id="Trazado_898122" data-name="Trazado 898122" d="M1031.36,78.606c-.534-1.057-2.253-1.407-3.352-1.177a4.757,4.757,0,0,0-3.106,2.784,1.031,1.031,0,0,0,.258,1.173c.563.451,1.379,0,1.973-.136.914-.2,1.811.047,2.716-.085a1.885,1.885,0,0,0,1.511-2.559" transform="translate(-772.669 -58.327)" fill="#4a1d17"/>
          <path id="Trazado_898123" data-name="Trazado 898123" d="M1242.944,267.433a1.162,1.162,0,0,0-.147-.371c-9.165-15.585-17.782-27.16-30.34-33.945-1.15-.621-5.769,10.033-4.7,12.206-3.311,16.9,14.658,38.038,15.406,38.06,9.6.293,17.039-6.574,19.966-15.008a.87.87,0,0,0-.184-.943" transform="translate(-910.291 -175.74)" fill="#fce7d8"/>
          <path id="Trazado_898124" data-name="Trazado 898124" d="M950.144,200.507a.744.744,0,0,0-.7-.753c-3.478-.24-20.391-1.843-27.625-.724a.593.593,0,0,0-.48.719c-.075.131,3.075,7.366.244,28.133a.351.351,0,0,0,.181.377,58.257,58.257,0,0,0,21.469,7.669c.226.034,3.683,2.446,3.868,2.418a.643.643,0,0,0,.719-.474c1.541-5.361,2.266-32.625,2.321-37.365" transform="translate(-694.647 -149.763)" fill="#fce7d8"/>
          <path id="Trazado_898125" data-name="Trazado 898125" d="M1040.16,53.678c-.716-3.191-1.693-6.579-4.7-8.27a20.9,20.9,0,0,0-10.648-2.538A12.963,12.963,0,0,0,1015.4,46.6a15.078,15.078,0,0,0-4.346,9.323c-.042.7-.3,2.485.652,2.864,1.167.466,2.25-1.5,2.652-2.281a12.763,12.763,0,0,0,.836-2.665c.46-1.682,1.534-1.966,2.887-2.666.379-.2.681-.471,1.034-.7.456-.292.833.3,1.227.509a4.3,4.3,0,0,0,1.8.485,7.432,7.432,0,0,0,3.686-.888,4.673,4.673,0,0,1,2.735-.891c1.142.1,1.626.726,2.449,1.433a4.87,4.87,0,0,0,2.682,1.288,4.339,4.339,0,0,0,.641.023.364.364,0,0,1,.369.4,5.818,5.818,0,0,0,.28,2.231c.349,1.065,1.241,1.521,1.181,2.717-.045.884-.874,3.283-.281,3.955,1.1,1.247.286.2,1.117,1.724.317.581-.1,5.389.393,4.75.863-1.125.426-3.957.829-4.866a28.38,28.38,0,0,0,2.046-4.477,11.242,11.242,0,0,0-.11-5.2" transform="translate(-762.243 -32.317)" fill="#4a1d17"/>
          <path id="Trazado_898126" data-name="Trazado 898126" d="M1111.521,112.427c-1.34.312-2.379,1.779-3.058,3.278-.9,1.444-1.589,3.563-.021,4.656,1.994,1.388,3.861-2.085,4.456-3.662.5-1.317.923-4.807-1.378-4.271" transform="translate(-835.015 -84.723)" fill="#ab5138"/>
          <path id="Trazado_898127" data-name="Trazado 898127" d="M1035.019,40.284a5.846,5.846,0,0,0-3.537-5.507,4.459,4.459,0,0,0-5.691,2.431c-.221.484-.371,1.754-.951,1.7-.115-.01-.54-.362-.712-.434a2.976,2.976,0,0,0-.851-.2,3.911,3.911,0,0,0-2.866,1.019c-1.487,1.252-2.941,3.9-.828,5.294.289.189.557-.274.27-.462-2.724-1.79,1.5-5.769,3.683-5.275,1.107.251,1.745,1.5,2.26-.054.8-2.4,2.356-4.38,5.18-3.617,2.272.614,3.431,2.9,3.507,5.105.012.343.547.345.535,0" transform="translate(-767.924 -26.004)" fill="#170503"/>
          <path id="Trazado_898128" data-name="Trazado 898128" d="M1109.668,47.919a4.6,4.6,0,0,1,.416,6.876c-.238.249.14.629.378.378a5.134,5.134,0,0,0-.416-7.633c-.262-.219-.643.157-.378.378" transform="translate(-836.576 -35.793)" fill="#170503"/>
          <path id="Trazado_898129" data-name="Trazado 898129" d="M1117.8,79.994c.63-.2,1.633.609,2.034,1.008a3.976,3.976,0,0,1,1.042,1.832.268.268,0,0,0,.516-.142,4.522,4.522,0,0,0-1.46-2.323c-.536-.451-1.538-1.123-2.274-.89-.327.1-.187.621.142.516" transform="translate(-842.525 -59.887)" fill="#170503"/>
          <path id="Trazado_898130" data-name="Trazado 898130" d="M1074.871,148.718c-.87,2.324-1.856,4.657-4.024,6.062a15.007,15.007,0,0,1-6.2,2.048c-.338.039-.342.575,0,.535a15.1,15.1,0,0,0,6.725-2.289c2.135-1.5,3.132-3.854,4.015-6.213.121-.323-.4-.463-.516-.142" transform="translate(-802.508 -111.99)" fill="#5e2518"/>
          <path id="Trazado_898131" data-name="Trazado 898131" d="M1046.464,109.811a2.869,2.869,0,0,0-.659,4.369c.222.264.6-.117.379-.378a2.324,2.324,0,0,1,.55-3.529c.29-.185.021-.648-.27-.462" transform="translate(-787.944 -82.76)" fill="#5e2518"/>
          <path id="Trazado_898132" data-name="Trazado 898132" d="M1055.309,124.645a1.841,1.841,0,0,1,1.541.385c.264.218.644-.159.378-.378a2.422,2.422,0,0,0-2.062-.523c-.338.067-.195.583.142.516" transform="translate(-795.406 -93.55)" fill="#5e2518"/>
          <path id="Trazado_898133" data-name="Trazado 898133" d="M1081.259,100.973a1.447,1.447,0,0,0-1.686,1.076,2.776,2.776,0,0,0,.269,2.8c1.02,1.012,1.943-.462,2.2-1.284s.317-2.3-.78-2.593" transform="translate(-813.767 -76.094)" fill="#250606"/>
          <path id="Trazado_898134" data-name="Trazado 898134" d="M1032.95,98.235a1.338,1.338,0,0,0-1.564,1.021,2.693,2.693,0,0,0,.253,2.663c.949.964,1.8-.436,2.038-1.218s.291-2.188-.728-2.466" transform="translate(-777.451 -74.032)" fill="#250606"/>
          <path id="Trazado_898135" data-name="Trazado 898135" d="M1046.906,134.512a65.941,65.941,0,0,1-6.8-.683c-1.216-.187-.779,1.451-.567,1.934.532,1.206,1.86,1.728,3.353,1.872,1.922.185,3.737.019,4.616-2.483.117-.334-.212-.621-.6-.639" transform="translate(-783.575 -100.89)" fill="#511b0f"/>
          <path id="Trazado_898136" data-name="Trazado 898136" d="M1043.778,135.327a15.256,15.256,0,0,0,6.441.238,2.734,2.734,0,0,0,.164-.313c.127-.33-.212-.621-.6-.639a65.936,65.936,0,0,1-6.675-.665,1.307,1.307,0,0,0,.668,1.379" transform="translate(-786.454 -100.991)" fill="#fff"/>
          <path id="Trazado_898137" data-name="Trazado 898137" d="M1118.131,118.914l-.044-.035a.282.282,0,0,0-.324-.042c-.536.276-.949,1.2-1.218,1.708a10.723,10.723,0,0,0-.89,2.282.268.268,0,0,0,.516.142,10.125,10.125,0,0,1,.72-1.931c.232-.462.666-1.494,1.142-1.739l-.324-.042.045.035c.267.211.649-.165.378-.378" transform="translate(-841.149 -89.572)" fill="#5e2518"/>
          <path id="Trazado_898138" data-name="Trazado 898138" d="M1212.116,323.074a80.6,80.6,0,0,0,7.046,16.951,76.531,76.531,0,0,0,4.924,7.731c1.206,1.657,2.936,3.574,5.193,2.934a.268.268,0,0,0-.142-.516c-2.9.822-5.024-3.235-6.33-5.2a79.194,79.194,0,0,1-10.175-22.041.268.268,0,0,0-.516.142" transform="translate(-913.876 -243.335)" fill="#401e15"/>
          <path id="Trazado_898139" data-name="Trazado 898139" d="M983.424,309.766a69.092,69.092,0,0,0,6.27,12.322c.185.289.649.021.462-.27a68.4,68.4,0,0,1-6.215-12.194c-.124-.318-.641-.179-.516.142" transform="translate(-741.446 -233.308)" fill="#401e15"/>
          <path id="Trazado_898140" data-name="Trazado 898140" d="M1454.084,582.458a14.56,14.56,0,0,1,4.13,2.629c.255.231.634-.147.379-.378a14.969,14.969,0,0,0-4.239-2.712c-.314-.133-.587.328-.27.462" transform="translate(-1096.213 -438.782)" fill="#5e2518"/>
          <path id="Trazado_898141" data-name="Trazado 898141" d="M1466.253,572.916a6.962,6.962,0,0,1,2.942,1.378c.266.213.648-.163.379-.378a7.543,7.543,0,0,0-3.179-1.516c-.336-.071-.48.445-.142.516" transform="translate(-1105.349 -431.56)" fill="#5e2518"/>
          <path id="Trazado_898142" data-name="Trazado 898142" d="M1442.063,592.276l1.224.6c.308.15.58-.311.27-.462l-1.224-.6c-.308-.151-.58.311-.27.462" transform="translate(-1087.153 -446.18)" fill="#5e2518"/>
          <path id="Trazado_898143" data-name="Trazado 898143" d="M1070.935,220.933c3.356,2.914,9.247,1.075,12.842-.362.316-.126.178-.644-.142-.516a25.1,25.1,0,0,1-6.717,1.72c-1.959.2-4.044.135-5.6-1.22-.259-.225-.639.152-.378.378" transform="translate(-807.375 -165.897)" fill="#3d1020"/>
          <path id="Trazado_898144" data-name="Trazado 898144" d="M1147.274,680.74c3.469,2.068,4.943,5.922,5.815,9.682,1.038,4.477,1.644,9.078,2.422,13.605q2.6,15.113,5.2,30.226c.058.339.574.2.516-.142l-5.471-31.8c-.782-4.549-1.306-9.255-2.582-13.7-.956-3.331-2.565-6.5-5.63-8.329a.268.268,0,0,0-.27.462" transform="translate(-864.9 -512.871)" fill="#401e15"/>
          <path id="Trazado_898145" data-name="Trazado 898145" d="M1017.772,1213.653a14.953,14.953,0,0,0-1.656-4.971c-.5-.88-1.946,2.6-5.556,3.854-5.977,2.075-10.5-6.285-15.667-3.292-5.769,3.339-11.424,6.938-16.888,10.753a.686.686,0,0,0-.11.114,13.663,13.663,0,0,0-3.924,1.922c-1.546,1.249-1.94,3.391-2.258,5.239-.019.11-.183,1.8-.322,3.238a1.5,1.5,0,0,0,1.2,1.618,88.928,88.928,0,0,0,21.658.764c4.08-.384,8.669-1.267,12.788-1.675,2.058-.2,4.123-.3,6.184-.467,1.232-.1,4.4-.2,5.011-1.44,1.138-2.289.32-11.034-.463-15.656" transform="translate(-732.383 -911.19)" fill="#bdaeb5"/>
          <path id="Trazado_898146" data-name="Trazado 898146" d="M1332.76,1166.544c-.217-2.19-2.153-4.92-3.194-6.783a50.449,50.449,0,0,0-3.165-5.231c-.272-.373-3.678-4.886-4.026-2.633s-.94,4.978-3.073,6.181c-4.8,2.706-11.614-1.762-16.265,1.439-1.461,1.005-2.691,7.586-3.645,10.178q-1.448,3.929-3.189,7.742c-.94,2.054-2.332,3.906-3.062,6.055s.848,7.261,1.133,7.254c2.591,1.75,8.429,1.292,11.041.123,4.866-2.178,6.782-6.433,11.239-9.178,3.586-2.208,6.761-4.09,10.234-6.489,2.159-1.492,6.291-5.439,5.973-8.657" transform="translate(-974.828 -868.009)" fill="#bdaeb5"/>
          <path id="Trazado_898147" data-name="Trazado 898147" d="M1024.394,1273.817a31.822,31.822,0,0,1-10.936,1.592,78.058,78.058,0,0,0-10.9.061c-7.2.773-14.635,2.608-21.688.014-.324-.119-.463.4-.142.516,7.1,2.611,14.58.783,21.831.005a87.448,87.448,0,0,1,11.4-.047,31.735,31.735,0,0,0,10.578-1.625c.326-.106.187-.623-.142-.516" transform="translate(-739.294 -960.393)" fill="#401e15"/>
          <path id="Trazado_898148" data-name="Trazado 898148" d="M1296.251,1228.978a14.034,14.034,0,0,0,10.124-.073c3.449-1.48,5.969-4.638,8.967-6.809,3.377-2.445,7.131-4.414,10.688-6.585a14.391,14.391,0,0,0,6.324-6.831c.125-.321-.392-.46-.516-.142-1.351,3.458-4.319,5.441-7.366,7.285-3.14,1.9-6.427,3.659-9.4,5.812-2.781,2.014-5.118,4.828-8.169,6.428a13.409,13.409,0,0,1-10.509.4c-.318-.131-.457.386-.142.516" transform="translate(-977.186 -911.051)" fill="#401e15"/>
          <path id="Trazado_898149" data-name="Trazado 898149" d="M1052.323,1222.725c-2.9.168-5.119,1.92-7.24,3.741a60.3,60.3,0,0,1-8.52,5.9.268.268,0,0,0,.27.462,62.1,62.1,0,0,0,7.126-4.72c2.54-2.038,4.9-4.647,8.364-4.848.342-.02.345-.555,0-.535" transform="translate(-781.429 -921.883)" fill="#401e15"/>
          <path id="Trazado_898150" data-name="Trazado 898150" d="M1361.263,1183.834a7.48,7.48,0,0,0-3.193,1.817c-.988,1.123-1.177,2.732-1.5,4.133l-2.673,11.737c-.076.335.44.479.516.142l2.2-9.65c.334-1.468.572-3,1.039-4.436.606-1.859,2.02-2.6,3.751-3.227.321-.117.183-.635-.142-.516" transform="translate(-1020.779 -892.548)" fill="#401e15"/>
          <path id="Trazado_898151" data-name="Trazado 898151" d="M921.3,294.225q-.163,1.471-.4,2.932c-.054.337.462.482.516.142q.244-1.533.414-3.075c.038-.342-.5-.339-.535,0" transform="translate(-694.323 -221.64)" fill="#401e15"/>
          <path id="Trazado_898152" data-name="Trazado 898152" d="M842.921,177.468a75.543,75.543,0,0,0,5.49,5.741c.251.236.63-.142.378-.378a75.558,75.558,0,0,1-5.49-5.741c-.225-.262-.6.118-.378.378" transform="translate(-635.476 -133.451)" fill="#3d1020"/>
          <path id="Trazado_898153" data-name="Trazado 898153" d="M749.045,58.858c.81,2.685-.664,4.337-2.195,6.334a8.147,8.147,0,0,0-1.723,4.486c-.026.344.51.342.535,0,.2-2.643,1.728-4.036,3.138-6.085a5.51,5.51,0,0,0,.761-4.877.268.268,0,0,0-.516.142" transform="translate(-561.794 -44.127)" fill="#5e2518"/>
          <path id="Trazado_898154" data-name="Trazado 898154" d="M1320.31,442.125a78.814,78.814,0,0,1,7,4.32c.284.2.552-.267.27-.462a78.821,78.821,0,0,0-7-4.32c-.3-.166-.573.3-.27.462" transform="translate(-995.359 -332.968)" fill="#3d1020"/>
          <path id="Trazado_898155" data-name="Trazado 898155" d="M338.061,1190.933a113.749,113.749,0,0,1-8.8-11.9,5.178,5.178,0,0,1-.7-2.407c-.172-4.486.013-9.445.033-14.049-5.956-.294-11.886-.445-17.837-.712.266,4.443.282,14.747.081,17.455-.151,2.031-.375,4.077-.394,6.114-.033,3.549.515,3.925,4.848,5.275,6.433,2,23.577,1.13,22.769.225" transform="translate(-234.061 -875.997)" fill="#fcab80"/>
          <path id="Trazado_898156" data-name="Trazado 898156" d="M297.418,569.163q.414-9.6.339-19.213a1,1,0,0,0-.709-.994,1.16,1.16,0,0,0-1.576-1.147q-8.162,3.534-16.3,7.132c-3.17,1.406-6.4,2.76-7.758,6.286-1.714,4.462-1.818,10.148-2.383,14.87q-1.083,9.048-1.689,18.147c-1.621,23.852,2.35,42.5,3.74,66.344.793,13.594-1,32.285.053,45.859.1,1.259,14.722,9.707,27.277,2.7.338-.189.283-.7.331-1.074a508.666,508.666,0,0,0,3.55-85.127q-.524-13.6-1.76-27.169-.618-6.781-1.413-13.544c-.5-4.223-1.764-8.836-1.705-13.071" transform="translate(-201.278 -412.953)" fill="#8f4d4b"/>
          <path id="Trazado_898157" data-name="Trazado 898157" d="M153.7,1207c-1.725-2.688-2.9-11.354-4.029-14.281a5.181,5.181,0,0,1-.312-2.487c.536-4.457,1.5-9.326,2.24-13.869-5.836-1.227-11.668-2.307-17.5-3.507-.435,4.43-2.039,14.608-2.663,17.251-.468,1.982-1.011,3.967-1.35,5.976-.59,3.5-.108,3.958,3.958,5.972-2.713-1.344,23.168,10.411,19.66,4.946" transform="translate(-97.92 -884.281)" fill="#fcab80"/>
          <path id="Trazado_898158" data-name="Trazado 898158" d="M155.588,1243.689c-3.589-3.161-8.512-12.152-9.938-14.173-.984-1.394-1.828-2.463-3.594-2.6-3.36-.263-7.008.18-7.218,3.664a5.87,5.87,0,0,1-3.674-.52c-1.548-.7-3.87-1.954-4.344-3.743a.66.66,0,0,0-.368-.438c-.273-.387-1.39.688-1.591,1.249a59.682,59.682,0,0,0-2.805,13.1,1.409,1.409,0,0,0,1,1.526c6.844,1.887,21.661,9.068,25.018,9.293a60.652,60.652,0,0,0,7.948.2,2.484,2.484,0,0,0,1.689-1.523c.366-2.4.256-3.945-2.119-6.036" transform="translate(-92.02 -924.199)" fill="#a65730"/>
          <path id="Trazado_898159" data-name="Trazado 898159" d="M128.417,1280.866c4.7,2.153,9.416,4.3,14.253,6.116,1.386.521,2.793.938,4.2,1.4,1.428.472,2.813,1.084,4.259,1.5a23.027,23.027,0,0,0,9.75.131c.34-.051.2-.567-.142-.516-3.3.5-6.771.755-9.994-.294-2.744-.893-5.513-1.818-8.211-2.844-4.694-1.785-9.279-3.863-13.843-5.955-.311-.143-.583.319-.27.462" transform="translate(-96.717 -965.351)" fill="#401e15"/>
          <path id="Trazado_898160" data-name="Trazado 898160" d="M162.932,566.515c-3.422-5.163-7.454-8.373-14.024-8.459-5.005-.065-10.259,1.3-13.488,5.048a1.1,1.1,0,0,0-1.94.313c-3.171,12.019-7.348,23.868-9.112,36.172-1.81,12.626-.445,34.154-.313,46.836.011,1.052,0,2.1-.024,3.138-2.669,24.169-10.507,40.2-13.325,65.07a2.739,2.739,0,0,0,1.335,2.645c3.759,2.268,13.622,6.577,27.4,1.167,2.4-.947,12.765-44.095,14.964-53.748,3.377-14.828,3.708-29.785,4.9-44.964a125,125,0,0,1,3.049-21.054c.755-1.435,1.538-2.857,2.372-4.257,1.833-3.08,3.855-6.159,4.833-9.624,1.991-7.051-2.9-12.659-6.627-18.285" transform="translate(-83.455 -420.749)" fill="#8f4d4b"/>
          <path id="Trazado_898161" data-name="Trazado 898161" d="M30.126,671.957a.611.611,0,0,0-.087-.9c-2.6-2.144-7.545-3.521-11.1-3.26a.69.69,0,0,0-.086.024.716.716,0,0,0-.839.3c-2.637,4.146-3.144,9.327-6.238,13.141C8.829,684.9-3,697.866.9,698.785a11.621,11.621,0,0,0-.775,2.25c-.539,2.415.819,2.471,2.241,1.79-.423,1.186-1.166,3.083-.617,3.759.845,1.04,2.027.464,2.8-.255,1.008-.942,2.233-3.41,3.029-4.542.417-.593.851-1.172,1.292-1.744-.573,1.457-3.161,7.153-.87,7.724,2.121.529,3.027-2.21,3.674-3.745a40.65,40.65,0,0,1,3.126-6.027c.9-1.455,2.12-3.575,3.954-4,2.387-.559-.195,5.02-.325,5.9-.138.926-.4,2.586.556,3.234,1.926,1.311,5.222-8.236,6.232-11.164.95-2.757.9-6.994,1.416-9.963.047-.27,3.61-9.85,3.5-10.034" transform="translate(0 -503.466)" fill="#fcab80"/>
          <path id="Trazado_898162" data-name="Trazado 898162" d="M284.385,201.6c-2.153-5.392-4.954-7.955-10.61-5.582a.641.641,0,0,0-.1,1.127c-.8,4.186,3.01,6.406,5.15,9.866a32.5,32.5,0,0,1,3.129,6.871c.366,1.051.663,2.757,1.786,3.255a.764.764,0,0,0,.882-.1c3.491-3.18,1.233-11.752-.238-15.435" transform="translate(-206.124 -147.123)" fill="#964536"/>
          <path id="Trazado_898163" data-name="Trazado 898163" d="M309.5,214.83c-.8-.512-6.8-3.527-7.576-2.021a.451.451,0,0,0-.832.159,64.922,64.922,0,0,1-5.367,21.977c-.215.478,12.247,18.868,14.675,3.842.331.008.1-2.082,1.966-8.335.693-2.319,1.3-4.672,1.957-7.008a.408.408,0,0,0,.194-.2c1.432-3.307-2.368-6.723-5.016-8.413" transform="translate(-222.96 -160.134)" fill="#fcab80"/>
          <path id="Trazado_898164" data-name="Trazado 898164" d="M209.972,614.572q-6.72.343-13.453.375c-7.624.034-16.011-1.375-23.488.41a1.115,1.115,0,0,0-1.247,1.471c-1.95,3.692-4.365,13.906-3.086,15.789,3.059,4.507,20.037,8.691,25.472,7.992,5.358-.689,14.779-2.147,19.331-5.446,2.114-1.532,5.971-8.271,6.479-11.188.741-4.262-6.278-9.593-10.007-9.4" transform="translate(-126.921 -463.27)" fill="#fce7d8"/>
          <path id="Trazado_898165" data-name="Trazado 898165" d="M613.861,130.054c-.983-.732-6.757-3.338-5.554.116,0,.007.286-.25.288-.244-.247,1.813,1.194,3.29,2.657,4.4,1.2.912,2.452,1.768,3.682,2.642a6.247,6.247,0,0,0,2.878,1.39.314.314,0,0,0,.3-.1c.175.024.5.2.589,0,1.249-2.831-2.349-6.344-4.837-8.2" transform="translate(-458.515 -96.825)" fill="#fce7d8"/>
          <path id="Trazado_898166" data-name="Trazado 898166" d="M602.1,141.622c-1.026-1.073-4.747-4.977-6.668-2.91-1.636,1.761,3.021,6.775,3.94,8A15.948,15.948,0,0,0,603.5,150.4c.851.566,3.212,1.393,3.493.73,1.254-2.96-2.492-7-4.888-9.5" transform="translate(-448.671 -104.134)" fill="#778ced"/>
          <path id="Trazado_898167" data-name="Trazado 898167" d="M608.686,18.364c.3-1.25,1.125-2.982.1-4.122a1.207,1.207,0,0,0-.942-.334c.143-1.207.85-2.062,1.179-3.233.206-.733-.816-1.62-1.446-1.335a6,6,0,0,0-.786.437c.206-.133.373-.886.451-1.124a4.706,4.706,0,0,0,.229-1.082,1.581,1.581,0,0,0-.546-1.6c-1.683-1.21-3.13,1.888-3.762,2.895.062-.557.327-1.124.4-1.7.121-1.005-.813-1.06-1.21-1.024-2.238.208-4.3,6.946-5.217,7.04-2.517.258-3.408,5.3-3.421,8.218-.015,3.418.921,6.76,1.749,10.048a1.413,1.413,0,0,1-.152,1.067A109.6,109.6,0,0,1,587.1,44.379c-.34.38,4.836,12.691,5.409,12.56l.037.05c.661.847,8.834-11.662,9.679-13.068.706-1.175,1.28-2.44,2.525-3.139a6.882,6.882,0,0,0,2.854-2.82c1.291-2.468,1.014-5.46.576-8.11a26.744,26.744,0,0,1,.5-11.488" transform="translate(-442.638 -4.291)" fill="#ef8a6c"/>
          <path id="Trazado_898168" data-name="Trazado 898168" d="M302.869,292.806c-.278-1.888-.113-4.961-.938-6.682-.325-.677-1.127-.378-1.31.577a7.113,7.113,0,0,1-2.664,4.149c-.731.6-1.36.728-1.564,1.72-.192.935-.436,1.983-.611,2.712a.269.269,0,0,1-.519.017,9.743,9.743,0,0,0-1.33-2.93c-.6-.788-2.131-.974-3-1.454a17.913,17.913,0,0,1-4-2.993c-.907-.9-2.872-2.27-4.159-1.115-.583.524-.547,4.269-1.072,6.109-.249.137-1.308-.359-1.188,0,.809,2.394,2.751,3.2,4.95,4.213,2.886,1.326,10.033,4.638,10.054,4.527,5.211,1.809,6.832-4.715,7.657-8.71.1-.145-.275.082-.307-.135" transform="translate(-211.49 -215.448)" fill="#fce7d8"/>
          <path id="Trazado_898169" data-name="Trazado 898169" d="M611.649,137.215c.012-.5-1.429-.87-2.166-1.1-3.6-1.122-5.868-4.779-7.516-8.559a.392.392,0,0,0-.623-.089,14.7,14.7,0,0,0-2.47,3.963.341.341,0,0,0-.073.464c1.543,2.481,9.154,11.764,9.15,11.762.387-.635,2.182-3.63,2.542-4.281.25-.452,1.142-1.587,1.156-2.16" transform="translate(-451.426 -96.017)" fill="#fce7d8"/>
          <path id="Trazado_898170" data-name="Trazado 898170" d="M452.505,150.512a27.332,27.332,0,0,1-9.937-10.77c-.325-.717-.874-.4-1.389.191-6.533,7.557-11.859,14.11-19.368,20.658-.46.4-.933.786-1.413,1.164l-12.033,7.115c-2.421,1.432-13.276,7.853-16.473,8.2-3.214.349,2.313,6.821,3.061,9.343a107.623,107.623,0,0,1,3.653,17.816,1.135,1.135,0,0,0,.191.51c-.072.055-.191-.51-.217.163-.052,1.383,5.344,3.132,5.82,1.848,2.027-5.471,17.231-13.866,26.712-23.166,13.22-12.968,19.007-26.4,21.855-31.413a1.214,1.214,0,0,0-.461-1.659" transform="translate(-294.719 -105.047)" fill="#147a8f"/>
          <path id="Trazado_898171" data-name="Trazado 898171" d="M76.986,662.846a35.048,35.048,0,0,1-18.137.679.749.749,0,0,0-.821,1.113c-1.055,2.322-2.006,4.669-2.845,7.076-.131.377.21.641.51.89a21.137,21.137,0,0,0,8.2,3.587,14,14,0,0,0,5.443-.072c1.1-.184,2.973-.291,3.884-.991,1.244-.957,3.849-8.6,4.674-11.387a.739.739,0,0,0-.907-.9" transform="translate(-41.584 -499.735)" fill="#fce7d8"/>
          <path id="Trazado_898172" data-name="Trazado 898172" d="M322.078,168.946a51.637,51.637,0,0,0-2.28-10.024c-2.094-5.582-7.737-7.693-13.465-7.693-6.987,0-9.991,6.722-9.944,12.848a19.665,19.665,0,0,0,2.361,9.454c.769,1.357,1.938,2.427,2.783,3.731,1,1.54,1.638,3.271,2.93,4.627,1.894,1.987,4.185,1.6,6.735,1.48,4.524-.216,10.275-.5,11.416-5.826.587-2.741-.107-5.888-.536-8.6" transform="translate(-223.464 -114.021)" fill="#fcab80"/>
          <path id="Trazado_898173" data-name="Trazado 898173" d="M237.294,287.362c-2.652-.539-1.751-2.539-4.3-1.646-4.713,1.651-10.68,2.192-10.53,2.982.711,3.729-2.708,7.561-6.6,8.631a13.58,13.58,0,0,1-10.31-2.094c-2.525-2-3.226-3.44-3.419-4.035a.372.372,0,0,0-.459-.234c-2.35.655-13.868,5.7-17.183,9.074-3.683,3.75-5.564,10.35-6.623,15.418-1.246,5.959-1.093,12.087-1.443,18.135-.408,7.066-1.554,22.892-1.761,29.967-.106,3.612-.492,7.505.088,11.1-.116,3.521,6.36,6.316,9.021,7.179,13.76,4.464,31.618.379,43.394-6.769a11.329,11.329,0,0,0,5.313-6.78c9.829-37.963,13.348-79.187,4.81-80.923" transform="translate(-131.524 -215.247)" fill="#147a8f"/>
          <path id="Trazado_898174" data-name="Trazado 898174" d="M102.91,329.867c-6.132,3.529-9.94,7.087-13.265,13.392-8.718,16.529-26.177,59.542-27.828,64.466-.951,2.836-2.422,5.807-2.673,8.81-.24,2.872,19.255,7.695,20.894,3.13,3.084-8.592,9.055-16.152,11.923-24.572,1.38-4.051,8.476-17.938,11.836-24.559,11.846-23.34-.289-41.01-.887-40.666" transform="translate(-44.591 -248.702)" fill="#147a8f"/>
          <path id="Trazado_898175" data-name="Trazado 898175" d="M201.242,398.617c1.605,9.538,1.365,19.519-1.814,28.723-2.944,8.525-8.55,15.775-12.164,23.992-.137.312.324.585.462.27,3.695-8.4,9.45-15.8,12.367-24.56,3.061-9.187,3.261-19.08,1.664-28.568-.057-.339-.573-.2-.516.142" transform="translate(-141.171 -300.287)" fill="#401e15"/>
          <path id="Trazado_898176" data-name="Trazado 898176" d="M295.807,745.895a17.133,17.133,0,0,1-3.756,4.256,7.878,7.878,0,0,0-2.194,2.334,17.066,17.066,0,0,0-1.2,5.331,65.652,65.652,0,0,0-.442,6.634c-.333,9.363,0,18.74-.483,28.1a111.989,111.989,0,0,1-2.033,16.706c-.069.336.447.48.516.142,1.862-9.079,2.258-18.331,2.332-27.575.037-4.68.011-9.361.109-14.04.1-4.65.154-9.364,1.271-13.905a6.178,6.178,0,0,1,2.5-3.347,17.578,17.578,0,0,0,3.84-4.365c.182-.294-.281-.562-.462-.27" transform="translate(-215.404 -562.278)" fill="#3d1020"/>
          <path id="Trazado_898177" data-name="Trazado 898177" d="M40.49,771.782c-1.463,1.488-2.221,3.373-3.2,5.178-.165.3.3.573.462.27.958-1.763,1.688-3.616,3.118-5.07.242-.246-.136-.624-.378-.378" transform="translate(-28.087 -581.831)" fill="#c45e47"/>
          <path id="Trazado_898178" data-name="Trazado 898178" d="M18.8,767.008a25.857,25.857,0,0,0-3.73,4.721,26.493,26.493,0,0,0-2.786,5.019c-.123.322.394.461.516.143A25.92,25.92,0,0,1,15.535,772a25.2,25.2,0,0,1,3.646-4.613c.252-.235-.127-.613-.378-.378" transform="translate(-9.25 -578.236)" fill="#c45e47"/>
          <path id="Trazado_898179" data-name="Trazado 898179" d="M10.754,761.673A21.1,21.1,0,0,0,5.632,769c-.13.319.388.457.516.142a20.521,20.521,0,0,1,4.983-7.089c.249-.239-.129-.617-.378-.378" transform="translate(-4.231 -574.212)" fill="#c45e47"/>
          <path id="Trazado_898180" data-name="Trazado 898180" d="M319.8,252.942c.921,1.947,1.954,3.778,3.9,4.839a15.742,15.742,0,0,0,6.769,1.945c.344.013.344-.522,0-.535a15.15,15.15,0,0,1-6.5-1.872c-1.869-1.024-2.83-2.781-3.713-4.647-.147-.311-.609-.04-.462.27" transform="translate(-241.096 -190.4)" fill="#c45e47"/>
          <path id="Trazado_898181" data-name="Trazado 898181" d="M629.279,38.358c.7,1.324-.185,3.31-.359,4.7a4.69,4.69,0,0,0,.934,3.722c1.161,1.524,2.444,2.682,3.055,4.567a8.93,8.93,0,0,1-.285,6.148c-.13.319.387.457.516.142a9.469,9.469,0,0,0-1.808-9.978,7.021,7.021,0,0,1-1.861-2.728,7.428,7.428,0,0,1,.219-3.192c.229-1.167.644-2.535.05-3.652-.162-.3-.624-.034-.462.27" transform="translate(-474.137 -28.616)" fill="#c45e47"/>
          <path id="Trazado_898182" data-name="Trazado 898182" d="M640.376,24.378c-.625,1.683-1.317,3.338-1.867,5.049-.468,1.453-1.218,3.4-.758,4.937a.268.268,0,0,0,.516-.142c-.479-1.6.45-3.76.961-5.266s1.114-2.955,1.664-4.436c.12-.323-.4-.463-.516-.142" transform="translate(-480.729 -18.242)" fill="#c45e47"/>
          <path id="Trazado_898183" data-name="Trazado 898183" d="M662.836,43.135c-1.056,2.836-2.017,5.69-1.456,8.745.062.339.578.2.516-.142-.541-2.946.441-5.734,1.456-8.46.12-.323-.4-.463-.516-.142" transform="translate(-498.529 -32.385)" fill="#c45e47"/>
          <path id="Trazado_898184" data-name="Trazado 898184" d="M653.951,29.882c-1.259,3.006-2.921,5.954-2.874,9.3a.268.268,0,0,0,.535,0c-.046-3.3,1.616-6.206,2.855-9.162.133-.317-.385-.456-.516-.142" transform="translate(-490.884 -22.396)" fill="#c45e47"/>
          <path id="Trazado_898185" data-name="Trazado 898185" d="M341.522,1232.271c-2.771-1.785-6.39-4.409-9.384-5.775a61.894,61.894,0,0,1-6.092-5.773c-1.135-1.274-2.095-2.24-3.866-2.177-3.368.12-6.942.973-6.756,4.458a5.869,5.869,0,0,1-3.71-.1c-1.618-.521-4.066-1.5-4.74-3.227a.659.659,0,0,0-.415-.394.62.62,0,0,0-1.089.205c-1.236,3.2-1.35,13.623-1.41,15.673a1.375,1.375,0,0,0,1.164,1.4c7.013,1.1,14.43,2.173,21.429,3.031,3.328.408,5.505.969,8.866.813a47.864,47.864,0,0,0,7.031-.679,1.284,1.284,0,0,0,1.018-1.22c.091-2.43.218-4.78-2.046-6.238" transform="translate(-229.248 -918.73)" fill="#a65730"/>
          <path id="Trazado_898186" data-name="Trazado 898186" d="M375.853,177.934c-.325-1.372-2.715-2.349-3.861-1.927a1.618,1.618,0,0,0-.942,2.414c.665,1.263,2.158.873,3.206.853.8-.015,1.672.094,1.648-.915a2.034,2.034,0,0,0-.051-.424" transform="translate(-279.575 -132.626)" fill="#964536"/>
          <path id="Trazado_898187" data-name="Trazado 898187" d="M328.945,182.3a5.763,5.763,0,0,0-4.508,2.745c-.451.757-.863,3.149.57,3a2.023,2.023,0,0,0,.934-.6,5.072,5.072,0,0,1,1.626-1.059,8.4,8.4,0,0,0,2.78-1.143c1.482-1.275-.136-2.9-1.4-2.942" transform="translate(-244.293 -137.443)" fill="#964536"/>
          <path id="Trazado_898188" data-name="Trazado 898188" d="M311,1278.914c2.033,1.5,5.2,1.6,7.627,1.914,3.43.447,6.88.727,10.283,1.363,2.89.54,5.754,1.269,8.689,1.539a24.8,24.8,0,0,0,9.048-1.016.268.268,0,0,0-.142-.516,24.475,24.475,0,0,1-8.906,1c-3.055-.281-6.034-1.071-9.047-1.611-2.784-.5-5.6-.769-8.408-1.1-1.577-.187-3.152-.4-4.715-.681a9.774,9.774,0,0,1-4.158-1.348c-.277-.205-.545.259-.27.462" transform="translate(-234.393 -963.861)" fill="#401e15"/>
          <path id="Trazado_898189" data-name="Trazado 898189" d="M175.09,1246.951a31.831,31.831,0,0,0,5.434,10.223c.214.27.59-.111.379-.378a31.106,31.106,0,0,1-5.3-9.987c-.1-.327-.621-.187-.516.142" transform="translate(-132 -939.901)" fill="#401e15"/>
          <path id="Trazado_898190" data-name="Trazado 898190" d="M352.019,1239.645c1.981,3.3,4.94,5.741,7.911,8.118.266.213.647-.163.378-.378-2.934-2.347-5.869-4.747-7.827-8.009a.268.268,0,0,0-.462.27" transform="translate(-265.378 -934.34)" fill="#401e15"/>
          <path id="Trazado_898191" data-name="Trazado 898191" d="M514.059,216.292q-4.3,2.963-8.384,6.231c-.269.215.112.592.378.378q4.026-3.224,8.276-6.147c.282-.194.014-.658-.27-.462" transform="translate(-381.189 -163.039)" fill="#401e15"/>
          <path id="Trazado_898192" data-name="Trazado 898192" d="M445.955,361.772a15.954,15.954,0,0,0-3.467,6.762c-.914,3.182-1.666,6.416-2.487,9.623a.268.268,0,0,0,.516.142c.752-2.935,1.473-5.879,2.261-8.8a16.575,16.575,0,0,1,3.557-7.344c.236-.25-.141-.63-.378-.378" transform="translate(-331.734 -272.698)" fill="#401e15"/>
          <path id="Trazado_898193" data-name="Trazado 898193" d="M295.969,135.752a11.525,11.525,0,0,0-1.016-2.4c-1.043-1.917-2.541-3.43-4.819-3.65a.63.63,0,0,0-.079.009c-2.131-1.631-4.95-3.286-7.532-1.541-1.4.946-2.339,2.021-4.186,1.988-2.036-.036-4.216-.788-6.184.045a8.92,8.92,0,0,0-3.769,3.012,6.757,6.757,0,0,0-.992,2c-.219.771.16,1.6-.411,2.257-.555.635-1.821,1.035-2.509,1.605a7.4,7.4,0,0,0-2.8,4.874c-.131,1.213.03,2.849,1.161,3.589a3.232,3.232,0,0,0,2.039.328c.807-.034,2.409-.173,3.039.462a4.228,4.228,0,0,1,.572.867c1.174,1.981,3.637,3.089,5.482,1.27,2.358-2.325.982-5.839,1.3-8.867a.921.921,0,0,1,1.182-.8,5.032,5.032,0,0,0,3.271-.019,4.967,4.967,0,0,0,1.461-.793c1.462-1.146,1.212-2.015,3.532-2.377a3.68,3.68,0,0,1,2.918.6,5.171,5.171,0,0,0,2.509.946c1.213.02,1.226-.472,2.245.506.944.907,2.287.306,3.062-.527a3.433,3.433,0,0,0,.524-3.377" transform="translate(-197.26 -96.07)" fill="#964536"/>
          <path id="Trazado_898194" data-name="Trazado 898194" d="M309.7,149.629c-.027-1.81-.244-3.964-2.286-4.565a3.218,3.218,0,0,0-2.2.177c-1.031.46-1.365,1.3-2.1,2.03-.28.276-.1.261-.463.2a5.427,5.427,0,0,1-.875-.518,6.972,6.972,0,0,0-4.376-.574,6.985,6.985,0,0,0-4.714,3.574c-.165.3.3.573.462.27a6.475,6.475,0,0,1,4.194-3.289,6.4,6.4,0,0,1,4.524.669c.243.137.578.5.857.542a.733.733,0,0,0,.563-.164c.222-.163.338-.54.488-.766a4.182,4.182,0,0,1,1.1-1.146,2.6,2.6,0,0,1,3.157-.087c1.139.867,1.118,2.344,1.137,3.644a.268.268,0,0,0,.535,0" transform="translate(-220.644 -109.283)" fill="#732c1f"/>
          <path id="Trazado_898195" data-name="Trazado 898195" d="M376.969,148.522a4.207,4.207,0,0,0-3.217-6.755c-.344-.019-.343.516,0,.535a3.674,3.674,0,0,1,2.754,5.949c-.2.278.26.545.462.27" transform="translate(-281.6 -106.886)" fill="#732c1f"/>
          <path id="Trazado_898196" data-name="Trazado 898196" d="M287.906,174.155a3.4,3.4,0,0,0-1.48,2.79,5.447,5.447,0,0,0,.416,2.108c.232.595.582.978.008,1.752-.209.283-.6.5-.836.768a3.222,3.222,0,0,0-.875,2.718c.28,1.092,1.416,1.576,2.366,1.946.321.125.46-.392.142-.516-.853-.333-1.935-.747-2.029-1.855a2.88,2.88,0,0,1,.774-1.915c.406-.466,1.1-.8,1.3-1.413a1.684,1.684,0,0,0-.178-1.264c-.6-1.62-1.013-3.468.659-4.657.279-.2.012-.662-.27-.462" transform="translate(-214.937 -131.268)" fill="#732c1f"/>
          <path id="Trazado_898197" data-name="Trazado 898197" d="M296.269,219.117c-1.156-.809-2.871-1.035-3.606.4-.935,1.822.744,3.893,2.1,5.209.649.631,1.707,1.77,2.686,1.767,2.042-.008,1.642-1.943,1.241-3.4a7.318,7.318,0,0,0-2.233-3.839q-.09-.072-.185-.138" transform="translate(-220.452 -164.72)" fill="#fcab80"/>
          <path id="Trazado_898198" data-name="Trazado 898198" d="M298.32,225.717c.513-.1,1.434.878,1.749,1.2.544.552.958,1.222,1.446,1.821.217.267.594-.113.378-.378a14.94,14.94,0,0,0-2.015-2.335c-.448-.366-1.077-.938-1.7-.821-.338.063-.195.579.142.516" transform="translate(-224.668 -169.78)" fill="#c45e47"/>
          <path id="Trazado_898199" data-name="Trazado 898199" d="M373.316,206.676c.677.534,1.52,1.194,1.346,2.184a7.646,7.646,0,0,1-1,2.092c-.165.3.3.573.462.27.446-.816,1.2-1.857,1.089-2.836a3.328,3.328,0,0,0-1.52-2.088c-.267-.211-.649.165-.378.378" transform="translate(-281.395 -155.492)" fill="#c45e47"/>
          <path id="Trazado_898200" data-name="Trazado 898200" d="M365.563,219.485a1.989,1.989,0,0,0-1.8,1.338c-.115.325.4.465.516.142a1.435,1.435,0,0,1,1.282-.945c.343-.016.345-.551,0-.535" transform="translate(-274.251 -165.482)" fill="#c45e47"/>
          <path id="Trazado_898201" data-name="Trazado 898201" d="M364.857,230.047a.753.753,0,0,0-.456-.181.567.567,0,0,0-.237.048,28.231,28.231,0,0,1-3.542.934c-.605.133-1.8.168-2.235.573-.771.719.82,2.011,1.415,2.383a4.291,4.291,0,0,0,3.819,0,2.4,2.4,0,0,0,1.388-1.924c.082-.466.3-1.429-.152-1.833" transform="translate(-270.053 -173.308)" fill="#b7533e"/>
          <path id="Trazado_898202" data-name="Trazado 898202" d="M364.549,229.9a.85.85,0,0,0-.144-.033.571.571,0,0,0-.237.048,28.19,28.19,0,0,1-3.542.935c-.605.133-1.8.168-2.235.573-.3.282-.239.652-.018,1.019,2.036-.016,6.027-.165,6.177-2.541" transform="translate(-270.056 -173.308)" fill="#fff"/>
          <path id="Trazado_898203" data-name="Trazado 898203" d="M384.525,195.818c-.438-.891-1.24-1.518-1.879-.849-.681.714-.138,2.036.307,2.732.319.5.846.839,1.4.471.672-.445.582-1.517.17-2.355" transform="translate(-288.257 -146.787)" fill="#250606"/>
          <path id="Trazado_898204" data-name="Trazado 898204" d="M341.356,205.444c-.394-.946-1.234-1.681-2.04-1.106-.861.614-.4,2,.027,2.756a1.205,1.205,0,0,0,1.542.664c.818-.348.842-1.425.471-2.314" transform="translate(-255.464 -153.909)" fill="#250606"/>
          <path id="Trazado_898205" data-name="Trazado 898205" d="M616.045,63.348a1.934,1.934,0,0,0-1.053-.181c-1.379.064-1.3,2.78-1.373,3.7-.175,2.361-.105,2.88-.394,2.717-.159-.09-.193-1.09-.22-1.282a35.35,35.35,0,0,1-.22-8.7c.139-1.266.745-4.255-.914-4.834a1.326,1.326,0,0,0-1.354.288.09.09,0,0,1-.146-.078,2.449,2.449,0,0,0-.521-1.748,1.31,1.31,0,0,0-1.943-.013,5.246,5.246,0,0,0-.679,1.42,5.623,5.623,0,0,0-.159.628c-.031.158-.054.438-.256.355-.1-.041-.149-.113-.266-.14a1.181,1.181,0,0,0-.912.189,2.592,2.592,0,0,0-.939,1.753,6.266,6.266,0,0,0-.115,1.21c.02,1.488-.159.784-.263.651a.7.7,0,0,0-.567-.288c-.564,0-.925.558-1.122,1.026a12.468,12.468,0,0,0-.564,6.233q.027.249.059.5c.218,1.755.578,3.489.795,5.245.473,3.835,1.271,8.341-.352,12.01a23.13,23.13,0,0,1-3.762,5.23,14.664,14.664,0,0,1,7.673,6.487c1.476-2.08,4.059-6.4,5.361-8.608a.674.674,0,0,0,.158-.09c1.948-1.683,3.271-2.6,4.211-5.077,1.206-3.186,1.074-6.705.864-10.047-.161-2.56.338-5.4-.5-7.875a1.172,1.172,0,0,0-.523-.681" transform="translate(-451.473 -39.804)" fill="#ffbaa1"/>
          <path id="Trazado_898206" data-name="Trazado 898206" d="M481.938,1344.548c-.35-1.83-9.45-7.364-10.139-7.718-1.98-1.016-2.62-3.753-2.956-4.942-.466-1.653-.85-3.332-1.315-4.984,0-.015-.007-.03-.012-.044s-.014-.052-.021-.079a.665.665,0,0,0-1.017-.423,103.453,103.453,0,0,0-15.867.511.622.622,0,0,0-.09.029.573.573,0,0,0-.615.529,133.322,133.322,0,0,0-1.708,13.311c-.148,2.468-.485,5.87.386,7.123,1.533,2.207,8.767,1.326,11.181,1.185,4.974-.291,21.195.529,22.121-1.579a.265.265,0,0,1,.023-.045,11.913,11.913,0,0,0,.029-2.875" transform="translate(-337.781 -999.942)" fill="#8f4d4b"/>
          <path id="Trazado_898207" data-name="Trazado 898207" d="M503.418,1356.447q.837,3.6,1.319,7.255c.044.337.58.341.535,0q-.489-3.733-1.338-7.4c-.078-.335-.594-.194-.516.142" transform="translate(-379.55 -1022.453)" fill="#401e15"/>
          <path id="Trazado_898208" data-name="Trazado 898208" d="M466.064,1404.568c-6.029.312-12.656,1.643-18.631-.258a.373.373,0,0,0-.488.385,5.9,5.9,0,0,0,.522,2.292c1.548,2.742,8.849,1.647,11.286,1.472,5.02-.361,21.394.657,22.329-1.962a.37.37,0,0,1,.023-.056,11.7,11.7,0,0,0,.09-2.471.147.147,0,0,0-.226-.118c-4.383,2.528-10.336.479-14.9.716" transform="translate(-336.977 -1058.429)" fill="#fce7d8"/>
          <path id="Trazado_898209" data-name="Trazado 898209" d="M476.919,180.3c-1.905-1.909-5.928-5.049-8.259-3.491a14.225,14.225,0,0,0-2.521,2.833c-3.119,3.815-5.23,6.807-8.114,10.793A193.547,193.547,0,0,1,442,209.059c-8.452,8.648-13.626,15.061-18.315,26.192a.86.86,0,0,0,.709,1.225.956.956,0,0,0-.183.9c1.558,5.7,2.67,11.855,4.9,17.343,1.372,3.384,3.965,5.995,7.588,5.9a1.1,1.1,0,0,0,1.985.437c7.833-12.174,18.344-22.739,23.237-37.823,2.182-6.727,5.724-11.959,9.729-17.726a109.224,109.224,0,0,0,9.594-17.276c1.227-2.7-2.24-5.651-3.811-7.4-.146-.163-.318-.344-.512-.538" transform="translate(-319.377 -132.986)" fill="#be6763"/>
          <path id="Trazado_898210" data-name="Trazado 898210" d="M464.484,363.15s-15.633-10.432-15.6-9.75c.413,9.206-1.165,16.786-3.726,25.669-.105.364,8.65,2.99,13.147,4.046,1.728.406,4.761-.653,4.532-1.012-2.33-3.634,2.131-18.593,1.649-18.954" transform="translate(-335.629 -266.425)" fill="#fcab80"/>
          <path id="Trazado_898211" data-name="Trazado 898211" d="M472.167,735.226c-.311-14.365,3.038-26.449,1.127-40.707-.814-6.076-5.789-6.927-11.3-7.761-5.176-.783-10.485-.273-14.057,3.566a.822.822,0,0,0-1.1.852,28.914,28.914,0,0,1,.55,4.574,20.365,20.365,0,0,1-1.088,4.762c-3.132,11.611-5.894,23.383-6.2,35.459-.327,13.047,2.407,25.113,3.666,38.06,1.267,13.025.395,25.605-1.378,38.541-1.466,10.7-3.863,23.94-4.354,34.859-.158,3.508.022,3.754,3.275,5.539,2.456,1.348,16.232,3.542,22.793-1.252a1.787,1.787,0,0,0,.725-1.2c.762-5.519,6.6-52.183,7.185-58.491,1.422-15.288.456-42.555.147-56.8" transform="translate(-330.236 -517.55)" fill="#fdf3f2"/>
          <path id="Trazado_898212" data-name="Trazado 898212" d="M500.276,422.645c-.391-2.272-3.743-2.909-5.523-3.693a.383.383,0,0,0-.307-.006.365.365,0,0,0-.6.281c.056,1.6-.624,2.925-1.043,4.421a3.553,3.553,0,0,0-.157,2.238c.42.963,1.844,1.361,2.567,2.011a16.675,16.675,0,0,1,2.732,3.564.378.378,0,0,0,.681-.089,29.525,29.525,0,0,0,1.247-4.628,13.132,13.132,0,0,0,.4-4.1" transform="translate(-371.336 -315.811)" fill="#964536"/>
          <path id="Trazado_898213" data-name="Trazado 898213" d="M574.384,1285.992c1.151-5.164-7.612-3.319-12.227-5.07-4.674-1.773-17.268-4.245-17.167-4.093-.622,2.2-2.164,5.846,1.334,8.991,1.173,1.055,2.913,1.548,4.345,2.221,1.629.765,3.254,1.542,4.925,2.221a28.877,28.877,0,0,0,9.689,2.2c1.963.082,5.833.471,6.994-1.516a18.369,18.369,0,0,0,2.107-4.959" transform="translate(-410.237 -962.67)" fill="#fce7d8"/>
          <path id="Trazado_898214" data-name="Trazado 898214" d="M566.08,1310.205c-2.931-4.12-6.772-11.981-7.676-16.259-.36-1.7.8-7.074,1.36-8.676,0-.011,0-.021,0-.032a.607.607,0,0,0-.266-.9,47.443,47.443,0,0,0-7.728-3.009,43.085,43.085,0,0,0-4.526-1.03c-.536-.092-3.454-.238-3.622-.589-.369-.77-1.346-.754-1.171-.005-1.277,3.354-2.584,7.3-3.669,10.717-.826,2.6-2.661,6.045-2.5,8.851.116,2.042,1.216,2.974,2.78,4.112,3.4,2.474,11.012,9.614,12.818,10.438,2.4,1.094,5.374,1.013,7.949.959,1.408-.03,2.814-.113,4.218-.214.757-.054,1.833.313,2.4-.328.64-.72.146-3.309-.373-4.038" transform="translate(-404.329 -964.419)" fill="#8f4d4b"/>
          <path id="Trazado_898215" data-name="Trazado 898215" d="M559.044,1365.825a32.036,32.036,0,0,1-6.612-5.089c-2.192-2.278-4.82-5.5-7.442-7.261-1.444-.97-5.6-1.941-8.015-1.859-2.068.07-2,1.4-1.96,2.115.119,2.14,1.249,3.117,2.854,4.309,3.489,2.592,11.3,10.074,13.159,10.937,2.461,1.146,11.048.887,12.489.781.232-.017.959-.091,1.673-.163a.534.534,0,0,0,.192-1c-1.963-1.045-4.7-1.721-6.338-2.767" transform="translate(-403.37 -1019.058)" fill="#fce7d8"/>
          <path id="Trazado_898216" data-name="Trazado 898216" d="M568.673,769.606c-.274-28.107-9.473-55.7-17.079-82.479-.521-1.833-.58-3.758-.917-5.634a57.936,57.936,0,0,0-1.383-5.781,2.384,2.384,0,0,0-1.4-.751,71.015,71.015,0,0,1-21.279,2.06c-3.967-.233-7.28-.5-8.262,4.087-.512,2.39-.231,5.018-.223,7.436l.031,10.43c.021,7.021-.137,14.073.251,21.085a61.128,61.128,0,0,0,3.551,18.251c2.021,5.388,4.752,10.469,7.2,15.665,2.981,6.322,5.276,12.813,5.823,19.844,1.223,15.728-11.83,50.738-9.988,52.363.914.806,3.054.637,4.233.854a49.934,49.934,0,0,1,22.6,10.443c1.313,1.069,4.621-10.767,5.1-12.318,5.515-17.964,11.93-36.531,11.745-55.558" transform="translate(-390.584 -508.875)" fill="#fdf3f2"/>
          <path id="Trazado_898217" data-name="Trazado 898217" d="M467.607,312.237c-.3-.88-.649-1.745-1-2.572-.149-.35-.3-.7-.448-1.036a.291.291,0,0,0,.246-.134c.663-.835,1.416-1.954.79-3.02a2.406,2.406,0,0,0-1.156-.887c-.6-.283-1.223-.552-1.834-.82-1.707-4.13-3.884-8.164-8.32-9.782-7.642-2.781-20.13,4.213-18.132,13.308.775,3.534,3.452,4.332,5.733,6.688,2.55,2.647,4.779,5.144,7.359,7.851a1.046,1.046,0,0,0,.6.328,1.022,1.022,0,0,0,1.044.827c4.3-.03,11.064.507,14.352-3.019,2.02-2.162,1.677-5,.768-7.731" transform="translate(-329.888 -221.187)" fill="#fcab80"/>
          <path id="Trazado_898218" data-name="Trazado 898218" d="M523.69,316.411a1.8,1.8,0,0,0-2.333.409,4.664,4.664,0,0,0-1.109,2.459,1.11,1.11,0,0,0,1.359,1.135,2.224,2.224,0,0,0,.681-.473c.54-.486,1.4-.6,1.8-1.238a1.71,1.71,0,0,0-.4-2.291" transform="translate(-392.236 -238.351)" fill="#692c26"/>
          <path id="Trazado_898219" data-name="Trazado 898219" d="M442.663,466.72a19.587,19.587,0,0,0-2.8-5.044c-2.041-2.548-5.062-4.31-7.8-6.018-4.805-2.993-9.79-6.316-14.993-8.59-5.081-2.221-10.8-1.955-16.177-1.184-2.634.378-6.189.776-8.023,2.879-3.906,4.48-8.107,13.251-7.242,18.523,1.288,7.848,4.646,17.532,7.993,24.89,1.739,3.823,3.7,7.541,5.795,11.18,1.688,2.933,6.13,8.909,9.382,10.368,6.587,2.956,16.14,3.384,23.236,2.741,8.241-.747,19.817-4.941,19.819-14.645,0-8.7-3.462-15.23-4.908-21.826a96.114,96.114,0,0,0-4.279-13.275" transform="translate(-290.658 -335.757)" fill="#be6763"/>
          <path id="Trazado_898220" data-name="Trazado 898220" d="M548.057,359.6a4.885,4.885,0,0,1-2.244,1.209c-.336.1-.281.451-.09.686.7.865,2.058,1.662,2.982,1.013a1.5,1.5,0,0,0,.35-.336c-.3-.88-.649-1.744-1-2.572" transform="translate(-411.337 -271.125)" fill="#fff"/>
          <path id="Trazado_898221" data-name="Trazado 898221" d="M384.906,289.052c-1.926-1.527-5.111-1.364-7.456-1.4-5.46-.082-12.791,1.494-16.364,5.988-4.177,5.254-4.584,12.01-4.926,18.409-.455,8.525-8.5,14.325-12.54,21.264-3.113,5.348-4.96,12.273-2.846,18.313,1.206,3.445,6.585,5.5,9.919,4.941a44.914,44.914,0,0,1,4.918-.915c3.008-.16,5.475,1.809,8.236,2.651a13.311,13.311,0,0,0,5.289.542,14.832,14.832,0,0,0,3.277-.741c2.027-.713,1.474-2.184,1.192-3.914-.851-5.223-1.093-10.662,1.118-15.6,1.617-3.61,4.271-6.641,5.8-10.3,4.614-11.035.09-19.813-.365-22.931-.1-.689,4.426-3.371,4.841-4.125a17.5,17.5,0,0,0,2.107-5.609,7.017,7.017,0,0,0-2.2-6.567" transform="translate(-256.246 -216.875)" fill="#692c26"/>
          <path id="Trazado_898222" data-name="Trazado 898222" d="M501.947,352.938c-1.111-1.3-2.561-2.17-3.783-1.774-2.131.69-.443,4.563.361,5.649.766,1.035,3.308,3.1,4.642,1.681,1.168-1.241.287-3.793-1.221-5.556" transform="translate(-374.814 -264.689)" fill="#fcab80"/>
          <path id="Trazado_898223" data-name="Trazado 898223" d="M399.832,298.381a2.576,2.576,0,0,0-.576-1.917,9.8,9.8,0,0,0-2.614-2.055,7.055,7.055,0,0,0-5.229-.845c-2.888.777-4.245,5.219-2.1,7.051a7.375,7.375,0,0,1,2.008,2.141,5.02,5.02,0,0,0,1.082,1.713,4.22,4.22,0,0,0,4.28.356,4.965,4.965,0,0,0,3.244-5.525,4.65,4.65,0,0,1-.094-.918" transform="translate(-292.733 -221.186)" fill="#692c26"/>
          <path id="Trazado_898224" data-name="Trazado 898224" d="M841.741,627.768a1.282,1.282,0,0,0-.683-.521,19.841,19.841,0,0,0-12.667.976,10.659,10.659,0,0,1,4.992-1.962,5.358,5.358,0,0,0,2.029-.386c1.233-.667.369-1.61-.577-1.844a8.822,8.822,0,0,0-3.089-.076,16.285,16.285,0,0,0-4.827,1.291,5.586,5.586,0,0,0-4.9,1.415c-2.137,1.924-3.609,4.181-6.329,5.314a.367.367,0,0,0-.063.043,25.256,25.256,0,0,1-6,1.745c-.267.041-2.1,11.754-1.842,11.689,1.983-.492,3.93-1.141,5.872-1.77,1.022-.331,2.041-.667,3.063-1,.425-.138.859-.321,1.3-.418a15.184,15.184,0,0,1,2.776.066,9.311,9.311,0,0,0,2.255-.348,11.6,11.6,0,0,0,5.083-3.279c1.485-1.552,3.451-3.235,5.633-3.677,1.441-.292,4.56.42,5.077-.339.448-.657.05-1.607-3.249-2.038a8.008,8.008,0,0,0-2.04.031c-.333.045-1.7.407-1.766.259-.119-.251,1.7-.5,2.151-.55a14.633,14.633,0,0,1,3.4.157q.373.07.74.17c.734.2,1.852.219,2.141-.675.336-1.044-1.484-1.712-2.257-1.914a14.117,14.117,0,0,0-7.76.689c-.3-.219,3.929-1.5,7.269-1.384,1.432.049,3.175.565,4.183-.8a.854.854,0,0,0,.086-.868" transform="translate(-609.016 -470.362)" fill="#fcab80"/>
          <path id="Trazado_898225" data-name="Trazado 898225" d="M607.1,539.45c-3.745-3.3-9.009-4.16-12.927-7.214-4.465-3.48-7.915-8.051-11.055-12.714-6.215-9.232-11.606-18.935-21.986-25-.453-.264-7.728,9.285-8.083,12.62-.84,7.9,4.346,23.923,4.577,23.919.259,0,1.771,2.8,2.022,3.151a36.491,36.491,0,0,0,2.537,3.182c8.074,9.033,21.065,16.708,33.45,16.479,8.743-.161,19.522-7.327,11.464-14.423" transform="translate(-416.906 -372.845)" fill="#be6763"/>
          <path id="Trazado_898226" data-name="Trazado 898226" d="M729.1,653.965c-.873-.587-1.821-.308-2.977-.251-3.3.161-6.592.295-9.883.379a43.168,43.168,0,0,1-12.785-1.426q-.61-.171-1.214-.366c-.143-.046-3.314,7.895-6.022,10.848-2.009,2.191-3.224,8.166-.418,9.056,4.461,1.415,9.823,1.145,14.43,1.052a78.551,78.551,0,0,0,18.613-2.977,1.782,1.782,0,0,0,1.229-1.165c1.318-3.857,2.28-8.457.774-12.4a6.98,6.98,0,0,0-1.428-2.487,2.409,2.409,0,0,0-.32-.259" transform="translate(-523.364 -491.807)" fill="#be6763"/>
          <path id="Trazado_898227" data-name="Trazado 898227" d="M870.973,630.671a20.252,20.252,0,0,0-3.946,2.494c-.268.216.112.592.378.378a19.681,19.681,0,0,1,3.838-2.41c.31-.149.039-.61-.27-.462" transform="translate(-653.633 -475.478)" fill="#c45e47"/>
          <path id="Trazado_898228" data-name="Trazado 898228" d="M504.688,357.993a5.007,5.007,0,0,0,2.856,4.177c.31.146.582-.315.27-.462a4.475,4.475,0,0,1-2.591-3.715c-.027-.341-.562-.344-.535,0" transform="translate(-380.513 -269.717)" fill="#c45e47"/>
          <path id="Trazado_898229" data-name="Trazado 898229" d="M559.547,599.66c2.887,9.26,6.5,19.877,16.19,24,.313.133.587-.327.27-.462-9.563-4.069-13.094-14.537-15.943-23.678-.1-.328-.619-.188-.516.142" transform="translate(-421.865 -451.87)" fill="#401e15"/>
          <path id="Trazado_898230" data-name="Trazado 898230" d="M730.495,656.748c3.053,1.553,6.541,2.883,9.19,5.087.263.219.644-.158.378-.378-2.692-2.239-6.2-3.594-9.3-5.171-.306-.156-.577.306-.27.462" transform="translate(-550.661 -494.788)" fill="#401e15"/>
          <path id="Trazado_898231" data-name="Trazado 898231" d="M410.572,340.995c-.167,4.835.727,9.591,1.146,14.39.4,4.567.56,9.8-2.1,13.758-2.127,3.167-5.5,5.361-7.208,8.831a13.648,13.648,0,0,0-.621,10.526c.113.323.631.184.516-.142a13.048,13.048,0,0,1,2.068-12.459c2.2-2.736,5.138-4.916,6.662-8.16,1.755-3.738,1.568-8.345,1.219-12.354-.418-4.8-1.313-9.554-1.146-14.39.012-.345-.523-.344-.535,0" transform="translate(-302.35 -256.901)" fill="#401e15"/>
          <path id="Trazado_898232" data-name="Trazado 898232" d="M418.207,309.2c-1.484-.632-3.816-.83-4.272,1.209-.38,1.7,1.022,3.541,2.348,4.412.289.19.557-.274.27-.462a4.866,4.866,0,0,1-1.993-2.624c-.734-2.424,1.718-2.778,3.377-2.072.313.134.587-.327.27-.462" transform="translate(-312.042 -232.795)" fill="#401e15"/>
          <path id="Trazado_898233" data-name="Trazado 898233" d="M500.295,312.727a37.5,37.5,0,0,1,.015,8.329c-.038.342.5.339.535,0a37.485,37.485,0,0,0-.015-8.329c-.038-.338-.574-.342-.535,0" transform="translate(-377.2 -235.59)" fill="#401e15"/>
          <path id="Trazado_898234" data-name="Trazado 898234" d="M385.979,482.5a16.73,16.73,0,0,0,1.791,14.966c.19.285.654.018.462-.27a16.224,16.224,0,0,1-1.738-14.554c.118-.324-.4-.464-.516-.142" transform="translate(-290.255 -363.644)" fill="#401e15"/>
          <path id="Trazado_898235" data-name="Trazado 898235" d="M419.055,319.713a11.208,11.208,0,0,1-.972,3.619c-.714,1.193-2.611,1.371-3.859,1.4a.268.268,0,0,0,0,.535c1.269-.028,2.992-.2,3.944-1.155,1.019-1.029,1.154-2.923,1.4-4.255.063-.337-.453-.481-.516-.142" transform="translate(-312.113 -240.904)" fill="#401e15"/>
          <path id="Trazado_898236" data-name="Trazado 898236" d="M464.678,492.474a29.492,29.492,0,0,0-3.389,5.962c-.883,2.1-1.7,4.351-1.262,6.652.065.338.581.195.516-.142-.464-2.417.605-4.97,1.6-7.134a29.584,29.584,0,0,1,3-5.067c.2-.279-.261-.546-.462-.27" transform="translate(-346.748 -371.217)" fill="#401e15"/>
          <path id="Trazado_898237" data-name="Trazado 898237" d="M549.1,1210.606q-1.858,6.831-3.544,13.708c-.5,2.044-1.127,4.112-1.437,6.2a4.05,4.05,0,0,0,.831,3.6c.237.25.616-.128.378-.378-1.388-1.463-.581-3.745-.177-5.451q.7-2.934,1.424-5.86,1.456-5.852,3.042-11.671a.268.268,0,0,0-.516-.142" transform="translate(-410.18 -912.603)" fill="#401e15"/>
          <path id="Trazado_898238" data-name="Trazado 898238" d="M642.512,64.911a28.877,28.877,0,0,0,0,12.362c.067.338.582.195.516-.142a28.33,28.33,0,0,1,0-12.078.268.268,0,0,0-.516-.142" transform="translate(-483.921 -48.796)" fill="#c45e47"/>
          <path id="Trazado_898239" data-name="Trazado 898239" d="M630.317,67.355c-.951,3.807-.337,7.945.238,11.761.051.34.567.2.516-.142-.559-3.7-1.163-7.776-.238-11.477a.268.268,0,0,0-.516-.142" transform="translate(-474.86 -50.638)" fill="#c45e47"/>
          <path id="Trazado_898240" data-name="Trazado 898240" d="M620.04,84.789a25.3,25.3,0,0,0,.164,7.423c.057.339.573.2.516-.142a24.8,24.8,0,0,1-.145-7.281c.043-.341-.493-.338-.535,0" transform="translate(-467.335 -63.735)" fill="#c45e47"/>
          <path id="Trazado_898241" data-name="Trazado 898241" d="M548.063,1293.95a2.728,2.728,0,0,1,1.8-.294c.337.06.481-.455.143-.516a3.33,3.33,0,0,0-2.21.348c-.3.163-.033.626.27.462" transform="translate(-412.913 -974.931)" fill="#401e15"/>
          <path id="Trazado_898242" data-name="Trazado 898242" d="M631.226,1318.415a13.093,13.093,0,0,1,4.337,3.913c.2.28.661.013.462-.27a13.7,13.7,0,0,0-4.529-4.1.268.268,0,0,0-.27.462" transform="translate(-475.819 -993.654)" fill="#401e15"/>
          <path id="Trazado_898243" data-name="Trazado 898243" d="M518.438,857.552c.8,8.417,3.56,16.421,6.866,24.153,2.764,6.464,6.3,12.836,7.975,19.7.082.334.6.193.516-.142-1.588-6.512-4.882-12.579-7.539-18.693-3.475-8-6.45-16.286-7.283-25.02-.032-.34-.568-.343-.535,0" transform="translate(-390.879 -646.365)" fill="#401e15"/>
          <path id="Trazado_898244" data-name="Trazado 898244" d="M483.665,731.373c11.917,4.416,26.953,4.928,38.073-1.94.293-.181.024-.644-.27-.462-11,6.8-25.873,6.254-37.66,1.885-.323-.12-.463.4-.142.516" transform="translate(-364.526 -549.583)" fill="#401e15"/>
          <path id="Trazado_898245" data-name="Trazado 898245" d="M588.268,297.641a44.275,44.275,0,0,1-2.505,8.11c-.133.317.385.456.516.142a44.257,44.257,0,0,0,2.506-8.11c.069-.336-.446-.48-.516-.142" transform="translate(-441.625 -224.263)" fill="#401e15"/>
          <path id="Trazado_898246" data-name="Trazado 898246" d="M517.85,425.84c1.422.838,2.4,1.7,1.985,3.522-.236,1.036-.625,2.065-.934,3.081-.1.33.416.471.516.142.411-1.35,1.327-3.111,1.086-4.552a4.191,4.191,0,0,0-2.382-2.655.268.268,0,0,0-.27.462" transform="translate(-390.341 -320.688)" fill="#401e15"/>
          <path id="Trazado_898247" data-name="Trazado 898247" d="M610.9,1317.246a47.731,47.731,0,0,1-1.543,9.051.268.268,0,0,0,.516.142,48.448,48.448,0,0,0,1.562-9.193c.025-.344-.51-.342-.535,0" transform="translate(-459.422 -992.955)" fill="#401e15"/>
          <path id="Trazado_898248" data-name="Trazado 898248" d="M508.42,453.446l3.14,1.417c.311.14.584-.32.27-.462l-3.14-1.417c-.311-.141-.584.32-.27.462" transform="translate(-383.223 -341.511)" fill="#401e15"/>
          <path id="Trazado_898249" data-name="Trazado 898249" d="M535.831,332.484a2.169,2.169,0,0,0-1.012-.978c-.824-.178-1,.723-.8,1.317a3.471,3.471,0,0,0,.484.878c.232.329.858.846,1.3.729.754-.2.509-1.174.031-1.946" transform="translate(-402.569 -249.924)" fill="#250606"/>
          <path id="Trazado_898250" data-name="Trazado 898250" d="M1032.647,1260.734c0-.043-.01-.081-.014-.123a1.221,1.221,0,0,0-.406-1.432,15.4,15.4,0,0,0-10-3.3c-2.365.139-5.988.909-7.335,3.23a1.3,1.3,0,0,0-.114.26,1,1,0,0,0-.859,1.1,126.475,126.475,0,0,1-.431,16.8c-.717,1.057.722,2.494,1.665,1.483,2.031-2.176,6.352-.568,8.885-.39a44.1,44.1,0,0,0,7.622-.188,1.051,1.051,0,0,0,1.4-1.067Z" transform="translate(-763.982 -946.868)" fill="#fcab80"/>
          <path id="Trazado_898251" data-name="Trazado 898251" d="M979.027,1319.393c-.348-1.82-4.036-.944-5.159-.711-2.664.554-4.9,2.079-7.507,2.75a7.274,7.274,0,0,1-5.66-1.191c-1.427-.886-3.028-3.252-4.819-2.084-1.114.727-3.467,2.7-4.539,3.514-2.213,1.678-9.152,5.4-10.286,6.57a.766.766,0,0,0-.1.119,6.528,6.528,0,0,0-.836,3.171,1.578,1.578,0,0,0,1.062,1.464c2.344.939,8.663.77,11.147.776,3.267.007,14.836-.568,25.606-.635,1.112-.007,1.854-1.308,1.8-2.52-.11-2.673.281-6.022-.713-11.223" transform="translate(-708.812 -993.596)" fill="#fce7d8"/>
          <path id="Trazado_898252" data-name="Trazado 898252" d="M1299.87,1192.2a127.547,127.547,0,0,0-6.291-11.777,1.5,1.5,0,0,0-1.865-.6c-3.033,1.257-10.914,4.778-14.576,6.757a1.434,1.434,0,0,0-.494.426c-.917.1-1.691,1.487-.641,2.1,3.589,2.082,7.869,12.408,8.468,12.722.207-.011,15.748-8.755,15.4-9.624" transform="translate(-961.673 -889.451)" fill="#fcab80"/>
          <path id="Trazado_898253" data-name="Trazado 898253" d="M1148.542,751.8c-3.3-7.281-9.506-24.771-10.962-32.575-2.423-12.984-1.01-34.656-7.652-46.171-3.352-5.81-5.585-11.091-12.975-12.353-4.361-.744-10.78-1.581-13.99,2.319-1.575,1.914-1.863,4.481-1.792,6.875.085,2.883.5,5.774.838,8.638.788,6.615,1.5,16.659,1.713,23.318.746,23.865,9.269,51.5,11.152,56.562,10.9,29.268,25.224,46.991,25.256,47.012,1.468.973,2.258.768,4-.1,2.695-1.336,5.867-5.943,20.133-11.02,1.269-.452,2.073-1.24,1.646-2.812-1.713-6.315-7.3-17.5-17.371-39.7" transform="translate(-830.229 -497.664)" fill="#2e3649"/>
          <path id="Trazado_898254" data-name="Trazado 898254" d="M1019.862,727.358c-.46-24.03,1.04-48.138,3.23-72.06,1.121-12.243,4.721-25.823,2.967-38.021-1.416-9.849-4.986-19.2-7.356-28.828a23.213,23.213,0,0,0-29.914-3.707c-.641-.461-3.423-.877-3.33.147,1.1,12,.242,24.068-.453,36.062-2.126,36.633-.205,73.969,2.321,110.554.429,6.211,1.778,26.267,2.9,26.766,10.164,4.511,17.512,3.47,28.062,0,.7-.23,2.064-5.164,1.571-30.913" transform="translate(-741.965 -437.99)" fill="#2e3649"/>
          <path id="Trazado_898255" data-name="Trazado 898255" d="M1138.76,644.412c-.485-3.466-1.007-6.927-1.619-10.369a31.641,31.641,0,0,0-4.3-11.958c1.955,7.458,4.374,14.781,5.917,22.327" transform="translate(-854.117 -469.026)" fill="#475291"/>
          <path id="Trazado_898256" data-name="Trazado 898256" d="M991.971,251.619c1.122,5.7,2.961,11.665,1.727,17.284a19.572,19.572,0,0,0,10.94,1.171,20.961,20.961,0,0,0,7.644-2.981,110.531,110.531,0,0,1-3.111-16.079,74.648,74.648,0,0,1,0-15.02c.061-.679-13.52,7.412-16.827,13.518a.788.788,0,0,0-.6.911c.012.067.025.135.037.2-.01.021-.021.04-.031.061a.773.773,0,0,0,.219.933" transform="translate(-747.683 -177.899)" fill="#fcab80"/>
          <path id="Trazado_898257" data-name="Trazado 898257" d="M1328.317,672.681c.168-.356-.9-1.632-1.369-2.149a1.272,1.272,0,0,0,.132-1.624c-1.573-1.957-4.123-3.827-6.616-4.11-2.245-.255-4.578.779-6.9,1.488a3.3,3.3,0,0,1-.794.141,8.909,8.909,0,0,1-5.168-1.037c-.875-.51-1.573.335-1.564,1.182a16.536,16.536,0,0,1-5.262,5.178c-1.314.81,3.081,3.377,9.676,5.016,1.776.441,5.885,1.787,7.578.645.979-.66,2.142-1.438,1.486-2.491-.45-.722-2.759-.722-3.326-1.216-1.24-1.082.813-2.106,1.619-2.267a5.2,5.2,0,0,1,4.375.851c1.508,1.132,4.8,2.922,5.942,1.335a1.207,1.207,0,0,0,.188-.942" transform="translate(-980.558 -501.2)" fill="#fcab80"/>
          <path id="Trazado_898258" data-name="Trazado 898258" d="M696.572,55.907c-2.85-3.785-6.52-7.44-7.722-11.625a1.747,1.747,0,0,1-.057-.629c.24-2.85,1.078-17.127-1.738-20.946a1.279,1.279,0,0,0-1.865-.15c-.6-3.269-1.568-6.446-3.507-8.678-.838-.964-2.124.1-2.024,1.065.234,2.254,1.443,4.292,2,6.466.227.883.441,1.769.651,2.656.035.151.4,1.146.3,1.272-.039.049-.363.385-.443.127a108.16,108.16,0,0,0-4.331-11.52,4,4,0,0,0-1.227-1.722c-.648-.452-1.926-.736-2.374.127a1.888,1.888,0,0,0-.177.823c-.04,1.565.96,3.192,1.479,4.64.272.758.53,1.522.778,2.288a12.687,12.687,0,0,0,.768,2.442,11.947,11.947,0,0,0-4.791-4.878c-.756-.363-2.021.266-1.619,1.245.969,2.359,2.677,4.23,3.867,6.474a27.38,27.38,0,0,1,1.141,2.492c-1.5-1.769-3.271-3.337-5.312-3.785-.764-.168-1.648.515-1.356,1.356.787,2.261,2.248,3.862,3.636,5.758a16.473,16.473,0,0,1,1.843,3.368c.085.68.207,1.358.329,2,.483,2.542.772,5.123,1.41,7.634a20.191,20.191,0,0,0,1.282,3.667c.595,1.259,3.325,6.154,4.364,7.941,1.7,2.934,4.067,5.81,5.845,8.7a1.082,1.082,0,0,0,1.6.286.961.961,0,0,0,.739.247c1.573-.09,2.528-1.087,3.391-2.318a25.928,25.928,0,0,0,2.689-5.047,1.016,1.016,0,0,0,.081-.482c.2-.292.639-.908.349-1.294" transform="translate(-504.365 -8.889)" fill="#fcab80"/>
          <path id="Trazado_898259" data-name="Trazado 898259" d="M701.195,57.49c1.491,1.522,1.992,3.543,2.455,5.557.077.335.593.193.516-.142-.484-2.109-1.037-4.205-2.593-5.793-.241-.247-.62.132-.378.378" transform="translate(-528.613 -42.999)" fill="#c45e47"/>
          <path id="Trazado_898260" data-name="Trazado 898260" d="M698.744,79.874l.748,2.22c.109.325.626.186.516-.142l-.748-2.22c-.109-.325-.627-.186-.516.142" transform="translate(-526.812 -59.975)" fill="#c45e47"/>
          <path id="Trazado_898261" data-name="Trazado 898261" d="M735.3,60.227a26.728,26.728,0,0,1,1.87,8.511c.018.342.554.345.535,0a27.176,27.176,0,0,0-1.889-8.653c-.126-.316-.644-.178-.516.142" transform="translate(-554.374 -45.166)" fill="#c45e47"/>
          <path id="Trazado_898262" data-name="Trazado 898262" d="M1157.387,439.4c-5.8-6.32-9.455-14.7-13.865-22-11.185-18.515-10.165-22.234-28.924-32.56,3.043,21.631,2.915,21.712,6.256,33.6,1.568,5.578,3.121,11.161,4.7,16.735,1.236,4.352,2.6,8.551,5.575,12.06,3.262,3.854,7.421,7.167,11.275,10.41a78.94,78.94,0,0,0,11.734,8.435c2.691,1.526,5.391,2.959,8.481.966,2.431-1.568,9.9-8.493,7.256-13.226-.306-.547-5.229-6.3-6.875-8.162q-2.783-3.149-5.617-6.252" transform="translate(-840.361 -290.148)" fill="#a1cad2"/>
          <path id="Trazado_898263" data-name="Trazado 898263" d="M968.884,559.715c-5.326-.91-21.729,8.349-21.86,10.223-1.01,14.421.08,20.415.932,35.209a1.417,1.417,0,0,0,1.329,1.185c10.554-1.1,7.61-8.607,8.711-14.132,1.646-8.254,11.639-32.356,10.887-32.485" transform="translate(-713.71 -421.954)" fill="#a1cad2"/>
          <path id="Trazado_898264" data-name="Trazado 898264" d="M964.747,206.386c-.958-6.13-7.16-8.832-12.721-8.941a16.824,16.824,0,0,0-10.382,3.022,13.666,13.666,0,0,0-3.656,4.1c-1.112,1.91-1.268,3.941-2.09,5.922a5.739,5.739,0,0,1-2.007,2.013,2.9,2.9,0,0,0-.787.754c-.536.893.329,1.736.965,2.258a.94.94,0,0,1,.323.849c-.075.58-.144,1.153-.205,1.714-.357,3.267-.692,8.294,2.458,10.468,2.9,2,6.888,1.523,10.149.906a48.5,48.5,0,0,0,4.961-1.139c2.1-.632,2.981-2.689,3.983-4.437a35.772,35.772,0,0,0,3.182-7.738c3.668-1.956,6.638-4.547,5.826-9.75" transform="translate(-703.396 -148.862)" fill="#fcab80"/>
          <path id="Trazado_898265" data-name="Trazado 898265" d="M935.746,352.541c-11.692-8.914-31.6-13.639-40.772-12.853-.368-.638-10.132,6.2-11.768,7.715-2.459,2.273-13.754,7.634-11.773,10.525.63.919,5.082,4.9,8.841,16.48,1.5,4.624,2.641,8.277,4.224,12.874,1.943,5.641,5.6,16.9,7.706,22.427,2.129,5.577,2.521,11.965,3.684,17.806.285,1.433,6.524,22.662,8.582,23.244,19.625,5.545,62.242,3.287,62.241-14.425,0-16.489-12.912-42.558-19.471-57.181-3.227-7.2-5.048-21.7-11.495-26.612" transform="translate(-656.85 -256.047)" fill="#a1cad2"/>
          <path id="Trazado_898266" data-name="Trazado 898266" d="M1005.474,330.4c-1-6.047-2.276-9.116-10.193-11.358-9.613-2.722-15.142-1.607-15.99,4.686-.63.568,1.153,1.985,2.3,2.076,3.986.315,7.881,1.85,11.689,2.978l10.7,3.169a1.067,1.067,0,0,0,1.382-.8,1.159,1.159,0,0,0,.118-.75" transform="translate(-738.246 -239.49)" fill="#fce7d8"/>
          <path id="Trazado_898267" data-name="Trazado 898267" d="M785.908,197.057c-3.806-5.416-11.534-9.643-16.834-13.613-5.723-4.287-16.321-7.033-21.425-12.055-4.9-4.819-19.852-21.275-24.8-25.7a1.606,1.606,0,0,0-1.947-.147c-6,3.944-8.1,8.227-9.231,14.99a2.037,2.037,0,0,0,.148.995c2.953,8.651,16,27.232,27.2,39.245,6.658,7.145,14.359,13.921,19.195,21.806.338.552,33.223-17.648,27.689-25.521" transform="translate(-536.561 -109.535)" fill="#a1cad2"/>
          <path id="Trazado_898268" data-name="Trazado 898268" d="M1143.176,813.879a71.011,71.011,0,0,1-3.643,11.024c-.86,2.051-2.018,4.047-2.707,6.164a28.089,28.089,0,0,0-.843,5.619c-.2,1.8-.351,3.6-.479,5.4-.262,3.686-.431,7.381-.455,11.077a.268.268,0,0,0,.535,0c.023-3.621.188-7.243.44-10.855.122-1.75.267-3.5.453-5.244a24.612,24.612,0,0,1,1.028-6.316c.752-1.937,1.741-3.789,2.544-5.707a71.164,71.164,0,0,0,3.643-11.024c.079-.335-.436-.478-.516-.142" transform="translate(-855.78 -613.486)" fill="#401e15"/>
          <path id="Trazado_898269" data-name="Trazado 898269" d="M870.163,393.786a87.136,87.136,0,0,0,6.775,11.651c4.038,5.51,8.889,10.435,13.6,15.362.239.249.617-.129.379-.379-4.728-4.946-9.619-9.89-13.651-15.44a88.1,88.1,0,0,1-6.639-11.464c-.158-.306-.62-.036-.462.27" transform="translate(-656.042 -296.593)" fill="#401e15"/>
          <path id="Trazado_898270" data-name="Trazado 898270" d="M1000.947,334.056c3.951,2.359,7.988,4.7,12.6,5.424.337.053.482-.463.142-.516-4.568-.713-8.562-3.033-12.474-5.37a.268.268,0,0,0-.27.462" transform="translate(-754.576 -251.485)" fill="#401e15"/>
          <path id="Trazado_898271" data-name="Trazado 898271" d="M966.479,655.271a145.682,145.682,0,0,0,3.388,18.1.268.268,0,0,0,.516-.142,145.629,145.629,0,0,1-3.388-18.1c-.048-.34-.563-.2-.516.142" transform="translate(-728.682 -493.793)" fill="#401e15"/>
          <path id="Trazado_898272" data-name="Trazado 898272" d="M1001.082,241.73c-2.929-5.045-8.167-8-10.8-13.239-4.414-8.786-4.987-19.094-10.521-27.415-2.437-3.664-4.742-5.1-8.787-6.667a20.342,20.342,0,0,0-14.939.97c-3.911,2.073-6.452,5.541-5.126,9.8a14.624,14.624,0,0,0,3.593,5.5c.286.307,1.444.76,1.454,1.18.1,4.028-.3,8.1,1.814,12.038,1.94,3.621,4.481,7.011,5.725,10.969a31.721,31.721,0,0,1,1.412,12.185c-.288,3.395.962,4.571,3.972,5.942,2.217,1.01,4.572,1.657,6.844,2.523a17.582,17.582,0,0,0,10.459.7c2.59-.636,5.044-1.279,7.717-.579,2.175.569,3.462,2.1,5.446,2.881,2.063.81,4.2.3,4.8-1.953a1.077,1.077,0,0,0,.268-.682,25.6,25.6,0,0,0-3.335-14.158" transform="translate(-716.68 -145.83)" fill="#a65730"/>
          <path id="Trazado_898273" data-name="Trazado 898273" d="M958.238,253.364a2.871,2.871,0,0,0-1.88-2.284c-2.093.608-2.545,4.446-2.523,6.179a.387.387,0,0,0,.036.16c-.02,1.415.289,2.916,1.857,2.61a2.249,2.249,0,0,0,1.124-.606c.287-.274.309-.855.55-1.14a6.337,6.337,0,0,0,.837-4.919" transform="translate(-719.151 -189.303)" fill="#fcab80"/>
          <path id="Trazado_898274" data-name="Trazado 898274" d="M1005.375,223.157a12.108,12.108,0,0,1,3.285,5.462q1.192,3.241,2.063,6.588c1.159,4.443,1.489,9.02,2.555,13.471.409,1.71.923,3.666,2.209,4.95s3.172,1.862,4.84,2.5c4.266,1.62,8.75,3.321,11.513,7.168.2.277.664.01.462-.27-2.253-3.137-5.621-4.953-9.13-6.372-2.081-.842-4.452-1.43-6.35-2.649-2.288-1.469-2.867-4.449-3.343-6.942-.874-4.583-1.4-9.156-2.7-13.659-1.016-3.545-2.059-8.149-5.03-10.621-.263-.219-.643.158-.378.378" transform="translate(-757.943 -167.916)" fill="#7d3714"/>
          <path id="Trazado_898275" data-name="Trazado 898275" d="M1053.544,304.518c.014,3.81.638,7.746,3.538,10.471.251.236.63-.142.379-.378-2.8-2.628-3.368-6.422-3.382-10.092a.268.268,0,0,0-.535,0" transform="translate(-794.328 -229.399)" fill="#7d3714"/>
          <path id="Trazado_898276" data-name="Trazado 898276" d="M828.82,238.89a19.991,19.991,0,0,0,5.993,3.5c.323.12.463-.4.142-.516a19.194,19.194,0,0,1-5.756-3.366c-.261-.221-.642.156-.378.378" transform="translate(-624.829 -179.777)" fill="#401e15"/>
          <path id="Trazado_898277" data-name="Trazado 898277" d="M1197.711,502.033c3.992,6.726,6.259,14.233,8.09,21.789,1.958,8.078,3.707,16.211,5.545,24.317.076.336.592.194.516-.142-1.873-8.262-3.644-16.555-5.658-24.784-1.822-7.442-4.1-14.825-8.031-21.45a.268.268,0,0,0-.462.27" transform="translate(-902.995 -378.211)" fill="#401e15"/>
          <path id="Trazado_898278" data-name="Trazado 898278" d="M1359.312,679.194a15.234,15.234,0,0,1-4.174-1.413,5.668,5.668,0,0,0-2.878-1.033,6.989,6.989,0,0,0-2.646,1.177,12.6,12.6,0,0,1-4.887,1.389c-.341.028-.344.564,0,.535a17.149,17.149,0,0,0,6.427-2.188c1.707-.839,3.049.323,4.567.993a15.9,15.9,0,0,0,3.45,1.057c.337.064.481-.451.142-.516" transform="translate(-1013.675 -510.235)" fill="#c45e47"/>
          <path id="Trazado_898279" data-name="Trazado 898279" d="M962.52,259.939a6.907,6.907,0,0,0-.407,4.367c.077.336.593.194.516-.142a6.293,6.293,0,0,1,.353-3.955c.135-.313-.326-.586-.462-.27" transform="translate(-725.255 -195.877)" fill="#c45e47"/>
          <path id="Trazado_898280" data-name="Trazado 898280" d="M1309.793,1222.505a35.778,35.778,0,0,0-7.419-11.433,5.7,5.7,0,0,0-1.234.03,8.5,8.5,0,0,0-6.326,5.014c-.941,2.3-1.425,5.17-4,6.221a4.564,4.564,0,0,1-3.584-.014,7.082,7.082,0,0,1-.942-.45.641.641,0,0,0-.125,0c-.957.2-.918,1.342-1.066,2.1-.889,4.547-3.684,12.389-3.68,12.854a3.56,3.56,0,0,0,1.627,3.051c1.906.951,6.12-2.234,7.71-3.162,3.352-1.959,6.445-4.266,9.625-6.482,1.918-1.335,4.072-2.537,6.047-3.873,1.3-.881,4.063-2.136,3.372-3.862" transform="translate(-966.131 -913.082)" fill="#fce7d8"/>
        </g>
      </g>
    </g>
  </g>
</svg>
