<svg xmlns="http://www.w3.org/2000/svg" width="67.729" height="68.536" viewBox="0 0 67.729 68.536">
  <g id="Grupo_1100835" data-name="Grupo 1100835" transform="translate(-1020 -2206.291)">
    <ellipse id="Elipse_11547" data-name="Elipse 11547" cx="33.865" cy="34.268" rx="33.865" ry="34.268" transform="translate(1020 2206.291)" fill="#be6763"/>
    <g id="voto-positivo" transform="translate(1026.177 2212.945)">
      <path id="Trazado_899291" data-name="Trazado 899291" d="M56.705,80.9A24.122,24.122,0,1,1,32.582,56.777,24.123,24.123,0,0,1,56.705,80.9Zm0,0" transform="translate(-7.102 -50.652)" fill="#8f4d4b"/>
      <path id="Trazado_899292" data-name="Trazado 899292" d="M201.077,56.777a24.33,24.33,0,0,0-3.749.29,24.125,24.125,0,0,1,0,47.663,24.123,24.123,0,1,0,3.747-47.954Zm0,0" transform="translate(-175.597 -50.652)" fill="#8f4d4b"/>
      <path id="Trazado_899293" data-name="Trazado 899293" d="M213.9,36.493l-13.775,9.121a4.691,4.691,0,0,1-3.332.722,4.706,4.706,0,0,0-3.34.721l-1.843,1.221L181.286,33.061l2.533-10.942a11.416,11.416,0,0,0-1.6-8.881,2.73,2.73,0,0,1,4.177-3.468l1.641,1.589a17.542,17.542,0,0,1,4.233,6.489l.89,2.4,9.162-6.054a3.124,3.124,0,0,1,4.377.954,3.166,3.166,0,0,1-.981,4.292.034.034,0,0,0-.013.043.035.035,0,0,0,.045.017,3.1,3.1,0,0,1,1.117-.207,3.123,3.123,0,0,1,3.067,3.73A3.193,3.193,0,0,1,208.62,25a.067.067,0,0,0-.017.093,0,0,0,0,0,0,0,.066.066,0,0,0,.088.017,3.2,3.2,0,0,1,.758-.089,3.293,3.293,0,0,1,1.762.511,3.07,3.07,0,0,1,.911.894,3.123,3.123,0,0,1-.881,4.329l-.106.071a.049.049,0,0,0-.016.061.029.029,0,0,0,.011.011.05.05,0,0,0,.062,0,3.059,3.059,0,0,1,2.651.341,3.172,3.172,0,0,1,.933.925,3.125,3.125,0,0,1-.879,4.331Zm0,0" transform="translate(-161.285 -8.029)" fill="#be6763"/>
      <path id="Trazado_899294" data-name="Trazado 899294" d="M39.433,232.9l-5.811,3.848-8.39,5.556a24.148,24.148,0,0,1-14.67-18.979l9.736-6.448,5.927-3.925a1.482,1.482,0,0,1,2.055.419l11.572,17.472a1.484,1.484,0,0,1-.419,2.057Zm0,0" transform="translate(-8.977 -189.758)" fill="#be6763"/>
      <path id="Trazado_899295" data-name="Trazado 899295" d="M119.958,232.9l-5.811,3.848-13.324-19.871,5.927-3.925a1.482,1.482,0,0,1,2.055.419l11.572,17.472a1.484,1.484,0,0,1-.419,2.057Zm0,0" transform="translate(-89.502 -189.758)" fill="#be6763"/>
      <path id="Trazado_899299" data-name="Trazado 899299" d="M54.21,23.66a3.956,3.956,0,0,0-2.45-1.686,3.978,3.978,0,0,0-2.653-5.735,3.988,3.988,0,0,0-.206-4.053,3.952,3.952,0,0,0-2.45-1.686,3.983,3.983,0,0,0-5.725-5.173L36.762,7.953a24.777,24.777,0,0,0-6.694-2.266A18.408,18.408,0,0,0,27.513,2.6l-1.64-1.59a3.589,3.589,0,0,0-5.491,4.559q.064.1.127.2a24.982,24.982,0,1,0,28.475,32.97.859.859,0,1,0-1.615-.583A23.295,23.295,0,0,1,18.136,52.327L25.122,47.7h0l5.807-3.845h0a2.342,2.342,0,0,0,.66-3.246l-.077-.116,1.128-.747a3.825,3.825,0,0,1,2.726-.589,5.537,5.537,0,0,0,3.946-.853l9.356-6.2a23.312,23.312,0,0,1-.316,2.412.858.858,0,0,0,.688,1,.837.837,0,0,0,.158.015.859.859,0,0,0,.843-.7,25.114,25.114,0,0,0,.41-3.906l2.636-1.746a3.983,3.983,0,0,0,1.122-5.52ZM35.094,9.057l-2.624,1.738L31.954,9.4A18.376,18.376,0,0,0,31.217,7.7a23.051,23.051,0,0,1,3.877,1.361ZM7.9,15.01A23.266,23.266,0,0,1,21.33,7.354a10.609,10.609,0,0,1,.535,6.425l-2.094,9.045a2.338,2.338,0,0,0-3-.349L10.844,26.4h0L2.289,32.067c-.047-.6-.071-1.211-.071-1.819A23.257,23.257,0,0,1,7.9,15.01ZM30.25,42.024a.622.622,0,0,1-.268.4h0l-5.1,3.377L15.417,31.682a.859.859,0,0,0-1.426.956l9.46,14.109L16.17,51.568A23.335,23.335,0,0,1,2.514,33.945l8.564-5.652.986,1.471a.859.859,0,0,0,1.427-.956l-.979-1.46,5.212-3.44a.625.625,0,0,1,.865.177L30.159,41.556a.619.619,0,0,1,.091.469ZM53.11,26.31a2.25,2.25,0,0,1-.97,1.438l-3.014,2,0,0L38.366,36.87a3.823,3.823,0,0,1-2.726.589,5.54,5.54,0,0,0-3.946.853l-1.128.747-9.477-14.31,2.45-10.582a12.338,12.338,0,0,0-.9-8.1.841.841,0,0,0-.036-.076,12.147,12.147,0,0,0-.786-1.374A1.872,1.872,0,0,1,24.677,2.24l1.64,1.59A16.778,16.778,0,0,1,30.344,10l.893,2.406.005.013.007.017c.006.015.012.028.019.04a.847.847,0,0,0,.059.106.858.858,0,0,0,1.19.242l9.159-6.065a2.266,2.266,0,1,1,2.5,3.778l-.8.527h0l-1.773,1.175-.007,0-.028.021a.858.858,0,0,0,.983,1.406L44.331,12.5a2.266,2.266,0,0,1,2.5,3.779l-2.569,1.7a.859.859,0,1,0,.948,1.432l.4-.263,1.376-.911a2.266,2.266,0,0,1,2.5,3.778l-1.283.85-.02.013-1.266.838a.859.859,0,1,0,.948,1.432l.4-.263h0l1.376-.911a2.265,2.265,0,0,1,3.471,2.34Zm0,0" transform="translate(0 0)"/>
    </g>
  </g>
</svg>
