<svg xmlns="http://www.w3.org/2000/svg" width="85" height="93" viewBox="0 0 85 93">
  <g id="Grupo_1100835" data-name="Grupo 1100835" transform="translate(-180.051 -1601)">
    <g id="Grupo_1100345" data-name="Grupo 1100345" transform="translate(-524.68 -1261)">
      <rect id="Rectángulo_402215" data-name="Rectángulo 402215" width="85" height="93" rx="15" transform="translate(704.73 2862)" fill="#fbe6e5"/>
      <g id="votacion" transform="translate(714.398 2875.667)">
        <path id="Trazado_898560" data-name="Trazado 898560" d="M29.046,41.946a.961.961,0,0,0,1.259-.515l7.057-16.815a.962.962,0,0,0-1.774-.745L28.531,40.687A.962.962,0,0,0,29.046,41.946ZM23.987,27.084a4.36,4.36,0,0,0,4.08,4.585,4.36,4.36,0,0,0,4.08-4.585,4.36,4.36,0,0,0-4.08-4.585A4.36,4.36,0,0,0,23.987,27.084Zm6.236,0a2.452,2.452,0,0,1-2.156,2.661,2.452,2.452,0,0,1-2.156-2.661,2.452,2.452,0,0,1,2.156-2.662A2.452,2.452,0,0,1,30.223,27.084ZM3,18.963A32.558,32.558,0,0,0,.306,28.184a2.266,2.266,0,0,0,2.225,2.543H13.807A2.23,2.23,0,0,0,16,28.966,17.317,17.317,0,0,1,28.984,15.88a2.232,2.232,0,0,0,1.743-2.186V2.406A2.266,2.266,0,0,0,28.173.182a32.539,32.539,0,0,0-9.232,2.748A4.434,4.434,0,0,0,14.775,0H4.426A4.431,4.431,0,0,0,0,4.426V14.775a4.432,4.432,0,0,0,3,4.188Zm16.2-4.188V4.939a30.623,30.623,0,0,1,9.243-2.852.308.308,0,0,1,.247.074.321.321,0,0,1,.112.245V13.694a.318.318,0,0,1-.248.311A19.248,19.248,0,0,0,14.119,28.551a.318.318,0,0,1-.312.251H2.531a.3.3,0,0,1-.319-.358,30.642,30.642,0,0,1,2.8-9.244h9.762A4.45,4.45,0,0,0,19.2,14.775ZM9.6,13.754a5.252,5.252,0,0,1,4.939,3.523H4.871a.951.951,0,0,0-.186-.065A5.251,5.251,0,0,1,9.6,13.754ZM6.379,8.609A3.221,3.221,0,1,1,9.6,11.831,3.225,3.225,0,0,1,6.379,8.609ZM1.924,4.426a2.505,2.505,0,0,1,2.5-2.5H14.775a2.505,2.505,0,0,1,2.5,2.5V14.775a2.5,2.5,0,0,1-.9,1.922,7.2,7.2,0,0,0-3.545-4.087,5.145,5.145,0,1,0-6.458,0A7.2,7.2,0,0,0,2.827,16.7a2.5,2.5,0,0,1-.9-1.922V4.426Zm27.06,45.358A17.292,17.292,0,0,1,15.815,35.747a.962.962,0,0,0-.949-.808H1.094a.962.962,0,0,0-.958,1.049A32.683,32.683,0,0,0,2.079,44.5a.962.962,0,1,0,1.8-.675,30.745,30.745,0,0,1-1.715-6.963h11.9a19.221,19.221,0,0,0,14.489,14.8.318.318,0,0,1,.248.311V63.259a.3.3,0,0,1-.359.319A30.635,30.635,0,0,1,19.2,60.726V50.89a4.431,4.431,0,0,0-4.426-4.426H4.426A4.431,4.431,0,0,0,0,50.89V61.239a4.433,4.433,0,0,0,3.2,4.252,4.023,4.023,0,0,0,1.227.174H14.775A4.233,4.233,0,0,0,16,65.491a4.446,4.446,0,0,0,2.939-2.756,32.553,32.553,0,0,0,9.233,2.748,2.243,2.243,0,0,0,2.553-2.224V51.971A2.232,2.232,0,0,0,28.983,49.785ZM4.661,63.741a5.224,5.224,0,0,1,9.879,0Zm1.718-8.668A3.221,3.221,0,1,1,9.6,58.294,3.225,3.225,0,0,1,6.379,55.073Zm10.9,6.166a2.5,2.5,0,0,1-.9,1.922,7.2,7.2,0,0,0-3.545-4.087,5.145,5.145,0,1,0-6.458,0,7.2,7.2,0,0,0-3.545,4.087,2.5,2.5,0,0,1-.9-1.922V50.89a2.505,2.505,0,0,1,2.5-2.5H14.775a2.505,2.505,0,0,1,2.5,2.5V61.239ZM62.667,46.7a32.532,32.532,0,0,0,2.692-9.22,2.243,2.243,0,0,0-2.225-2.543H51.855a2.23,2.23,0,0,0-2.189,1.756A17.409,17.409,0,0,1,36.672,49.776a2.234,2.234,0,0,0-1.735,2.185v11.3a2.243,2.243,0,0,0,2.553,2.223,32.556,32.556,0,0,0,9.233-2.748,4.457,4.457,0,0,0,4.165,2.93H61.239a4.451,4.451,0,0,0,4.426-4.426V50.89a4.433,4.433,0,0,0-3-4.189Zm-16.2,4.188v9.837a30.636,30.636,0,0,1-9.243,2.851.307.307,0,0,1-.247-.074.321.321,0,0,1-.112-.245v-11.3a.318.318,0,0,1,.248-.311A19.342,19.342,0,0,0,51.543,37.112a.318.318,0,0,1,.312-.25H63.134a.321.321,0,0,1,.244.111.308.308,0,0,1,.075.246,30.613,30.613,0,0,1-2.8,9.244H50.89a4.431,4.431,0,0,0-4.426,4.426Zm4.662,12.851a5.223,5.223,0,0,1,9.878,0Zm1.718-8.668a3.221,3.221,0,1,1,3.221,3.221A3.225,3.225,0,0,1,52.843,55.073Zm10.9,6.166a2.5,2.5,0,0,1-.9,1.922,7.2,7.2,0,0,0-3.545-4.087,5.145,5.145,0,1,0-6.458,0,7.2,7.2,0,0,0-3.545,4.087,2.5,2.5,0,0,1-.9-1.922V50.89a2.505,2.505,0,0,1,2.5-2.5H61.17a.963.963,0,0,0,.112,0,2.5,2.5,0,0,1,2.459,2.5V61.239ZM61.239,0H50.89a4.433,4.433,0,0,0-4.165,2.93A32.555,32.555,0,0,0,37.492.182a2.264,2.264,0,0,0-2.553,2.223V13.7a2.234,2.234,0,0,0,1.735,2.185A17.409,17.409,0,0,1,49.666,28.971a2.23,2.23,0,0,0,2.189,1.756H63.134a2.271,2.271,0,0,0,2.225-2.543,32.7,32.7,0,0,0-1.618-6.6.962.962,0,1,0-1.811.65,30.777,30.777,0,0,1,1.522,6.209.3.3,0,0,1-.319.358H51.855a.318.318,0,0,1-.312-.25A19.342,19.342,0,0,0,37.109,14.015a.319.319,0,0,1-.248-.311V2.406a.3.3,0,0,1,.359-.319,30.635,30.635,0,0,1,9.243,2.851v9.837A4.433,4.433,0,0,0,49.7,19.037l.013,0a4.412,4.412,0,0,0,1.179.161H61.239a4.411,4.411,0,0,0,1.179-.161l.013,0a4.433,4.433,0,0,0,3.234-4.262V4.426A4.431,4.431,0,0,0,61.239,0ZM51.125,17.278a5.223,5.223,0,0,1,9.878,0Zm1.718-8.668a3.221,3.221,0,1,1,3.221,3.221A3.225,3.225,0,0,1,52.843,8.609Zm10.9,6.166a2.5,2.5,0,0,1-.9,1.922,7.2,7.2,0,0,0-3.545-4.087,5.145,5.145,0,1,0-6.458,0A7.2,7.2,0,0,0,49.29,16.7a2.5,2.5,0,0,1-.9-1.922V4.426a2.505,2.505,0,0,1,2.5-2.5H61.239a2.505,2.505,0,0,1,2.5,2.5ZM41.678,38.581A4.36,4.36,0,0,0,37.6,34a4.36,4.36,0,0,0-4.08,4.585,4.36,4.36,0,0,0,4.08,4.585A4.36,4.36,0,0,0,41.678,38.581Zm-6.236,0A2.452,2.452,0,0,1,37.6,35.919a2.452,2.452,0,0,1,2.156,2.661A2.452,2.452,0,0,1,37.6,41.242,2.452,2.452,0,0,1,35.442,38.581Z" fill="#f5b3b1"/>
      </g>
    </g>
  </g>
</svg>
