<svg xmlns="http://www.w3.org/2000/svg" xmlns:xlink="http://www.w3.org/1999/xlink" width="173.869" height="469" viewBox="0 0 173.869 469">
  <defs>
    <clipPath id="clip-path">
      <rect id="Rectángulo_403200" data-name="Rectángulo 403200" width="119.846" height="450.713" fill="none"/>
    </clipPath>
    <clipPath id="clip-path-2">
      <rect id="Rectángulo_403201" data-name="Rectángulo 403201" width="61.976" height="53.386" fill="none"/>
    </clipPath>
    <clipPath id="clip-path-3">
      <rect id="Rectángulo_403205" data-name="Rectángulo 403205" width="43.301" height="39.392" fill="none"/>
    </clipPath>
  </defs>
  <g id="Grupo_1100835" data-name="Grupo 1100835" transform="translate(-286.182 -5476)">
    <g id="Grupo_1100831" data-name="Grupo 1100831">
      <g id="Grupo_1100830" data-name="Grupo 1100830" transform="translate(1.182)">
        <g id="Grupo_1100820" data-name="Grupo 1100820" transform="translate(285 5494.287)">
          <rect id="Rectángulo_403198" data-name="Rectángulo 403198" width="70.915" height="20.705" transform="translate(62.276 164.416) rotate(-117.379)" fill="#2e3649"/>
          <g id="Grupo_1100819" data-name="Grupo 1100819">
            <g id="Grupo_1100818" data-name="Grupo 1100818" clip-path="url(#clip-path)">
              <path id="Trazado_899436" data-name="Trazado 899436" d="M30.152,148.786s6.166-5.217,12.584-5.65a6.191,6.191,0,0,1,6.522,6.766c-.306,3.763-2.437,8.743-10.2,12.731L32.885,159.7Z" transform="translate(45.107 -22.275)" fill="#e895a1"/>
              <path id="Trazado_899437" data-name="Trazado 899437" d="M24.952,354.525s16.685,16.412,47.9,5.056c.608-.223,1.229-.452,1.843-.7.331-.126.669-.258,1-.4q2.639-1.077,5.35-2.41c.4-.193.8-.4,1.2-.6,0,0-7.636-90.844-1.052-127.182.217-1.2.036-2.536.705-3.44,13.181-17.891,8.569-31.808,8.569-31.808l.036-.018a26.7,26.7,0,0,0,9.1-8.633,8.932,8.932,0,0,0-3.193-12.584q-.759-.426-1.663-.849a.639.639,0,0,1-.1-.042s.048-.079.127-.229a12.434,12.434,0,0,0,1.246-4.1,7.71,7.71,0,0,0-3.277-7.3,15,15,0,0,0-5.078-2.157,21.541,21.541,0,0,0-3.205-.482s.036-.1.084-.295a17.953,17.953,0,0,0,.458-6.09,8.136,8.136,0,0,0-8.078-7.338,8.408,8.408,0,0,0-1.283.09c-.247.036-.494.078-.746.127a2.5,2.5,0,0,0-.036-.247,12.567,12.567,0,0,0-.855-3,8.8,8.8,0,0,0-7.368-5.314,8.979,8.979,0,0,0-4.759.892A222.467,222.467,0,0,0,39.4,148.066a17.464,17.464,0,0,0-7.772,13.278c-.121,1.59-.187,3.355-.157,5.247a30.1,30.1,0,0,0,1.145,7.458c.024.09.048.187.079.289a178.931,178.931,0,0,1,4.693,71.152c-4.837,35.814-7.438,93.505-12.432,109.036" transform="translate(-2.203 -20.941)" fill="#ffb8c0"/>
              <path id="Trazado_899438" data-name="Trazado 899438" d="M40.13,370.033a80.8,80.8,0,0,0,9.392-4.109s-7.636-90.844-1.052-127.182c.217-1.2.036-2.536.705-3.44,13.181-17.891,8.569-31.808,8.569-31.808-.193-.615-.4-1.211-.632-1.783,0,0,1.872,12.25-10.1,24.821a27.075,27.075,0,0,0-7.2,16.132c-2.1,21.849-6.47,80.676.317,127.368" transform="translate(30.514 -31.393)" fill="#e895a1"/>
              <path id="Trazado_899439" data-name="Trazado 899439" d="M43.782,162.857A89.764,89.764,0,0,1,57.337,157.9a17.97,17.97,0,0,0,.458-6.09,8.137,8.137,0,0,0-8.078-7.338,13.281,13.281,0,0,1,1.355.482c5.12,2.157,5.253,9.374.337,11.964a23.166,23.166,0,0,0-7.626,5.934" transform="translate(25.007 -22.485)" fill="#e895a1"/>
              <path id="Trazado_899440" data-name="Trazado 899440" d="M24.952,196.028l.849,2.048v.006l.44,1.066.223.548a26.7,26.7,0,0,0,9.1-8.633,8.933,8.933,0,0,0-3.193-12.584q-.76-.424-1.663-.849l-1.253-.2s.09.066.247.193a9.9,9.9,0,0,1,.38,15.1,19.99,19.99,0,0,1-5.133,3.3" transform="translate(61.831 -27.614)" fill="#e895a1"/>
              <path id="Trazado_899441" data-name="Trazado 899441" d="M71.065,229.329S61.14,242.38,48.489,246.381c0,0,7.853,1.46,22-5.6Z" transform="translate(7.839 -35.691)" fill="#e895a1"/>
              <path id="Trazado_899442" data-name="Trazado 899442" d="M30.757,174.445c7.367-1.271,19.115-.115,23.591.4a12.435,12.435,0,0,0,1.247-4.1,7.711,7.711,0,0,0-3.277-7.294,15,15,0,0,0-5.079-2.157,11.776,11.776,0,0,1,4.8,3.459,3.981,3.981,0,0,1-3.295,6.331,42.915,42.915,0,0,0-17.988,3.356" transform="translate(38.225 -25.104)" fill="#e895a1"/>
              <path id="Trazado_899443" data-name="Trazado 899443" d="M55.887,152.475c8.873-4.247,18.416-7.831,23.235-9.567a12.486,12.486,0,0,0-.855-3A8.8,8.8,0,0,0,70.9,134.6a4.423,4.423,0,0,1-.252,7.957c-10.3,4.651-14.76,9.922-14.76,9.922" transform="translate(-6.465 -20.948)" fill="#e895a1"/>
              <path id="Trazado_899444" data-name="Trazado 899444" d="M65.361,242.268s-4.572,4-17.223,5.809" transform="translate(13.838 -37.705)" fill="none" stroke="#000" stroke-linecap="round" stroke-linejoin="round" stroke-width="1.5"/>
              <path id="Trazado_899445" data-name="Trazado 899445" d="M79.913,144.735s-14.32,4.719-24.068,9.724" transform="translate(-7.22 -22.526)" fill="none" stroke="#000" stroke-linecap="round" stroke-linejoin="round" stroke-width="1.5"/>
              <path id="Trazado_899446" data-name="Trazado 899446" d="M57.791,160.731a55.261,55.261,0,0,0-13.273,4.661" transform="translate(24.465 -25.015)" fill="none" stroke="#000" stroke-linecap="round" stroke-linejoin="round" stroke-width="1.5"/>
              <path id="Trazado_899447" data-name="Trazado 899447" d="M53.587,177.386s-12.3-1.82-21.138-1.108" transform="translate(38.86 -27.409)" fill="none" stroke="#000" stroke-linecap="round" stroke-linejoin="round" stroke-width="1.5"/>
              <path id="Trazado_899448" data-name="Trazado 899448" d="M37.411,190.469a26.508,26.508,0,0,1,7.043,11.273" transform="translate(43.804 -29.643)" fill="none" stroke="#000" stroke-linecap="round" stroke-linejoin="round" stroke-width="1.5"/>
              <path id="Trazado_899449" data-name="Trazado 899449" d="M136.752,123.584l-7.256,4.463c-1.2.736-3.1-.315-4.231-2.337l-9.815-17.566c-1.13-2.022-1.075-4.279.122-5.016l7.256-4.463c1.2-.737,3.1.315,4.231,2.337l9.815,17.566c1.13,2.022,1.075,4.279-.122,5.016" transform="translate(-114.636 -15.319)" fill="#2e3649"/>
              <path id="Trazado_899450" data-name="Trazado 899450" d="M125.227,114.906,109.2,124.438a5.4,5.4,0,0,1-7.523-2.118L88.7,98.533A5.909,5.909,0,0,1,90.8,90.7l16.029-9.533a5.4,5.4,0,0,1,7.524,2.119l12.971,23.787a5.911,5.911,0,0,1-2.094,7.838" transform="translate(-82.483 -12.513)" fill="#828692"/>
              <path id="Trazado_899451" data-name="Trazado 899451" d="M124.5,101.673q-2.952-5.287-6.394-10.28c-6.5,4.277-13.013,8.593-19.3,13.178a15.418,15.418,0,0,0-3.225,3.015l4.616,8.463c3.822-1.65,7.584-3.78,11.148-5.595,4.72-2.4,9.437-5.011,13.158-8.781" transform="translate(-85.351 -14.224)" fill="#abafb6"/>
              <path id="Trazado_899452" data-name="Trazado 899452" d="M9.379,64.8c10.542-6.425,42.243-28.06,46.039-57.967L98.33,84s-43.19,1.1-64.559,20.035a5.459,5.459,0,0,1-8.473-1.578L7.925,70.359A4.2,4.2,0,0,1,9.379,64.8" transform="translate(15.252 -1.064)" fill="#2e3649"/>
              <path id="Trazado_899453" data-name="Trazado 899453" d="M53.184,90.693h0a3.6,3.6,0,0,1-5.042-1.318L.509,5.791A3.94,3.94,0,0,1,1.806.54,3.6,3.6,0,0,1,6.848,1.858L54.482,85.442a3.941,3.941,0,0,1-1.3,5.251" transform="translate(64.856 0)" fill="#828692"/>
              <path id="Trazado_899454" data-name="Trazado 899454" d="M115.4,124.623a2.7,2.7,0,1,1-2.493-2.9,2.7,2.7,0,0,1,2.493,2.9" transform="translate(-88.443 -18.943)" fill="#5a9ff2"/>
              <path id="Trazado_899455" data-name="Trazado 899455" d="M114.795,123.93a2.429,2.429,0,1,1-2.238-2.6,2.428,2.428,0,0,1,2.238,2.6" transform="translate(-87.789 -18.881)" fill="#f8feff"/>
              <path id="Trazado_899456" data-name="Trazado 899456" d="M106.574,120.285a2.7,2.7,0,1,1-2.493-2.9,2.7,2.7,0,0,1,2.493,2.9" transform="translate(-72.162 -18.268)" fill="#5a9ff2"/>
              <path id="Trazado_899457" data-name="Trazado 899457" d="M106.3,119.653a2.429,2.429,0,1,1-2.238-2.6,2.429,2.429,0,0,1,2.238,2.6" transform="translate(-72.121 -18.215)" fill="#f4cb1e"/>
              <path id="Trazado_899458" data-name="Trazado 899458" d="M86.057,40.165C78.73,50.646,69.305,59.948,57.735,65.4a2.445,2.445,0,0,1-1.693.328,2.5,2.5,0,0,1-1.19-1.079q-1.173-1.667-2.347-3.333C66.59,54,78.937,31.526,80.54,31.279c1.895-.293,4.53,7.543,5.516,8.886" transform="translate(-10.544 -4.867)" fill="#828692"/>
              <path id="Trazado_899459" data-name="Trazado 899459" d="M103.183,268.588l12.147,222.7-91.615,1.231L42.02,269.409Z" transform="translate(-15.508 -41.801)" fill="#ed807c"/>
              <rect id="Rectángulo_403199" data-name="Rectángulo 403199" width="68.323" height="12.985" transform="translate(23.215 224.445)" fill="#ffc"/>
            </g>
          </g>
        </g>
        <g id="Grupo_1100822" data-name="Grupo 1100822" transform="translate(396.752 5476.267)">
          <g id="Grupo_1100821" data-name="Grupo 1100821" clip-path="url(#clip-path-2)">
            <path id="Trazado_899460" data-name="Trazado 899460" d="M12.117,15.97A25.921,25.921,0,1,0,46.007,2,25.921,25.921,0,0,0,12.117,15.97" transform="translate(0 0)" fill="#fff"/>
            <path id="Trazado_899461" data-name="Trazado 899461" d="M24.535,42.538,0,53.385,20.193,35.553Z" transform="translate(0 0)" fill="#fff"/>
            <path id="Trazado_899462" data-name="Trazado 899462" d="M44.469,25.962A2.709,2.709,0,1,0,47.221,23.3a2.709,2.709,0,0,0-2.752,2.665" transform="translate(0 0)" fill="#301c18"/>
            <path id="Trazado_899463" data-name="Trazado 899463" d="M33.953,25.794a2.709,2.709,0,1,0,2.752-2.665,2.709,2.709,0,0,0-2.752,2.665" transform="translate(0 0)" fill="#301c18"/>
            <path id="Trazado_899464" data-name="Trazado 899464" d="M23.437,25.626a2.709,2.709,0,1,0,2.752-2.665,2.709,2.709,0,0,0-2.752,2.665" transform="translate(0 0)" fill="#301c18"/>
          </g>
        </g>
        <g id="Grupo_1100834" data-name="Grupo 1100834" transform="translate(389.057 5724.396)">
          <g id="Grupo_1100827" data-name="Grupo 1100827" transform="translate(0 0)">
            <rect id="Rectángulo_403204" data-name="Rectángulo 403204" width="43.301" height="39.392" fill="#fff"/>
            <g id="Grupo_1100826" data-name="Grupo 1100826">
              <g id="Grupo_1100825" data-name="Grupo 1100825" clip-path="url(#clip-path-3)">
                <path id="Trazado_899468" data-name="Trazado 899468" d="M6.014,20.873h0a1.844,1.844,0,0,1,3.031-1.412l.728.611L28.416,7.893V33.3L9.773,21.876l-.965.579a1.845,1.845,0,0,1-2.794-1.582" transform="translate(0 0)" fill="#b95531"/>
                <path id="Trazado_899469" data-name="Trazado 899469" d="M31.424,15.3a.493.493,0,0,1-.243-.923L38.1,10.47a.494.494,0,0,1,.485.86l-6.916,3.909a.485.485,0,0,1-.242.064" transform="translate(0 0)" fill="#b95531"/>
                <path id="Trazado_899470" data-name="Trazado 899470" d="M38.565,21.956H30.9a.494.494,0,0,1,0-.987h7.668a.494.494,0,0,1,0,.987" transform="translate(0 0)" fill="#b95531"/>
                <path id="Trazado_899471" data-name="Trazado 899471" d="M38.113,32.894a.492.492,0,0,1-.266-.078l-7.555-4.849a.494.494,0,1,1,.533-.831l7.555,4.849a.494.494,0,0,1-.267.909" transform="translate(0 0)" fill="#b95531"/>
              </g>
            </g>
          </g>
        </g>
      </g>
      <rect id="Rectángulo_403210" data-name="Rectángulo 403210" width="169" height="469" transform="translate(291.051 5476)" fill="none"/>
    </g>
  </g>
</svg>
