<svg xmlns="http://www.w3.org/2000/svg" xmlns:xlink="http://www.w3.org/1999/xlink" width="124.011" height="125.273" viewBox="0 0 124.011 125.273">
  <defs>
    <filter id="Elipse_11501" x="0" y="0" width="124.011" height="125.273" filterUnits="userSpaceOnUse">
      <feOffset dy="3" input="SourceAlpha"/>
      <feGaussianBlur stdDeviation="3" result="blur"/>
      <feFlood flood-opacity="0.161"/>
      <feComposite operator="in" in2="blur"/>
      <feComposite in="SourceGraphic"/>
    </filter>
    <filter id="Elipse_11501-2" x="0" y="0" width="124.011" height="125.273" filterUnits="userSpaceOnUse">
      <feOffset dy="6" input="SourceAlpha"/>
      <feGaussianBlur stdDeviation="3" result="blur-2"/>
      <feFlood flood-opacity="0.161" result="color"/>
      <feComposite operator="out" in="SourceGraphic" in2="blur-2"/>
      <feComposite operator="in" in="color"/>
      <feComposite operator="in" in2="SourceGraphic"/>
    </filter>
  </defs>
  <g id="Grupo_1100833" data-name="Grupo 1100833" transform="translate(-361.271 -2703.142)">
    <g id="Grupo_1099816" data-name="Grupo 1099816" transform="translate(-551.063 2312.143)">
      <g id="Grupo_1099492" data-name="Grupo 1099492" transform="translate(921.333 397)">
        <g data-type="innerShadowGroup">
          <g transform="matrix(1, 0, 0, 1, -9, -6)" filter="url(#Elipse_11501)">
            <ellipse id="Elipse_11501-3" data-name="Elipse 11501" cx="53.005" cy="53.636" rx="53.005" ry="53.636" transform="translate(9 6)" fill="#2e3649"/>
          </g>
          <g transform="matrix(1, 0, 0, 1, -9, -6)" filter="url(#Elipse_11501-2)">
            <ellipse id="Elipse_11501-4" data-name="Elipse 11501" cx="53.005" cy="53.636" rx="53.005" ry="53.636" transform="translate(9 6)" fill="#fff"/>
          </g>
        </g>
        <path id="dignidad_1_" data-name="dignidad (1)" d="M52.52,4A16.976,16.976,0,0,0,42.341,7.318a13.8,13.8,0,0,0-5.3,8.064,3.11,3.11,0,0,0-.414.576c-2.069,3.687-4.156,5.253-7.206,5.4a29.441,29.441,0,0,1-4.719-.3,40.939,40.939,0,0,0-4.749-.359,37.276,37.276,0,0,0-8.219,1.573,5.834,5.834,0,0,0-3.523,2.146A5.633,5.633,0,0,0,7.5,27.089c0,.015,0,.03,0,.045-.119,5.014,0,8.955.24,13.689a3.879,3.879,0,0,0,4.032,3.707h.253v20.28a.856.856,0,0,0,.856.856h5.475a.857.857,0,0,0,.854-.786l.728-8.86.728,8.86a.857.857,0,0,0,.854.786h5.475a.856.856,0,0,0,.856-.856v-35.6a.489.489,0,0,1,.46-.488,14.145,14.145,0,0,0,10.075-4.49,14.375,14.375,0,0,0,3.465,4.119l-1.535,7.436a.857.857,0,0,0,1.379.838l6.336-5.149a17.571,17.571,0,0,0,4.488.578c8.688,0,15.756-6.292,15.756-14.026S61.208,4,52.52,4ZM26.138,63.954H22.309L21.03,48.388a1.1,1.1,0,0,0-2.184,0L17.568,63.954H13.738V40.735h12.4v23.22Zm2.07-36.943a2.2,2.2,0,0,0-2.07,2.2v9.812h-12.4v-9.51a.856.856,0,1,0-1.713,0V42.818h-.253a2.184,2.184,0,0,1-2.321-2.079C9.217,36.05,9.1,32.148,9.212,27.2a4.119,4.119,0,0,1,.45-1.866,4.162,4.162,0,0,1,2.522-1.406,36.6,36.6,0,0,1,7.772-1.514,39.612,39.612,0,0,1,4.553.348,30.609,30.609,0,0,0,5,.31c4.617-.227,6.946-3.3,8.616-6.275a1.215,1.215,0,0,1,1.677-.411,1.165,1.165,0,0,1,.6,1.577c-2.124,4.448-5.071,8.622-12.195,9.049ZM52.52,30.339a15.816,15.816,0,0,1-4.444-.63.857.857,0,0,0-.781.157L42.48,33.778l1.156-5.6a.857.857,0,0,0-.32-.854,12.6,12.6,0,0,1-3.747-4.533A25.3,25.3,0,0,0,41.949,18.7a2.855,2.855,0,0,0-1.361-3.836,3.28,3.28,0,0,0-1.526-.37C40.81,9.326,46.219,5.713,52.52,5.713c7.744,0,14.043,5.524,14.043,12.313s-6.3,12.313-14.043,12.313ZM59.509,14.5l-3.98-.5-1.706-3.631a1.441,1.441,0,0,0-2.608,0L49.51,14l-3.98.5a1.441,1.441,0,0,0-.806,2.48l2.926,2.744L46.9,23.666a1.441,1.441,0,0,0,2.11,1.533l3.514-1.935L56.034,25.2a1.428,1.428,0,0,0,1.541-.1,1.428,1.428,0,0,0,.568-1.436l-.754-3.94,2.926-2.744a1.441,1.441,0,0,0-.806-2.48Zm-3.636,4.3a.856.856,0,0,0-.255.786l.734,3.834-3.419-1.882a.857.857,0,0,0-.826,0l-3.419,1.882.734-3.834a.856.856,0,0,0-.255-.786l-2.847-2.67,3.873-.487a.856.856,0,0,0,.668-.486l1.66-3.533,1.66,3.533a.857.857,0,0,0,.668.486l3.873.487L55.873,18.8ZM19.9,20.311h.073a5.41,5.41,0,0,0,4.407-2.526,7.213,7.213,0,0,0,.646-7.145,5.376,5.376,0,0,0-5.058-2.775,5.392,5.392,0,0,0-5.019,2.7,7.106,7.106,0,0,0,.486,7.036A5.475,5.475,0,0,0,19.9,20.311Zm-3.445-8.923a3.71,3.71,0,0,1,3.515-1.809,3.7,3.7,0,0,1,3.541,1.858,5.517,5.517,0,0,1-.539,5.376A3.674,3.674,0,0,1,19.923,18.6a3.8,3.8,0,0,1-3.051-1.922,5.43,5.43,0,0,1-.422-5.288Z" transform="translate(17.14 18.803)" fill="#fff"/>
      </g>
    </g>
  </g>
</svg>
