<svg xmlns="http://www.w3.org/2000/svg" width="75.935" height="76.661" viewBox="0 0 75.935 76.661">
  <g id="Grupo_1100838" data-name="Grupo 1100838" transform="translate(11777.268 11769)">
    <g id="Grupo_1100021" data-name="Grupo 1100021" transform="translate(-12684.666 -12060)">
      <g id="Elipse_11533" data-name="Elipse 11533" transform="translate(913.333 291)" fill="#ed807c" stroke="#fff" stroke-width="3">
        <circle cx="35" cy="35" r="35" stroke="none"/>
        <circle cx="35" cy="35" r="33.5" fill="none"/>
      </g>
      <g id="derecho-laboral" transform="translate(924.186 302.215)">
        <g id="Grupo_1100016" data-name="Grupo 1100016" transform="translate(0.707 1.49)">
          <path id="Trazado_883347" data-name="Trazado 883347" d="M214.447,229.031V214.489l-4.7.94v13.508a3.712,3.712,0,0,1-1.688,3.328h6.75A10.776,10.776,0,0,1,214.447,229.031Z" transform="translate(-189.199 -195.099)" fill="#c5bec6"/>
          <path id="Trazado_883348" data-name="Trazado 883348" d="M231.654,192.775V174.47h-5.642v4.7c.7.066,1.607.1,2.821.1.337,0,.649,0,.94-.007v13.513a4.237,4.237,0,0,0,1.3,3.234h2.269A3.661,3.661,0,0,1,231.654,192.775Z" transform="translate(-205.466 -158.843)" fill="#a29aa5"/>
          <path id="Trazado_883349" data-name="Trazado 883349" d="M180.632,34.54c0-6.773-1.715-8.7-4.021-10.044h-6.582c-3.547,1.7-4.864,3.287-5.292,8.637,0,0,1.435,1.91,8.583,1.91a53.528,53.528,0,0,0,7.313-.5Z" transform="translate(-149.952 -22.971)" fill="#be6763"/>
          <path id="Trazado_883350" data-name="Trazado 883350" d="M176.61,24.5c1.466,1.278,2.958,3.57,3.074,8.482a.707.707,0,0,1-.6.717,39.766,39.766,0,0,1-5.761.407,33.634,33.634,0,0,1-8.583-.969v3.722H181.9V33.133c-.428-5.35-1.745-6.935-5.292-8.637Z" transform="translate(-149.952 -22.971)" fill="#be6763"/>
          <path id="Trazado_883351" data-name="Trazado 883351" d="M85.423,196.916a1.959,1.959,0,0,0-.555-.949,1.407,1.407,0,0,0-1.8,1.8,1.748,1.748,0,0,0,.949.555A1.411,1.411,0,0,0,85.423,196.916Z" transform="translate(-75.882 -178.241)" fill="#be6763"/>
          <path id="Trazado_883353" data-name="Trazado 883353" d="M22.27,341.366l.011-.009H8.629a1.043,1.043,0,0,0-1.047.947C11.568,344.992,19.312,344.868,22.27,341.366Z" transform="translate(-7.576 -310.037)" fill="#8f4d4b"/>
          <path id="Trazado_883354" data-name="Trazado 883354" d="M23.441,341.357H22.22l-.011.009c-3.472,2.77-10.429,3.082-14.688.938a1.043,1.043,0,0,0,.4.943c3.914,3.122,12.257,3.122,16.171,0a1.058,1.058,0,0,0-.649-1.89Z" transform="translate(-7.515 -310.037)" fill="#8f4d4b"/>
          <path id="Trazado_883355" data-name="Trazado 883355" d="M401.852,196.916a1.959,1.959,0,0,0-.555-.949,1.407,1.407,0,0,0-1.8,1.8,1.748,1.748,0,0,0,.949.555A1.411,1.411,0,0,0,401.852,196.916Z" transform="translate(-362.556 -178.241)" fill="#be6763"/>
          <path id="Trazado_883357" data-name="Trazado 883357" d="M338.7,341.366l.011-.009H325.058a1.043,1.043,0,0,0-1.047.947C328,344.992,335.741,344.868,338.7,341.366Z" transform="translate(-294.25 -310.037)" fill="#8f4d4b"/>
          <path id="Trazado_883358" data-name="Trazado 883358" d="M339.87,341.357h-1.221l-.011.009c-3.472,2.77-10.429,3.082-14.688.938a1.043,1.043,0,0,0,.4.943c3.914,3.122,12.257,3.122,16.171,0A1.058,1.058,0,0,0,339.87,341.357Z" transform="translate(-294.189 -310.037)" fill="#8f4d4b"/>
          <path id="Trazado_883359" data-name="Trazado 883359" d="M227.594,13.569V9.808c0-.842-1.474-1.525-3.291-1.525s-3.291.683-3.291,1.525v3.761Z" transform="translate(-200.936 -8.283)" fill="#8f4d4b"/>
          <path id="Trazado_883360" data-name="Trazado 883360" d="M227.594,55.524V49.808c0-.842-1.474-1.525-3.291-1.525s-3.291.683-3.291,1.525v5.714c.52.674,2.087,1.071,3.291,1.071s2.771-.394,3.291-1.069Z" transform="translate(-200.936 -44.522)" fill="#8f4d4b"/>
          <path id="Trazado_883361" data-name="Trazado 883361" d="M224.3,125.407c-1.2,0-2.306-.051-3.291-.13v2.615h6.582v-2.615C226.61,125.356,225.508,125.407,224.3,125.407Z" transform="translate(-200.936 -114.276)" fill="#8f4d4b"/>
          <path id="Trazado_883362" data-name="Trazado 883362" d="M194.326,393.492a4.321,4.321,0,0,0-1.26-2.723,7.768,7.768,0,0,0-5-1.742c-3.895,0-7.053,2.643-7.053,5.9a5.4,5.4,0,0,0,1.881,4.013l.916-4.964,4.256-2.457,3.291,2.84v3.015A3.8,3.8,0,0,0,194.326,393.492Z" transform="translate(-164.697 -353.224)" fill="#e1dee2"/>
          <path id="Trazado_883363" data-name="Trazado 883363" d="M205.627,403.507l-4.262,2.461a.705.705,0,0,0-.353.611v5.4a6.854,6.854,0,0,0,1.039.771.527.527,0,0,0,.842-.471v-4.881l3.291-1.9,3.291,1.9v-1.666a.705.705,0,0,0-.353-.611l-2.79-1.611A.705.705,0,0,0,205.627,403.507Z" transform="translate(-182.817 -366.257)" fill="#c5bec6"/>
          <path id="Trazado_883364" data-name="Trazado 883364" d="M292.723,407.557a5.067,5.067,0,0,1,.546,2.28,5.5,5.5,0,0,1-2.257,4.328v1.866a.527.527,0,0,0,.842.471,5.666,5.666,0,0,0,2.919-4.784A5.447,5.447,0,0,0,292.723,407.557Z" transform="translate(-264.354 -370.012)" fill="#c5bec6"/>
          <path id="Trazado_883365" data-name="Trazado 883365" d="M150.9,121.021l.98,1.151c.614.722,1.245,1.02,4.809,1.02s4.195-.3,4.809-1.02a12.068,12.068,0,0,0,1.432-3.705,31.756,31.756,0,0,1-6.241.544,24.5,24.5,0,0,1-7.776-.94l-.807-1.721a1.311,1.311,0,0,0-1.105.776l-.621,1.121C146.38,119.237,147.535,120.413,150.9,121.021Z" transform="translate(-133.322 -106.186)" fill="#be6763"/>
          <path id="Trazado_883366" data-name="Trazado 883366" d="M164.923,118.245l-.621-1.121a1.311,1.311,0,0,0-1.105-.776l-.807,1.721a11.328,11.328,0,0,1-1.536.4,14.643,14.643,0,0,1-1.714,2.765c-.614.722-1.236,1.02-4.527,1.02-3.564,0-4.759-.3-5.373-1.02l-.817-.96a.707.707,0,0,0-.406-.236c-3.135-.593-3.391-1.188-3.713-1.79-.651,1.176.053,2.434,3.823,3.115l1.1,1.29c.688.809,1.395,1.143,5.388,1.143s4.7-.334,5.388-1.143l1.1-1.29C164.87,120.679,165.574,119.421,164.923,118.245Z" transform="translate(-131.246 -106.186)" fill="#be6763"/>
        </g>
        <g id="Grupo_1100017" data-name="Grupo 1100017" transform="translate(0 0.785)">
          <path id="Trazado_883367" data-name="Trazado 883367" d="M48.045,33.281a1.732,1.732,0,0,0-1.255-1.13l-1.6-2.329a.705.705,0,1,0-1.163.8l1.02,1.486h-12.2L38.936,23.2l3.456,5.034a.705.705,0,1,0,1.163-.8l-3.5-5.1a2.115,2.115,0,1,0-3.107-2.519,18.712,18.712,0,0,1-5.367-1.391c-.4-.146-.8-.295-1.219-.44l.574-.675c2.329-.452,3.7-1.169,4.182-2.189A2.015,2.015,0,0,0,35,13.207l-.621-1.121a2.213,2.213,0,0,0-1.065-1.007,11.918,11.918,0,0,0-1.542-5.5,8.516,8.516,0,0,0-3.784-3.047c-.362-1.038-1.9-1.75-3.915-1.75s-3.553.712-3.915,1.75A11.854,11.854,0,0,0,17.7,4.086.705.705,0,0,0,18.61,5.16a8.906,8.906,0,0,1,1.467-.99V13.4a19.712,19.712,0,0,1-3.272-.6l-.6-1.271a13.611,13.611,0,0,1,.955-4.453.705.705,0,1,0-1.281-.59,14.107,14.107,0,0,0-1.05,4.6,2.213,2.213,0,0,0-1.065,1.007l-.621,1.121a2.015,2.015,0,0,0-.117,1.915c.484,1.02,1.853,1.738,4.182,2.189l.574.674c-.414.145-.821.294-1.219.44A18.707,18.707,0,0,1,11.2,19.817a2.116,2.116,0,1,0-3.107,2.519L1.357,32.15A1.732,1.732,0,0,0,.1,33.281a1.752,1.752,0,0,0,.569,1.971,13.929,13.929,0,0,0,8.525,2.5,13.929,13.929,0,0,0,8.525-2.5,1.752,1.752,0,0,0,.569-1.971,1.732,1.732,0,0,0-1.254-1.13L10.33,22.337a2.127,2.127,0,0,0,.883-1.107,19.551,19.551,0,0,0,5.841-1.48c.605-.222,1.229-.45,1.861-.659a4.259,4.259,0,0,0,1.632.53V35.329a3.021,3.021,0,0,1-1.385,2.752A6.281,6.281,0,0,0,16.316,43.2a6.385,6.385,0,0,0,3.259,5.387,1.35,1.35,0,0,0,.7.2,1.2,1.2,0,0,0,.59-.154,1.259,1.259,0,0,0,.623-1.122v-1.36a.705.705,0,1,0-1.411,0v1.082A4.931,4.931,0,0,1,17.727,43.2c0-2.866,2.847-5.2,6.347-5.2s6.347,2.332,6.347,5.2a4.931,4.931,0,0,1-2.351,4.034v-4.6a.705.705,0,0,0-.353-.611l-3.291-1.9a.705.705,0,0,0-.705,0l-3.291,1.9a.705.705,0,0,0-.353.611v.7a.705.705,0,1,0,1.411,0v-.293l2.586-1.493,2.586,1.493v4.474a1.23,1.23,0,0,0,1.913,1.074A6.385,6.385,0,0,0,31.832,43.2a6.281,6.281,0,0,0-2.847-5.116A2.971,2.971,0,0,1,27.6,35.423V26.04a.705.705,0,0,0-1.411,0v9.383A4.986,4.986,0,0,0,26.4,36.89a9.093,9.093,0,0,0-4.654,0,5.355,5.355,0,0,0,.215-1.562V19.755c.6.032,1.291.046,2.116.046s1.52-.015,2.116-.046v3.463a.705.705,0,0,0,1.411,0v-3.6a4.257,4.257,0,0,0,1.632-.53c.632.209,1.256.437,1.861.659a19.548,19.548,0,0,0,5.841,1.48,2.126,2.126,0,0,0,.883,1.107l-6.706,9.814a1.732,1.732,0,0,0-1.254,1.13,1.752,1.752,0,0,0,.569,1.971,13.929,13.929,0,0,0,8.525,2.5,13.929,13.929,0,0,0,8.525-2.5,1.753,1.753,0,0,0,.568-1.971ZM9.213,19.836a.705.705,0,1,1-.705.705A.706.706,0,0,1,9.213,19.836Zm7.629,14.313c-3.644,2.907-11.647,2.907-15.291,0a.347.347,0,0,1-.117-.4.326.326,0,0,1,.326-.231H5.088a.705.705,0,1,0,0-1.411H3.1L9.212,23.2,15.3,32.1H7.909a.705.705,0,1,0,0,1.411h8.724a.327.327,0,0,1,.326.231.347.347,0,0,1-.117.4Zm15.1-22.626-.6,1.272a19.7,19.7,0,0,1-3.272.6V4.169c2.517,1.4,3.494,2.971,3.868,7.354ZM24.074,2.2c1.669,0,2.586.615,2.586.819V5.035a6.344,6.344,0,0,0-2.586-.489,6.346,6.346,0,0,0-2.586.489V3.015C21.488,2.811,22.4,2.2,24.074,2.2ZM21.488,6.776c0-.2.917-.819,2.586-.819s2.586.615,2.586.819v6.749c-.771.052-1.632.084-2.586.084s-1.815-.032-2.586-.084ZM19.223,17.5l-1.1-1.29a.706.706,0,0,0-.412-.237c-2.684-.485-3.278-1.177-3.409-1.453a.623.623,0,0,1,.077-.627L15,12.769a1.259,1.259,0,0,1,.138-.2l.518,1.106a.706.706,0,0,0,.392.361,25.007,25.007,0,0,0,8.023.985,25.006,25.006,0,0,0,8.023-.985.705.705,0,0,0,.392-.361l.518-1.106a1.262,1.262,0,0,1,.138.2l.621,1.121a.622.622,0,0,1,.077.627c-.131.275-.724.968-3.409,1.453a.705.705,0,0,0-.412.237l-1.1,1.29c-.486.571-.951.895-4.851.895s-4.365-.323-4.851-.895Zm19.712,2.339a.705.705,0,1,1-.705.705A.706.706,0,0,1,38.934,19.836ZM46.6,34.149c-3.644,2.907-11.647,2.907-15.291,0a.347.347,0,0,1-.117-.4.327.327,0,0,1,.326-.231H46.388a.326.326,0,0,1,.326.231.347.347,0,0,1-.117.4Z" transform="translate(0 -0.785)"/>
          <path id="Trazado_883368" data-name="Trazado 883368" d="M248.512,219.086v9.5a.705.705,0,0,0,1.411,0v-9.5a.705.705,0,1,0-1.411,0Z" transform="translate(-225.143 -197.92)"/>
        </g>
      </g>
      <path id="Trazado_883369" data-name="Trazado 883369" d="M-11783-11268s11,29,43,26.5" transform="translate(12691.333 11608)" fill="none" stroke="#fff" stroke-width="2" stroke-dasharray="4"/>
    </g>
  </g>
</svg>
